<svg xmlns="http://www.w3.org/2000/svg" width="107" height="107" viewBox="0 0 107 107">
  <g id="Grupo_841788" data-name="Grupo 841788" transform="translate(-240 -1286.742)">
    <rect id="Rectángulo_38178" data-name="Rectángulo 38178" width="107" height="107" transform="translate(240 1286.742)" fill="none"/>
    <g id="Grupo_841809" data-name="Grupo 841809" transform="translate(1004.283 737.973)">
      <path id="Trazado_568143" data-name="Trazado 568143" d="M-735.586,600.029c-.808-.2-.91-.884-1.08-1.549a44.649,44.649,0,0,1-1.311-8.928c-.044-.894-.236-1.122-1.185-.941-7.467,1.421-16.309-3.981-18.575-11.289-.879-2.834.081-4.506,2.944-5.158,3.8-.865,7.609-1.452,11.511-.739a15.376,15.376,0,0,1,6.707,2.885c.825.633,1.321.76,1.716-.34a3,3,0,0,1,.524-.969c2.531-2.861,4.669-5.871,4.081-10.005a1.332,1.332,0,0,1,.157-.526c.6-1.777,1.245-3.64,3.42-3.9,2.294-.278,3.753,1.177,4.5,3.109.609,1.568,1.416,1.473,2.766,1.177a38.764,38.764,0,0,1,17.554.092c1.206.29,1.9.262,2.325-1.085a5.565,5.565,0,0,1,1.448-2.1c2.026-2.006,4.624-1.589,5.955.924a9.476,9.476,0,0,1,1.011,5.726,3.2,3.2,0,0,0,1.132,3.05,16.885,16.885,0,0,1,3.326,4.617c.269.523.4,1.183,1.289.51,4.953-3.764,10.585-3.828,16.379-2.876.788.129,1.569.307,2.348.485,2.659.609,3.63,2.266,2.883,4.9-2.071,7.326-11.212,13-18.6,11.54-.639-.126-1.156-.352-1.2.685-.3,6.5-2.317,12.68-3.607,19-1.126,5.507-1.065,11.136-1.818,16.68-.482,3.545-1.548,6.841-4.307,9.328a2.109,2.109,0,0,0-.58,1.827c.021,4.564-1.776,7.3-6.137,8.465a41.394,41.394,0,0,1-21.511.006c-4.377-1.16-6.18-3.9-6.172-8.444,0-.6.116-1.186-.441-1.691-3.556-3.222-4.367-7.556-4.738-12.029-.483-5.822-.79-11.663-2.095-17.382a1.744,1.744,0,0,1,.9-2.163c1.464-.715,1.881.41,2.221,1.379a27.044,27.044,0,0,1,1.088,5.5c2.806-3,6.25-5.138,8.531-8.36,2.629-3.716,2.169-7.792.352-11.751a49.554,49.554,0,0,0-2.443-4.331,14.825,14.825,0,0,1-2.464-8.726c.156-2.03-1.519-2.838-2.6-3.992-.5-.536-.9.349-1.195.754a22.032,22.032,0,0,0-4.061,12.233,48.377,48.377,0,0,0,1.109,12.073C-733.13,599.639-733.7,600.183-735.586,600.029Z" transform="translate(0 0)"/>
      <path id="Trazado_568144" data-name="Trazado 568144" d="M-697.246,621.787c1.562-.058,1.956-.81,1.58-2.3a40.651,40.651,0,0,1-1.127-12.772A21.963,21.963,0,0,1-691.176,593a8.626,8.626,0,0,0,2.8,3.13,1.076,1.076,0,0,1,.4,1.155c-.547,4.8,1.8,8.638,4.118,12.5,2.524,4.212,3.2,8.6.859,13.117a15.839,15.839,0,0,1-4.274,4.53c-1.822,1.53-3.5,3.216-5.4,5.049-.43-2.173-.811-4.074-1.182-5.976-.205-1.05-.6-1.892-1.881-1.83C-696.166,623.675-695.849,622.283-697.246,621.787Z" transform="translate(-38.34 -21.758)" fill="#424242"/>
      <path id="Trazado_568145" data-name="Trazado 568145" d="M-657.192,624.636a116.364,116.364,0,0,0-12.549,0c-.232-.081.1-.022-.127-.118-.273-.118-.561-.03-.829-.118.211.12.522-.012.671.266a85.505,85.505,0,0,0-12.637,2.96c-.535-.691-.278-1.492-.314-2.252a18.51,18.51,0,0,1,5.917-6.493c9.155-6.406,8.431-15.309,4.5-21.806-1.649-2.722-3.456-5.4-3.706-8.727-.107-1.421-.209-2.525,1.733-3.158,3.166-1.032,4.048-4.3,2.259-7.2-.642-1.041-.728-1.542.7-1.836a39.762,39.762,0,0,1,16.1-.026c1.491.3,1.437.872.75,1.987a4.66,4.66,0,0,0,2.461,7.17,2.187,2.187,0,0,1,1.65,2.7,14.947,14.947,0,0,1-2.065,6.233,40.657,40.657,0,0,0-3.239,5.98c-2.149,5.762-1.483,11.129,2.607,15.815.968,1.109,2.3,1.94,3.373,3.025,1.669,1.7,3.454,3.276,5.146,4.949a6.609,6.609,0,0,1,.846,1.4,10.683,10.683,0,0,0,.133,1.865c-.062.711-.544.534-.921.384a61.524,61.524,0,0,0-12.165-2.96c.149-.278.46-.146.672-.266C-656.548,624.5-656.929,624.329-657.192,624.636Z" transform="translate(-47.318 -10.609)" fill="#e5e0d6"/>
      <path id="Trazado_568146" data-name="Trazado 568146" d="M-664.286,735.236a11.482,11.482,0,0,1-4.15-.321c.148-.279.46-.147.671-.267-.313.1-.693-.071-.956.234a20.192,20.192,0,0,1-8.766-2.533c-3.414-1.962-4.357-5.458-4.826-9.079-.52-4.011-.516-4.108,3.369-5.269a53.077,53.077,0,0,1,33.483.656c1.351.471,2.129,1.075,1.6,2.64a7.516,7.516,0,0,0-.153,1.646c-.627,6.547-3.157,9.529-9.519,11.195a25.259,25.259,0,0,1-7.435,1.1A6.458,6.458,0,0,0-664.286,735.236Z" transform="translate(-47.605 -99.07)" fill="#ee9899"/>
      <path id="Trazado_568147" data-name="Trazado 568147" d="M-596.042,592.926a20.629,20.629,0,0,1,5.339,11.049c1.214,6.788-.385,13.287-1.965,19.8-.674,2.779-1.193,5.6-1.828,8.617-3.115-2.952-6.4-5.516-8.984-8.656-3.021-3.672-2.6-8.047-.749-12.206.921-2.066,2.2-3.97,3.3-5.961a13.011,13.011,0,0,0,1.744-7.246c-.084-1.243.05-2.244,1.295-2.945A5.4,5.4,0,0,0-596.042,592.926Z" transform="translate(-96.072 -21.713)" fill="#424242"/>
      <path id="Trazado_568148" data-name="Trazado 568148" d="M-650.552,772.322c3.49-.6,7.013-1.056,10.342-2.482.184,2.505-.638,3.955-2.814,4.972a17.834,17.834,0,0,1-6.087,1.364,47.294,47.294,0,0,1-13.6-.515c-3.619-.73-5.351-2.356-5.526-5.011a5.189,5.189,0,0,1,.1-.847c3.259,1.464,6.672,1.906,10.05,2.495-.282.3-.577.369-.808.15a4.639,4.639,0,0,0,2.518-.065l4.807-.009c.67.411,1.371.03,1.8.157A.743.743,0,0,1-650.552,772.322Z" transform="translate(-56.631 -133.24)" fill="#d88a8b"/>
      <path id="Trazado_568149" data-name="Trazado 568149" d="M-739.14,612.207c-5.063-1.1-8.389-4.376-10.769-8.752-.7-1.283-.549-2.154,1.288-2.51,4.077-.79,8.1-1.458,12.128.12a3.441,3.441,0,0,1,1.447.761c-.061,1.133-.761,1.011-1.52.776-1.83,0-3.661-.044-5.488.022a3.119,3.119,0,0,0-3.2,1.986c-.477,1.356.249,2.325,1.166,3.224a16.662,16.662,0,0,0,6.037,4.011C-738.151,612.749-738.705,612.3-739.14,612.207Z" transform="translate(-4.891 -26.239)" fill="#414141"/>
      <path id="Trazado_568150" data-name="Trazado 568150" d="M-548.21,611.783a16.749,16.749,0,0,0,6.167-4.14,2.87,2.87,0,0,0,1.043-3.1,2.921,2.921,0,0,0-2.837-1.952c-1.945-.122-3.9-.047-5.853-.055-.758.235-1.46.357-1.52-.777,3.545-2.111,7.36-1.985,11.232-1.342a22.85,22.85,0,0,0,2.335.493c1.893.109,2,1.194,1.3,2.479-2.38,4.379-5.71,7.646-10.771,8.752C-547.55,612.236-548.1,612.685-548.21,611.783Z" transform="translate(-130.422 -26.177)" fill="#414141"/>
      <path id="Trazado_568151" data-name="Trazado 568151" d="M-675.279,568.459a13.3,13.3,0,0,1,.416-1.573c.421-1.071,1.091-1,1.812-.291a2.413,2.413,0,0,1,.526.742c1.07,2.5,2.122,5,3.179,7.509a3.364,3.364,0,0,1-4.026-1.071A6.847,6.847,0,0,1-675.279,568.459Z" transform="translate(-52.174 -4.779)" fill="#fbc97e"/>
      <path id="Trazado_568152" data-name="Trazado 568152" d="M-600.993,574.974c.956-2.268,1.89-4.545,2.879-6.8.384-.875.823-2.078,1.917-1.874.915.171,1.047,1.358,1.115,2.286a6.5,6.5,0,0,1-3.368,6.36A2.039,2.039,0,0,1-600.993,574.974Z" transform="translate(-99.031 -4.91)" fill="#fbc97e"/>
      <path id="Trazado_568153" data-name="Trazado 568153" d="M-675.808,572.535a18.384,18.384,0,0,0,1.548,4.052,4.519,4.519,0,0,0,4.384,2.335c.155,1.248-.681,1.793-1.642,2.115a2.551,2.551,0,0,1-2.948-1.006A8.349,8.349,0,0,1-675.808,572.535Z" transform="translate(-51.645 -8.855)" fill="#e1b471"/>
      <path id="Trazado_568154" data-name="Trazado 568154" d="M-600.993,578.914a4.9,4.9,0,0,0,5.043-3.62c.34-.9.581-1.843.867-2.767a8.706,8.706,0,0,1-1.1,7.324A2.5,2.5,0,0,1-599,581.113C-599.994,580.806-601.008,580.256-600.993,578.914Z" transform="translate(-99.031 -8.85)" fill="#e1b471"/>
      <path id="Trazado_568155" data-name="Trazado 568155" d="M-713.589,618.948a1.267,1.267,0,0,1-1.113-.349,3.448,3.448,0,0,1,.363-3.641,4.958,4.958,0,0,1,2.08.6c2.173.9,2.244,1.118,1.3,3.5A15.316,15.316,0,0,0-713.589,618.948Z" transform="translate(-27.098 -35.603)" fill="#d48788"/>
      <path id="Trazado_568156" data-name="Trazado 568156" d="M-557.262,619.06c-.933-2.421-.875-2.607,1.3-3.5a4.929,4.929,0,0,1,2.08-.6,3.845,3.845,0,0,1,.364,3.641,1.274,1.274,0,0,1-1.115.35A15.05,15.05,0,0,0-557.262,619.06Z" transform="translate(-126.244 -35.603)" fill="#d48788"/>
      <path id="Trazado_568157" data-name="Trazado 568157" d="M-546.784,618.477l-.364-3.641.369-.029c1.012.19,2.019-.122,3.032-.025.649.062,1.367-.081,1.7.718A11.147,11.147,0,0,1-546.784,618.477Z" transform="translate(-132.983 -35.481)" fill="#eb9697"/>
      <path id="Trazado_568158" data-name="Trazado 568158" d="M-721.789,614.827l-.363,3.641a10.877,10.877,0,0,1-4.738-2.979c.561-1.08,1.587-.572,2.424-.717.774-.134,1.536.341,2.308.025Z" transform="translate(-19.649 -35.472)" fill="#eb9697"/>
      <path id="Trazado_568159" data-name="Trazado 568159" d="M-541.419,614.969c-1.481-.881-3.252.212-4.729-.693a9.875,9.875,0,0,1,4.617-.162C-540.465,614.255-540.786,614.6-541.419,614.969Z" transform="translate(-133.613 -34.951)" fill="#f49c9d"/>
      <path id="Trazado_568160" data-name="Trazado 568160" d="M-723.15,614.277c-1.479.9-3.249-.187-4.732.691-.642-.377-.944-.715.115-.854A9.885,9.885,0,0,1-723.15,614.277Z" transform="translate(-18.655 -34.951)" fill="#f49c9d"/>
      <path id="Trazado_568161" data-name="Trazado 568161" d="M-555.338,604.761c.283.7.878.782,1.52.777-1.254.584-2.682.559-3.939,1.21A3.633,3.633,0,0,1-555.338,604.761Z" transform="translate(-126.293 -29.175)" fill="#373737"/>
      <path id="Trazado_568162" data-name="Trazado 568162" d="M-713.136,605.538c.641.006,1.236-.081,1.52-.776a6.126,6.126,0,0,1,2.926,2.16Z" transform="translate(-28.321 -29.176)" fill="#373737"/>
      <path id="Trazado_568163" data-name="Trazado 568163" d="M-556.284,625.159a2.053,2.053,0,0,1,2.624-.111A3.135,3.135,0,0,1-556.284,625.159Z" transform="translate(-127.222 -41.703)" fill="#e08f90"/>
      <path id="Trazado_568164" data-name="Trazado 568164" d="M-711.053,625.048a2.061,2.061,0,0,1,2.628.112A3.142,3.142,0,0,1-711.053,625.048Z" transform="translate(-29.634 -41.703)" fill="#e08f90"/>
      <path id="Trazado_568165" data-name="Trazado 568165" d="M-683.632,710.8c.565.686.2,1.5.314,2.252C-684.374,712.438-684.1,711.635-683.632,710.8Z" transform="translate(-46.663 -96.039)" fill="#f0ebe1"/>
      <path id="Trazado_568166" data-name="Trazado 568166" d="M-720.1,632.24c.387-.053.833.071,1.094-.362a1.764,1.764,0,0,1,1.41.747C-718.634,632.517-719.386,632.848-720.1,632.24Z" transform="translate(-23.929 -46.273)" fill="#272727"/>
      <path id="Trazado_568167" data-name="Trazado 568167" d="M-577.763,712.678a1.261,1.261,0,0,1-.133-1.865C-577.331,711.4-577.539,712.037-577.763,712.678Z" transform="translate(-113.376 -96.045)" fill="#f0ebe1"/>
      <path id="Trazado_568168" data-name="Trazado 568168" d="M-633.11,767.989a3.377,3.377,0,0,1,3.321,0A9.171,9.171,0,0,1-633.11,767.989Z" transform="translate(-78.78 -131.823)" fill="#faa0a1"/>
      <path id="Trazado_568169" data-name="Trazado 568169" d="M-545.095,631.88c.261.434.707.309,1.094.362-.685.585-1.47.322-2.268.3C-546.05,631.942-545.568,631.919-545.095,631.88Z" transform="translate(-133.537 -46.275)" fill="#272727"/>
      <path id="Trazado_568170" data-name="Trazado 568170" d="M-640.5,776.64c-.807.631-1.683.3-2.565.076l.855-.162Z" transform="translate(-72.502 -137.498)" fill="#e39192"/>
      <path id="Trazado_568171" data-name="Trazado 568171" d="M-622.1,776.622l1.208.161c-.767.215-1.537.518-2.223-.109Z" transform="translate(-85.083 -137.54)" fill="#e29192"/>
      <path id="Trazado_568172" data-name="Trazado 568172" d="M-650.214,708.185l-1.374-.183c.735-.317,1.232-.338,1.659.152l-.135.083Z" transform="translate(-67.129 -94.128)" fill="#f1ece2"/>
      <path id="Trazado_568173" data-name="Trazado 568173" d="M-613.133,708.2c.418-.561.942-.337,1.466-.127l-1.181.157-.15.052Z" transform="translate(-91.377 -94.175)" fill="#f1ece2"/>
      <path id="Trazado_568174" data-name="Trazado 568174" d="M-645.113,767.127c.43-.488.927-.471,1.694-.133l-1.409.167-.15.044Z" transform="translate(-71.212 -131.315)" fill="#f99fa0"/>
      <path id="Trazado_568175" data-name="Trazado 568175" d="M-681.635,649.793a3.569,3.569,0,0,1,3.484,3.7c-.024,1.612-1.032,1.9-2.33,1.847a3.773,3.773,0,0,1-3.638-3.81C-684.057,650.29-683.274,649.743-681.635,649.793Z" transform="translate(-46.615 -57.567)"/>
      <path id="Trazado_568176" data-name="Trazado 568176" d="M-662.108,728.76c.026,3.193-1.245,5.276-3.283,5.848-1.97.554-4.265-.618-5.581-2.963a7.7,7.7,0,0,1-.6-7.218,3.973,3.973,0,0,1,6.109-1.8A7.536,7.536,0,0,1-662.108,728.76Z" transform="translate(-54.124 -102.996)" fill="#010101"/>
      <path id="Trazado_568177" data-name="Trazado 568177" d="M-615.384,728.86a7.766,7.766,0,0,1,2.885-5.9,4.115,4.115,0,0,1,6.794,1.955,8,8,0,0,1-.883,6.883c-1.3,2.24-3.549,3.355-5.482,2.83C-614.122,734.072-615.409,731.992-615.384,728.86Z" transform="translate(-89.957 -103.01)" fill="#010101"/>
      <path id="Trazado_568178" data-name="Trazado 568178" d="M-588.373,649.816c.969.108,2.124.275,2.07,1.938a3.814,3.814,0,0,1-3.9,3.6c-1.312-.02-2.1-.512-2.072-1.968A3.628,3.628,0,0,1-588.373,649.816Z" transform="translate(-104.527 -57.584)"/>
      <path id="Trazado_568179" data-name="Trazado 568179" d="M-664.085,731.062c.645-1.843,1.63-2.1,2.9-.721a3.474,3.474,0,0,1,1.1,2.2c.029.98-.008,1.96.016,2.939-.775,1.487-1.439,1.673-2.567.626a4.188,4.188,0,0,1-1.489-3.2A2.085,2.085,0,0,0-664.085,731.062Z" transform="translate(-59.229 -107.807)" fill="#cc5a60"/>
      <path id="Trazado_568180" data-name="Trazado 568180" d="M-653.839,740.728a2.889,2.889,0,0,1-.016-2.94A3.247,3.247,0,0,1-653.839,740.728Z" transform="translate(-65.451 -113.054)" fill="#d75e65"/>
      <path id="Trazado_568181" data-name="Trazado 568181" d="M-664.326,733.786a1.262,1.262,0,0,1-.032,1.841A2.771,2.771,0,0,1-664.326,733.786Z" transform="translate(-58.988 -110.53)" fill="#da6066"/>
      <path id="Trazado_568182" data-name="Trazado 568182" d="M-607.093,732.553a3.7,3.7,0,0,1,1.111-2.2c1.268-1.366,2.267-1.109,2.9.722a2.483,2.483,0,0,0,.03,1.842,4.2,4.2,0,0,1-1.49,3.212c-1.126,1.044-1.8.855-2.578-.632C-607.07,734.516-607.131,733.534-607.093,732.553Z" transform="translate(-95.168 -107.819)" fill="#cc5a60"/>
      <path id="Trazado_568183" data-name="Trazado 568183" d="M-607.675,737.787a2.864,2.864,0,0,1-.027,2.943A3.24,3.24,0,0,1-607.675,737.787Z" transform="translate(-94.586 -113.053)" fill="#d65e65"/>
      <path id="Trazado_568184" data-name="Trazado 568184" d="M-596.823,735.626a1.255,1.255,0,0,1-.03-1.842A2.338,2.338,0,0,1-596.823,735.626Z" transform="translate(-101.398 -110.529)" fill="#da6066"/>
    </g>
  </g>
</svg>
