<svg xmlns="http://www.w3.org/2000/svg" xmlns:xlink="http://www.w3.org/1999/xlink" width="166" height="166" viewBox="0 0 166 166">
  <defs>
    <clipPath id="clip-path">
      <circle id="Elipse_7056" data-name="Elipse 7056" cx="83" cy="83" r="83" transform="translate(387 2995)" fill="#fff" stroke="#707070" stroke-width="1"/>
    </clipPath>
  </defs>
  <g id="Enmascarar_grupo_700149" data-name="Enmascarar grupo 700149" transform="translate(-387 -2995)" clip-path="url(#clip-path)">
    <g id="Grupo_841842" data-name="Grupo 841842" transform="translate(-4262.625 2651.231)">
      <path id="Trazado_568906" data-name="Trazado 568906" d="M4695.641,427.046c1.4-1.031.341-2.759,1.121-3.966a1.617,1.617,0,0,1,.961-1.578c.2-.041.424-.033.545-.252-.217-2.358.275-4.737-.34-7.067a1.613,1.613,0,0,1-.2-.557c.185-1.648,1.425-2.064,2.757-2.227a30.694,30.694,0,0,1,4.673-.057c2.094.066,2.62.549,2.7,2.7a4.711,4.711,0,0,0,2.567,4.466c2.569,1.314,4.762.348,6.58-2.922.651-1.019.06-2.3.7-3.323a1.4,1.4,0,0,1,.543-.391,65.009,65.009,0,0,1,9.668-.046,1.653,1.653,0,0,1,.576.311c.753.971.2,2.209.665,3.24a6.943,6.943,0,0,0,1.7,2.563c2.986,2.466,6.4.932,7.742-2.517.472-1.015-.045-2.216.6-3.2a1.465,1.465,0,0,1,.548-.365,67.4,67.4,0,0,1,9.635-.033,1.661,1.661,0,0,1,.574.311c.752.971.2,2.21.665,3.242a6.933,6.933,0,0,0,1.689,2.551c2.949,2.436,6.33,1.006,7.733-2.446.483-.973.043-2.1.5-3.076a1.053,1.053,0,0,1,.438-.432,3.2,3.2,0,0,1,2.553.075,1.847,1.847,0,0,1,.489.5,3.074,3.074,0,0,1,.411,1.017,16.184,16.184,0,0,1,.156,3.111q.005,27.2,0,54.407a10.772,10.772,0,0,1-.217,3.1,1.158,1.158,0,0,1-.646.752,1.309,1.309,0,0,1-.588.042c-.725-.19-.576-1.278-1.4-1.375a35.172,35.172,0,0,0-3.3-2.226c-9.217-.081-18.424,0-27.631-.037a18.5,18.5,0,0,1-4.265-.189.225.225,0,0,0-.042.11,1.167,1.167,0,0,0,.021.194c-.271.572-.847.78-1.316,1.118a3.819,3.819,0,0,0-1.843,4,4.142,4.142,0,0,0,3.3,3.212,8.525,8.525,0,0,0,2.324.177c9.092,0,18.185-.022,27.277.02a7.165,7.165,0,0,0,5.046-1.641,6.783,6.783,0,0,0,1.988-1.257c.534-.284.834-.039,1.032.449a132.405,132.405,0,0,1,.122,15.35,1.833,1.833,0,0,1-.337.9,1.517,1.517,0,0,1-.624.43,12.421,12.421,0,0,1-3.1.158q-28.557.011-57.113.009a14.1,14.1,0,0,0-2.912.12c-.219.088-.439.178-.656.276-1.313.1-1.955-.506-1.914-1.831.085-.223.178-.441.271-.661a4.989,4.989,0,0,0,.131-1.355c-.011-20.584.043-41.167-.03-61.742a1.221,1.221,0,0,0-.454-.7C4697.146,427.839,4696.224,427.682,4695.641,427.046Z" transform="translate(-1.255 -21.009)" fill="#d7ebfd"/>
      <path id="Trazado_568907" data-name="Trazado 568907" d="M4759.189,394.761a5.317,5.317,0,0,1-4.775,3.831c-2.618.117-4.466-1.349-5.426-3.832-.446-1.146.138-2.393-.346-3.536l0,.005a61.992,61.992,0,0,0-10.58,0l0,0c-.487,1.142.1,2.388-.347,3.534-.848,2.21-2.438,3.729-4.777,3.832-2.618.115-4.469-1.346-5.428-3.832-.443-1.146.143-2.392-.345-3.534l0,0a62.021,62.021,0,0,0-10.579,0l0,0c-.484,1.142.1,2.389-.348,3.535-.867,2.207-2.431,3.7-4.814,3.823a5.109,5.109,0,0,1-4.929-2.853,6.084,6.084,0,0,1-.556-3.4c.061-.985-.235-1.4-1.293-1.354-1.873.075-3.752-.014-5.626.037-1.166.032-2.173.393-2.324,1.8a14.515,14.515,0,0,1-.065,7.688,3,3,0,0,1-1.143,1.575c-1.375-.025-1.959-.71-1.924-2.1.056-2.21-.025-4.424.027-6.635a5.1,5.1,0,0,1,5.344-5.235c1.821-.035,3.646-.075,5.462.016,1.165.058,1.643-.237,1.556-1.493a41.471,41.471,0,0,1,0-4.681,5.184,5.184,0,0,1,10.366-.04c.075,1.688.056,3.383.011,5.073-.021.838.254,1.142,1.112,1.131,2.927-.039,5.854-.05,8.781.005.978.019,1.223-.357,1.189-1.254-.055-1.494-.039-2.992-.007-4.488.069-3.324,2.212-5.585,5.239-5.565s5.1,2.287,5.163,5.644c.027,1.431.054,2.864-.01,4.292-.043.965.176,1.4,1.271,1.374,2.86-.072,5.724-.057,8.585-.005.934.016,1.264-.271,1.229-1.216-.061-1.624-.059-3.253,0-4.878a5.189,5.189,0,1,1,10.378.006c.064,1.624.064,3.254,0,4.878-.036.952.308,1.238,1.235,1.21,1.95-.058,3.9-.049,5.854-.006a5.059,5.059,0,0,1,5.262,5.312q.04,29.955.034,59.911c0,1.22-.361,2.005-1.578,2.3-1.435.045-1.683-1.069-2.038-2.085a41.838,41.838,0,0,1-.081-4.286q-.005-27.778,0-55.55c.025-.829-.079-1.6-.98-1.978-.19-.068-.374-.146-.559-.227-2.312.161-4.573-.862-6.9-.276l0,0C4759.056,392.368,4759.635,393.615,4759.189,394.761Z" transform="translate(0)" fill="#000101"/>
      <path id="Trazado_568908" data-name="Trazado 568908" d="M4694.4,451.553a1.8,1.8,0,0,1,2.261,1.338c.646.556.451,1.318.451,2.007q.02,30.3,0,60.6a3,3,0,0,1-.378,2.06,1.9,1.9,0,0,0,1.557,1.557c.814-.6,1.756-.374,2.646-.374q30.514-.021,61.025-.012a39.378,39.378,0,0,1,4.424-.171,1.522,1.522,0,0,0,1.591-1.68c.1-3.473-.169-6.947.145-10.414.473-1.3,1.223-2.076,2.718-1.424a2.317,2.317,0,0,1,.833,2.064c-.032,3.184.011,6.37-.02,9.555-.032,3.479-2.121,5.577-5.6,5.579q-33.439.018-66.878,0c-3.464,0-5.56-2.116-5.562-5.614q-.022-31.394-.017-62.788A2.538,2.538,0,0,1,4694.4,451.553Z" transform="translate(-0.009 -45.516)" fill="#010202"/>
      <path id="Trazado_568909" data-name="Trazado 568909" d="M4877.9,482.157a1.787,1.787,0,0,0-2.229,1.325c-.321.042-.417.268-.448.551.005,3.376-.089,6.749.05,10.121a1.671,1.671,0,0,0,.32.521,1.887,1.887,0,0,1-1.557,1.557,1.534,1.534,0,0,0-.5-.319c-1.249-.3-2.612.339-3.8-.461q0-8.388,0-16.777a1.681,1.681,0,0,1,0-2.344q0-30.832,0-61.664c1.282-.957,2.749-.4,4.134-.507a1.189,1.189,0,0,0,.552-.208,1.437,1.437,0,0,1,1.176,1.494,1.688,1.688,0,0,0-.337.638c-.129,8.107-.041,16.215-.051,24.322q-.021,17.8,0,35.6c.027.284.095.546.448.6a2.368,2.368,0,0,0,1.5,1.661C4877.371,479.571,4876.617,481.058,4877.9,482.157Z" transform="translate(-107.073 -22.637)" fill="#c3e1fe"/>
      <path id="Trazado_568910" data-name="Trazado 568910" d="M4804.089,571.4a5.283,5.283,0,0,1-4.479,2.286q-14.988-.035-29.979-.008a4.639,4.639,0,0,1-4.565-2.716,4.374,4.374,0,0,1,.715-4.9,6.563,6.563,0,0,1,2.806-1.652c.386-.351.861-.228,1.3-.228q14.795-.01,29.592,0c.439,0,.917-.131,1.294.239a6.525,6.525,0,0,1,3.3,2.28c.809.259.324,1.26.939,1.63a1.981,1.981,0,0,1,.11,1.415C4804.878,570.351,4804.777,571.058,4804.089,571.4Z" transform="translate(-43.289 -114.177)" fill="#010202"/>
      <path id="Trazado_568911" data-name="Trazado 568911" d="M4768.647,475.061a6.953,6.953,0,0,1-2.684-1.476,4.394,4.394,0,0,1-.973-4.851,4.331,4.331,0,0,1,4.2-2.917q15.457-.056,30.914,0c2.572.011,3.927,1.669,4.639,3.969a.6.6,0,0,1,.025.977,5.286,5.286,0,0,1-4.353,4.325c-.568.619-1.324.429-2.012.43q-13.88.022-27.761,0C4769.958,475.515,4769.2,475.713,4768.647,475.061Z" transform="translate(-43.303 -54.226)" fill="#010102"/>
      <path id="Trazado_568912" data-name="Trazado 568912" d="M4804.5,521.028a4.261,4.261,0,0,1-4.22,3.538q-15.6.069-31.2,0a4.533,4.533,0,0,1-.009-9.064q15.6-.084,31.2-.008c2.133.007,3.455,1.28,4.219,3.193C4804.986,519.464,4805.412,520.244,4804.5,521.028Z" transform="translate(-43.319 -84.502)" fill="#020202"/>
      <path id="Trazado_568913" data-name="Trazado 568913" d="M4727.846,461.805c2.68-3.186,5.189-6.182,7.714-9.165a1.392,1.392,0,0,1,2.2-.272,1.36,1.36,0,0,1,.086,2.073c-3.027,3.649-6.041,7.309-9.123,10.911a1.33,1.33,0,0,1-2.295-.25c-.97-1.451-1.873-2.949-2.75-4.458a1.343,1.343,0,0,1,.536-2,1.4,1.4,0,0,1,2,.593C4726.733,460.037,4727.24,460.852,4727.846,461.805Z" transform="translate(-18.19 -45.791)" fill="#020202"/>
      <path id="Trazado_568914" data-name="Trazado 568914" d="M4727.4,565.087c-.09-.043-.473-.105-.642-.329a27.614,27.614,0,0,1-3.236-5.267c-.3-.656.117-1.245.761-1.6a1.315,1.315,0,0,1,1.6.261,3.537,3.537,0,0,1,.259.287c.675.716.764,2.208,1.856,2.2,1.034-.01,1.34-1.411,2.024-2.145,1.82-1.953,3.459-4.075,5.162-6.137.658-.8,1.4-1.541,2.445-.766,1.186.883.5,1.8-.194,2.632q-4.183,5.038-8.364,10.076A1.718,1.718,0,0,1,4727.4,565.087Z" transform="translate(-18.185 -106.321)" fill="#010202"/>
      <path id="Trazado_568915" data-name="Trazado 568915" d="M4725.41,507.861c.146.124.289.252.438.371.941.748,1.06,2.669,2.332,2.517.845-.1,1.542-1.552,2.276-2.423q2.4-2.851,4.772-5.73c.7-.85,1.476-1.662,2.583-.733,1.021.857.42,1.727-.244,2.523-2.77,3.323-5.516,6.665-8.307,9.97-1.173,1.389-2.049,1.316-3.042-.194-.748-1.136-1.4-2.335-2.164-3.459a1.8,1.8,0,0,1,.438-2.828A.525.525,0,0,1,4725.41,507.861Z" transform="translate(-18.269 -75.963)" fill="#010202"/>
      <path id="Trazado_568916" data-name="Trazado 568916" d="M4701.35,518.93a13.492,13.492,0,0,1-.17-1.531q-.013-30.987,0-61.974c0-.386.063-.772.1-1.158l.458-.517a2.989,2.989,0,0,1,.188,1.713q.012,30.878,0,61.756a2.987,2.987,0,0,1-.188,1.713Z" transform="translate(-4.626 -46.892)" fill="#e8fefe"/>
      <path id="Trazado_568917" data-name="Trazado 568917" d="M4702.6,518.932q0-32.59,0-65.181c.638.574.384,1.337.384,2.019q.019,30.572,0,61.143C4702.984,517.6,4703.238,518.358,4702.6,518.932Z" transform="translate(-5.496 -46.892)" fill="#d2e6f8"/>
      <path id="Trazado_568918" data-name="Trazado 568918" d="M4769.613,623.727c-.513.042-1.027.121-1.541.121q-30.368.009-60.735,0a17.14,17.14,0,0,1-1.725-.169q0-.19,0-.38a4.072,4.072,0,0,1,2.1-.186q30.5-.016,60.993-.009a6.742,6.742,0,0,1,.741.028A.38.38,0,0,1,4769.613,623.727Z" transform="translate(-7.331 -150.082)" fill="#e8fefe"/>
      <path id="Trazado_568919" data-name="Trazado 568919" d="M4769.616,622.96l-64.005.005c.641-.674,1.472-.382,2.216-.382q30.9-.024,61.791-.012c.1.087.131.173.1.26S4769.649,622.96,4769.616,622.96Z" transform="translate(-7.331 -149.749)" fill="#d2e6f8"/>
      <path id="Trazado_568920" data-name="Trazado 568920" d="M4806.3,564.055l-32.188-.012c-.168-.094-.656-.194-.319-.365a3.685,3.685,0,0,1,1.533-.067q14.9,0,29.807.01c.536,0,1.111-.2,1.611.175a.253.253,0,0,1-.079.131A3.518,3.518,0,0,1,4806.3,564.055Z" transform="translate(-48.816 -113.818)" fill="#ddf1fe"/>
      <path id="Trazado_568921" data-name="Trazado 568921" d="M4806.738,490.415c-.51.587-1.2.382-1.822.382q-14.764.017-29.528,0c-.623,0-1.313.2-1.824-.381a2.149,2.149,0,0,1,1.322-.188q15.265-.007,30.53,0A2.163,2.163,0,0,1,4806.738,490.415Z" transform="translate(-48.745 -69.114)" fill="#d4e8f9"/>
      <path id="Trazado_568922" data-name="Trazado 568922" d="M4806.738,490h-33.174l.525-.467,31.769.026Z" transform="translate(-48.745 -68.701)" fill="#e2f7fe"/>
      <path id="Trazado_568923" data-name="Trazado 568923" d="M4774.565,513.065c.509-.589,1.2-.382,1.822-.383q14.374-.017,28.748,0c.623,0,1.313-.205,1.822.384a2.178,2.178,0,0,1-1.322.185q-14.873.007-29.747,0A2.174,2.174,0,0,1,4774.565,513.065Z" transform="translate(-49.355 -82.787)" fill="#d4e8f9"/>
      <path id="Trazado_568924" data-name="Trazado 568924" d="M4774.565,513.717h32.392c-.52.57-1.208.362-1.83.362q-14.366.018-28.732,0C4775.773,514.079,4775.084,514.287,4774.565,513.717Z" transform="translate(-49.355 -83.439)" fill="#e2f8fe"/>
      <path id="Trazado_568925" data-name="Trazado 568925" d="M4774.564,540.062c.515-.578,1.205-.371,1.827-.371q14.369-.018,28.739,0c.622,0,1.311-.207,1.827.371a2.148,2.148,0,0,1-1.321.188q-14.875.007-29.75,0A2.158,2.158,0,0,1,4774.564,540.062Z" transform="translate(-49.355 -99.246)" fill="#e0f4fe"/>
      <path id="Trazado_568926" data-name="Trazado 568926" d="M4774.564,540.7h32.393c-.509.589-1.2.383-1.822.384q-14.374.017-28.749,0C4775.764,541.078,4775.073,541.284,4774.564,540.7Z" transform="translate(-49.355 -99.881)" fill="#d4e8fa"/>
      <path id="Trazado_568927" data-name="Trazado 568927" d="M4752.522,413.2a41.348,41.348,0,0,1,10.58,0Z" transform="translate(-35.921 -21.974)" fill="#c0d2db"/>
      <path id="Trazado_568928" data-name="Trazado 568928" d="M4807.488,413.205a41.333,41.333,0,0,1,10.58,0Z" transform="translate(-69.42 -21.974)" fill="#c0d2db"/>
      <path id="Trazado_568929" data-name="Trazado 568929" d="M4702.241,417.777c.846,2.687.242,5.431.321,8.149,0,.032-.084.089-.134.095a.524.524,0,0,1-.184-.05A36.032,36.032,0,0,1,4702.241,417.777Z" transform="translate(-5.136 -24.968)" fill="#d2e6f8"/>
      <path id="Trazado_568930" data-name="Trazado 568930" d="M4701.676,417.776q0,4.1,0,8.193l-.458-.506a43.1,43.1,0,0,1,.066-7.687Z" transform="translate(-4.571 -24.967)" fill="#e8fefe"/>
      <path id="Trazado_568931" data-name="Trazado 568931" d="M4862.445,413.213a22.207,22.207,0,0,1,7.5-.021,7.039,7.039,0,0,1-4.751.155Z" transform="translate(-102.914 -21.985)" fill="#bbcdd6"/>
      <path id="Trazado_568932" data-name="Trazado 568932" d="M4874.566,414.4c-1.494.865-3.124.2-4.677.417l-.38-.386A14.65,14.65,0,0,1,4874.566,414.4Z" transform="translate(-107.219 -22.783)" fill="#c0ddfa"/>
      <path id="Trazado_568933" data-name="Trazado 568933" d="M4874.556,414.052l-5.057.031c0-.095,0-.189-.006-.283l4.751-.155a.254.254,0,0,1,.321.108Q4874.557,413.9,4874.556,414.052Z" transform="translate(-107.21 -22.438)" fill="#d0f0fe"/>
      <path id="Trazado_568934" data-name="Trazado 568934" d="M4868.947,573.676q0,1.172,0,2.344l-.777.389-.188-.256a6.669,6.669,0,0,1,.187-2.476Z" transform="translate(-106.274 -119.981)" fill="#d4e8fa"/>
      <path id="Trazado_568935" data-name="Trazado 568935" d="M4869.492,622.962c0-.13,0-.26,0-.39l.382-.005c1.425.214,2.932-.443,4.3.4a12.182,12.182,0,0,1-4.686,0Z" transform="translate(-107.206 -149.751)" fill="#bfdcf9"/>
      <path id="Trazado_568936" data-name="Trazado 568936" d="M4866.646,526.058c.4-.783-.095-1.561-.009-2.342C4867.649,524.792,4867.652,525.533,4866.646,526.058Z" transform="translate(-105.462 -89.533)" fill="#e3f8fe"/>
      <path id="Trazado_568937" data-name="Trazado 568937" d="M4861.57,417.256c.2-1.17-.247-2.4.346-3.537C4861.895,414.907,4862.313,416.138,4861.57,417.256Z" transform="translate(-102.381 -22.495)" fill="#bbcdd6"/>
      <path id="Trazado_568938" data-name="Trazado 568938" d="M4751.647,417.256c.208-1.169-.247-2.4.347-3.535C4751.96,414.907,4752.389,416.139,4751.647,417.256Z" transform="translate(-35.388 -22.496)" fill="#c0d2db"/>
      <path id="Trazado_568939" data-name="Trazado 568939" d="M4779.456,413.725c.59,1.131.136,2.365.344,3.534C4779.062,416.142,4779.49,414.911,4779.456,413.725Z" transform="translate(-52.279 -22.498)" fill="#c0d2db"/>
      <path id="Trazado_568940" data-name="Trazado 568940" d="M4806.614,417.259c.208-1.169-.243-2.4.346-3.534C4806.926,414.911,4807.354,416.142,4806.614,417.259Z" transform="translate(-68.888 -22.498)" fill="#c0d2db"/>
      <path id="Trazado_568941" data-name="Trazado 568941" d="M4834.42,413.72c.6,1.132.137,2.366.346,3.536C4834.025,416.138,4834.454,414.906,4834.42,413.72Z" transform="translate(-85.777 -22.495)" fill="#c0d2db"/>
      <path id="Trazado_568942" data-name="Trazado 568942" d="M4866.3,572.177l-.644-1.705c1.624-.474.9.564.777,1.21A.315.315,0,0,1,4866.3,572.177Z" transform="translate(-104.872 -117.955)" fill="#d4e8fa"/>
      <path id="Trazado_568943" data-name="Trazado 568943" d="M4865.7,580.037l.635-1.705c.387.187.153.684.458.912l0,0C4866.715,579.912,4866.577,580.488,4865.7,580.037Z" transform="translate(-104.895 -122.819)" fill="#d4e8fa"/>
      <path id="Trazado_568944" data-name="Trazado 568944" d="M4867.771,576.407l-.458-.911q0-.646-.006-1.292.066-.248.133-.5a1.894,1.894,0,0,1,.332-.031Z" transform="translate(-105.877 -119.982)" fill="#e4f9fd"/>
      <path id="Trazado_568945" data-name="Trazado 568945" d="M4867.361,477q-.012-.489-.024-.977c.753.348.491.9.285,1.438Q4867.492,477.233,4867.361,477Z" transform="translate(-105.896 -60.468)" fill="#e3f8fe"/>
      <path id="Trazado_568946" data-name="Trazado 568946" d="M4726.6,517.093l-.918.015c-.478-.592.159-.477.336-.436C4726.222,516.721,4726.914,516.285,4726.6,517.093Z" transform="translate(-19.454 -85.194)" fill="#e0f5fe"/>
      <path id="Trazado_568947" data-name="Trazado 568947" d="M4737.451,398.933c-1.4,1.725-2.444,1.725-3.838,0-.064-4.422-.007-8.844-.035-13.265,1.331-1.812,2.582-1.811,3.908,0C4737.467,390.09,4737.523,394.512,4737.451,398.933Z" transform="translate(-24.376 -4.57)" fill="#26a5fd"/>
      <path id="Trazado_568948" data-name="Trazado 568948" d="M4792.417,398.933c-1.4,1.726-2.441,1.725-3.836,0-.067-4.421-.011-8.843-.036-13.264,1.332-1.813,2.583-1.813,3.908,0C4792.431,390.089,4792.488,394.511,4792.417,398.933Z" transform="translate(-57.876 -4.57)" fill="#26a5fd"/>
      <path id="Trazado_568949" data-name="Trazado 568949" d="M4845.3,384.861c1.362-.831,2.459-.655,3.21.842-.026,4.422.032,8.844-.037,13.265a1.94,1.94,0,0,1-3.1.8A96.864,96.864,0,0,0,4845.3,384.861Z" transform="translate(-92.464 -4.605)" fill="#0592fa"/>
      <path id="Trazado_568950" data-name="Trazado 568950" d="M4884.607,478.935l-.454.507a3.023,3.023,0,0,1-.185-1.713q-.012-29.121,0-58.241a3,3,0,0,1,.188-1.713l.387,0a13.949,13.949,0,0,1,.164,1.532q.014,29.235,0,58.47C4884.71,478.164,4884.643,478.549,4884.607,478.935Z" transform="translate(-116.011 -24.966)" fill="#d3f3fe"/>
      <path id="Trazado_568951" data-name="Trazado 568951" d="M4887.9,419.025v60.7h-.195V418.966Z" transform="translate(-118.311 -25.692)" fill="#030404"/>
      <path id="Trazado_568952" data-name="Trazado 568952" d="M4844.208,385.632a3.32,3.32,0,0,1,.853,2.485c.017,3.3.01,6.6.006,9.9a3.762,3.762,0,0,1-.781,2.523.912.912,0,0,1-.741-.8c-.069-4.421-.012-8.842-.036-13.264A.915.915,0,0,1,4844.208,385.632Z" transform="translate(-91.374 -5.377)" fill="#23a3fc"/>
      <path id="Trazado_568953" data-name="Trazado 568953" d="M4732.941,387.787a1.357,1.357,0,0,1,.4,1.227v10.794a1.45,1.45,0,0,1-.36,1.245,2.85,2.85,0,0,1-.375-2.242C4732.779,395.137,4732.154,391.44,4732.941,387.787Z" transform="translate(-23.738 -6.69)" fill="#27aafe"/>
      <path id="Trazado_568954" data-name="Trazado 568954" d="M4742.854,401.056c-.66-.791-.325-1.73-.338-2.6-.044-2.953-.027-5.908-.009-8.861,0-.618-.2-1.3.382-1.807.775,2.341.3,4.749.317,7.12C4743.22,396.955,4743.658,399.051,4742.854,401.056Z" transform="translate(-29.778 -6.693)" fill="#27aafe"/>
      <path id="Trazado_568955" data-name="Trazado 568955" d="M4797.816,401.055c-.661-.79-.326-1.729-.339-2.6-.045-2.954-.027-5.909-.009-8.863,0-.617-.2-1.3.384-1.806.775,2.341.3,4.75.315,7.121C4798.183,396.954,4798.621,399.05,4797.816,401.055Z" transform="translate(-63.275 -6.692)" fill="#27aafe"/>
      <path id="Trazado_568956" data-name="Trazado 568956" d="M4842.874,387.789a1.186,1.186,0,0,1,.391,1.035q0,5.588,0,11.176a1.263,1.263,0,0,1-.356,1.053,2.876,2.876,0,0,1-.375-2.243C4842.713,395.138,4842.089,391.441,4842.874,387.789Z" transform="translate(-90.738 -6.691)" fill="#27aafe"/>
      <path id="Trazado_568957" data-name="Trazado 568957" d="M4852.78,401.053c-.665-.79-.328-1.729-.341-2.595-.045-2.954-.027-5.91-.009-8.865,0-.618-.2-1.3.387-1.806.768,2.473.293,5.01.312,7.511C4853.143,397.211,4853.612,399.183,4852.78,401.053Z" transform="translate(-96.771 -6.691)" fill="#0597fe"/>
      <path id="Trazado_568958" data-name="Trazado 568958" d="M4787.908,387.789a1.361,1.361,0,0,1,.393,1.227q0,5.4,0,10.791a1.455,1.455,0,0,1-.357,1.245,2.855,2.855,0,0,1-.376-2.242C4787.746,395.138,4787.119,391.441,4787.908,387.789Z" transform="translate(-57.238 -6.691)" fill="#27aafe"/>
      <path id="Trazado_568959" data-name="Trazado 568959" d="M4699.109,418.867v7.262l-.156,0v-7.262Z" transform="translate(-3.273 -25.632)" fill="#040404"/>
      <path id="Trazado_568960" data-name="Trazado 568960" d="M4859.963,390.027v5.725h-.2v-5.7Z" transform="translate(-101.283 -8.055)" fill="#040404"/>
      <path id="Trazado_568961" data-name="Trazado 568961" d="M4781.79,395.622v-5.716l.195,0v5.686Z" transform="translate(-53.759 -7.98)" fill="#040404"/>
      <path id="Trazado_568962" data-name="Trazado 568962" d="M4727.093,389.934v5.659l-.142.007v-5.662Z" transform="translate(-20.337 -7.999)" fill="#040404"/>
      <path id="Trazado_568963" data-name="Trazado 568963" d="M4804.793,396.171v-5.317h.195v5.331Z" transform="translate(-67.778 -8.559)" fill="#040404"/>
      <path id="Trazado_568964" data-name="Trazado 568964" d="M4706.856,626.782h67.623v.195h-67.7Z" transform="translate(-8.043 -152.347)" fill="#040404"/>
      <path id="Trazado_568965" data-name="Trazado 568965" d="M4699.033,455v64.211h-.195V454.943Z" transform="translate(-3.203 -47.619)" fill="#040404"/>
      <path id="Trazado_568966" data-name="Trazado 568966" d="M4887.956,591.865v10.8l-.2,0V591.919Z" transform="translate(-118.343 -131.066)" fill="#030404"/>
      <path id="Trazado_568967" data-name="Trazado 568967" d="M4884.121,590.667l.457.515a90.683,90.683,0,0,1-.078,11.193l-.38,0A70.5,70.5,0,0,1,4884.121,590.667Z" transform="translate(-115.976 -130.336)" fill="#d3f3fe"/>
      <path id="Trazado_568968" data-name="Trazado 568968" d="M4869.489,623.66h4.686c0,.126,0,.253,0,.379a14.747,14.747,0,0,1-4.684.05Q4869.489,623.875,4869.489,623.66Z" transform="translate(-107.207 -150.444)" fill="#d2f3fe"/>
      <path id="Trazado_568969" data-name="Trazado 568969" d="M4883.694,417.774q0,30.833,0,61.667c-.881-.252-.36-.96-.36-1.39q-.054-29.226-.023-58.452C4883.308,418.976,4883.1,418.282,4883.694,417.774Z" transform="translate(-115.55 -24.966)" fill="#bfdcf9"/>
      <path id="Trazado_568970" data-name="Trazado 568970" d="M4883.733,590.667q0,5.855,0,11.709c-.849-2.1-.326-4.293-.349-6.434C4883.363,594.191,4882.908,592.374,4883.733,590.667Z" transform="translate(-115.588 -130.336)" fill="#bfdcf9"/>
      <path id="Trazado_568971" data-name="Trazado 568971" d="M4774.04,575.705c-1.2.081-1.688-.613-1.615-1.671.077-1.12.886-1.488,1.918-1.488q4.681,0,9.361,0,10.238,0,20.476,0c.971,0,1.891.114,2.176,1.2a1.41,1.41,0,0,1-1.116,1.918,4.827,4.827,0,0,0-1.92-.138q-13.687-.013-27.377,0A3.6,3.6,0,0,0,4774.04,575.705Z" transform="translate(-48.047 -119.288)" fill="#798b97"/>
      <path id="Trazado_568972" data-name="Trazado 568972" d="M4776.572,580.025c.453-.53,1.075-.374,1.642-.374q13.948-.012,27.9,0c.568,0,1.184-.156,1.664.328-4.093.044-8.187.123-12.279.124C4789.186,580.105,4782.879,580.054,4776.572,580.025Z" transform="translate(-50.578 -123.608)" fill="#7c8e9b"/>
      <path id="Trazado_568973" data-name="Trazado 568973" d="M4805.23,473.8a1.39,1.39,0,0,1,1.105,1.914c-.288,1.082-1.2,1.2-2.178,1.2q-12.186-.016-24.373-.005c-1.885,0-3.77,0-5.654-.012a1.534,1.534,0,0,1-1.7-1.288c-.153-.917.079-1.7,1.2-1.828a2.234,2.234,0,0,0,1.323.181q14.471.007,28.942,0A2.491,2.491,0,0,0,4805.23,473.8Z" transform="translate(-48.029 -59.099)" fill="#798b97"/>
      <path id="Trazado_568974" data-name="Trazado 568974" d="M4807.129,487.146h-31.419v-.195h31.481Z" transform="translate(-50.053 -67.126)" fill="#030303"/>
      <path id="Trazado_568975" data-name="Trazado 568975" d="M4807.174,473.621c-.529.549-1.213.348-1.837.348q-13.965.018-27.931,0c-.623,0-1.31.2-1.828-.366,7.174-.041,14.348-.1,21.522-.113C4800.459,473.484,4803.816,473.574,4807.174,473.621Z" transform="translate(-49.973 -58.922)" fill="#7f929f"/>
      <path id="Trazado_568976" data-name="Trazado 568976" d="M4773.094,526.4q-1.92-1.336-.008-2.685,15.048-.022,30.1-.007a4.419,4.419,0,0,1,2.623.508c.737.611.6,1.214-.015,1.814a3.758,3.758,0,0,1-2.073.405C4793.508,526.419,4783.3,526.487,4773.094,526.4Z" transform="translate(-47.872 -89.528)" fill="#798b97"/>
      <path id="Trazado_568977" data-name="Trazado 568977" d="M4807.292,523.677c-4.786-.039-9.571-.1-14.358-.113-5.445-.02-10.892,0-16.338-.016-.683,0-1.441.25-2.022-.371.548-.5,1.226-.321,1.854-.322q14.265-.016,28.53,0C4805.8,522.86,4806.808,522.572,4807.292,523.677Z" transform="translate(-49.36 -88.988)" fill="#7e909d"/>
      <path id="Trazado_568978" data-name="Trazado 568978" d="M4774.595,529.983c.665-.61,1.483-.336,2.229-.338q15.233-.039,30.467-.033c-.432.758-1.178.694-1.88.695q-14.666.009-29.332,0A2.193,2.193,0,0,1,4774.595,529.983Z" transform="translate(-49.373 -93.11)" fill="#7f929f"/>
    </g>
  </g>
</svg>
