<svg xmlns="http://www.w3.org/2000/svg" width="108" height="107" viewBox="0 0 108 107">
  <g id="Grupo_842158" data-name="Grupo 842158" transform="translate(-0.013)">
    <rect id="Rectángulo_38178" data-name="Rectángulo 38178" width="108" height="107" transform="translate(0.013)" fill="none"/>
    <g id="Grupo_842161" data-name="Grupo 842161" transform="translate(-1001.003 -57.484)">
      <path id="Trazado_570412" data-name="Trazado 570412" d="M1064.6,69.234c17.177-.053,30.539,12.185,32.056,28.339a30.964,30.964,0,0,1-24.913,32.989,29.984,29.984,0,0,1-22.88-4.475c-1.038-.674-1.636-.628-2.371.294a17.713,17.713,0,0,1-1.834,1.852c-1.223,1.136-2.39,2.143-1.758,4.206.41,1.338-.458,2.625-1.458,3.627-4.761,4.769-9.488,9.573-14.312,14.278a8.131,8.131,0,1,1-11.436-11.561c4.678-4.775,9.438-9.468,14.163-14.2a4.76,4.76,0,0,1,4.911-1.391,1.33,1.33,0,0,0,1.546-.438c1.167-1.215,2.317-2.457,3.589-3.554.8-.688.578-1.151.112-1.868a30.73,30.73,0,0,1,3.639-38.776A29.9,29.9,0,0,1,1064.6,69.234Z" transform="translate(0)"/>
      <path id="Trazado_570413" data-name="Trazado 570413" d="M1116.922,79.227a27.718,27.718,0,1,1-27.691,27.665A27.714,27.714,0,0,1,1116.922,79.227Z" transform="translate(-51.185 -6.732)" fill="#504d72"/>
      <path id="Trazado_570414" data-name="Trazado 570414" d="M1028.058,267.145a4.807,4.807,0,0,1-4.157-2.542,4.609,4.609,0,0,1,.137-4.939,7.727,7.727,0,0,1,1.152-1.363q6.6-6.628,13.228-13.236c1.516-1.512,2.1-1.5,3.642.031,1.2,1.182,2.371,2.385,3.57,3.563a1.83,1.83,0,0,1,.079,2.957q-7.082,7.07-14.167,14.137A4.879,4.879,0,0,1,1028.058,267.145Z" transform="translate(-6.737 -117.69)" fill="#ec4c74"/>
      <path id="Trazado_570415" data-name="Trazado 570415" d="M1096.741,230.482c-.227.272-.382.488-.566.674-1.1,1.11-2.258,2.168-3.3,3.331-.977,1.092-1.385.043-1.851-.45-.452-.478-1.614-.844-.515-1.848a35.324,35.324,0,0,0,2.963-2.979c.738-.855,1.271-.945,1.962.01A10.138,10.138,0,0,0,1096.741,230.482Z" transform="translate(-51.737 -107.312)" fill="#fae582"/>
      <path id="Trazado_570416" data-name="Trazado 570416" d="M1111.147,107.362a3.142,3.142,0,0,1,2.011-2.7,3.035,3.035,0,0,0,2.2-2.177c.271-1.277,1.613-1.459,2.33-2.281a8.767,8.767,0,0,0,4.643-.945c12.348-5,26.74,3.054,29.037,16.186a21.617,21.617,0,0,1-42.461,8.141,9.75,9.75,0,0,1-.152-2.108c.01-1.479.006-2.958,0-4.435a11.887,11.887,0,0,1,1.145-5.36A12.735,12.735,0,0,0,1111.147,107.362Z" transform="translate(-64.327 -19.215)" fill="#d3e8fe"/>
      <path id="Trazado_570417" data-name="Trazado 570417" d="M1104.742,101.455c.818.838.443,1.68.027,2.538a17.172,17.172,0,0,0-2,6.806,22.874,22.874,0,0,0-.008,5.152c.463,8.688,8.154,16.936,17.156,18.4,11.871,1.928,22.913-5.824,24.663-17.314A21.165,21.165,0,0,0,1126.5,92.493a19.805,19.805,0,0,0-12.125,2c-1.114.567-2.122.83-3.092-.2-.3-1.433.458-2.169,1.655-2.78,14.566-7.442,32.837,2.4,34.975,18.643a24.527,24.527,0,0,1-19.711,27.366,31.8,31.8,0,0,1-5.824.47,1.073,1.073,0,0,1-1.227-.05,32.852,32.852,0,0,1-9.794-3.313c-10.935-6.088-15.422-21.189-9.494-32.193C1102.529,101.2,1103.382,100.609,1104.742,101.455Z" transform="translate(-57.922 -13.308)"/>
      <path id="Trazado_570418" data-name="Trazado 570418" d="M1122.872,110.522c.344,1.95-.248,2.536-2.2,2.177-.795-.76-1.14-1.622-.259-2.5S1122.146,109.68,1122.872,110.522Z" transform="translate(-71.841 -27.255)" fill="#020203"/>
      <path id="Trazado_570419" data-name="Trazado 570419" d="M1165.6,238.991l1.227.05c-.4.48-.945.281-1.438.3-.2.007-.229-.135-.08-.258A.819.819,0,0,1,1165.6,238.991Z" transform="translate(-102.371 -114.356)" fill="#555278"/>
      <path id="Trazado_570420" data-name="Trazado 570420" d="M1109.412,160.97a10.788,10.788,0,0,1,.008-5.152Q1109.416,158.394,1109.412,160.97Z" transform="translate(-64.572 -58.327)" fill="#c2d6e6"/>
    </g>
  </g>
</svg>
