<svg xmlns="http://www.w3.org/2000/svg" xmlns:xlink="http://www.w3.org/1999/xlink" width="166" height="166" viewBox="0 0 166 166">
  <defs>
    <clipPath id="clip-path">
      <circle id="Elipse_7052" data-name="Elipse 7052" cx="83" cy="83" r="83" transform="translate(387 2995)" fill="#fff" stroke="#707070" stroke-width="1"/>
    </clipPath>
  </defs>
  <g id="Enmascarar_grupo_700147" data-name="Enmascarar grupo 700147" transform="translate(-387 -2995)" clip-path="url(#clip-path)">
    <g id="Grupo_841834" data-name="Grupo 841834" transform="translate(-3110.639 2678.479)">
      <path id="Trazado_568689" data-name="Trazado 568689" d="M3632.378,468.178a1.7,1.7,0,0,1,1.389,1.789c-.012,2.688,0,5.377,0,8.065,0,.647-.087,1.243-.833,1.466a6.014,6.014,0,0,0-.777-.166c-1.658-.1-3.317-.049-4.974-.049q-47.263,0-94.526,0c-1.174,0-2.349-.03-3.522.052a6.21,6.21,0,0,0-.778.165c-.974-.322-.83-1.148-.831-1.888-.007-4.7-.037-9.406.009-14.108a7.189,7.189,0,0,1,7.068-7.453c4.9-.174,9.818-.059,14.727-.033a8.854,8.854,0,0,1,3.961,1.235c0-2.477-.02-4.724,0-6.971.051-4.783,3-7.789,7.75-7.839,4.494-.047,8.99,0,13.485-.017a8.771,8.771,0,0,1,4.536,1.243c0-4.173-.014-8.036,0-11.9.024-5.231,3.009-8.194,8.263-8.211,3.942-.012,7.884.031,11.825-.017a10.272,10.272,0,0,1,5.39,1.125c.515-.59.285-1.226.288-1.8.022-5.048-.04-10.1.03-15.145.065-4.658,3.045-7.644,7.693-7.718q6.74-.108,13.484,0c4.748.071,7.717,3.122,7.721,7.879q.022,27.283.014,54.565c0,1.157.018,2.259-1.411,2.616-1.639.5-2-.691-2.411-1.821a33.479,33.479,0,0,1-.1-4.143c-.013-17.282.011-34.563-.016-51.842-.535-2.528-1.479-3.389-4.04-3.449-4.179-.1-8.36.029-12.54-.056-3.586.485-4.525,1.478-4.53,5.112q-.044,32.125-.024,64.25c0,1.605.149,2.958,2.242,2.855.256.017.511.032.768.036s.511,0,.766,0c5.444,0,10.888.032,16.327-.02a2.362,2.362,0,0,0,.629-.192c.837-1.153.3-2.468.425-3.7a13.38,13.38,0,0,1,.191-2.4C3630.492,468.682,3630.98,467.729,3632.378,468.178Z" transform="translate(0 -29.825)" fill="#010000"/>
      <path id="Trazado_568690" data-name="Trazado 568690" d="M3749.191,468.116c.382.776.858,1.434,1.84,1.443a5.387,5.387,0,0,0,.016,3.113,2.045,2.045,0,0,0-1.859,1.491.41.41,0,0,0-.481.392c-.031,1.566.017,3.124-.023,4.681-.017.643.164,1.417-.768,1.656-5.575-.1-11.148.188-16.717-.154-.784-.963-.515-2.114-.516-3.191q-.026-31.272-.013-62.543c0-1.035.019-2.071-.032-3.1a4.584,4.584,0,0,0-.152-.711,3.368,3.368,0,0,1,1.681-3.477c4.35-.028,8.7-.113,13.05-.06,2.248.027,3.518,1.35,3.92,3.715a1.4,1.4,0,0,0-.383.6c-.134,12.031-.028,24.059-.053,36.086-.014,6.429-.021,12.858.01,19.282A.758.758,0,0,0,3749.191,468.116Z" transform="translate(-118.667 -34.32)" fill="#dc636e"/>
      <path id="Trazado_568691" data-name="Trazado 568691" d="M3571.25,383.047c.8-.632,1.831-1,2.357-1.963a5.466,5.466,0,0,0,4.023-1.212c7.984-5.578,15.954-11.177,24.012-16.65,1.588-1.079,3.182-2.014,2.181-4.439-.4-.979.465-1.537,1.406-1.563,4.483-.128,8.914-1.054,13.417-.881a1.687,1.687,0,0,1,1.38.7,2.417,2.417,0,0,1-.273,1.984c-1.542,3.7-3.457,7.233-5.061,10.91-.974,2.232-1.316,2.289-3.1.758-1.1-.943-1.922-.3-2.774.28q-6.752,4.638-13.479,9.315-13.046,9.027-26.064,18.1c-1.312.915-2.415.938-3.352-.467-1.074-1.611-2.258-3.146-3.321-4.763-1.109-1.686-.991-2.187.735-3.374,1.595-1.1,3.146-2.262,4.77-3.311A7.241,7.241,0,0,0,3571.25,383.047Z" transform="translate(-20.1 -4.309)" fill="#dc636e"/>
      <path id="Trazado_568692" data-name="Trazado 568692" d="M3613.532,352.5c-4.4.326-8.8.667-13.195.97-1.117.077-1.621.414-.846,1.491.922,1.282.645,2.227-.634,3.11q-13.7,9.453-27.356,18.965c-1.049.728-1.994.92-2.836-.263-.562-1.453.584-1.96,1.467-2.574,8.166-5.676,16.317-11.372,24.532-16.975,1.337-.911,1.765-1.47.628-2.931-1.933-2.482-1.45-3.375,1.764-3.654q10.017-.869,20.04-1.671c2.231-.181,2.928.813,1.967,2.875q-4.37,9.373-8.805,18.716c-1.027,2.163-2.323,2.311-3.534.212-1.073-1.86-1.873-1.759-3.521-.6-12.942,9.087-25.961,18.065-38.957,27.075-2.483,1.722-2.717,1.68-4.4-.749-1.93-2.778-3.83-5.578-5.8-8.329-.974-1.361-.795-2.32.61-3.257,2.986-1.993,5.923-4.061,8.848-6.143a2.057,2.057,0,0,1,2.809-.027c.415,1.273-.155,2.056-1.2,2.749-2.36,1.563-4.645,3.239-7,4.805-.806.536-.966.951-.349,1.774a62.045,62.045,0,0,1,3.537,5.108c.785,1.3,1.374,1.444,2.682.525,10.284-7.225,20.63-14.362,30.957-21.526q3.916-2.716,7.832-5.43c3.077-2.13,3.078-2.128,5.577.635l6.624-14.3C3614.892,351.878,3614.109,352.442,3613.532,352.5Z" transform="translate(-15.159)" fill="#010000"/>
      <path id="Trazado_568693" data-name="Trazado 568693" d="M3529.545,590.6q0-.2,0-.392a4.343,4.343,0,0,1,2.236-.2q50.049-.016,100.1,0a4.338,4.338,0,0,1,2.236.2c0,.13,0,.261,0,.391-.629.65-1.437.355-2.158.356q-50.13.024-100.26,0C3530.982,590.956,3530.174,591.253,3529.545,590.6Z" transform="translate(-1.192 -140.929)"/>
      <path id="Trazado_568694" data-name="Trazado 568694" d="M3667.879,514.426l-.4,0a3.659,3.659,0,0,1-.7-2.732c-.012-13.657-.044-27.313.027-40.969.011-2.254.07-4.622,2.327-6.078l.412,0a88.92,88.92,0,0,0,12.856,0,3.386,3.386,0,0,1,3.37,2.344c-.1,14.7-.017,29.407-.053,44.111,0,1.146.258,2.428-1.191,3.016-4.8.227-9.612.027-14.418.108A4.618,4.618,0,0,0,3667.879,514.426Z" transform="translate(-81.425 -67.655)" fill="#f5e166"/>
      <path id="Trazado_568695" data-name="Trazado 568695" d="M3621.674,510.485a3.618,3.618,0,0,1,2.546,3.615c.017,8.872-.031,17.744-.057,26.615-2.721.445-5.462.094-8.192.2-3.348.129-6.706-.24-10.048.2l-.413,0a3.4,3.4,0,0,1-.68-2.531c-.015-7.728-.06-15.457.027-23.184.021-1.921.182-3.9,2.092-5.106,3.887.266,7.781.066,11.671.113C3619.639,510.42,3620.656,510.486,3621.674,510.485Z" transform="translate(-45.199 -94.345)" fill="#78cfb0"/>
      <path id="Trazado_568696" data-name="Trazado 568696" d="M3543.972,559.956l-.413,0a2.929,2.929,0,0,1-.652-2.119c-.025-3.582-.1-7.166.032-10.745.066-1.8.308-3.626,2.286-4.51,4.281-.027,8.562-.1,12.841-.059a3.948,3.948,0,0,1,4.14,3.805c.116,4.349.042,8.7.047,13.055a.5.5,0,0,1-.44.575,48.359,48.359,0,0,0-8.2-.179C3550.4,559.794,3547.177,559.495,3543.972,559.956Z" transform="translate(-8.98 -113.183)" fill="#61a1f8"/>
      <path id="Trazado_568697" data-name="Trazado 568697" d="M3726.843,407.79c-.408,1.1-1.417,1.946-1.376,3.237a6.134,6.134,0,0,0-.16.721c-.042,22.02,0,44.037-.027,66.053,0,1.146.277,2.37-.583,3.38-.206.024-.411.064-.617.069-2.729.071-2.732.07-2.732-2.566q0-32.877,0-65.754C3721.353,409.057,3722.984,407.546,3726.843,407.79Z" transform="translate(-113.344 -34.393)" fill="#c00a53"/>
      <path id="Trazado_568698" data-name="Trazado 568698" d="M3664.749,464.606a12.328,12.328,0,0,0-1.675,6.707c.044,14.357.021,28.715.019,43.072-3.826.319-3.826.319-3.826-3.386q0-20.64,0-41.279C3659.275,465.8,3660.862,464.337,3664.749,464.606Z" transform="translate(-77.044 -67.611)" fill="#e9b04d"/>
      <path id="Trazado_568699" data-name="Trazado 568699" d="M3602.951,510.09a6.6,6.6,0,0,0-1.683,4.927q0,12.855-.01,25.711l-3.327.015a4.439,4.439,0,0,1-.192-2.23c-.016-7.641,0-15.283-.02-22.924a4.637,4.637,0,0,0-.185-2.234,3.566,3.566,0,0,1,3.558-3.61c5.156-.2,10.325-.079,15.488-.07.178,0,.356.181.534.278-1.6.619-3.256.241-4.88.249A88.656,88.656,0,0,1,3602.951,510.09Z" transform="translate(-40.948 -93.957)" fill="#56978a"/>
      <path id="Trazado_568700" data-name="Trazado 568700" d="M3540.894,542.651a7.7,7.7,0,0,0-1.678,5.174c.061,4.066.015,8.134.012,12.2l-3.325.006c-.466-3.828-.063-7.671-.212-11.5-.029-.736.237-1.513-.232-2.2C3535.944,543.427,3537.4,542.442,3540.894,542.651Z" transform="translate(-4.65 -113.248)" fill="#3f72c7"/>
      <path id="Trazado_568701" data-name="Trazado 568701" d="M3634.123,589.9h-104.57c.609-.685,1.421-.409,2.146-.409q50.139-.02,100.278,0C3632.7,589.5,3633.515,589.219,3634.123,589.9Z" transform="translate(-1.197 -140.623)" fill="#030303"/>
      <path id="Trazado_568702" data-name="Trazado 568702" d="M3729.414,485.71q0-34.126,0-68.251c0-.615.041-1.229.072-1.843,0-.039.091-.1.145-.1a.552.552,0,0,1,.2.055,3.5,3.5,0,0,1,.4,2.4q.014,32.672,0,65.345a3.512,3.512,0,0,1-.406,2.4Z" transform="translate(-118.061 -38.922)" fill="#bd0252"/>
      <path id="Trazado_568703" data-name="Trazado 568703" d="M3730.416,485.773q0-35.071,0-70.143.177-.009.354-.01l.1.021a4.931,4.931,0,0,1,.152,2.046q.01,33.653.005,67.306a1.219,1.219,0,0,1-.2.777Z" transform="translate(-118.647 -38.986)" fill="#cd3460"/>
      <path id="Trazado_568704" data-name="Trazado 568704" d="M3774.064,416.63l.439,0c.044.548.128,1.1.128,1.643q.011,26.932,0,53.865c0,.412-.05.825-.076,1.237l-.488.536a3.15,3.15,0,0,1-.2-1.82q-.014-26.818,0-53.636A3.228,3.228,0,0,1,3774.064,416.63Z" transform="translate(-144.034 -39.574)" fill="#ee6b77"/>
      <path id="Trazado_568705" data-name="Trazado 568705" d="M3709.426,517.335a4.02,4.02,0,0,0,.851-2.676q-.046-20.428-.024-40.855c0-1.187-.444-2.427.464-3.491a1.378,1.378,0,0,1,.368,1.367,4.277,4.277,0,0,0-.2,2.23c-.035,14.407.035,28.815-.042,43.223C3710.448,517.754,3709.941,517.569,3709.426,517.335Z" transform="translate(-106.373 -70.966)" fill="#f2de64"/>
      <path id="Trazado_568706" data-name="Trazado 568706" d="M3712.188,519.261q0-21.648.015-43.3c0-.792-.307-1.672.4-2.359.041,3.587.111,7.173.117,10.76q.023,16.678-.025,33.356c0,.636.535,1.536-.505,1.949q-.222-.136-.149-.273C3712.088,519.307,3712.138,519.261,3712.188,519.261Z" transform="translate(-107.891 -72.892)" fill="#feeb6a"/>
      <path id="Trazado_568707" data-name="Trazado 568707" d="M3597.379,518.6c.648.624.385,1.429.386,2.157q.027,12.616.012,25.232c-.557-.122-.508-.578-.506-.974Q3597.318,531.8,3597.379,518.6Z" transform="translate(-40.792 -99.198)" fill="#5b9e90"/>
      <path id="Trazado_568708" data-name="Trazado 568708" d="M3715.991,415.885v17.544l-.208,0V415.8Z" transform="translate(-110.091 -39.09)" fill="#040404"/>
      <path id="Trazado_568709" data-name="Trazado 568709" d="M3607.5,583.891c.621-.648,1.425-.384,2.15-.387,5.364-.021,10.727-.011,16.09-.011-.048.461-.392.5-.74.494Q3616.248,583.942,3607.5,583.891Z" transform="translate(-46.773 -137.122)" fill="#7bd4b4"/>
      <path id="Trazado_568710" data-name="Trazado 568710" d="M3545.531,583.951a1.488,1.488,0,0,1,1.317-.4h15.209a1.476,1.476,0,0,1,1.315.407C3557.425,584.115,3551.478,584.125,3545.531,583.951Z" transform="translate(-10.54 -137.178)" fill="#63a5fe"/>
      <path id="Trazado_568711" data-name="Trazado 568711" d="M3687.3,583.492c0,.137,0,.274,0,.41-5.948.157-11.9.173-17.843-.008.62-.652,1.424-.386,2.15-.39,4.816-.023,9.632-.013,14.449-.013Z" transform="translate(-83.003 -137.122)" fill="#fbe768"/>
      <path id="Trazado_568712" data-name="Trazado 568712" d="M3731.407,583.744l.021-.415c.132-.2.265-.209.4,0h17.016c.1.092.141.183.105.275s-.07.138-.1.138Z" transform="translate(-119.226 -136.96)" fill="#e26570"/>
      <path id="Trazado_568713" data-name="Trazado 568713" d="M3559.263,537.048H3543.64l0-.207h15.592Z" transform="translate(-9.433 -109.867)" fill="#040404"/>
      <path id="Trazado_568714" data-name="Trazado 568714" d="M3730.676,401.9h15.2v.208h-15.217Z" transform="translate(-118.787 -30.964)" fill="#050505"/>
      <ellipse id="Elipse_7053" data-name="Elipse 7053" cx="9.866" cy="0.117" rx="9.866" ry="0.117" transform="translate(3557.945 413.268)" fill="#040404"/>
      <path id="Trazado_568715" data-name="Trazado 568715" d="M3610.578,510.542l14.164-.137a.344.344,0,0,1,.309.144c-2.764.782-5.586.26-8.376.3C3614.65,510.881,3612.573,511.295,3610.578,510.542Z" transform="translate(-48.574 -94.409)" fill="#7bd5b5"/>
      <path id="Trazado_568716" data-name="Trazado 568716" d="M3535.3,551.533c.7.6.427,1.409.432,2.132.026,3.858.012,7.717.013,11.575-.574-.075-.559-.524-.556-.927Q3535.236,557.923,3535.3,551.533Z" transform="translate(-4.492 -118.458)" fill="#457bd7"/>
      <path id="Trazado_568717" data-name="Trazado 568717" d="M3686.316,464.484c-2.516.839-5.106.3-7.657.345-1.724.031-3.52.489-5.2-.349C3677.745,464.315,3682.031,464.306,3686.316,464.484Z" transform="translate(-85.343 -67.481)" fill="#f9e567"/>
      <path id="Trazado_568718" data-name="Trazado 568718" d="M3773.387,573.953c0-.137,0-.275,0-.413q.035-3.5.077-7c0-.037.091-.1.144-.1a.573.573,0,0,1,.2.055,28.757,28.757,0,0,1,0,7.469Z" transform="translate(-143.773 -127.17)" fill="#d7606a"/>
      <path id="Trazado_568719" data-name="Trazado 568719" d="M3774.385,574.036q0-3.734,0-7.469l.489.526c.026,1.952.063,3.9.07,5.856C3774.95,573.382,3775.1,573.947,3774.385,574.036Z" transform="translate(-144.357 -127.248)" fill="#ee6a76"/>
      <path id="Trazado_568720" data-name="Trazado 568720" d="M3731.853,485.385h-.4q.012-34.857.025-69.714c.645.713.358,1.584.359,2.381Q3731.864,451.718,3731.853,485.385Z" transform="translate(-119.255 -39.015)" fill="#de696f"/>
      <path id="Trazado_568721" data-name="Trazado 568721" d="M3773.781,416.56q0,28.638.006,57.277c-.581-.471-.416-1.132-.416-1.733q-.01-27.241,0-54.48a10.036,10.036,0,0,1,.072-1.012c0-.042.09-.1.144-.105A.542.542,0,0,1,3773.781,416.56Z" transform="translate(-143.751 -39.504)" fill="#d7616b"/>
      <path id="Trazado_568722" data-name="Trazado 568722" d="M3698.158,357.079c.538-.26,1.112-.483,1.638-.078.208.16.021.48-.206.654C3699.272,357.069,3698.653,357.228,3698.158,357.079Z" transform="translate(-99.785 -4.58)" fill="#b5515a"/>
    </g>
  </g>
</svg>
