<svg xmlns="http://www.w3.org/2000/svg" width="108" height="107" viewBox="0 0 108 107">
  <g id="Grupo_842157" data-name="Grupo 842157" transform="translate(-0.023)">
    <rect id="Rectángulo_38178" data-name="Rectángulo 38178" width="108" height="107" transform="translate(0.023)" fill="none"/>
    <g id="Grupo_842162" data-name="Grupo 842162" transform="translate(-1388.869 -32.08)">
      <path id="Trazado_570421" data-name="Trazado 570421" d="M1470.679,95.892c.408.542,1.078.66,1.616.99a4.386,4.386,0,0,1,2.283,3.988c-.012,3.389.011,6.778-.009,10.168-.013,2.262-1.259,3.047-3.391,2.179-.184-.075-.371-.141-.745-.282,0,2.767.017,5.378,0,7.988-.03,3.8-2.227,5.992-6.03,5.994q-21.542.011-43.085,0c-3.693,0-5.9-2.218-5.951-5.912a6.861,6.861,0,0,1,.01-1.289,2.01,2.01,0,0,0-1.456-2.449,4.38,4.38,0,0,1-2.711-4.518c.056-2.958.013-5.917.014-8.876,0-3.436.834-4.046,4.141-2.906V99.372q0-16.785,0-33.569c0-4.361,2.056-6.395,6.429-6.4,1.667,0,3.336-.026,5,.013.621.014.97-.113,1.128-.79.582-2.487,2.312-3.737,4.7-4.309,2.988-.717,3.16-.951,3.453-3.944a6.862,6.862,0,0,1,13.65.02c.278,2.771.656,3.25,3.387,3.907,2.375.571,4.15,1.776,4.733,4.269.18.771.584.864,1.253.847,1.613-.041,3.231.056,4.84-.028a5.873,5.873,0,0,1,6.442,4.23,4.325,4.325,0,0,1,.121,1.747q.012,14.146.005,28.291A8.289,8.289,0,0,0,1470.679,95.892Z"/>
      <path id="Trazado_570422" data-name="Trazado 570422" d="M1469.124,105.575c3.107-.9,3.642-1.614,4.073-5.431a1.238,1.238,0,0,1,.542-.023c1.851.055,3.7-.031,5.555.025a3.087,3.087,0,0,1,1.1,2.731q.075,13.62-.008,27.24c-.006.906.073,2.146-1.547,1.709l-4.771-.037c-.461-.319-.948-.087-1.22-.153a.6.6,0,0,1,.669.2c-7.016.9-13.389,3.845-19.934,6.255-4.032,1.484-8.071,3-12.458,3.058a5.674,5.674,0,0,0-2.9,0,10.4,10.4,0,0,1-4.65-.9c-.006-.3-.019-.6-.015-.9,0-12.34.02-24.679-.012-37.018a1.434,1.434,0,0,0-.146-.583,2.04,2.04,0,0,1,1.915-1.618c1.441.111,2.885-.113,4.324.059a1.129,1.129,0,0,1,.811.925,2.887,2.887,0,0,0,2.658,2.6,1.265,1.265,0,0,1,.561.308,6.159,6.159,0,0,0,3.048,1.551c.014.288.219.341.453.364,6.944.059,13.882-.076,20.816.071a47.189,47.189,0,0,0,5.748.415.713.713,0,0,1-.169.075,8.443,8.443,0,0,0-1.689-.073,12.935,12.935,0,0,0-2.028-.307A1.017,1.017,0,0,1,1469.124,105.575Z" transform="translate(-15.021 -37.81)" fill="#fe9701"/>
      <path id="Trazado_570423" data-name="Trazado 570423" d="M1461.74,210.229c.4.755.887,1.4,1.875,1.084s.859-1.172,1.014-1.97c.164-.844-.954-2.546,1.266-2.269.191.154.427.239.618.394.742,1.489.153,3.085.363,4.615.031.21.116.376.36.4.35.756.745,1.518,1.762,1.267,1.066-.264,1.12-1.144,1.1-2.053-.025-1.235,0-2.471-.006-3.706,0-.49-.068-1.007.719-.86a17.849,17.849,0,0,1,7.02,2.645c.152.1.2.354.3.536a1.32,1.32,0,0,0-.151.507c.026,2.893-.109,5.786.077,8.678a.868.868,0,0,1-.217.767c-6.882-3.325-13.872-2.77-20.835-.4-5.024,1.707-9.952,3.7-14.955,5.466a26.573,26.573,0,0,1-7.482,1.787,2.191,2.191,0,0,0-1.613.222,17.129,17.129,0,0,1-11.931-2.857q-.012-.149-.024-.3a84.4,84.4,0,0,1-.1-8.452c0-.515-.1-1.26.815-1.253,1.264.129,1.648.834,1.554,2.065-.105,1.386-.024,2.787-.022,4.181,0,.953.434,1.577,1.426,1.555.924-.02,1.246-.669,1.308-1.52.112-1.534-.242-3.087.189-4.607.582,1.207.246,2.482.279,3.707a18.138,18.138,0,0,0-.05-3.375.391.391,0,0,1,.109-.407c2.2.166,2.243.166,2.221,2.427a2.105,2.105,0,0,0,1.057,2.107c.271.263.537.415.784-.026a3.071,3.071,0,0,0,1.031-1.316,3.251,3.251,0,0,0,.023-2.5c1.864-.781,2.6-.39,2.62,1.427.008.842.072,1.629,1.04,1.9.99.279,1.436-.391,1.819-1.13.57-1-.219-2.249.606-3.2l1.836-.578c.651,1.158-.568,2.992,1.326,3.554.887.263,1.343-.394,1.73-1.06a6.117,6.117,0,0,0,.06-3.166c.048-.089.073-.224.147-.259,2.44-1.156,2.457-1.144,2.458,1.513,0,.7.005,1.4,0,2.1-.009,1,.383,1.758,1.449,1.731.968-.025,1.344-.759,1.342-1.683,0-1.076,0-2.151,0-3.226,0-2.546,0-2.546,2.727-3.316,0,.676-.038,1.309.009,1.936a1.377,1.377,0,1,0,2.753.019c.045-.75.043-1.506.013-2.257a1.047,1.047,0,0,1,.776-1.19c1.842-.742,1.845-.788,1.941,1.147.049.986.388,1.762,1.463,1.728.964-.03,1.354-.75,1.335-1.683,0-.215,0-.43,0-.645.011-2.248.011-2.248,2.292-2.651C1461.833,208.54,1461.2,209.472,1461.74,210.229Z" transform="translate(-6.527 -110.192)" fill="#fedb00"/>
      <path id="Trazado_570424" data-name="Trazado 570424" d="M1434.536,262.73a3.451,3.451,0,0,1-2.518-4.531c.2-.431.5-.288.8-.209,7.155,1.892,13.816-.147,20.429-2.565,5.189-1.9,10.227-4.233,15.646-5.463a21.661,21.661,0,0,1,9.579-.445c.266.14.73.116.723.506-.024,1.275.486,2.643-.577,3.76-1.521-.093-2.1.645-1.988,2.128.088,1.19-.564,1.72-1.751,1.773-.848.038-2.178-.187-2.1,1.077.073,1.229,1.4.8,2.235.892,1.218.135,2.446-.21,3.669.042.722,1.381.619,1.784-.674,2.648-13.575.093-27.151.013-40.726.042a20.8,20.8,0,0,0-2.25.043A1.2,1.2,0,0,0,1434.536,262.73Z" transform="translate(-13.921 -138.693)" fill="#fe9701"/>
      <path id="Trazado_570425" data-name="Trazado 570425" d="M1489.5,61.575l2.514,1.334a3.164,3.164,0,0,1,1.686,2.557,23.417,23.417,0,0,1,.04,3.985,1.808,1.808,0,0,1-.787,1.495L1472.986,71c-.734,0-1.408-.1-1.607-.979a15.058,15.058,0,0,0-.02-4.5,2.41,2.41,0,0,1,1.984-2.231c.767-.24,1.565-.383,2.328-.634a5.294,5.294,0,0,0,3.784-4.893,2.514,2.514,0,0,1,.222-1.406c.382.311.165.719.2,1.087-.018-.435.152-.888-.152-1.3.633-2.075,1.793-2.941,3.88-2.9.806.865,1.908,1.631,1.032,3.065-.679.131-1.63-.153-1.789.875-.167,1.078-.443,2.266.252,3.218.54.741,1.1.116,1.564-.33a1.184,1.184,0,0,1,1.92-.085A10.458,10.458,0,0,0,1489.5,61.575Z" transform="translate(-40.714 -6.097)" fill="#9d9d9d"/>
      <path id="Trazado_570426" data-name="Trazado 570426" d="M1556.824,99.707c-.092-.014-.182-.033-.273-.056a27.818,27.818,0,0,1,7.322-.069,2.063,2.063,0,0,1,1.922,1.681c.047,9.726.011,19.452.014,29.177,0,.523.116,1.088-.324,1.526l-3.293-.634c1.149.025,1.048-.777,1.047-1.547q-.011-7.885,0-15.769c0-3.862-.008-7.724,0-11.586a3.1,3.1,0,0,0-1.027-2.72A33.145,33.145,0,0,1,1556.824,99.707Z" transform="translate(-98.375 -37.317)" fill="#f47b00"/>
      <path id="Trazado_570427" data-name="Trazado 570427" d="M1574.844,262.823c.612-.689.957-1.415.308-2.275a17.769,17.769,0,0,1,.105-6.131,6.584,6.584,0,0,0-.085-4.141,6.194,6.194,0,0,1,2.972.875c-.192,3.563,0,7.129-.105,10.692-.548,1.554-1.733,1.88-3.2,1.66a.58.58,0,0,1-.187-.343A.531.531,0,0,1,1574.844,262.823Z" transform="translate(-110.625 -139.453)" fill="#f37b00"/>
      <path id="Trazado_570428" data-name="Trazado 570428" d="M1433.285,143.314l-.451.39c-.794-.228-.45-.888-.45-1.349q-.03-17.8-.013-35.6a2.348,2.348,0,0,1,.291-1.55h.3a3.427,3.427,0,0,1,.152,1.739q.015,17.318.015,34.636A3.312,3.312,0,0,0,1433.285,143.314Z" transform="translate(-14.284 -41.263)" fill="#fe9d01"/>
      <path id="Trazado_570429" data-name="Trazado 570429" d="M1515.159,61.577a3.592,3.592,0,0,1-3.221-1.315c-.572-.6-.933-.5-1.334.1-.875-1.326-.565-2.765-.4-4.191.494-1.234-.814-1.89-.937-2.926,2.1-.027,3.23.82,3.878,2.9-.3.417-.127.883-.179,1.543.092-.581-.145-1,.225-1.313C1513.468,58.255,1513.8,60.11,1515.159,61.577Z" transform="translate(-66.371 -6.099)" fill="#6f6f6f"/>
      <path id="Trazado_570430" data-name="Trazado 570430" d="M1584.131,135.923q0-14.428.019-28.857c0-.618-.231-1.3.291-1.846a2.713,2.713,0,0,1,.284,1.713c0,9.282.012,18.564-.03,27.845C1584.693,135.125,1585.355,136.077,1584.131,135.923Z" transform="translate(-117.021 -41.275)" fill="#fe8100"/>
      <path id="Trazado_570431" data-name="Trazado 570431" d="M1536.218,91.186c.455-2.769.975-5.545-.938-8.037,1.659.317,3.515.344,3.851,2.613a14.936,14.936,0,0,0-.02,4.5C1538.522,91.747,1537.263,91.134,1536.218,91.186Z" transform="translate(-83.977 -26.337)" fill="#6f6f6f"/>
      <path id="Trazado_570432" data-name="Trazado 570432" d="M1483.92,289.716c0,.121,0,.241,0,.361-.588.03-1.175.085-1.762.086q-20.039.007-40.078,0c-.586,0-1.172-.065-1.758-.1v-.347a2.52,2.52,0,0,1,1.418-.152q20.381-.011,40.761,0A2.532,2.532,0,0,1,1483.92,289.716Z" transform="translate(-19.708 -166.026)" fill="#fea201"/>
      <path id="Trazado_570433" data-name="Trazado 570433" d="M1448.181,103.594c-2.682-.048-2.689-.055-3.827-3.565-1.4-.509-2.9.19-4.288-.382,2.132-.363,4.279-.056,6.417-.142.657-.027.839.317.787.9A5.179,5.179,0,0,0,1448.181,103.594Z" transform="translate(-19.534 -37.38)" fill="#ef7900"/>
      <path id="Trazado_570434" data-name="Trazado 570434" d="M1472.3,117.411c.167-.285.462-.317.745-.372h22.409c.282.054.576.087.743.372a1.077,1.077,0,0,1-.887.3c-7.41-.312-14.824-.058-22.235-.14A1.317,1.317,0,0,1,1472.3,117.411Z" transform="translate(-41.353 -49.274)" fill="#fea201"/>
      <path id="Trazado_570435" data-name="Trazado 570435" d="M1584.4,263.677c-.595-.938-.248-1.977-.277-2.965-.06-2.031-.031-4.065-.01-6.1.005-.562-.2-1.2.392-1.629A47.812,47.812,0,0,1,1584.4,263.677Z" transform="translate(-116.986 -141.287)" fill="#fe8100"/>
      <path id="Trazado_570436" data-name="Trazado 570436" d="M1420.128,239.035c-.554-.321-.546-.869-.547-1.4-.006-2.775-.014-5.549.018-8.324,0-.234-.389-1.066.53-.622a85.138,85.138,0,0,1,.017,10.29Z" transform="translate(-5.627 -124.756)" fill="#fce800"/>
      <path id="Trazado_570437" data-name="Trazado 570437" d="M1596.812,217.138c.1,0,.19,0,.286,0,.511,3.25.136,6.52.193,9.779,0,.264-.268.261-.484.173q0-.295,0-.589A56.022,56.022,0,0,1,1596.812,217.138Z" transform="translate(-125.49 -117.024)" fill="#feea00"/>
      <path id="Trazado_570438" data-name="Trazado 570438" d="M1421.426,239.248q-.009-5.145-.017-10.29l.693.342c-.581.43-.38,1.061-.385,1.617-.02,2.28.006,4.559-.019,6.839C1421.692,238.257,1421.922,238.827,1421.426,239.248Z" transform="translate(-6.906 -125.024)" fill="#f9d600"/>
      <path id="Trazado_570439" data-name="Trazado 570439" d="M1560.563,207.145l-.323-.324c1.1-.387,1.526-.04,1.439,1.15-.1,1.413-.071,2.835-.1,4.254l-.373.41a20.03,20.03,0,0,1-.158-3.935C1561.01,208.144,1561.233,207.5,1560.563,207.145Z" transform="translate(-100.872 -109.939)" fill="#feea00"/>
      <path id="Trazado_570440" data-name="Trazado 570440" d="M1437.623,234.685l-.015.378a15.6,15.6,0,0,1-.006,4.84c-.664-1.68-.13-3.434-.317-5.144C1437.342,234.484,1437.465,234.507,1437.623,234.685Z" transform="translate(-17.634 -128.811)" fill="#feec00"/>
      <path id="Trazado_570441" data-name="Trazado 570441" d="M1439.564,99.975c1.41.34,2.909-.311,4.288.382-1.5-.168-3.06.358-4.527-.328A.177.177,0,0,1,1439.564,99.975Z" transform="translate(-19.033 -37.708)" fill="#fea201"/>
      <path id="Trazado_570442" data-name="Trazado 570442" d="M1546.418,95.732a7.382,7.382,0,0,1,.02-4.5A20.047,20.047,0,0,1,1546.418,95.732Z" transform="translate(-91.286 -31.808)" fill="#757575"/>
      <path id="Trazado_570443" data-name="Trazado 570443" d="M1471.647,234c.8.522-.347.5-.269.956a10.244,10.244,0,0,1-.075,2.288c0,.014-.089.039-.13.031a.468.468,0,0,1-.133-.079q-.031-1.192-.062-2.385C1470.967,234.345,1471.026,233.941,1471.647,234Z" transform="translate(-40.456 -128.432)" fill="#fee600"/>
      <path id="Trazado_570444" data-name="Trazado 570444" d="M1471.066,91.225a7.421,7.421,0,0,1,.02,4.5A17.018,17.018,0,0,1,1471.066,91.225Z" transform="translate(-40.421 -31.803)" fill="#a4a4a4"/>
      <path id="Trazado_570445" data-name="Trazado 570445" d="M1488.107,230.141c.572,1.033.251,2.125.206,3.2,0,.017-.087.048-.129.042a.45.45,0,0,1-.137-.075A13,13,0,0,1,1488.107,230.141Z" transform="translate(-51.964 -125.825)" fill="#fee400"/>
      <path id="Trazado_570446" data-name="Trazado 570446" d="M1546.508,211.751c-.818-.716-.137-1.655-.364-2.458C1547,210,1546.41,210.929,1546.508,211.751Z" transform="translate(-91.296 -111.715)" fill="#fee700"/>
      <path id="Trazado_570447" data-name="Trazado 570447" d="M1448.322,226.319a2.956,2.956,0,0,1,2.9,0A7.347,7.347,0,0,1,1448.322,226.319Z" transform="translate(-25.122 -122.979)" fill="#fea001"/>
      <path id="Trazado_570448" data-name="Trazado 570448" d="M1453.976,237.1c.639.8.331,1.7.248,2.573a.215.215,0,0,1-.14.021.469.469,0,0,1-.131-.09A7.6,7.6,0,0,1,1453.976,237.1Z" transform="translate(-28.871 -130.532)" fill="#feea00"/>
      <path id="Trazado_570449" data-name="Trazado 570449" d="M1458.323,268.532c.426-.883,1-.673,1.613-.222A2.981,2.981,0,0,1,1458.323,268.532Z" transform="translate(-31.891 -151.396)" fill="#fee800"/>
      <path id="Trazado_570450" data-name="Trazado 570450" d="M1554.66,197.491l-1.373-.155c.876-.261,1.43-.379,1.924.11Z" transform="translate(-96.166 -103.469)" fill="#fe9f01"/>
      <path id="Trazado_570451" data-name="Trazado 570451" d="M1520.645,62.454q-.061.687-.122,1.375c-.257-.562-.417-1.114.076-1.6A.225.225,0,0,1,1520.645,62.454Z" transform="translate(-73.824 -12.175)" fill="#747474"/>
      <path id="Trazado_570452" data-name="Trazado 570452" d="M1497.1,62.219c.5.456.344,1,.1,1.562l-.155-1.352A.146.146,0,0,1,1497.1,62.219Z" transform="translate(-58.086 -12.17)" fill="#a4a4a4"/>
      <path id="Trazado_570453" data-name="Trazado 570453" d="M1449.222,248.914c.406.473-.107.4-.264.365-.186-.038-.719.313-.52-.339Z" transform="translate(-25.171 -138.531)" fill="#fee400"/>
      <path id="Trazado_570454" data-name="Trazado 570454" d="M1529.861,124.675c1.037-2.939,2.068-3.662,5.243-3.664,1.505,0,3.011-.037,4.515.014a4.033,4.033,0,0,1,4.089,4.1q.079,2.74,0,5.483a4.026,4.026,0,0,1-4.062,4.127c-1.556.067-3.117.025-4.676.021-2.978-.008-3.978-.694-5.084-3.47A22.523,22.523,0,0,1,1529.861,124.675Z" transform="translate(-80.153 -51.953)" fill="#020101"/>
      <path id="Trazado_570455" data-name="Trazado 570455" d="M1469.119,128.9c.594.471,1.257.923.914,1.842-.352.94-1.156.983-2,.982q-10.329-.013-20.658,0c-.852,0-1.662-.072-1.972-1.02-.3-.9.34-1.376.979-1.814.255-.277.593-.2.906-.205q10.466-.005,20.931,0C1468.531,128.689,1468.871,128.612,1469.119,128.9Z" transform="translate(-23.095 -57.153)" fill="#030200"/>
      <path id="Trazado_570456" data-name="Trazado 570456" d="M1457.851,180.725c3.443,0,6.886.007,10.328,0,.984,0,1.985.118,2,1.324.018,1.3-1.009,1.427-2.066,1.425q-10.328-.022-20.657,0c-.992,0-1.965-.112-1.994-1.325-.032-1.347,1.029-1.423,2.058-1.421Q1452.686,180.732,1457.851,180.725Z" transform="translate(-23.187 -92.376)" fill="#030200"/>
      <path id="Trazado_570457" data-name="Trazado 570457" d="M1534.371,175.006c-.834.11-.889.765-1.045,1.4a1.289,1.289,0,0,1-1.657,1.112,1.426,1.426,0,0,1-1.052-1.743,4.055,4.055,0,0,1,3.707-3.65c2.088-.112,4.189-.1,6.278-.006a4.056,4.056,0,0,1,3.732,3.44c.131.875,0,1.682-.967,1.944s-1.523-.271-1.733-1.2c-.145-.64-.263-1.3-1.129-1.318A25.121,25.121,0,0,1,1534.371,175.006Z" transform="translate(-80.812 -86.506)" fill="#020100"/>
      <path id="Trazado_570458" data-name="Trazado 570458" d="M1457.847,145.531c.734.384,1.46.807,1.172,1.814-.275.961-1.071,1.056-1.925,1.052q-4.891-.021-9.783,0c-.792,0-1.544-.073-1.878-.9-.385-.959.265-1.479.964-1.939a1.158,1.158,0,0,1,1.007-.373q4.713-.028,9.425,0A1.18,1.18,0,0,1,1457.847,145.531Z" transform="translate(-23.089 -68.315)" fill="#040200"/>
      <path id="Trazado_570459" data-name="Trazado 570459" d="M1452.333,197.792c1.717,0,3.434.006,5.151,0,.929,0,1.642.356,1.654,1.341.012.967-.646,1.4-1.6,1.4q-5.232-.008-10.463,0c-.929,0-1.626-.348-1.651-1.342s.674-1.385,1.6-1.39C1448.792,197.787,1450.563,197.793,1452.333,197.792Z" transform="translate(-23.16 -103.929)" fill="#080500"/>
      <path id="Trazado_570460" data-name="Trazado 570460" d="M1434.567,143.314c-.551-.534-.311-1.22-.312-1.836q-.022-18.138-.012-36.276c.554.533.313,1.219.314,1.835Q1434.579,125.175,1434.567,143.314Z" transform="translate(-15.567 -41.263)" fill="#fb9600"/>
      <path id="Trazado_570461" data-name="Trazado 570461" d="M1472.3,117.732h23.9a1.117,1.117,0,0,1,1.615.323,6.866,6.866,0,0,1-3.229,0c-.884.505-1.765-.039-2.651-.03-5.989.058-11.978.036-17.967.021C1473.4,118.045,1472.777,118.253,1472.3,117.732Z" transform="translate(-41.353 -49.595)" fill="#f99400"/>
      <path id="Trazado_570462" data-name="Trazado 570462" d="M1471.171,128.553l-22.738-.009c-.242-.491.172-.367.374-.368q11.009-.011,22.018,0a1.779,1.779,0,0,1,.425.107Z" transform="translate(-25.147 -56.802)" fill="#fe9c01"/>
      <path id="Trazado_570463" data-name="Trazado 570463" d="M1448.319,178.454c.368-.444.88-.318,1.346-.319q10.118-.009,20.236,0c.467,0,.979-.126,1.346.319a1.79,1.79,0,0,1-1.093.154q-10.371.006-20.742,0A1.786,1.786,0,0,1,1448.319,178.454Z" transform="translate(-25.12 -90.615)" fill="#f99400"/>
      <path id="Trazado_570464" data-name="Trazado 570464" d="M1448.319,179.156h22.928c-.371.44-.883.311-1.349.312q-10.115.01-20.23,0C1449.2,179.468,1448.69,179.6,1448.319,179.156Z" transform="translate(-25.12 -91.317)" fill="#fea201"/>
      <path id="Trazado_570465" data-name="Trazado 570465" d="M1459.6,145.126l-11.45.026c-.182-.087-.375-.171-.109-.384a91.439,91.439,0,0,1,11.948,0Z" transform="translate(-24.846 -67.909)" fill="#fe9f01"/>
      <path id="Trazado_570466" data-name="Trazado 570466" d="M1448.319,195.471a1.135,1.135,0,0,1,1.02-.323h9.909a1.132,1.132,0,0,1,1.019.324A91.724,91.724,0,0,1,1448.319,195.471Z" transform="translate(-25.12 -102.141)" fill="#fa9400"/>
      <path id="Trazado_570467" data-name="Trazado 570467" d="M1460.268,144.5H1448.32a1.134,1.134,0,0,1,1.02-.323h9.909A1.135,1.135,0,0,1,1460.268,144.5Z" transform="translate(-25.121 -67.642)" fill="#fa9600"/>
      <ellipse id="Elipse_7061" data-name="Elipse 7061" cx="7.892" cy="0.088" rx="7.892" ry="0.088" transform="translate(1421.249 96.945)" fill="#fe9c01"/>
      <path id="Trazado_570468" data-name="Trazado 570468" d="M1448.319,196.147h11.948a1.146,1.146,0,0,1-1.022.316h-9.9A1.144,1.144,0,0,1,1448.319,196.147Z" transform="translate(-25.12 -102.817)" fill="#fea101"/>
      <path id="Trazado_570469" data-name="Trazado 570469" d="M1529.65,131.655q.012,3.307.025,6.614c-.069.162-.3.45-.3.349-.059-2.41-.053-4.821-.053-7.232,0-.025.071-.05.109-.075Z" transform="translate(-79.943 -58.934)" fill="#fe9d01"/>
      <path id="Trazado_570470" data-name="Trazado 570470" d="M1548.271,164.762c-2.333.67-4.709.212-7.066.263-.027,0-.075-.07-.079-.111a.443.443,0,0,1,.04-.153A32.923,32.923,0,0,1,1548.271,164.762Z" transform="translate(-87.934 -81.445)" fill="#f99500"/>
      <path id="Trazado_570471" data-name="Trazado 570471" d="M1548.356,164.342h-7.1A16.269,16.269,0,0,1,1548.356,164.342Z" transform="translate(-88.02 -81.025)" fill="#fea201"/>
      <path id="Trazado_570472" data-name="Trazado 570472" d="M1541.254,119.192h6.413C1545.526,119.3,1543.374,119.921,1541.254,119.192Z" transform="translate(-88.021 -50.731)" fill="#fe9d01"/>
      <path id="Trazado_570473" data-name="Trazado 570473" d="M1542.263,180.842a29.119,29.119,0,0,1,6.133-.018A12.468,12.468,0,0,1,1542.263,180.842Z" transform="translate(-88.704 -92.342)" fill="#fea201"/>
      <path id="Trazado_570474" data-name="Trazado 570474" d="M1557.4,100.408l5.389,0A11.651,11.651,0,0,1,1557.4,100.408Z" transform="translate(-98.946 -38.018)" fill="#fea201"/>
      <path id="Trazado_570475" data-name="Trazado 570475" d="M1582.693,226.088c-.746-.577-1.226-1.253-.631-2.189a1.2,1.2,0,0,1,1.247-.58,1.367,1.367,0,0,1,1.163.988c.264.911-.332,1.383-.977,1.817C1583.216,226.365,1582.947,226.414,1582.693,226.088Z" transform="translate(-115.461 -121.195)" fill="#0e0c00"/>
      <path id="Trazado_570476" data-name="Trazado 570476" d="M1596.352,217.138q0,4.682-.008,9.364c-.7-1.955-.232-3.975-.285-5.961C1596.029,219.418,1595.656,218.216,1596.352,217.138Z" transform="translate(-125.029 -117.024)" fill="#fad700"/>
      <path id="Trazado_570477" data-name="Trazado 570477" d="M1426.726,233.386v5.374l-.161,0v-5.385Z" transform="translate(-10.396 -128.013)" fill="#fee000"/>
      <path id="Trazado_570478" data-name="Trazado 570478" d="M1561.239,208.14c.775.111.638.713.642,1.22.01,1.423,0,2.847,0,4.27-.653-.873-.214-1.871-.314-2.807C1561.474,209.927,1561.744,208.987,1561.239,208.14Z" transform="translate(-101.548 -110.934)" fill="#f9d700"/>
      <path id="Trazado_570479" data-name="Trazado 570479" d="M1438.325,240.975q0-2.42.005-4.84c.667,1.57.211,3.2.257,4.8,0,.027-.07.073-.11.078A.44.44,0,0,1,1438.325,240.975Z" transform="translate(-18.356 -129.882)" fill="#f9d700"/>
      <path id="Trazado_570480" data-name="Trazado 570480" d="M1584.257,231.926l.8.036c.069.724-.467.275-.7.317C1584.087,232.329,1584,232.135,1584.257,231.926Z" transform="translate(-117.024 -127.033)" fill="#fee500"/>
      <path id="Trazado_570481" data-name="Trazado 570481" d="M1562.8,262.4a11.794,11.794,0,0,1-.1,6.131c-1.769.632-3.592.29-5.389.242a1.175,1.175,0,0,1-1.055-1.233,1.3,1.3,0,0,1,.922-1.349.943.943,0,0,1,.464-.106c2.326.423,3.044-.552,2.816-2.833C1560.336,262.043,1561.32,261.762,1562.8,262.4Z" transform="translate(-98.173 -147.434)" fill="#040200"/>
      <path id="Trazado_570482" data-name="Trazado 570482" d="M1483.92,289.28h-43.6c.312-.623.882-.306,1.315-.307q21.143-.028,42.287-.013C1483.925,289.067,1483.922,289.173,1483.92,289.28Z" transform="translate(-19.709 -165.59)" fill="#f99400"/>
      <path id="Trazado_570483" data-name="Trazado 570483" d="M1494.826,91.136c1.714,0,3.428.01,5.142,0,.949-.008,1.772.2,1.824,1.323.053,1.145-.751,1.419-1.71,1.419q-5.141,0-10.283,0c-.893,0-1.65-.265-1.667-1.307-.018-1.109.729-1.437,1.714-1.433C1491.505,91.142,1493.165,91.136,1494.826,91.136Z" transform="translate(-52.065 -31.739)" fill="#050505"/>
      <path id="Trazado_570484" data-name="Trazado 570484" d="M1507.351,61.813c.813,1.332.145,2.805.4,4.191a1.368,1.368,0,0,1-1.809.874c-.78-.278-.91-.964-.888-1.707.018-.64-.018-1.282.008-1.922C1505.125,61.652,1505.753,61.265,1507.351,61.813Z" transform="translate(-63.518 -11.737)" fill="#040404"/>
      <path id="Trazado_570485" data-name="Trazado 570485" d="M1491.288,100.527c.429-.463.994-.292,1.506-.3q4.307-.022,8.615,0c.512,0,1.077-.168,1.506.3A87.233,87.233,0,0,1,1491.288,100.527Z" transform="translate(-54.203 -37.88)" fill="#a9a9a9"/>
      <path id="Trazado_570486" data-name="Trazado 570486" d="M1491.288,101.205h11.626a1.138,1.138,0,0,1-1.02.322h-9.586A1.138,1.138,0,0,1,1491.288,101.205Z" transform="translate(-54.203 -38.557)" fill="#9a9a9a"/>
      <path id="Trazado_570487" data-name="Trazado 570487" d="M1492.537,89.478h10.838v.161H1492.5Z" transform="translate(-55.025 -30.62)" fill="#a0a0a0"/>
      <path id="Trazado_570488" data-name="Trazado 570488" d="M1503.731,65.281v2.8l-.129.006v-2.8Z" transform="translate(-62.537 -14.243)" fill="#a5a5a5"/>
      <path id="Trazado_570489" data-name="Trazado 570489" d="M1578.691,266.214V270.3l-.146,0v-4.086Z" transform="translate(-113.261 -150.24)" fill="#fe8000"/>
      <path id="Trazado_570490" data-name="Trazado 570490" d="M1539.329,137.962a13.6,13.6,0,0,1,.05-7.091.512.512,0,0,1,.482-.071c2.178.019,4.368-.345,6.531.209a.879.879,0,0,1,.309.471,39.636,39.636,0,0,1-.1,6.278c-.112.189-.264.4-.469.406C1543.86,138.245,1541.579,138.59,1539.329,137.962Z" transform="translate(-86.417 -58.521)" fill="#f4f4f4"/>
      <path id="Trazado_570491" data-name="Trazado 570491" d="M1540.262,152.112c1.866,0,3.733.011,5.6-.006.513,0,1.082.168,1.5-.314a.491.491,0,0,1,.308-.185.446.446,0,0,1,.307.182.974.974,0,0,1-.964.9c-2.018.044-4.037.023-6.056-.013A.746.746,0,0,1,1540.262,152.112Z" transform="translate(-87.35 -72.671)" fill="#f8f8f8"/>
      <path id="Trazado_570492" data-name="Trazado 570492" d="M1540.676,130.036l-.13-.005-.129.01a1.024,1.024,0,0,1,1.058-.549q2.632-.036,5.264,0c.413,0,.86.046,1.055.533a.276.276,0,0,1,.1.241q-.016.136-.049.136a.277.277,0,0,1-.372-.05l-.012-.006a35.468,35.468,0,0,0-5.067-.164A3.825,3.825,0,0,1,1540.676,130.036Z" transform="translate(-87.454 -57.691)" fill="#fafafa"/>
      <path id="Trazado_570493" data-name="Trazado 570493" d="M1562.818,131.463q.016-.146.017-.293c.78.606.436,1.468.43,2.206a20.221,20.221,0,0,1-.141,4.581h-.283A27.988,27.988,0,0,1,1562.818,131.463Z" transform="translate(-102.496 -58.839)" fill="#fcfcfc"/>
      <path id="Trazado_570494" data-name="Trazado 570494" d="M1566.5,139.846V134.5l.125,0v5.35Z" transform="translate(-105.111 -61.087)" fill="#040404"/>
      <path id="Trazado_570495" data-name="Trazado 570495" d="M1541.22,131.1c2.26.16,4.552-.381,6.788.307-2.085.028-4.171.04-6.255.1C1541.389,131.52,1541.283,131.389,1541.22,131.1Z" transform="translate(-87.998 -58.757)" fill="#f0f0f0"/>
      <path id="Trazado_570496" data-name="Trazado 570496" d="M1562.545,132.076q.012,3.247.023,6.494l-.331,0q0-3.231.007-6.462Q1562.4,132.1,1562.545,132.076Z" transform="translate(-102.223 -59.452)" fill="#efefef"/>
    </g>
  </g>
</svg>
