<svg xmlns="http://www.w3.org/2000/svg" xmlns:xlink="http://www.w3.org/1999/xlink" width="369.053" height="214.228" viewBox="0 0 369.053 214.228">
  <defs>
    <clipPath id="clip-path">
      <rect id="Rectángulo_279130" data-name="Rectángulo 279130" width="159.053" height="88.332" fill="none"/>
    </clipPath>
  </defs>
  <g id="Grupo_842203" data-name="Grupo 842203" transform="translate(-945.947 -1642.386)">
    <g id="Grupo_841639" data-name="Grupo 841639" transform="translate(945.947 1663.001)">
      <g id="Grupo_841638" data-name="Grupo 841638" clip-path="url(#clip-path)">
        <path id="Trazado_565584" data-name="Trazado 565584" d="M49.373,42.387a3.184,3.184,0,1,1,3.18-3.188v.013a3.179,3.179,0,0,1-3.18,3.175" transform="translate(31.546 -36.029)" fill="#ffce7e"/>
        <path id="Trazado_565585" data-name="Trazado 565585" d="M49.373,58.62a3.184,3.184,0,1,1,3.178-3.188v.01a3.177,3.177,0,0,1-3.178,3.178" transform="translate(31.546 -24.938)" fill="#ffce7e"/>
        <path id="Trazado_565586" data-name="Trazado 565586" d="M49.373,74.853a3.184,3.184,0,1,1,3.178-3.188v.01a3.177,3.177,0,0,1-3.178,3.178" transform="translate(31.546 -13.847)" fill="#ffce7e"/>
        <path id="Trazado_565587" data-name="Trazado 565587" d="M49.373,91.086A3.184,3.184,0,1,1,52.551,87.9v.01a3.177,3.177,0,0,1-3.178,3.178" transform="translate(31.546 -2.756)" fill="#ffce7e"/>
        <path id="Trazado_565588" data-name="Trazado 565588" d="M33.979,42.387A3.184,3.184,0,1,1,37.156,39.2v.017a3.18,3.18,0,0,1-3.176,3.175" transform="translate(21.026 -36.029)" fill="#ffce7e"/>
        <path id="Trazado_565589" data-name="Trazado 565589" d="M33.979,58.62a3.184,3.184,0,1,1,3.176-3.191v.013a3.179,3.179,0,0,1-3.18,3.178" transform="translate(21.026 -24.938)" fill="#ffce7e"/>
        <path id="Trazado_565590" data-name="Trazado 565590" d="M33.979,74.853a3.184,3.184,0,1,1,3.176-3.191v.013a3.179,3.179,0,0,1-3.18,3.178" transform="translate(21.026 -13.847)" fill="#ffce7e"/>
        <path id="Trazado_565591" data-name="Trazado 565591" d="M33.979,91.086a3.184,3.184,0,1,1,3.176-3.191v.013a3.179,3.179,0,0,1-3.18,3.178" transform="translate(21.026 -2.756)" fill="#ffce7e"/>
        <path id="Trazado_565592" data-name="Trazado 565592" d="M18.584,42.387a3.184,3.184,0,1,1,3.18-3.188v.013a3.179,3.179,0,0,1-3.18,3.175" transform="translate(10.509 -36.029)" fill="#ffce7e"/>
        <path id="Trazado_565593" data-name="Trazado 565593" d="M18.584,58.62a3.184,3.184,0,1,1,3.178-3.188v.01a3.177,3.177,0,0,1-3.178,3.178" transform="translate(10.509 -24.938)" fill="#ffce7e"/>
        <path id="Trazado_565594" data-name="Trazado 565594" d="M18.584,74.853a3.184,3.184,0,1,1,3.178-3.188v.01a3.177,3.177,0,0,1-3.178,3.178" transform="translate(10.509 -13.847)" fill="#ffce7e"/>
        <path id="Trazado_565595" data-name="Trazado 565595" d="M18.584,91.086A3.184,3.184,0,1,1,21.762,87.9v.01a3.177,3.177,0,0,1-3.178,3.178" transform="translate(10.509 -2.756)" fill="#ffce7e"/>
        <path id="Trazado_565596" data-name="Trazado 565596" d="M3.188,42.387A3.184,3.184,0,1,1,6.368,39.2v.013a3.179,3.179,0,0,1-3.18,3.175" transform="translate(-0.01 -36.029)" fill="#ffce7e"/>
        <path id="Trazado_565597" data-name="Trazado 565597" d="M3.188,58.62a3.184,3.184,0,1,1,3.178-3.188v.01A3.177,3.177,0,0,1,3.188,58.62Z" transform="translate(-0.01 -24.938)" fill="#ffce7e"/>
        <path id="Trazado_565598" data-name="Trazado 565598" d="M3.188,74.853a3.184,3.184,0,1,1,3.178-3.188v.01A3.177,3.177,0,0,1,3.188,74.853Z" transform="translate(-0.01 -13.847)" fill="#ffce7e"/>
        <path id="Trazado_565599" data-name="Trazado 565599" d="M3.188,91.086A3.184,3.184,0,1,1,6.366,87.9v.01A3.177,3.177,0,0,1,3.188,91.086Z" transform="translate(-0.01 -2.756)" fill="#ffce7e"/>
        <path id="Trazado_565600" data-name="Trazado 565600" d="M93.9,42.387a3.184,3.184,0,1,1,3.18-3.188v.013A3.178,3.178,0,0,1,93.9,42.39" transform="translate(61.97 -36.029)" fill="#ffce7e"/>
        <path id="Trazado_565601" data-name="Trazado 565601" d="M93.9,58.62a3.184,3.184,0,1,1,3.178-3.188v.01A3.177,3.177,0,0,1,93.9,58.62" transform="translate(61.97 -24.938)" fill="#ffce7e"/>
        <path id="Trazado_565602" data-name="Trazado 565602" d="M93.9,74.853a3.184,3.184,0,1,1,3.178-3.188v.01A3.177,3.177,0,0,1,93.9,74.853" transform="translate(61.97 -13.847)" fill="#ffce7e"/>
        <path id="Trazado_565603" data-name="Trazado 565603" d="M93.9,91.086A3.184,3.184,0,1,1,97.08,87.9v.01A3.177,3.177,0,0,1,93.9,91.086" transform="translate(61.97 -2.756)" fill="#ffce7e"/>
        <path id="Trazado_565604" data-name="Trazado 565604" d="M78.508,42.387a3.184,3.184,0,1,1,3.18-3.188v.013A3.178,3.178,0,0,1,78.51,42.39" transform="translate(51.452 -36.029)" fill="#ffce7e"/>
        <path id="Trazado_565605" data-name="Trazado 565605" d="M78.508,58.62a3.184,3.184,0,1,1,3.178-3.188v.01a3.177,3.177,0,0,1-3.178,3.178" transform="translate(51.452 -24.938)" fill="#ffce7e"/>
        <path id="Trazado_565606" data-name="Trazado 565606" d="M78.508,74.853a3.184,3.184,0,1,1,3.178-3.188v.01a3.177,3.177,0,0,1-3.178,3.178" transform="translate(51.452 -13.847)" fill="#ffce7e"/>
        <path id="Trazado_565607" data-name="Trazado 565607" d="M78.508,91.086A3.184,3.184,0,1,1,81.686,87.9v.01a3.177,3.177,0,0,1-3.178,3.178" transform="translate(51.452 -2.756)" fill="#ffce7e"/>
        <path id="Trazado_565608" data-name="Trazado 565608" d="M63.113,42.387a3.184,3.184,0,1,1,3.18-3.188v.013a3.179,3.179,0,0,1-3.18,3.175" transform="translate(40.933 -36.029)" fill="#ffce7e"/>
        <path id="Trazado_565609" data-name="Trazado 565609" d="M63.113,58.62a3.184,3.184,0,1,1,3.178-3.188v.01a3.177,3.177,0,0,1-3.178,3.178" transform="translate(40.933 -24.938)" fill="#ffce7e"/>
        <path id="Trazado_565610" data-name="Trazado 565610" d="M63.113,74.853a3.184,3.184,0,1,1,3.178-3.188v.01a3.177,3.177,0,0,1-3.178,3.178" transform="translate(40.933 -13.847)" fill="#ffce7e"/>
        <path id="Trazado_565611" data-name="Trazado 565611" d="M63.113,91.086A3.184,3.184,0,1,1,66.291,87.9v.01a3.177,3.177,0,0,1-3.178,3.178" transform="translate(40.933 -2.756)" fill="#ffce7e"/>
      </g>
    </g>
    <g id="Grupo_841818" data-name="Grupo 841818" transform="translate(673.054 1600.478)">
      <path id="Trazado_568185" data-name="Trazado 568185" d="M444.73,169.277l89.224,52.956c14.966,8.64,39.229,8.64,54.194,0s14.966-22.65,0-31.29l-89.224-52.956c-14.965-8.64-39.229-8.64-54.194,0S429.765,160.636,444.73,169.277Z" transform="translate(20.955 27.424)" fill="#35241a" opacity="0.1" style="mix-blend-mode: multiply;isolation: isolate"/>
      <path id="Trazado_568186" data-name="Trazado 568186" d="M373.57,164.825l51.261,29.692c7.122,4.11,18.668,4.11,25.788,0s7.122-10.779,0-14.889l-51.259-29.692c-7.122-4.112-18.668-4.112-25.79,0S366.449,160.713,373.57,164.825Z" transform="translate(0.976 32.12)" fill="#35241a" opacity="0.1" style="mix-blend-mode: multiply;isolation: isolate"/>
      <g id="Grupo_841817" data-name="Grupo 841817" transform="translate(365.041 41.909)">
        <g id="Grupo_841816" data-name="Grupo 841816">
          <g id="Grupo_841814" data-name="Grupo 841814" transform="translate(81.376 37.562)">
            <path id="Trazado_568187" data-name="Trazado 568187" d="M549.573,149.645l-3.132,25.414c-.841,4.635-1.5,7.928-6.156,7.207l-15.195-2.632h-2.082s-1.1,3.353-3.363,4.9a4.34,4.34,0,0,1-1.812.741c-9.658,1.411-8.087-10.759-8.087-10.759l1.661-4.795,4.6-2.022.4-.171,4.5,1.352,14.684,2.172s-1-15.844-1.172-16.515S549.573,149.645,549.573,149.645Z" transform="translate(-402.155 -46.495)" fill="#54371a"/>
            <path id="Trazado_568188" data-name="Trazado 568188" d="M519.646,180.306a4.34,4.34,0,0,1-1.812.741c-9.658,1.411-8.087-10.759-8.087-10.759l1.661-4.795,4.6-2.022a2.967,2.967,0,0,1,.981.921c1.141,1.691.36,3.934.051,5.945a11.805,11.805,0,0,0,1.391,7.527A11.053,11.053,0,0,1,519.646,180.306Z" transform="translate(-402.155 -42.264)" fill="#1a1a1a"/>
            <path id="Trazado_568189" data-name="Trazado 568189" d="M460.914,80.986A166.636,166.636,0,0,0,446.43,91.079a53.527,53.527,0,0,0-11.777,12.682,35.315,35.315,0,0,0-5.47,16.259,36.474,36.474,0,0,0,2.734,17.117l-.982.445a37.913,37.913,0,0,1-3.558-17.672,37.525,37.525,0,0,1,5.1-17.465,56.384,56.384,0,0,1,11.843-13.87,169.953,169.953,0,0,1,14.362-10.914Z" transform="translate(-427.346 -68.527)" fill="#754c24"/>
            <path id="Trazado_568190" data-name="Trazado 568190" d="M492.147,167.671c-4.064,4.9-12.491-6.806-12.491-6.806l.43-1.992.27-1.221-2.6-3.123v-4.245l-7.627-27.655c.03-1.251,7.967,1.2,11.39,1.642l3.814,5.735,1.181,17.917s.761,5.134,2.133,7.317c1.11,1.781,2.5,3.434,3.523,5.065C493.648,162.7,494.33,165.039,492.147,167.671Z" transform="translate(-414.253 -54.872)" fill="#54371a"/>
            <path id="Trazado_568191" data-name="Trazado 568191" d="M487.835,129.563a12.431,12.431,0,0,1-1.361,5.664,14.184,14.184,0,0,1-3.172,4.135,15.688,15.688,0,0,1-2.212,1.7,9.412,9.412,0,0,0,.631,2.683,6.675,6.675,0,0,1,.61,1.781,1.542,1.542,0,0,1-.78,1.582,1.357,1.357,0,0,1-1.431-.36,2.81,2.81,0,0,1-.711-1.381,18.655,18.655,0,0,1-.321-3.183,18.827,18.827,0,0,1-6.846,1.7q-.133,1.787-.269,3.573c-.04.451-.131.991-.541,1.172a.823.823,0,0,1-.841-.18,1.856,1.856,0,0,1-.461-.76,11.023,11.023,0,0,1-.479-3.8,18.789,18.789,0,0,1-7.647-2.2c-.341,1.05-.68,2.111-1.021,3.162-.18.551-.44,1.191-1,1.322a1.211,1.211,0,0,1-1.311-.972,4.183,4.183,0,0,1,.11-1.791,13.839,13.839,0,0,0,.24-3.084c-.01-.249-.05-.511-.07-.78a13.306,13.306,0,0,1-4.724-9.98,13.645,13.645,0,0,1,6.026-11.03,18.255,18.255,0,0,1,9.639-3.3c.37-.03.76-.04,1.14-.04C480.319,115.19,487.835,121.626,487.835,129.563Z" transform="translate(-419.12 -57.041)" fill="#ffb294"/>
            <path id="Trazado_568192" data-name="Trazado 568192" d="M589.182,154.7,572.651,164.95l-2.536,11.125-12.823,9.149a32.617,32.617,0,0,1-26.747-1.592l-22.672-11.842a34.228,34.228,0,0,1-8.291-6.106l-12.7-12.7-13.821-13.8-9.237-7.015-1.364-1.05-16.426-12.455-3.5-24.072,3.972-11.7a7.571,7.571,0,0,1,2.256-3.324,6.873,6.873,0,0,1,1.7-1.136l14.834-7.033a7.712,7.712,0,0,1,4.337-.646l16.812,2.378a10.65,10.65,0,0,1,4.373,1.644l11.529,7.54,38.835,16.5a11.11,11.11,0,0,1,3.447,2.327L559.163,115.6l13.523-.385,1.294-.035,4.95-.123a6,6,0,0,1,6.14,5.283l.508,4.322,2.466,20.676.315,2.467Z" transform="translate(-422.698 -70.667)" fill="#754c24"/>
            <path id="Trazado_568193" data-name="Trazado 568193" d="M429.985,127.46a30.767,30.767,0,0,0,2.809,4.272,8.05,8.05,0,0,1,1.7,4.737,13.848,13.848,0,0,0,.257-8.836c-.567-1.84-2.156-5.533-4.112-6.319-1.452-.584-1.4.516-1.458,2.075A9.021,9.021,0,0,0,429.985,127.46Z" transform="translate(-426.786 -55.215)" fill="#54371a"/>
            <path id="Trazado_568194" data-name="Trazado 568194" d="M566.655,137.991l-13.577,8.435a8.292,8.292,0,0,0-3.709,5.2l-.388,1.7a16.342,16.342,0,0,1-6.443,9.664l-7.772,5.542a32.549,32.549,0,0,1-17.807,1.532l-.85-2.092,5.422-1.976a19.964,19.964,0,0,0,12.854-15.443,13.566,13.566,0,0,1,6-9.128l7.216-4.682,8.8-11.51,9.139,3.4Z" transform="translate(-400.179 -53.968)" fill="#c7b299"/>
            <path id="Trazado_568195" data-name="Trazado 568195" d="M584.513,144.661l-16.531,10.251-2.536,11.125-12.823,9.149a32.617,32.617,0,0,1-26.747-1.592L503.2,161.753a34.228,34.228,0,0,1-8.291-6.106l-12.7-12.7-13.821-13.8-9.237-7.015-1.364-1.05L464.385,112c1.5,2.431,2.974,4.687,4.408,6.822a114.867,114.867,0,0,0,16.584,19.995c10.916,10.234,22.6,15.8,40.147,24.858L536,162.33a14.87,14.87,0,0,0,12.315-10.339l.717-2.274a8.716,8.716,0,0,1,4.689-5.318,8.668,8.668,0,0,0,5.038-8.4c-1.451-2.2-4.145-3.236-6.734-3.726-1.015-.192-8.327-2.169-11.056-3.691-5.7-3.184-7.767-5.021-2.309-12.052,5.3-6.84,7.7-5.354,17.493-6.246,2.536-.227,8.168-3.2,13.155-5.143,3.814-1.486,7.242-2.378,8.589-.98a12.188,12.188,0,0,1,3.149,9.324c-.035.385-.071.752-.14,1.138-.84,5.335-4.67,10.023-9.464,12.577a22.645,22.645,0,0,1-4.041,1.68l16.285,8.886Z" transform="translate(-418.028 -60.63)" fill="#54371a" opacity="0.5" style="mix-blend-mode: multiply;isolation: isolate"/>
            <path id="Trazado_568196" data-name="Trazado 568196" d="M482.333,117.655l-10.95,13.262a27.251,27.251,0,0,1-9.639,7.428l-9.439,4.334-4.445,17.766a7.711,7.711,0,0,0,.961,5.945,26.031,26.031,0,0,1,2.041,3.814c1.221,2.893,1.732,6.056-.56,7.877-4.984,3.964-12.491-6.8-12.491-6.8l.53-2.433.17-.78L436.79,165.2l1.622-4.874.56-21.98a4.264,4.264,0,0,1,2.112-3.683c5.9-3.253,5.325-13.853,6.716-23.262l1.5-17.015Z" transform="translate(-424.456 -63.41)" fill="#754c24"/>
            <path id="Trazado_568197" data-name="Trazado 568197" d="M540.02,223.019c-7.006,5.675-13.182-2.674-13.182-2.674v-3.662l-1.831-1.672v-4.5l-4.335-19.018s-3.252-5.014-4.173-8.647-.5-10.37-.5-10.37l-9.34-21.519v-10.84l20.179,8.508-.33,23.522s2.523,4.484,3,7.667-.66,8.678-.66,8.678l5.995,22.351a31.157,31.157,0,0,1,4.595,5.226C541.1,218.534,542.112,221.326,540.02,223.019Z" transform="translate(-403.071 -49.413)" fill="#754c24"/>
            <path id="Trazado_568198" data-name="Trazado 568198" d="M450.063,160.629c-4.984,3.964-12.491-6.8-12.491-6.8l.53-2.433c.751.451,1.461,1.161,2.032,1.573a28.14,28.14,0,0,0,4.3,2.542,7.654,7.654,0,0,0,2.792.841,3.109,3.109,0,0,0,2.613-1.051,5.5,5.5,0,0,0,.78-2.552C451.845,155.645,452.355,158.808,450.063,160.629Z" transform="translate(-424.217 -45.958)" fill="#1a1a1a"/>
            <path id="Trazado_568199" data-name="Trazado 568199" d="M489.914,159.095c-4.064,4.9-12.491-6.806-12.491-6.806l.43-1.992a21.069,21.069,0,0,1,2.283,1.981,8.059,8.059,0,0,0,3.812,1.633,8.28,8.28,0,0,0,5.986-2.182C491.415,154.12,492.1,156.463,489.914,159.095Z" transform="translate(-412.02 -46.296)" fill="#1a1a1a"/>
            <path id="Trazado_568200" data-name="Trazado 568200" d="M535.291,205.22c-7.006,5.675-13.182-2.674-13.182-2.674v-2.522c.071.02.15.03.24.051,1.421.27,2.833,1.38,4.3,1.731a7.631,7.631,0,0,0,6.306-.91,4.759,4.759,0,0,0,1.751-2.632C536.373,200.735,537.384,203.527,535.291,205.22Z" transform="translate(-398.342 -31.615)" fill="#1a1a1a"/>
            <path id="Trazado_568201" data-name="Trazado 568201" d="M571.688,115.225a6.805,6.805,0,0,1-2.011,3.543,18,18,0,0,1-5.215,3.132q-8.483,3.844-16.975,7.7c-2,.91-4.155,1.842-6.327,1.492-3.4-.551-5.465-3.923-7.707-6.546-5.415-6.367-13.723-9.4-21.789-11.6s-16.485-3.893-23.482-8.457c-5.625-3.684-10.02-9.029-15.645-12.732s-13.5-5.415-18.866-1.341c-1.893,1.441-4.095,3.632-6.2,2.532-1.481-.781-1.762-2.773-1.691-4.455a25.95,25.95,0,0,1,1.981-8.928,7.286,7.286,0,0,1,1.711-1.131L464.309,71.4a7.608,7.608,0,0,1,4.333-.66l16.807,2.382a10.806,10.806,0,0,1,4.383,1.651l11.521,7.537,38.836,16.494a11.109,11.109,0,0,1,3.453,2.322l14.533,14.463Z" transform="translate(-421.707 -70.668)" fill="#c7b299" opacity="0.1" style="mix-blend-mode: screen;isolation: isolate"/>
            <g id="Grupo_841813" data-name="Grupo 841813" transform="translate(118.242 31.617)">
              <g id="Grupo_841812" data-name="Grupo 841812">
                <path id="Trazado_568202" data-name="Trazado 568202" d="M556.3,100.01c1.717-2.014,3.587-4.127,6.131-4.856,3.3-.944,6.729.686,9.773,2.27a4.652,4.652,0,0,1,2.6,2.381c.487,1.571-.763,3.1-1.915,4.276a12.35,12.35,0,0,1-12.178,4.806c-1.712-.074-9.432.627-10-1.182C550.1,105.718,555.248,101.246,556.3,100.01Z" transform="translate(-507.844 -94.876)" fill="#87582a"/>
                <path id="Trazado_568203" data-name="Trazado 568203" d="M557.713,101.99a15.072,15.072,0,0,1,4.718-4.23,7.615,7.615,0,0,1,6.562.043c1.164.577,2.271,1.71,2.064,2.991a3.9,3.9,0,0,1-1.573,2.146,10.823,10.823,0,0,1-9.414,3.432c-.938-.017-4.77.426-5.142-.458S557.146,102.557,557.713,101.99Z" transform="translate(-506.551 -94.214)" fill="#54371a" opacity="0.5" style="mix-blend-mode: multiply;isolation: isolate"/>
                <path id="Trazado_568204" data-name="Trazado 568204" d="M582.832,155.022a15.09,15.09,0,0,1-8.117,2.492H574.5a7.64,7.64,0,0,1-6.707-3.473l-2.5-5.954-12.811-1.742a15.984,15.984,0,0,1-12.152-8.7l-5.565-11.13-1.651-12.841,16.144-10.97a5.967,5.967,0,0,1,3.374-1.041h10.129a5.981,5.981,0,0,1,4.494,2.022l3.713,4.173A6.016,6.016,0,0,1,572.4,110.9l1.061,6.606,9.338,15.854,2.223,2.223,2.282,2.282c.191.43.371.841.56,1.241C591.35,146.866,592.861,148.577,582.832,155.022Z" transform="translate(-513.218 -92.798)" fill="#87582a"/>
                <path id="Trazado_568205" data-name="Trazado 568205" d="M530.34,111a14.827,14.827,0,0,0-5.913,1.354c-2.476,1.358-3.946,3.976-5.287,6.461-.845,1.567-1.71,3.418-1,5.051.717,1.648,2.689,2.27,4.432,2.709a40.154,40.154,0,0,0,8.21,1.464,13.459,13.459,0,0,0,7.98-1.959,16.888,16.888,0,0,0,5.053-6.142,12.728,12.728,0,0,0,1.879-5.45c.135-3.007-1.279-4.655-4.1-4.472C537.838,110.26,534.087,110.673,530.34,111Z" transform="translate(-517.879 -90.246)" fill="#87582a"/>
              </g>
              <path id="Trazado_568206" data-name="Trazado 568206" d="M529.772,125.02c2.718.209,5.74-.047,7.667-1.973,1.975-1.976,2.184-5.058,2.274-7.851a2.126,2.126,0,0,0-.368-1.566,2.012,2.012,0,0,0-1.319-.465,22.245,22.245,0,0,0-12.4,2.579c-2.574,1.378-9.106,5.25-4.04,7.506A25.28,25.28,0,0,0,529.772,125.02Z" transform="translate(-517.317 -89.304)" fill="#54371a" opacity="0.5" style="mix-blend-mode: multiply;isolation: isolate"/>
              <path id="Trazado_568207" data-name="Trazado 568207" d="M577.523,153.207a15.09,15.09,0,0,1-8.117,2.492h-.219a7.64,7.64,0,0,1-6.707-3.473l-2.5-5.954c1.712-1.482,4-1.813,5.075-3.844,2.162-4.155.741-9-1.232-12.9a77.629,77.629,0,0,0-7.247-11.03c-.189-.251-.38-.511-.569-.771-1.021-1.371-5.176-1.983-5.535-3.654s5.074-5.435,6.585-6.235c1.772-.951,2.283,1.111,3.414,2.762s1.481,3.7,2.022,5.636a26.208,26.208,0,0,0,8.718,13.242c3.4,2.743,4.593,3.823,6.956,4.655a1.986,1.986,0,0,0,1.552-.36L582,136.052c.191.43.371.841.56,1.241.29.65.571,1.251.822,1.822.35.771.67,1.481.93,2.132C586.191,145.911,585.58,148.032,577.523,153.207Z" transform="translate(-507.909 -90.983)" fill="#c7b299"/>
              <path id="Trazado_568208" data-name="Trazado 568208" d="M564.556,139.218a.939.939,0,0,0-1.28,1.371,1.909,1.909,0,0,0,1.523.336l5.15-.35c.269-.018.586-.065.711-.306.221-.427-.387-.8-.858-.887a21.651,21.651,0,0,0-5.479-.35Z" transform="translate(-504.063 -81.374)" fill="#1a1a1a"/>
              <path id="Trazado_568209" data-name="Trazado 568209" d="M576.934,133.86a.488.488,0,0,1-.02.131,11.294,11.294,0,0,1-1.2,2.932c-.2.381-.62.832-.97.581-.221-.161-.21-.491-.17-.761.18-1.181.391-3.963,1.251-4.853a1.328,1.328,0,0,1,.18-.161C576.354,132.5,576.674,133.209,576.934,133.86Z" transform="translate(-500.534 -83.596)" fill="#1a1a1a"/>
              <path id="Trazado_568210" data-name="Trazado 568210" d="M548.014,122.068a2.047,2.047,0,0,0,1.034,1.5,2.732,2.732,0,0,0,1.83.274,1.96,1.96,0,0,0,1.492-1.017,1.823,1.823,0,0,0-.831-2.146C550.239,119.86,547.777,119.993,548.014,122.068Z" transform="translate(-508.66 -87.121)"/>
              <path id="Trazado_568211" data-name="Trazado 568211" d="M562.972,113.183a1.742,1.742,0,0,0,.091,1.637,1.068,1.068,0,0,0,1.493.274,1.649,1.649,0,0,0,.4-1.3,3.265,3.265,0,0,0-.17-1.185C564.229,111.208,563.337,112.294,562.972,113.183Z" transform="translate(-504.126 -89.654)"/>
            </g>
          </g>
          <g id="Grupo_841815" data-name="Grupo 841815">
            <path id="Trazado_568212" data-name="Trazado 568212" d="M392.924,62.726s-8.376-12.416,1.5-18.841c8.922-5.8,18.173,6.712,18.173,6.712Z" transform="translate(-357.521 -41.774)" fill="#fbb03b"/>
            <path id="Trazado_568213" data-name="Trazado 568213" d="M426.181,44.651c2.788,4.83-4.7,14.376-16.736,21.322s-24.045,8.663-26.833,3.833,4.7-14.375,16.736-21.322S423.392,39.822,426.181,44.651Z" transform="translate(-359.841 -41.909)" fill="#c4720e"/>
            <path id="Trazado_568214" data-name="Trazado 568214" d="M424.442,91.07l2.474-.509,2.2-.546,3.825-.249a3.616,3.616,0,0,0,2.658-1.439l.283-.377c.707-.165.82-.683,1.092-1.356l1.01-1.318.078-1.506-.306-2.808c.017-1.434-.594-1.174-1.233-.7l-.166,1.115-.959.872-2.317,1.823L432.6,81.5l1.8-1.442,1.1-.648c.942-.631.516-1.33-.434-1.115l-2.461.845-3.308,2.509-2.054,4.067-2.795,1.813Z" transform="translate(-346.86 -30.784)" fill="#ffb294"/>
            <path id="Trazado_568215" data-name="Trazado 568215" d="M411.722,65.82c4.45,3.677,6.4,15.468,8.181,24.779l12.937-.733c-1.343,2.207-.413,3.327.768,4.323-6.345,3.64-12.729,4.543-19.332,5.086-8.615-1.259.619-19.365-9.355-22.339Z" transform="translate(-352.835 -34.59)" fill="#b4d7ed"/>
            <path id="Trazado_568216" data-name="Trazado 568216" d="M394.7,155.966l-4.938-3.943a9.812,9.812,0,0,1-2.075-5.18c-3.294-.583-6.307-2.028-7.324-5.192-.1.08-.2.163-.308.238-.321.159-.627.327-.925.5-3.8.67-5.088,3.152-5.458,6.285.627,3.534,4.492,3.781,6.9,5.813,5.527,4.673,5.243,7.238,8.435,8.264,3.884,1.249,9.657-.142,10.143-1.881C399.547,159.441,398.488,157.823,394.7,155.966Zm-3.566-2.357q.621.627,1.343,1.275C391.992,154.462,391.553,154.036,391.137,153.608Zm-.524-.551c-.04-.047-.085-.093-.125-.138C390.529,152.964,390.572,153.011,390.614,153.057Z" transform="translate(-362.398 -11.381)"/>
            <path id="Trazado_568217" data-name="Trazado 568217" d="M430.389,179.5a24.954,24.954,0,0,1-6.474-10.048,17.472,17.472,0,0,1-7.148-.153c.054.145.116.282.17.428-2.677,1.737-2.564,5.244-1.994,7.865,1.254,2.108,3.057,3.4,5.129,6.5l1.954,2.035c3.9,2.589,10.869,2.923,13.319,1.556C436.924,185.482,435.064,183.309,430.389,179.5Zm-13.945-8.847c.018-.048.037-.1.057-.148C416.48,170.554,416.464,170.6,416.445,170.653Z" transform="translate(-349.869 -2.918)"/>
            <path id="Trazado_568218" data-name="Trazado 568218" d="M422.43,102.387l-22.809.206c3.336,8.009-1.478,11.789-3.976,27.036-13.553,6.048-12.378,18.959-17.787,24.766.96,5.539,8.791,8.061,12.677,6.393-.229-3.188,2.734-16.477,22.078-27.8A51.128,51.128,0,0,0,422.43,102.387Z" transform="translate(-361.118 -23.398)" fill="#0051a3"/>
            <path id="Trazado_568219" data-name="Trazado 568219" d="M432.347,191.318c-1.887,1.591-6.508,1.472-9.867.7l-.089-.014a8.886,8.886,0,0,1-3.329-1.307c-5.128-13.643-10.953-22.368-8.695-36.307-4.443-14.356-14.727-15.946-20.435-36.455-1.9-5.514-.892-9.824.848-15.546h28.787c-.074.6-.163,1.19-.3,1.784-.966,4.815-3.73,9.988-8.308,12.914,4.652,8.695,7.639,20.42,9.794,33.691,2.973,9.11,6.018,24.61,10.715,38.342C431.575,189.4,432.244,191.051,432.347,191.318Z" transform="translate(-357.736 -23.398)" fill="#0071bc"/>
            <path id="Trazado_568220" data-name="Trazado 568220" d="M419.472,98.37l.3,3.166.743,7.98a12.264,12.264,0,0,1-.832,5.9c-.1.208-.193.4-.3.609-3.938,7.639-14.371,7.565-21.608,3.8a14.851,14.851,0,0,1-6.584-6.2A16.07,16.07,0,0,1,393,109.338a11.663,11.663,0,0,0,1.412-3.24,3.8,3.8,0,0,0,.074-.431,5.783,5.783,0,0,0-.447-3.165c-1.01-2.527-1.887-4.846-2.57-6.718-.163-.475-.327-.906-.475-1.307a.212.212,0,0,0-.03-.089c-.133-.387-.268-.729-.371-1.055-.491-1.412-.773-2.229-.773-2.229-.282-.818-.55-1.591-.788-2.333s-.461-1.442-.654-2.111c-1.412-4.92-1.293-8.278,2.809-11.815.965-.714,1.932-1.383,2.9-2.022.475-.312.951-.624,1.426-.921,6.138-3.835,12.425-6.213,18.948-6.213.4,0,.818.014,1.234.03,3.492-1,3.209,7.817,4.042,13.033.52,3.24,5.557,7.744,5.766,11.013C426.01,97.6,419.472,98.37,419.472,98.37Z" transform="translate(-358.147 -34.645)" fill="#0071bc"/>
            <path id="Trazado_568221" data-name="Trazado 568221" d="M394,100.378c-2.512-6.272-4.175-11.265-4.175-11.265-.564-1.62-1.07-3.091-1.442-4.443-1.412-4.92-1.293-8.278,2.809-11.815a8.037,8.037,0,0,1,.965-.714c4.084,1.344,5.948,8.662,7.472,22.074C400.1,98.316,398.056,100.944,394,100.378Z" transform="translate(-358.147 -32.656)" fill="#d4eeff"/>
            <path id="Trazado_568222" data-name="Trazado 568222" d="M414.975,81.232C412,85.1,401.6,87.53,401.6,87.53c-1.665-12.171-7.951-15.664-7.951-15.664,6.138-3.835,10.432-6.106,16.955-6.106C414.635,69.877,414.975,81.232,414.975,81.232Z" transform="translate(-356.284 -34.609)" fill="#d4eeff"/>
            <path id="Trazado_568223" data-name="Trazado 568223" d="M396.8,61.188l.274,10.348,3.3,5.312c.453.721,1.159,1.749,2.013,2.952,3.238,4.563,10.274.7,8.2-4.5-.116-.289-.235-.573-.36-.853l-.53-2.855-1.319-5.453Z" transform="translate(-355.32 -36.008)" fill="#ffb294"/>
            <path id="Trazado_568224" data-name="Trazado 568224" d="M398.642,63.988c-.039.118,1.532,10.992,7.438,10.677,3.7-.2,3-8.363,3-8.363Z" transform="translate(-354.757 -35.151)" fill="#ffb294" opacity="0.5" style="mix-blend-mode: multiply;isolation: isolate"/>
            <path id="Trazado_568225" data-name="Trazado 568225" d="M410.571,74.663c-2.693,1.207-6.61-1.653-8.39-3.148A4.981,4.981,0,0,1,400.8,69.63l-1.45-3.443-2.274.178s-4.02-.491-3.4-8.287c.311-3.9,5.984-8.344,10.11-8.364,6.5-.033,8.22,2.858,9.944,5.518s.739,8.12.739,8.12S414.187,73.043,410.571,74.663Z" transform="translate(-356.297 -39.52)" fill="#ffb294"/>
            <path id="Trazado_568226" data-name="Trazado 568226" d="M401.673,70.976s9.067-3.814,10.8-13.658c0,0,1.929,5.513,4.37,6.891a10.57,10.57,0,0,1-.554-4.044c.2-1.582,1.942-10.228-6.888-11.667-8.184-1.333-15.713,5.429-16.694,10.868-1.825,10.1,5.3,15.928,7.724,17.989C400.431,77.355,399.669,72.552,401.673,70.976Z" transform="translate(-356.663 -39.944)" fill="#722811"/>
            <path id="Trazado_568227" data-name="Trazado 568227" d="M422.7,199.277l-.089-.014a8.886,8.886,0,0,1-3.329-1.307c-5.128-13.643-10.953-22.368-8.695-36.307-4.443-14.356-14.727-15.946-20.435-36.455-1.9-5.514-.892-9.824.848-15.546a16.07,16.07,0,0,1,1.813-4.294,11.663,11.663,0,0,0,1.412-3.24,2.066,2.066,0,0,0,.074-.431,5.783,5.783,0,0,0-.447-3.165c-1.01-2.527-1.887-4.846-2.57-6.718-.163-.475-.327-.906-.475-1.307a.212.212,0,0,0-.03-.089c-.133-.387-.268-.729-.371-1.055-.491-1.412-.773-2.229-.773-2.229-.282-.818-.55-1.591-.788-2.333s-.461-1.442-.654-2.111c.4-2.393.922-4.459,1.442-3.923C399.217,88.692,400,100.8,409.666,99.63c5.364-.669,6.361-6.88,6.361-6.88,1.382,1.2,1.946,1.768,3.255,1.634l.3,3.166c-5.529,4.1-13.806,5.811-18.8,12.1a18.341,18.341,0,0,0-3.195,6.2,22.778,22.778,0,0,0-.6,2.483c-3.714,10.58,9.526,23.734,15.2,38.447C419.281,172.63,410.84,174.963,422.7,199.277Z" transform="translate(-357.956 -30.659)" fill="#227fbc" opacity="0.3" style="mix-blend-mode: multiply;isolation: isolate"/>
            <path id="Trazado_568228" data-name="Trazado 568228" d="M378.653,108.583l-1.823,2.792-6.042,4.332-2.621,3.362-2.2,4.066c-.475.722-.151,1.463.323,1.121l-.968,1.71c-.7,1.234.056,1.652.912.684l4.217-5.129-3.705,5.7c-.683,1.083.153,1.6.969.569l4.844-5.7-2.792,4.958c-.722,1.314-.076,1.919.969.741l6.25-7.561-.575,3.573-.073,1.916c0,1.255,1.161,1.179,1.413-.187l.461-1.7,1.528-2.762.609-6.858.816-4.54Z" transform="translate(-365.041 -21.502)" fill="#ffb294"/>
            <path id="Trazado_568229" data-name="Trazado 568229" d="M394.038,74.316c-2.816.763-6.792,10.923-10.9,22.188-3.626,4.789-5.61,16.643-9.333,25.611a10.376,10.376,0,0,1,4.68,2.581c3.268-9.651,9.062-16.262,9.822-24.164,3.264-4.7,7.019-9.35,9.5-12.918C401.294,82.9,398.551,74.316,394.038,74.316Z" transform="translate(-362.36 -31.99)" fill="#d4eeff"/>
            <path id="Trazado_568230" data-name="Trazado 568230" d="M429,103.707a53.529,53.529,0,0,1,2.941-8.86c1.165-2.862,2.547-5.619,3.984-8.341a125.5,125.5,0,0,1,10-15.465L448.74,67.4c.964-1.192,1.973-2.347,2.958-3.521,1.933-2.382,4.091-4.566,6.156-6.827,2.1-2.232,4.34-4.323,6.5-6.49l6.811-6.157a.186.186,0,0,1,.252.273l-6.686,6.276c-2.116,2.2-4.31,4.326-6.358,6.588-2.014,2.291-4.119,4.5-6,6.907-.956,1.187-1.938,2.352-2.873,3.555l-2.723,3.67a124.252,124.252,0,0,0-9.614,15.49c-1.366,2.71-2.676,5.452-3.764,8.277a52.4,52.4,0,0,0-2.68,8.573.891.891,0,0,1-1.046.744.874.874,0,0,1-.68-1.032Z" transform="translate(-345.471 -41.16)" fill="#722811"/>
          </g>
        </g>
        <path id="Trazado_568231" data-name="Trazado 568231" d="M402.468,54.956c6.362-3.673,12.715-4.58,14.189-2.026l-2.5-6.765-14.162,4.01-11,9.405,4.625,6.652C392.145,63.677,396.106,58.63,402.468,54.956Z" transform="translate(-357.71 -40.606)" fill="#c4720e"/>
      </g>
    </g>
  </g>
</svg>
