<svg xmlns="http://www.w3.org/2000/svg" width="108" height="107" viewBox="0 0 108 107">
  <g id="Grupo_842159" data-name="Grupo 842159" transform="translate(-0.023)">
    <rect id="Rectángulo_38178" data-name="Rectángulo 38178" width="108" height="107" transform="translate(0.023)" fill="none"/>
    <g id="Grupo_842163" data-name="Grupo 842163" transform="translate(-1700.741 -30.598)">
      <path id="Trazado_570497" data-name="Trazado 570497" d="M1738.963,77.7a20.477,20.477,0,0,1-10.17-.611,18.451,18.451,0,0,1-11.683-22.464c.4-1.357,1.04-2.19,2.58-1.907a1.76,1.76,0,0,1,1.282,1.1,1.812,1.812,0,0,1,.02,1.012,14.569,14.569,0,0,0,11.1,19.18,4.031,4.031,0,0,1,.5.121,12.45,12.45,0,0,0,4.338.006,4.008,4.008,0,0,1,.5-.131,3.983,3.983,0,0,0,3.107-1.953,5.119,5.119,0,0,1,3.7-2.323,3.379,3.379,0,0,0,2.495-1.717A14.581,14.581,0,0,0,1731,45.645c-.378.092-.748.213-1.121.326a1.848,1.848,0,0,1-1.021-.005,1.752,1.752,0,0,1-1.128-1.29c-.3-1.667.69-2.237,2.08-2.618a18.392,18.392,0,0,1,19.9,7.068,18.186,18.186,0,0,1,.075,21.073c-.644.919-.9,1.539-.047,2.5a5.2,5.2,0,0,1,.974,3.463c.044,2.667.119,5.335.118,8,0,.913.107,1.547,1.24,1.308.106-.022.224.018.333,0,2.309-.346,3.671,2.185,5.954,1.945a7.117,7.117,0,0,1,5.939,2.041c.347.335.687.226,1.073.193a7.394,7.394,0,0,1,8.363,7.256c.237,7.775.494,15.565-2.749,22.948a14.62,14.62,0,0,0-1.12,5.02c-.082,1.4-.823,1.925-2.166,1.922q-11.673-.027-23.346,0c-1.285,0-2.072-.547-2.057-1.842.037-3.211-1.394-5.736-3.432-8.071a34.483,34.483,0,0,1-2.7-3.8c-2.505-3.808-2.423-7.811-.924-11.957a8.738,8.738,0,0,1,4.181-4.711c-.221-6.018-.194-12.036-.019-18.054C1739.415,78.025,1739.689,77.543,1738.963,77.7Z"/>
      <path id="Trazado_570498" data-name="Trazado 570498" d="M1738.68,80.956c-8.836-1-14.748-11.252-11.384-19.732.285-.286.412-.567-.027-.829l-.991-1.125a15.824,15.824,0,0,1,2.094-3.527c.431-.393.553.054.76.274.267.267.531.368.79-.013a4.357,4.357,0,0,1,1.158-1.155c.317-.267.309-.528-.016-.784-.223-.2-.667-.325-.269-.745a16.074,16.074,0,0,1,3.524-2.093l1.127.988c.262.444.542.307.828.028a14.791,14.791,0,0,1,17.355,5.435,15.035,15.035,0,0,1-.749,18.228,2.052,2.052,0,0,1-1.546.763,4.76,4.76,0,0,0-4.089,2.48,3.338,3.338,0,0,1-3.235,1.807.537.537,0,0,0-.266-.139,4.747,4.747,0,0,1-.607-.053c.186.116.464-.009.6.231a8.755,8.755,0,0,1-4.787,0c.137-.242.416-.116.6-.232C1739.269,80.858,1738.931,80.707,1738.68,80.956Z" transform="translate(-6.587 -6.55)" fill="#cae458"/>
      <path id="Trazado_570499" data-name="Trazado 570499" d="M1854.892,41.4a18.345,18.345,0,1,1-18.5,18.19A18.377,18.377,0,0,1,1854.892,41.4Z" transform="translate(-79.946 -0.003)"/>
      <path id="Trazado_570500" data-name="Trazado 570500" d="M1732.341,59.438l-.746-.469a1.714,1.714,0,0,1,2.423-2.423l.469.745c.338.257.315.524.02.8a3.33,3.33,0,0,1-1.37,1.368C1732.866,59.754,1732.6,59.772,1732.341,59.438Z" transform="translate(-9.811 -9.776)" fill="#080804"/>
      <path id="Trazado_570501" data-name="Trazado 570501" d="M1809.233,156.984a3.973,3.973,0,0,1,3.3,4.164c.152,7.324.48,14.675-2.636,21.6a9.193,9.193,0,0,0-.38,1.274c-.934,3.305-.934,3.305-4.492,3.305-5.331,0-10.662-.02-15.993.018-.965.007-1.448-.12-1.579-1.273a12.331,12.331,0,0,0-3.159-6.49,29.811,29.811,0,0,1-3.761-5.47,8.638,8.638,0,0,1,.019-7.8c1.719.526.323,1.817.822,2.48a7.478,7.478,0,0,0-.076-2.132,2.716,2.716,0,0,1,.236-2.052c.592,1.4.13,2.872.245,4.307.069.855.3,1.566,1.189,1.778s1.665.05,1.929-1.008a1.2,1.2,0,0,0,.28-.5c.054-9.9.092-19.79-.021-29.684a.857.857,0,0,1,.073-.878c.788-.7,1.423-1.783,2.761-1.179s1.49,1.781,1.514,3.055c.1,5.366.238,10.731.331,16.1.021,1.217.216,2.348,1.69,2.335,1.455-.013,1.673-1.117,1.678-2.351a10.887,10.887,0,0,1,.113-3.6c.746-.108,1.488.08,2.233.04a2.8,2.8,0,0,1,2,2.477c.059,1.088.534,1.843,1.692,1.833a1.537,1.537,0,0,0,1.626-1.855c-.084-.986.43-.967,1.093-.84a3.2,3.2,0,0,1,2.854,2.753c.161,1.065.523,1.864,1.666,1.889,1.264.027,1.655-.894,1.778-1.979C1808.494,156.928,1808.948,157.208,1809.233,156.984Z" transform="translate(-42.115 -63.876)" fill="#fedbd4"/>
      <path id="Trazado_570502" data-name="Trazado 570502" d="M1795.645,172.256a1.276,1.276,0,0,0-.265.142q-.011-14.836-.017-29.673c0-.483-.136-1.018.349-1.386l.012.668a2.221,2.221,0,0,1,.134,1.144q0,13.918,0,27.835C1795.854,171.412,1796.005,171.881,1795.645,172.256Z" transform="translate(-52.6 -66.582)" fill="#040404"/>
      <path id="Trazado_570503" data-name="Trazado 570503" d="M1793.983,148.53v26.8h-.212V148.469Z" transform="translate(-51.551 -71.332)" fill="#040404"/>
      <path id="Trazado_570504" data-name="Trazado 570504" d="M1783.414,219.174v4.976c-.7-1.225.277-2.561-.982-3.273A1.949,1.949,0,0,1,1783.414,219.174Z" transform="translate(-43.997 -118.436)" fill="#fbe3dc"/>
      <path id="Trazado_570505" data-name="Trazado 570505" d="M1822.905,183.716a2.059,2.059,0,0,1-2.233-.04C1821.427,183.087,1822.167,183.38,1822.905,183.716Z" transform="translate(-69.472 -94.562)" fill="#fee4dc"/>
      <path id="Trazado_570506" data-name="Trazado 570506" d="M1754.272,54.214c-.124.34-.209.415-.533.363-.189-.031-.7.112-.3-.391Z" transform="translate(-24.584 -8.522)" fill="#d4ef5b"/>
      <path id="Trazado_570507" data-name="Trazado 570507" d="M1729.247,78.394c.5-.409.41.129.375.285-.043.193.33.743-.347.544Z" transform="translate(-8.565 -24.549)" fill="#d3ef5b"/>
      <path id="Trazado_570508" data-name="Trazado 570508" d="M1763.432,139.692c.389-.485.861-.284,1.334-.082l-1.062.123-.144.032Z" transform="translate(-31.339 -65.285)" fill="#d4f05c"/>
      <path id="Trazado_570509" data-name="Trazado 570509" d="M1776.066,139.687l-1.264-.145c.689-.294,1.139-.318,1.536.1l-.128.073Z" transform="translate(-38.914 -65.24)" fill="#d4ef5c"/>
      <path id="Trazado_570510" data-name="Trazado 570510" d="M1866.419,195.834c-.234.38-.616.314-.973.324C1865.468,195.141,1866.046,195.8,1866.419,195.834Z" transform="translate(-99.3 -102.726)" fill="#fee9e2"/>
      <path id="Trazado_570511" data-name="Trazado 570511" d="M1759.664,74.836a8.079,8.079,0,0,1-2.345,3.736c-2.394,2.311-4.7,4.713-7.079,7.042s-5.148,2.332-7.517.053c-1.319-1.269-2.575-2.6-3.894-3.872a7.331,7.331,0,0,1-1.734-2.975,1.147,1.147,0,0,1-.024-1.466c1.6-4.565,4.909-5.64,8.69-2.753.694.529,1.051.322,1.525-.16a38.136,38.136,0,0,0,2.915-2.958c2.866-3.643,8.3-2.942,9.476,2.177A.867.867,0,0,1,1759.664,74.836Z" transform="translate(-13.609 -18.522)"/>
      <path id="Trazado_570512" data-name="Trazado 570512" d="M1805.259,82.993l.013-1.175a.494.494,0,0,1,.044-.16,2.208,2.208,0,0,1,.19-.216,4.324,4.324,0,0,1,.088,1.9c0,.017-.1.052-.107.046C1805.407,83.258,1805.334,83.125,1805.259,82.993Z" transform="translate(-59.204 -26.679)" fill="#d5f05c"/>
      <path id="Trazado_570513" data-name="Trazado 570513" d="M1736.682,92.846q.012.733.024,1.466c-.917-.447-.186-1.223-.358-1.819a.4.4,0,0,1,.107-.041C1736.535,92.58,1736.607,92.713,1736.682,92.846Z" transform="translate(-13.219 -34.014)" fill="#d5f05b"/>
      <path id="Trazado_570514" data-name="Trazado 570514" d="M1741.235,60.216q-.011-.4-.02-.8c.367-.358.443-.009.38.211C1741.539,59.829,1741.989,60.437,1741.235,60.216Z" transform="translate(-16.538 -11.905)" fill="#d5f05c"/>
      <path id="Trazado_570515" data-name="Trazado 570515" d="M1734.477,66.16l.8.018c.224.754-.386.305-.585.362C1734.47,66.6,1734.117,66.529,1734.477,66.16Z" transform="translate(-11.946 -16.499)" fill="#d5f05c"/>
      <path id="Trazado_570516" data-name="Trazado 570516" d="M1789.529,67.537c-.536.173-.852.224-1.189.02C1788.674,67.247,1789.012,67.335,1789.529,67.537Z" transform="translate(-47.932 -17.294)" fill="#d0eb5a"/>
      <path id="Trazado_570517" data-name="Trazado 570517" d="M1876.408,66.4a15.007,15.007,0,1,1-14.928-15A15.028,15.028,0,0,1,1876.408,66.4Z" transform="translate(-86.608 -6.665)" fill="#fe5d7c"/>
      <path id="Trazado_570518" data-name="Trazado 570518" d="M1796.2,173.589q-.012-14.715-.019-29.431a6.645,6.645,0,0,1,.1-.819c.4.341.306.807.306,1.242q.005,14.157,0,28.313a4.659,4.659,0,0,1-.109.775c0,.015-.1.031-.141.018A.5.5,0,0,1,1796.2,173.589Z" transform="translate(-53.159 -67.915)" fill="#fee2db"/>
      <ellipse id="Elipse_7062" data-name="Elipse 7062" cx="13.138" cy="0.105" rx="13.138" ry="0.105" transform="translate(1743.006 122.862)" fill="#feded7"/>
      <path id="Trazado_570519" data-name="Trazado 570519" d="M1753.7,90.594a1.721,1.721,0,0,1-1.318-.609q-2.008-2-4.007-4a1.673,1.673,0,1,1,2.353-2.35c.04.039.079.078.12.115,2.995,2.723,2.994,2.722,5.824-.107,1.257-1.256,2.523-2.5,3.771-3.768.772-.783,1.642-1.032,2.491-.252.93.855.686,1.783-.136,2.606q-3.826,3.831-7.658,7.656A1.856,1.856,0,0,1,1753.7,90.594Z" transform="translate(-20.861 -25.149)" fill="#fdfdfd"/>
      <path id="Trazado_570520" data-name="Trazado 570520" d="M1862.258,82.041a5.113,5.113,0,0,1,1.725-4.137c.755-.659.785-1.074.044-1.837-2.287-2.355-2.343-5.357-.267-7.383,2.032-1.984,4.984-1.9,7.272.309.708.684,1.073.787,1.841.042,2.355-2.287,5.357-2.343,7.386-.272,1.982,2.024,1.9,4.981-.308,7.272-.685.71-.784,1.076-.04,1.842,2.283,2.352,2.339,5.366.267,7.386-2.031,1.98-5.019,1.931-7.261-.327-.994-1-1.406-.43-2.08.224a4.786,4.786,0,0,1-5.668,1.051A4.619,4.619,0,0,1,1862.258,82.041Z" transform="translate(-97.174 -17.233)"/>
      <path id="Trazado_570521" data-name="Trazado 570521" d="M1873.987,89.954a1.661,1.661,0,0,1-1.621-.985,1.5,1.5,0,0,1,.247-1.712c.6-.656,1.238-1.274,1.859-1.909,1.437-1.469,1.447-2.03.05-3.464-.582-.6-1.2-1.163-1.759-1.777a1.654,1.654,0,1,1,2.315-2.362c.739.672,1.426,1.4,2.134,2.108a1.724,1.724,0,0,0,2.756,0c.708-.706,1.4-1.435,2.134-2.108a1.556,1.556,0,0,1,2.371,0,1.579,1.579,0,0,1-.064,2.375c-.445.495-.936.949-1.407,1.421-1.847,1.851-1.852,2.246-.055,4.05.47.472.955.931,1.409,1.419a1.6,1.6,0,0,1,.053,2.493,1.581,1.581,0,0,1-2.376-.118c-.688-.646-1.348-1.323-2.008-2a1.765,1.765,0,0,0-2.877,0c-.619.638-1.254,1.26-1.886,1.885A1.782,1.782,0,0,1,1873.987,89.954Z" transform="translate(-103.794 -23.849)" fill="#fdfdfd"/>
    </g>
  </g>
</svg>
