<svg xmlns="http://www.w3.org/2000/svg" width="141" height="141" viewBox="0 0 141 141">
  <g id="Grupo_841821" data-name="Grupo 841821" transform="translate(-240.085 -1286.827)">
    <rect id="Rectángulo_38178" data-name="Rectángulo 38178" width="141" height="141" transform="translate(240.085 1286.827)" fill="none"/>
    <g id="Grupo_841825" data-name="Grupo 841825" transform="translate(-1171.892 1319.133)">
      <path id="Trazado_568277" data-name="Trazado 568277" d="M1527.32,75.037q.014,3.584.028,7.168c-1.738,1.766-1.407,4.01-1.445,6.177-.023,1.335.019,2.735-1.7,3.188a19.633,19.633,0,0,1-2.808.088q-37.835,0-75.67,0a10.327,10.327,0,0,1-3.19-.208,1.36,1.36,0,0,1-.595-.524,6.493,6.493,0,0,1-.288-2.77q-.011-43.655,0-87.31a7.788,7.788,0,0,1,.21-2.588,1.358,1.358,0,0,1,.526-.595,5.926,5.926,0,0,1,2.565-.286q38.672-.011,77.345,0a10.7,10.7,0,0,1,2,.1c1.352.379,1.58,1.466,1.614,2.64.067,2.313.111,4.632,0,6.939-.1,1.982.221,3.648,2.166,4.614-1.487,1.506-.393,3.389-.737,5.061-1.46-.035-2.524-.957-3.688-1.642-.1-.176.144-.256.128-.414-.586.3-1.53-.272-1.826.752-2.537,1.415-3.371,1.414-4.659,0a5.328,5.328,0,0,1,.27-3.62c2.112-1.92,1.556-4.389,1.342-6.759a1.748,1.748,0,0,0-1.631-1.531,14.566,14.566,0,0,0-2.6-.126q-31.306,0-62.613,0c-.4,0-.8,0-1.2.008-2.641.085-3.172.577-3.176,3.237q-.033,19.166-.014,38.331c0,1.436.223,2.683,1.819,3.17.976,1.264-.154,2.475-.1,3.718a1.768,1.768,0,0,1-.6.771c-1.34.992-1.4,1.99-.045,3.023a1.9,1.9,0,0,1,.7.95,5,5,0,0,1-.256,3.417,5.049,5.049,0,0,0-1.54,4.153c.051,5.884.011,11.769.024,17.654.007,3.429.389,3.823,3.806,3.825q31.8.014,63.594-.011c1.35,0,3.128.421,3.677-1.268.59-1.816.817-3.814-.522-5.549-.2-.264-.448-.5-.646-.766-.781-1.716-.424-3.514-.382-5.288.912-2.331,1.724-2.526,3.53-.829a17.563,17.563,0,0,1,1.823,1.835C1523.84,75.4,1525.336,76.083,1527.32,75.037Z" transform="translate(-6.317 -6.324)" fill="#a4dcfe"/>
      <path id="Trazado_568278" data-name="Trazado 568278" d="M1518.4,84.826c1.246-1.9.456-4.005.571-6.009.087-1.515.445-2.6,2.057-2.936a2.37,2.37,0,0,1,2.013,2.763c-.056,1.47.006,2.944-.016,4.415-.061,4.043-2.485,6.495-6.507,6.52-4.884.031-9.767.008-14.651.008q-31.71,0-63.42,0c-5.128,0-7.366-2.208-7.366-7.277q0-44.154,0-88.308c0-4.951,2.266-7.206,7.235-7.207q38.734,0,77.469,0c4.981,0,7.232,2.243,7.244,7.2.007,2.877-.024,5.754.014,8.63a2.664,2.664,0,0,1-1.284,2.72c-2.223-.028-2.718-.479-2.738-2.64-.027-2.984,0-5.967-.011-8.951,0-.782.133-1.616-.61-2.2a6.709,6.709,0,0,0-2.765-.345q-38.539,0-77.079,0a7.77,7.77,0,0,0-2.776.294l.1.088-.089-.1a7.758,7.758,0,0,0-.295,2.773q0,43.924,0,87.847a7.767,7.767,0,0,0,.295,2.773l.088-.1-.1.09a7.76,7.76,0,0,0,2.776.295h77.08A6.7,6.7,0,0,0,1518.4,84.826Z" fill="#000101"/>
      <path id="Trazado_568279" data-name="Trazado 568279" d="M1545.506,40.929c1.773,1.331,3.023-.57,4.554-.737a.943.943,0,0,1,1.372-.025,9.29,9.29,0,0,1,3.716,1.876,4.061,4.061,0,0,0,3.714,2.509c2.7.149,4.635,2.3,4.926,5.221a3.653,3.653,0,0,0,1.72,2.92,5.483,5.483,0,0,1,1.825,7.268,3.248,3.248,0,0,0-.069,3.022c1.425,3.065.763,5.63-1.965,7.544a3.284,3.284,0,0,0-1.489,2.624,5.744,5.744,0,0,1-5.391,5.492c-2.222.245-3.26,1.386-3.266,3.646q-.025,9.032-.026,18.064c-1.521,1.694-2.345,1.753-3.94.223-1.1-1.057-2.231-2.1-3.227-3.251s-1.746-1.266-2.466.184a10.156,10.156,0,0,1-3.042,3.669,2.835,2.835,0,0,1-3.157.631,2.794,2.794,0,0,1-1.546-2.624c-.15-1.869-.06-3.743-.068-5.615-.016-3.477.037-6.955-.021-10.432-.044-2.691-.637-3.421-3.239-3.965a6.121,6.121,0,0,1-5-4.409c-.562-1.972-1.686-2.358-3.519-2.348-10.967.061-21.935.032-32.9.028a11.621,11.621,0,0,1-2.8-.172,2.473,2.473,0,0,1,.049-4.889,11.918,11.918,0,0,1,2.8-.167q14.545-.006,29.09,0c2.546,0,3.239-.843,2.935-3.423a.9.9,0,0,0-.853-.912,13.781,13.781,0,0,0-2-.065q-14.546,0-29.091,0a13.025,13.025,0,0,1-2.8-.149,2.486,2.486,0,0,1-.024-4.937,12.046,12.046,0,0,1,2.6-.143c9.7,0,19.394-.027,29.09.023,1.654.008,2.426-.523,3.318-2.07,1.773-3.076,3.846-5.963,5.249-9.274a3.964,3.964,0,0,1,3.259-2.121,6.985,6.985,0,0,0,4.388-2.5,5.536,5.536,0,0,1,6.027-1.651A2.988,2.988,0,0,1,1545.506,40.929Z" transform="translate(-34.124 -31.64)"/>
      <path id="Trazado_568280" data-name="Trazado 568280" d="M1528.668,28.651c-3.846-1.257-5.65-.76-8.008,2.355a3.065,3.065,0,0,1-2.4,1.182,5.591,5.591,0,0,0-5.466,5.374,3.244,3.244,0,0,1-1.6,2.77,4.669,4.669,0,0,0-2.454,3.93c0,1.725-.854,1.663-2.073,1.66q-15.753-.043-31.505-.014a9.456,9.456,0,0,0-1.8.058,1.966,1.966,0,0,0-.035,3.888,8.966,8.966,0,0,0,1.8.067q16.053,0,32.107,0h2.333c-.828,1.88-1.3,3.6-.638,5.414a4.512,4.512,0,0,1-2.2.2q-15.853.02-31.706.012a8.114,8.114,0,0,0-1.8.09,1.954,1.954,0,0,0,.034,3.836,9.41,9.41,0,0,0,2,.085c11.84,0,23.679.024,35.519-.025,1.352-.006,1.938.187,2.091,1.752a5.561,5.561,0,0,0,5.32,5.083c2.207.241,3.25,1.392,3.255,3.655.012,5.017-.031,10.034.027,15.05.017,1.453-.661,3.313,1.2,4.1,1.963.837,2.765-1.1,3.935-2.072.713-.591,1.373-1.248,2.056-1.875q.005,2.8.011,5.593a10.856,10.856,0,0,0-1.547,3.65,1.6,1.6,0,0,1-1.539,1.353,15.925,15.925,0,0,1-2.6.11q-28.6,0-57.2,0c-.4,0-.8,0-1.2-.006-2.692-.068-3.149-.484-3.178-3.188q-.075-7.125,0-14.25c.026-2.04-.078-3.991-1.393-5.675l.016-3.564c1.646-2.067,1.646-2.067,0-4.133.183-1.171-.545-2.531.722-3.477a19.008,19.008,0,0,0,.639-5.942q-.034-15.859-.01-31.719c0-.736-.022-1.473.026-2.208.13-2.007.571-2.456,2.534-2.591.6-.041,1.2-.025,1.806-.025h57.214c.535,0,1.071.023,1.606.013,1.667-.032,2.75.632,2.722,2.427-.021,1.382.9,2.335,1.385,3.484Q1528.667,26.867,1528.668,28.651Z" transform="translate(-17.286 -19.361)" fill="#fefefe"/>
      <path id="Trazado_568281" data-name="Trazado 568281" d="M1525.723,20.067c-2.047-.411-2.16-1.959-1.98-3.558.16-1.419-.337-1.753-1.738-1.749q-30.568.074-61.135-.006c-1.55,0-1.833.434-1.825,1.884.061,12.294.03,24.588.043,36.882,0,1.237.022,2.435-1.286,3.109-2.229-.022-2.733-.476-2.735-2.677q-.02-20.161,0-40.322c0-2.227.628-2.85,2.873-2.851q33.5-.013,67,0c2.124,0,2.757.649,2.8,2.727.024,1.27-.037,2.542.015,3.811A2.362,2.362,0,0,1,1525.723,20.067Z" transform="translate(-14.342 -14.346)" fill="#010102"/>
      <path id="Trazado_568282" data-name="Trazado 568282" d="M1457.033,152.723c1.549.394,2.055,1.408,2.04,2.969-.057,5.948.01,11.9-.049,17.845-.012,1.238.215,1.7,1.6,1.694q30.777-.074,61.554-.005c1.23,0,1.688-.288,1.528-1.541a2.361,2.361,0,0,1,1.986-2.959c1.493.314,2.009,1.262,2.04,2.748.118,5.744.148,5.743-5.629,5.743q-31.791,0-63.583,0c-3.046,0-3.489-.439-3.49-3.447,0-6.686.029-13.372-.024-20.058C1455,154.157,1455.484,153.128,1457.033,152.723Z" transform="translate(-14.313 -99.265)" fill="#010202"/>
      <path id="Trazado_568283" data-name="Trazado 568283" d="M1441.776,91.886c-.8-.544-.687-1.384-.687-2.174q-.005-44.523,0-89.045c0-.79-.114-1.631.687-2.174.036.732.1,1.465.1,2.2q.008,44.5,0,89C1441.88,90.421,1441.813,91.153,1441.776,91.886Z" transform="translate(-5.983 -6.999)" fill="#a6dffe"/>
      <path id="Trazado_568284" data-name="Trazado 568284" d="M1442.782-2.514c.546-.8,1.386-.687,2.177-.687q39.141-.005,78.282,0c.8,0,1.628-.057,2.16.739-6.551.02-13.1.054-19.652.056q-30.183.011-60.367,0C1444.516-2.41,1443.649-2.478,1442.782-2.514Z" transform="translate(-6.999 -5.983)" fill="#a6dffe"/>
      <path id="Trazado_568285" data-name="Trazado 568285" d="M1525.4,230.714c-.532.8-1.359.74-2.16.74q-39.142,0-78.283,0c-.792,0-1.631.11-2.177-.688.532-.036,1.065-.1,1.6-.1q39.911-.007,79.821,0C1524.6,230.66,1525,230.7,1525.4,230.714Z" transform="translate(-6.999 -145.888)" fill="#a6dffe"/>
      <path id="Trazado_568286" data-name="Trazado 568286" d="M1528.789,9.342h-68.4v-.2h68.48Z" transform="translate(-17.535 -13.371)" fill="#a6dffe"/>
      <path id="Trazado_568287" data-name="Trazado 568287" d="M1460.281,219.8h68.4v.2H1460.2Z" transform="translate(-17.42 -139.392)" fill="#a6dffe"/>
      <path id="Trazado_568288" data-name="Trazado 568288" d="M1453.586,16.995V58.083h-.2V16.825Z" transform="translate(-13.343 -17.967)" fill="#a6dffe"/>
      <path id="Trazado_568289" data-name="Trazado 568289" d="M1457.145,133.563c1.1.27,1.959.819,1.959,2.067s-.863,1.8-1.959,2.067c-1.1-.266-1.978-.808-1.978-2.067S1456.042,133.829,1457.145,133.563Z" transform="translate(-14.408 -87.803)" fill="#050606"/>
      <path id="Trazado_568290" data-name="Trazado 568290" d="M1643.654,40.127l-1.372.025c.518-.8,1.18-.554,1.849-.255Z" transform="translate(-126.346 -31.6)" fill="#aee9fe"/>
      <path id="Trazado_568291" data-name="Trazado 568291" d="M1604.344,51.185a9.916,9.916,0,0,1,1.156.436,5.783,5.783,0,0,0,5.578.025,2.126,2.126,0,0,1,3.224.819,5.69,5.69,0,0,0,4.81,2.82c1.571.076,2.344.778,2.385,2.327a5.571,5.571,0,0,0,2.771,4.82,2.119,2.119,0,0,1,.86,3.212,5.493,5.493,0,0,0,0,5.556,2.11,2.11,0,0,1-.863,3.2,5.6,5.6,0,0,0-2.767,4.828,2.132,2.132,0,0,1-2.383,2.331,5.474,5.474,0,0,0-4.692,2.647c-.871,1.392-1.866,1.757-3.345.97a5.656,5.656,0,0,0-5.571.038,2.126,2.126,0,0,1-3.194-.926,5.464,5.464,0,0,0-4.65-2.718,2.226,2.226,0,0,1-2.5-2.44,5.661,5.661,0,0,0-2.837-4.791,2.033,2.033,0,0,1-.81-3.056,5.652,5.652,0,0,0-.006-5.742,2.03,2.03,0,0,1,.828-3.053,5.744,5.744,0,0,0,2.856-4.986c.036-1.449.8-2.139,2.28-2.209a5.824,5.824,0,0,0,4.966-2.918A2.235,2.235,0,0,1,1604.344,51.185Z" transform="translate(-95.742 -38.522)" fill="#fd6663"/>
      <path id="Trazado_568292" data-name="Trazado 568292" d="M1628.171,144.825c1.18.394,2.941.458,3.4,1.262.607,1.074.218,2.721.226,4.123.014,2.339,0,4.678,0,7.544-1.005-1-1.715-1.731-2.453-2.433-1.512-1.438-2.444-1.461-3.922.017a25.767,25.767,0,0,0-1.857,2.316l-.6-.355c0-3.571.01-7.141-.008-10.712,0-.707.355-.849.965-.97a27.426,27.426,0,0,0,2.668-.793A6.015,6.015,0,0,0,1628.171,144.825Z" transform="translate(-114.787 -94.54)" fill="#94e440"/>
      <path id="Trazado_568293" data-name="Trazado 568293" d="M1633.581,144.389a1.021,1.021,0,0,1-1.578,0A1.207,1.207,0,0,1,1633.581,144.389Z" transform="translate(-120.197 -94.104)" fill="#9df143"/>
      <path id="Trazado_568294" data-name="Trazado 568294" d="M1533.73,133.692c3.605,0,7.211.01,10.816-.005,1.391-.006,2.667.251,2.715,1.929.051,1.808-1.263,2.1-2.745,2.1q-10.716-.018-21.432,0c-1.455,0-2.64-.437-2.629-2.033s1.213-2.017,2.659-2C1526.652,133.712,1530.191,133.692,1533.73,133.692Z" transform="translate(-53.465 -87.874)" fill="#010101"/>
      <path id="Trazado_568295" data-name="Trazado 568295" d="M1554.078,170.419c-2.282.07-3.428-1.2-4.523-2.453-.831-.948-1.423-1.127-2.3-.047s-2.082,1.637-3.258.429-.5-2.275.462-3.29c2.842-2.987,4.9-3.1,7.71-.057,1.246,1.349,1.966,1.271,3.036-.055a18.373,18.373,0,0,1,2.725-2.634,1.752,1.752,0,0,1,2.522.214,1.711,1.711,0,0,1,.263,2.371,26.354,26.354,0,0,1-5.3,5.108A3.882,3.882,0,0,1,1554.078,170.419Z" transform="translate(-67.176 -104.738)" fill="#010101"/>
      <path id="Trazado_568296" data-name="Trazado 568296" d="M1509.051,49.759c-1.53,0-3.06.02-4.59-.008a2,2,0,1,1,.038-3.99q4.689-.04,9.379,0a1.883,1.883,0,0,1,2.112,1.913c.038,1.392-.834,2.043-2.151,2.076C1512.244,49.791,1510.647,49.76,1509.051,49.759Z" transform="translate(-42.627 -35.264)" fill="#010101"/>
      <path id="Trazado_568297" data-name="Trazado 568297" d="M1485.613,45.768a1.932,1.932,0,0,1,1.986,1.86,1.826,1.826,0,0,1-1.892,2.106,1.8,1.8,0,0,1-1.981-1.816A1.937,1.937,0,0,1,1485.613,45.768Z" transform="translate(-31.489 -35.281)" fill="#080808"/>
      <path id="Trazado_568298" data-name="Trazado 568298" d="M1624.949,91.047a2.162,2.162,0,0,1-1.583-.741c-1.229-1.222-2.462-2.439-3.664-3.687a1.9,1.9,0,0,1-.218-2.848c.942-1.023,1.978-.858,3-.011.906.748,1.6,2.385,2.636,2.155s1.854-1.611,2.755-2.5c1.233-1.217,2.435-2.467,3.691-3.659a1.881,1.881,0,0,1,2.848-.133,1.907,1.907,0,0,1-.084,2.991c-2.573,2.61-5.174,5.193-7.769,7.781A2.036,2.036,0,0,1,1624.949,91.047Z" transform="translate(-112.378 -55.18)" fill="#010000"/>
    </g>
  </g>
</svg>
