<svg xmlns="http://www.w3.org/2000/svg" width="141" height="141" viewBox="0 0 141 141">
  <g id="Grupo_841822" data-name="Grupo 841822" transform="translate(-240.085 -1286.827)">
    <rect id="Rectángulo_38178" data-name="Rectángulo 38178" width="141" height="141" transform="translate(240.085 1286.827)" fill="none"/>
    <g id="Grupo_841826" data-name="Grupo 841826" transform="translate(-999.437 1684.249)">
      <path id="Trazado_568299" data-name="Trazado 568299" d="M1291.245-292.254c-.106-1.3-1.108-.652-1.651-.656-6.438-.051-12.877-.026-19.315-.035-5.259-.007-7.824-2.551-7.828-7.8q-.015-23.5,0-46.992c0-5.328,2.034-7.576,7.4-8.027,1.076-.09,1.113-.545,1.106-1.367-.029-3.65-.015-7.3-.011-10.951,0-4.654,1.718-6.389,6.334-6.39q30.267-.005,60.534.026a6.26,6.26,0,0,0,3.848-1.221c5.035-3.565,8.326-2.944,11.843,2.134.831,1.2,1.669,2.392,2.49,3.6,2.685,3.943,1.972,7.7-1.97,10.475q-4.06,2.86-8.109,5.739c-.508,1.492-2.444,1.565-2.992,3.02-.175,11.248-.02,22.491-.083,33.733-.006,1.17.212,2.407-.682,3.41-2.323,1.2-3.6.444-3.615-2.266-.047-9.574-.014-19.149-.019-28.724,0-.925,0-1.849,0-2.761-.03-.209,0-.457-.255-.566a1.866,1.866,0,0,0-.735.381q-1.075.724-2.106,1.5c-8.425,5.891-16.983,11.594-25.307,17.619a32.527,32.527,0,0,1-13.715,5.869c-3.52.623-6.953,1.709-10.436,2.547-2.239.539-3.778.036-4.9-1.625-1.082-1.6-.69-3.167.279-4.647,3.018-4.6,6.233-9.075,9.272-13.664,2.3-3.468,5.974-5.207,9.2-7.469,10.7-7.5,21.472-14.887,32.21-22.326a1.836,1.836,0,0,0,.712-.649c-.629-.412-1.311-.2-1.95-.2q-26.165-.021-52.33,0c-.976,0-2-.215-2.9.413a2.615,2.615,0,0,0-.656.827,9.522,9.522,0,0,0-.163,2.772q-.011,24.473-.006,48.946a19.058,19.058,0,0,1-.056,2.386c-.159,1.259-.786,2.189-2.143,2.159s-1.934-.994-2.073-2.247a19.916,19.916,0,0,1-.05-2.187c0-10.413.011-20.826-.022-31.238,0-.927.509-2.218-.61-2.7-1.277-.55-2.229.392-3,1.363a4.292,4.292,0,0,0-.4,2.318q-.008,17.482,0,34.964a3.333,3.333,0,0,0,.3,1.928c.654.65,1.491.475,2.267.476q37.722.015,75.444,0c2.354,0,2.487-.13,2.489-2.466q.016-16.621.005-33.242c0-.73-.019-1.461.014-2.19.1-2.142.45-2.442,2.687-2.331a.285.285,0,0,1,.245.2,5.525,5.525,0,0,1,.207,1.968q0,23.094-.011,46.189c0,.414.263.932.119,1.019.161-.122-.112-.676-.111-1.121.019-15.064.006-30.129.044-45.193,0-.681-.53-1.6.5-2.08a4.639,4.639,0,0,1,.2,2.156q.013,23.289,0,46.578c0,5.4-2.515,7.914-7.9,7.92-6.37.008-12.74.048-19.109-.033-1.452-.019-2.13.294-1.858,1.835a3.514,3.514,0,0,1,0,1.191c-.261,1.493.229,2.118,1.841,2.424a8.164,8.164,0,0,1,6.616,7.887,3.318,3.318,0,0,1-3.49,3.7q-20.3.045-40.607,0a3.287,3.287,0,0,1-3.413-3.574c-.024-4.237,2.9-7.29,8.035-8.388C1291.438-289.321,1290.8-290.83,1291.245-292.254Z"/>
      <path id="Trazado_568300" data-name="Trazado 568300" d="M1354.793-314.055c-1.739-.043-2.195.883-2.188,2.508.047,12.009-.009,24.018.065,36.027.011,1.706-.356,2.236-2.166,2.233-25.876-.041-51.752.006-77.628.007-.593,0-1.344.376-1.783-.41a1.768,1.768,0,0,1,.676-.4,4.8,4.8,0,0,1,1.183-.117c25.3,0,50.6-.049,75.9.023a2.49,2.49,0,0,1,.752.178c2.465.335,2.469.335,2.469-2.025q0-17.584-.006-35.169c0-.154.169-.375-.11-.472-.057-.259-.4.1-.166-.031.1-.053.127-.006.179.094a2.709,2.709,0,0,1,.084,1.332q.017,17.187.008,34.374c0,2.132-.009,2.132-2.219,1.931-.789-.908-.519-2.016-.523-3.046-.051-11.783.051-23.566-.062-35.341a2.363,2.363,0,0,0-.212-.593c-.206-.317-.37-.663-.548-1-.167-.291-.357-.571-.521-.866-.03-.076-.059-.153-.088-.23l3.237-2.146C1352.886-316.782,1353.293-314.78,1354.793-314.055Z" transform="translate(-5.202 -36.526)" fill="#00828e"/>
      <path id="Trazado_568301" data-name="Trazado 568301" d="M1481.962-308.026c-.58.7-.319,1.53-.32,2.3q-.025,22.667-.022,45.334a4.188,4.188,0,0,1-.195,2.168,4.524,4.524,0,0,1-.183-2.188c-.013-15.111-.037-30.223.051-45.334.006-1.025-.876-2.037-.075-3.06A.794.794,0,0,1,1481.962-308.026Z" transform="translate(-131.381 -41.572)" fill="#040404"/>
      <path id="Trazado_568302" data-name="Trazado 568302" d="M1351.094-359.115q-12.555,8.752-25.11,17.5-7.1,4.942-14.236,9.841a7.733,7.733,0,0,0-2.1,2.074q-4.848,7.165-9.753,14.292c-.983,1.422-1.5,2.865-.472,4.414,1.068,1.611,2.606,1.763,4.4,1.313,5.658-1.419,11.335-2.759,17.009-4.112a7.843,7.843,0,0,0,2.654-1.3q14.141-9.8,28.3-19.579c.54-.373,1.122-.685,1.685-1.025a2.44,2.44,0,0,1,.658,2.007c.033,9.192.068,18.385-.014,27.577a3.641,3.641,0,0,1-.16.977,1.845,1.845,0,0,1-.412.674,1.424,1.424,0,0,1-.77.139c-14.026-.129-28.054-.02-42.082-.052-4.9-.012-9.793.008-14.69-.01a4.48,4.48,0,0,1-2.7-.415c-.78-.987-.513-2.156-.514-3.256-.027-16.551.005-33.1-.027-49.645a4.145,4.145,0,0,0-.079-.64,1.576,1.576,0,0,0-.346-.513l.424-.717a6.853,6.853,0,0,1,2.742-.342q26.463,0,52.926.019C1349.355-359.89,1350.477-360.295,1351.094-359.115Z" transform="translate(-17.979 -10.808)" fill="#f4f4f4"/>
      <path id="Trazado_568303" data-name="Trazado 568303" d="M1273.212-188.351a2.558,2.558,0,0,1-1.909-1.7c.338-2.049-.045-4.124.184-6.177-.245,1.947.241,3.935-.286,5.866-.744-2.508-.217-5.065-.3-7.6a1.755,1.755,0,0,1,.769-.049q37.19.054,74.38.023a7.45,7.45,0,0,1,2.758.2c1.309,2.79.873,5.643.24,8.48a1.326,1.326,0,0,1-1.371.963,5.441,5.441,0,0,0-.988-.083c-24.365.007-48.73-.041-73.095.024Z" transform="translate(-5.024 -108.202)" fill="#9d9d9d"/>
      <path id="Trazado_568304" data-name="Trazado 568304" d="M1272.007-338.237a2.744,2.744,0,0,1,1.953-1.812c2.066-.719,2.738-.239,2.738,1.91q0,16.825,0,33.65a14.786,14.786,0,0,0,.038,1.789,1.546,1.546,0,0,0,1.763,1.5,1.5,1.5,0,0,0,1.5-1.552c.028-.463,0-.929,0-1.393q0-25.685,0-51.371c0-.658.069-1.317.106-1.974.005-.161.088-.228.247-.2.588.84.351,1.8.352,2.708q.023,24.38.016,48.76a8.816,8.816,0,0,0,.143,2.571c.762.8,1.752.45,2.632.45q27.309.035,54.618.022a9.647,9.647,0,0,1,2.762.161c.886-.272,1.874-.171,2.682-.729a4.434,4.434,0,0,0,.308-2.525c.015-9.128,0-18.257.028-27.385,0-.925-.361-2.032.77-2.663q.022,16.342.048,32.683c.006,2.336.73,2.821,2.911,2.041.749.426,1.584.75,1.954,1.637.066.615,0,1.168-.654,1.456a12.5,12.5,0,0,1-2.382.093q-35.4.005-70.789,0c-3.564,0-3.569,0-3.573-3.684-.014-11.8.018-23.6-.018-35.393A1.921,1.921,0,0,0,1272.007-338.237Z" transform="translate(-5.751 -12.164)" fill="#01bbd3"/>
      <path id="Trazado_568305" data-name="Trazado 568305" d="M1354.537-302.661c-2.2-3.138-4.382-6.294-6.628-9.4-.533-.738-.385-1.09.3-1.556q14.084-9.626,28.147-19.286c1.649,1.024,2.246,2.891,3.415,4.3,1.095,1.323,1.875,2.893,2.942,4.246.955,1.211.766,2.119-.435,3-2.56,1.887-5.209,3.646-7.823,5.454-5.993,4.143-11.951,8.338-17.994,12.408C1355.881-303.1,1355.394-302.431,1354.537-302.661Z" transform="translate(-51.21 -27.078)" fill="#f34335"/>
      <path id="Trazado_568306" data-name="Trazado 568306" d="M1455.984-352.389q-3.25-4.616-6.493-9.236c-.268-.384-.887-.841-.137-1.3,3.075-1.89,5.673-4.523,9.11-5.847a20.972,20.972,0,0,1,5.055,7.237,4.121,4.121,0,0,1-.49,4.184A12.358,12.358,0,0,1,1455.984-352.389Z" transform="translate(-112.204 -5.505)" fill="#e81e63"/>
      <path id="Trazado_568307" data-name="Trazado 568307" d="M1322.926-139.4a4.349,4.349,0,0,1,4.357-3.574,2.242,2.242,0,0,0,1.35.187q13.785.007,27.57,0a2.128,2.128,0,0,0,1.346-.2l.4-.014c1.5.823,2.4,1.938,1.829,3.771-.425.691-1.125.61-1.777.611q-16.588.016-33.176,0a2.741,2.741,0,0,1-1.355-.234A2.347,2.347,0,0,1,1322.926-139.4Z" transform="translate(-36.377 -141.303)" fill="#9d9d9d"/>
      <path id="Trazado_568308" data-name="Trazado 568308" d="M1271.417-198.634c-.116,0-.233,0-.349,0,.416-.822,1.177-.427,1.76-.427q38.9,0,77.791.013c1.5,0,2.191.291,2.026,1.95-.15,1.51,0,3.048-.042,4.573-.064,2.376-1.31,3.626-3.712,3.759-.927.051-1.855.065-2.784.065q-35.116.005-70.233-.01c-.834,0-1.73.267-2.5-.318a.189.189,0,0,1,.043-.19A6.18,6.18,0,0,1,1275-189.3q35.538,0,71.076,0a3.858,3.858,0,0,1,1.766.154c1.109-.566,1.222-1.605,1.228-2.667.014-2.153,0-4.306-.008-6.458a4.681,4.681,0,0,0-2.341-.194q-36.573-.019-73.146-.018A5.334,5.334,0,0,1,1271.417-198.634Z" transform="translate(-5.187 -107.522)" fill="#6f6f6f"/>
      <path id="Trazado_568309" data-name="Trazado 568309" d="M1364.414-159.347l-19.881,0c-.059-.119-.162-.238-.163-.359-.032-5.25-.567-4.289,3.983-4.364,5.226-.086,10.454.094,15.68-.087C1365.349-163.018,1365.482-161.348,1364.414-159.347Z" transform="translate(-49.254 -128.576)" fill="#5f7c8a"/>
      <path id="Trazado_568310" data-name="Trazado 568310" d="M1445.755-270.075q-.011-15.573-.021-31.146a6.141,6.141,0,0,1,2.011-1.422c.749.436.79,1.162.791,1.91q.014,14.526-.009,29.051C1448.521-269.778,1448.273-269.669,1445.755-270.075Z" transform="translate(-110.241 -45.28)" fill="#ced7db"/>
      <path id="Trazado_568311" data-name="Trazado 568311" d="M1365.026-304.125q9.753-6.767,19.5-13.536c2.654-1.844,5.271-3.741,7.957-5.536,1.093-.731,1.119-1.228.323-2.318-2.1-2.873-3.993-5.893-5.97-8.854,1.144-1.466,1.943-1.2,2.9.32,1.762,2.795,3.682,5.493,5.614,8.175.663.921.806,1.475-.267,2.212q-14.312,9.824-28.569,19.726C1365.971-303.558,1365.391-303.022,1365.026-304.125Z" transform="translate(-61.699 -25.614)" fill="#c61d1d"/>
      <path id="Trazado_568312" data-name="Trazado 568312" d="M1351.734-359.609a4.758,4.758,0,0,0-2.708-.393q-26.422-.005-52.845-.005c-.927,0-1.853-.035-2.78-.054.447-.767,1.2-.716,1.929-.716q28.668,0,57.335,0a1.465,1.465,0,0,1,.416.169A2.422,2.422,0,0,1,1351.734-359.609Z" transform="translate(-18.619 -10.314)" fill="#f9f9f9"/>
      <path id="Trazado_568313" data-name="Trazado 568313" d="M1466.53-352.6c1.808-1.214,3.686-2.338,5.406-3.666,2.252-1.738,2.458-4.818.714-7.294-1.253-1.78-2.429-3.615-3.639-5.425a2.79,2.79,0,0,1,3.2.984,41.188,41.188,0,0,1,4.371,6.562,20.332,20.332,0,0,0,.018,2.4,2.094,2.094,0,0,1-1.072,1.586c-2.485,1.75-5,3.459-7.491,5.2C1467.373-351.791,1466.845-351.663,1466.53-352.6Z" transform="translate(-122.75 -5.293)" fill="#ab1356"/>
      <path id="Trazado_568314" data-name="Trazado 568314" d="M1338.853-262.761c-1.367.26-2.769,1.41-4.087.6-1.752-1.082-2.456-3.17-3.688-4.768-.458-.594.176-.966.435-1.359.649-.98,1.367-1.914,2.057-2.866.479-.218.744.115.972.423,1.56,2.113,3,4.31,4.453,6.493C1339.329-263.741,1339.644-263.183,1338.853-262.761Z" transform="translate(-41.183 -64.174)" fill="#fcdeb0"/>
      <path id="Trazado_568315" data-name="Trazado 568315" d="M1438.573-333.308c-2.126-3.016-4.286-6.01-6.365-9.057-1.343-1.968,1.013-1.693,1.608-2.49.779-.151,1.015.5,1.338.956,1.81,2.524,3.549,5.1,5.32,7.65.415.6.926,1.276.4,1.985S1439.692-332.769,1438.573-333.308Z" transform="translate(-101.861 -19.877)" fill="#fcd900"/>
      <path id="Trazado_568316" data-name="Trazado 568316" d="M1441.614-334.813c2.551-1.106,2.53-1.09.974-3.294-1.931-2.737-3.823-5.5-5.732-8.253,1.287-1.612,2.167-1.188,3.18.407,1.812,2.854,3.789,5.6,5.756,8.357.542.759.585,1.194-.288,1.686a23.683,23.683,0,0,0-2.458,1.69C1442.2-333.6,1441.882-334.113,1441.614-334.813Z" transform="translate(-104.902 -18.373)" fill="#fabf07"/>
      <path id="Trazado_568317" data-name="Trazado 568317" d="M1463.354-272.8a1.651,1.651,0,0,1-1.6-1.2,4.72,4.72,0,0,0,.422-2.7q0-16.526.016-33.052c0-.688-.308-1.474.368-2.058a.163.163,0,0,0,0,.206c.519.593.181,1.28.182,1.917q.024,16.917.013,33.835a1.574,1.574,0,0,0,.085.725,6.339,6.339,0,0,1-.072-1.734q-.009-15.923.011-31.845c0-.8-.379-1.766.591-2.351l.4.808a1.285,1.285,0,0,1,.185.741c-.072,11.3,0,22.591-.042,33.886C1463.909-274.662,1464.158-273.618,1463.354-272.8Z" transform="translate(-119.877 -39.765)" fill="#00b9d1"/>
      <path id="Trazado_568318" data-name="Trazado 568318" d="M1271.372-308.864c.115,0,.23,0,.345,0a4.169,4.169,0,0,1,.189,2.141c.02,12.371-.005,24.742.02,37.113a.8.8,0,0,1-.575.892c-.114.012-.229.026-.343.04q-.028-19.245-.056-38.489A2.555,2.555,0,0,1,1271.372-308.864Z" transform="translate(-5.117 -41.538)" fill="#00bfd8"/>
      <path id="Trazado_568319" data-name="Trazado 568319" d="M1296.117-367.691h63.836v.2h-63.908Z" transform="translate(-20.21 -6.156)" fill="#050505"/>
      <path id="Trazado_568320" data-name="Trazado 568320" d="M1342.859-265.641c.13-.3.279-.575.041-.908q-2.67-3.739-5.324-7.489a4.635,4.635,0,0,1,1.461-1.978l6.613,9.557A6.635,6.635,0,0,1,1342.859-265.641Z" transform="translate(-45.189 -61.294)" fill="#dcc199"/>
      <path id="Trazado_568321" data-name="Trazado 568321" d="M1364.064-159.914c-.172-1.561.459-3.188-.382-4.694-5.14.369-10.287.092-15.431.141a13.348,13.348,0,0,1-4.5-.212c.52-.62,1.233-.363,1.859-.363,6.555,0,13.111.081,19.665.005,1.683-.02,2.309.511,2.062,2.137a2.565,2.565,0,0,0,0,.793c.306,1.842-.476,2.561-2.286,2.266C1364.728-159.895,1364.394-159.892,1364.064-159.914Z" transform="translate(-48.904 -128.01)" fill="#36454d"/>
      <path id="Trazado_568322" data-name="Trazado 568322" d="M1264.026-256.014v-49.5h.2v49.579Z" transform="translate(-0.951 -43.556)" fill="#050505"/>
      <path id="Trazado_568323" data-name="Trazado 568323" d="M1322.546-133.97c.121,0,.242,0,.363,0,.592.954,1.547.585,2.353.586q16.7.032,33.393.014a3.525,3.525,0,0,1,.736.022.423.423,0,0,1,.188.608c-6.338.036-12.676.084-19.015.1-5.615.018-11.23,0-16.845.006C1322.8-132.632,1321.821-132.544,1322.546-133.97Z" transform="translate(-35.997 -146.729)" fill="#a8a8a8"/>
      <path id="Trazado_568324" data-name="Trazado 568324" d="M1445.558-270.868c1.908.328,2.453-.453,2.432-2.374-.1-9.088-.053-18.178-.033-27.267a8.8,8.8,0,0,0-.41-2.926l.782-.526a2.026,2.026,0,0,1,.2,1.341q.008,15.362,0,30.723a2.227,2.227,0,0,1-.187,1.349l-2.79.008q-.2-.106-.135-.216c.044-.073.088-.11.133-.11Z" transform="translate(-110.045 -44.487)" fill="#cad3d7"/>
      <path id="Trazado_568325" data-name="Trazado 568325" d="M1452.76-270.905q-.009-16.706-.018-33.413c.182-.339.4-.275.632-.048-.042,5.424-.1,10.841-.122,16.258-.021,5.093.016,10.187-.029,15.28C1453.216-272.193,1453.673-271.357,1452.76-270.905Z" transform="translate(-114.457 -44.13)" fill="#dee7ec"/>
      <path id="Trazado_568326" data-name="Trazado 568326" d="M1456.194-303.621v32.859h-.2v-32.925Z" transform="translate(-116.413 -44.651)" fill="#030303"/>
      <path id="Trazado_568327" data-name="Trazado 568327" d="M1412.419-139.833c.082-1.368-.982-2.153-1.609-3.16,2.981-.01,4.609,1.24,5.194,3.985-.948,1.028-2.071.626-3.174.389l-.06.033C1412.409-138.933,1412.768-139.482,1412.419-139.833Z" transform="translate(-89.236 -141.303)" fill="#6e6e6e"/>
      <path id="Trazado_568328" data-name="Trazado 568328" d="M1364.124-143.147c-.456.544-1.087.388-1.663.389q-13.468.011-26.936,0c-.576,0-1.206.157-1.667-.38C1343.947-143.325,1354.035-143.308,1364.124-143.147Z" transform="translate(-42.953 -141.135)" fill="#a2a2a2"/>
      <path id="Trazado_568329" data-name="Trazado 568329" d="M1317.4-248.321c.864-1.283,1.445-2.158,2.039-3.025,1.216-1.777,1.13-1.706,2.482.029,1.172,1.505.648,1.962-.945,2.188C1319.939-248.982,1318.928-248.674,1317.4-248.321Z" transform="translate(-33.052 -75.35)" fill="#50585c"/>
      <path id="Trazado_568330" data-name="Trazado 568330" d="M1343.54-164.052l19.929.071c-.6.607-1.373.351-2.069.353-5.013.022-10.028.1-15.037-.031-1.887-.048-2.689.47-2.4,2.4a13.577,13.577,0,0,1,.011,1.976C1342.9-160.788,1343.7-162.463,1343.54-164.052Z" transform="translate(-48.691 -128.637)" fill="#658392"/>
      <path id="Trazado_568331" data-name="Trazado 568331" d="M1271.788-188.341v-6.334c.245,2.218.8,4.438.1,6.645A.261.261,0,0,1,1271.788-188.341Z" transform="translate(-5.611 -110.219)" fill="#a3a3a3"/>
      <path id="Trazado_568332" data-name="Trazado 568332" d="M1491.092-347.444a1.793,1.793,0,0,1-.018-2.4A2.1,2.1,0,0,1,1491.092-347.444Z" transform="translate(-137.241 -16.892)" fill="#b3145a"/>
      <path id="Trazado_568333" data-name="Trazado 568333" d="M1415.861-132.6c1.071-.024,2.174.217,3.174-.389.241.517.19.9-.484.9-.9,0-1.8-.041-2.7-.064Z" transform="translate(-92.267 -147.318)" fill="#787878"/>
      <path id="Trazado_568334" data-name="Trazado 568334" d="M1271.954-208.939l.371-.32a2.553,2.553,0,0,1,1.55-.187q37.69,0,75.381,0,.488.089.291.544-38.5.01-77,.018A5.631,5.631,0,0,1,1271.954-208.939Z" transform="translate(-5.72 -101.318)" fill="#00c6df"/>
      <path id="Trazado_568335" data-name="Trazado 568335" d="M1467.981-267.114c1.541.232,2.037-.365,2.028-1.968-.067-11.54-.036-23.082-.036-34.623v-1.95l.4-.012v1.991q0,17.113,0,34.225c0,2.771,0,2.771-2.824,2.7a.33.33,0,0,1,0-.445A.322.322,0,0,1,1467.981-267.114Z" transform="translate(-123.309 -43.461)" fill="#008591"/>
      <path id="Trazado_568336" data-name="Trazado 568336" d="M1466.847-268.457a1.775,1.775,0,0,1-.049.367l-.41,0a.912.912,0,0,0,.033-.353,1.259,1.259,0,0,1-.177-.747q-.005-18.157.005-36.315a4.394,4.394,0,0,1,.156-1.956q.025-.215.049-.43c.123.009.246.012.369.011a2.077,2.077,0,0,1,.2,1.345q.007,18.363,0,36.727A2.345,2.345,0,0,1,1466.847-268.457Z" transform="translate(-122.562 -42.122)" fill="#0096a6"/>
      <path id="Trazado_568337" data-name="Trazado 568337" d="M1467.764-268.44q-.011-19.713-.022-39.427c.7.65.394,1.5.4,2.256q.029,18.587.013,37.174Q1467.957-268.437,1467.764-268.44Z" transform="translate(-123.479 -42.138)" fill="#007e89"/>
      <path id="Trazado_568338" data-name="Trazado 568338" d="M1464.584-310.91a4.406,4.406,0,0,0-.413,2.51q0,15.619-.011,31.238a3.87,3.87,0,0,1-.386,2.442v-36.738C1464.368-311.755,1464.512-311.386,1464.584-310.91Z" transform="translate(-121.092 -39.914)" fill="#00bfd8"/>
      <path id="Trazado_568339" data-name="Trazado 568339" d="M1324.331-344.585q-8.054,0-16.108,0a12.632,12.632,0,0,1-1.589-.043,1.569,1.569,0,0,1-1.523-1.744,1.569,1.569,0,0,1,1.515-1.561,15.526,15.526,0,0,1,1.589-.03q16.107,0,32.215,0c.464,0,.929-.011,1.392.014a1.61,1.61,0,0,1,1.719,1.767,1.6,1.6,0,0,1-1.712,1.578c-.463.023-.927.02-1.391.02Z" transform="translate(-25.661 -18.018)" fill="#060606"/>
      <path id="Trazado_568340" data-name="Trazado 568340" d="M1306.288-323.258c-.737-.576-1.546-1.135-1.123-2.266.392-1.047,1.27-1.213,2.266-1.212q10.738.018,21.475,0c1,0,1.884.194,2.242,1.245.381,1.117-.4,1.695-1.179,2.241-.322.326-.737.242-1.124.242q-10.719.007-21.437,0C1307.02-323.008,1306.6-322.92,1306.288-323.258Z" transform="translate(-25.624 -30.79)" fill="#040404"/>
      <path id="Trazado_568341" data-name="Trazado 568341" d="M1400.651-239.617c.139.6-.4.81-.671,1.178a1.524,1.524,0,0,1-.952.2q-11.735,0-23.469,0a1.684,1.684,0,0,1-.959-.183c-1.251-1.4-.943-2.6.777-2.929a7.48,7.48,0,0,1,1.388-.052c7.025,0,14.051.022,21.076-.024a2.674,2.674,0,0,1,2.765,1.4.318.318,0,0,1,.1.269C1400.691-239.665,1400.673-239.617,1400.651-239.617Z" transform="translate(-66.998 -82.098)" fill="#040404"/>
      <path id="Trazado_568342" data-name="Trazado 568342" d="M1419.412-260.573l-1.256,1.248a60.957,60.957,0,0,1-12.148.023c-.815-.513-1.579-1.092-1.239-2.211.36-1.185,1.349-1.293,2.4-1.288,3.248.017,6.5.044,9.746-.014a2.663,2.663,0,0,1,2.5,1.264A.587.587,0,0,1,1419.412-260.573Z" transform="translate(-85.553 -69.236)" fill="#050505"/>
      <path id="Trazado_568343" data-name="Trazado 568343" d="M1305.611-302.387a1.375,1.375,0,0,1-.72-1.8,1.916,1.916,0,0,1,1.9-1.168c3.223.006,6.448-.06,9.67.019,2.185.054,2.6,1.026,1.415,2.947A77.382,77.382,0,0,1,1305.611-302.387Z" transform="translate(-25.463 -43.636)" fill="#040404"/>
      <path id="Trazado_568344" data-name="Trazado 568344" d="M1353.743-221.3q0,.163,0,.325c-6.627.024-13.255.064-19.882.069q-19.489.017-38.978-.02c-.705,0-1.6.448-2.128-.474a1.237,1.237,0,0,1,.729-.147,4.39,4.39,0,0,0,.765.051q28.467,0,56.933.008a4.457,4.457,0,0,1,2.153.179Z" transform="translate(-18.232 -94.053)" fill="#ced7db"/>
      <path id="Trazado_568345" data-name="Trazado 568345" d="M1354.439-221.606H1294.7q-.152-.13-.1-.261c.033-.088.067-.131.1-.131q28.735,0,57.471.013C1352.932-221.984,1353.777-222.279,1354.439-221.606Z" transform="translate(-19.333 -93.755)" fill="#fcf5f5"/>
      <path id="Trazado_568346" data-name="Trazado 568346" d="M1293.061-303.282l-.441-.086c-.03-4.038-.082-8.076-.085-12.113q-.016-19.967,0-39.935c0-.788.105-1.575.161-2.362a1.639,1.639,0,0,1,.362-.06,3.091,3.091,0,0,1,.189,1.748q.013,25.531,0,51.061A3.085,3.085,0,0,1,1293.061-303.282Z" transform="translate(-18.095 -12.082)" fill="#fefefe"/>
      <path id="Trazado_568347" data-name="Trazado 568347" d="M1293.865-303.282v-54.556c.683.657.386,1.5.387,2.263q.026,25.953.014,51.906,0,.2,0,.392Z" transform="translate(-18.898 -12.082)" fill="#f0f0f0"/>
      <path id="Trazado_568348" data-name="Trazado 568348" d="M1307.862-338.451c.535-.573,1.237-.359,1.872-.36q16.25-.019,32.5,0c.635,0,1.337-.213,1.873.359a2.2,2.2,0,0,1-1.35.192q-16.773.007-33.547,0A2.211,2.211,0,0,1,1307.862-338.451Z" transform="translate(-27.317 -23.503)" fill="#fefefe"/>
      <path id="Trazado_568349" data-name="Trazado 568349" d="M1307.862-337.852h36.246c-.52.6-1.225.391-1.86.391q-16.262.017-32.525,0C1309.088-337.462,1308.383-337.252,1307.862-337.852Z" transform="translate(-27.317 -24.102)" fill="#f0f0f0"/>
      <path id="Trazado_568350" data-name="Trazado 568350" d="M1344.38-349.3h-35.153v-.194h35.236Z" transform="translate(-28.138 -17.104)" fill="#fcfcfc"/>
      <path id="Trazado_568351" data-name="Trazado 568351" d="M1375.75-233.91l25.38-.016c-.41.645-1.068.419-1.628.42q-11.047.023-22.095,0C1376.834-233.5,1376.194-233.338,1375.75-233.91Z" transform="translate(-68.149 -86.611)" fill="#090909"/>
      <path id="Trazado_568352" data-name="Trazado 568352" d="M1401.518-243.24a2.7,2.7,0,0,1-.882.346q-11.783.035-23.567.026c-.06,0-.158-.016-.174-.051a1.624,1.624,0,0,1-.071-.32,3.125,3.125,0,0,1,1.744-.187q10.6-.016,21.206,0A3.12,3.12,0,0,1,1401.518-243.24Z" transform="translate(-68.795 -80.877)" fill="#fefefe"/>
      <path id="Trazado_568353" data-name="Trazado 568353" d="M1401.518-243.532h-24.694c.454-.548,1.084-.392,1.66-.392q10.688-.013,21.376,0C1400.435-243.924,1401.065-244.08,1401.518-243.532Z" transform="translate(-68.795 -80.585)" fill="#efefef"/>
      <path id="Trazado_568354" data-name="Trazado 568354" d="M1308.036-318.01l23.681.008c.279.616-.239.441-.479.442q-11.376.015-22.752,0a2.5,2.5,0,0,1-.532-.117Z" transform="translate(-27.372 -36.037)" fill="#f8f8f8"/>
      <ellipse id="Elipse_7045" data-name="Elipse 7045" cx="16.522" cy="0.13" rx="16.522" ry="0.13" transform="translate(1303.637 -319.679)" fill="#f9f9f9"/>
      <path id="Trazado_568355" data-name="Trazado 568355" d="M1407.863-254.034l12.148-.023.086.334c-4.09.229-8.181.177-12.272.02-.022,0-.061-.107-.054-.158A.557.557,0,0,1,1407.863-254.034Z" transform="translate(-87.408 -74.502)" fill="#f9f9f9"/>
      <path id="Trazado_568356" data-name="Trazado 568356" d="M1306.865-297.88l12.263,0c-.3.651-.9.416-1.378.419-3.081.023-6.163.018-9.245.006C1307.931-297.46,1307.305-297.331,1306.865-297.88Z" transform="translate(-26.717 -48.142)" fill="#0a0a0a"/>
      <path id="Trazado_568357" data-name="Trazado 568357" d="M1319.411-307.229c.077.621-.4.355-.634.356-3.215.017-6.43.011-9.645.009-.456,0-.929.045-1.27-.363A70.545,70.545,0,0,1,1319.411-307.229Z" transform="translate(-27.317 -42.38)" fill="#fefefe"/>
      <path id="Trazado_568358" data-name="Trazado 568358" d="M1319.411-307.6l-11.549,0c.854-.754,1.9-.418,2.824-.368C1313.594-307.812,1316.539-308.5,1319.411-307.6Z" transform="translate(-27.317 -42.006)" fill="#efefef"/>
      <path id="Trazado_568359" data-name="Trazado 568359" d="M1310.12-295.6h10.185v.2h-10.222Z" transform="translate(-28.652 -49.516)" fill="#f9f9f9"/>
      <path id="Trazado_568360" data-name="Trazado 568360" d="M1441.047-238.16l-.047-.415.582-.432a1.561,1.561,0,0,1,.034,1.261Z" transform="translate(-107.394 -83.555)" fill="#fcfcfc"/>
      <path id="Trazado_568361" data-name="Trazado 568361" d="M1441.636-258.774l.006-.977c.8-.295.373.385.424.6C1442.1-258.982,1442.259-258.336,1441.636-258.774Z" transform="translate(-107.777 -71.034)" fill="#fcfcfc"/>
      <path id="Trazado_568362" data-name="Trazado 568362" d="M1271.944-198.009q21.188-.026,42.376-.051,16.514-.013,33.028.015c.75,0,1.605-.332,2.245.4q-37.684,0-75.368-.014C1273.462-197.662,1272.623-197.375,1271.944-198.009Z" transform="translate(-5.714 -108.147)" fill="#a3a3a3"/>
      <path id="Trazado_568363" data-name="Trazado 568363" d="M1351.391-174.648q-30.948.025-61.9.043c-4.177,0-8.354-.076-12.53-.117.652-.5,1.41-.279,2.118-.28q35.114-.017,70.227,0C1350.009-175,1350.782-175.254,1351.391-174.648Z" transform="translate(-8.733 -122.021)" fill="#a3a3a3"/>
      <path id="Trazado_568364" data-name="Trazado 568364" d="M1369.1-186.831c-.861,0-1.725.04-2.584-.006a1.562,1.562,0,0,1-1.653-1.621,1.52,1.52,0,0,1,1.584-1.676c1.721-.063,3.446-.055,5.167-.009a1.533,1.533,0,0,1,1.647,1.617,1.532,1.532,0,0,1-1.579,1.68C1370.824-186.785,1369.96-186.834,1369.1-186.831Z" transform="translate(-61.599 -112.922)" fill="#060606"/>
      <path id="Trazado_568365" data-name="Trazado 568365" d="M1374.1-191.463h-5.04l0-.179h5.04Z" transform="translate(-64.127 -112.043)" fill="#a5a5a5"/>
      <path id="Trazado_568366" data-name="Trazado 568366" d="M1368.97-180.706h5.045v.188h-5.044Z" transform="translate(-64.071 -118.62)" fill="#a5a5a5"/>
      <path id="Trazado_568367" data-name="Trazado 568367" d="M1350.125-269.438q0,.2.007.409l-77.254-.008q0-19.913-.006-39.827c.688.656.387,1.5.389,2.263q.029,17.116.017,34.232c0,3.29-.332,2.929,3.029,2.93q36.721.011,73.443,0Q1349.935-269.731,1350.125-269.438Z" transform="translate(-6.272 -41.538)" fill="#00b8d0"/>
      <path id="Trazado_568368" data-name="Trazado 568368" d="M1466.07-268.205c-.125,0-.25,0-.375,0q0-.8,0-1.593,0-17.373.013-34.746c0-.761-.287-1.6.354-2.274Q1466.066-287.51,1466.07-268.205Z" transform="translate(-122.217 -42.771)" fill="#00bdd5"/>
      <path id="Trazado_568369" data-name="Trazado 568369" d="M1282.155-275.275v-36.444h.2v36.51Z" transform="translate(-11.855 -39.821)" fill="#00c1da"/>
      <path id="Trazado_568370" data-name="Trazado 568370" d="M1360.107-135.064c.417.331.377.791.351,1.247q-17.244-.008-34.487-.039c-.744,0-1.807.521-2.136-.772a3.989,3.989,0,0,0,2.116.4q16.115-.011,32.229-.02C1358.9-134.247,1359.866-133.86,1360.107-135.064Z" transform="translate(-36.925 -146.072)" fill="#9b9b9b"/>
    </g>
  </g>
</svg>
