<svg xmlns="http://www.w3.org/2000/svg" width="141" height="141" viewBox="0 0 141 141">
  <g id="Grupo_841823" data-name="Grupo 841823" transform="translate(-240.085 -1286.827)">
    <rect id="Rectángulo_38178" data-name="Rectángulo 38178" width="141" height="141" transform="translate(240.085 1286.827)" fill="none"/>
    <g id="Grupo_841828" data-name="Grupo 841828" transform="translate(-1674.478 1301.932)">
      <path id="Trazado_568420" data-name="Trazado 568420" d="M1934.914,68.1c.561-.937,1.5-.636,2.3-.64,4.777-.028,9.555,0,14.331-.042.514-.005,1.38.535,1.548-.567q-.4-.19-.007-.394c.037-2.329.094-4.659.1-6.988,0-1.044.143-1.954,1.32-2.3,1.684-.428,2.081.726,2.227,1.952a48.379,48.379,0,0,1,.086,5.664c-.014.215-.026.434-.026.65a1.139,1.139,0,0,0,.48,1.087,2.354,2.354,0,0,0,.775.143q15.343.041,30.687,0a2.149,2.149,0,0,0,.763-.139.976.976,0,0,0,.361-.492,2.646,2.646,0,0,0,.109-1.3c-.1-9.433.03-18.864-.083-28.288a5.446,5.446,0,0,0-.156-.63c-2.624-.868-5.306-.3-7.956-.32-.892-.007-.815.9-.833,1.533-.066,2.3.025,4.6-.044,6.891-.094,3.164-1.4,4.192-4.254,2.966a7.711,7.711,0,0,0-6.777.173c-2.362,1.1-3.715.234-3.914-2.415-.212-2.814.073-5.643-.158-8.457a1.15,1.15,0,0,0-.3-.543c-2.477-.489-4.969-.192-7.448-.183-1.392.005-1.166,1.21-1.176,2.067-.051,4.264-.015,8.529-.025,12.793a8.67,8.67,0,0,1-.155,2.35c-.276.98-.649,1.913-1.993,1.583l-.836-.489a1.178,1.178,0,0,1-.089-.709c-.2-6.107-.027-12.216-.1-18.322-.02-1.644.666-2.122,2.264-2.085,3.935.092,7.875.055,11.812.011-4.157.035-8.314.007-12.47,0-.415,0-.98.171-1.033-.553,4.13-.442,8.272-.114,12.407-.177,1.182-.018,2.036-.12,2.68-1.38.622-1.217-.228-1.7-.7-2.374-1.127-1.619-2.361-3.163-3.492-4.779a3.716,3.716,0,0,1,.348-5.186c1.033-1.106,2.11-2.173,3.217-3.206a3.724,3.724,0,0,1,5.18-.352q2.667,1.867,5.233,3.874a1.66,1.66,0,0,0,2.106.17,18.747,18.747,0,0,1,4.693-2c1.94-.413,2.465-1.509,2.62-3.234.159-1.766.457-3.524.782-5.269a3.706,3.706,0,0,1,3.94-3.362c1.513-.035,3.029-.043,4.542,0a3.723,3.723,0,0,1,3.826,3.282c.385,2.2.727,4.415,1,6.634a1.6,1.6,0,0,0,1.409,1.568,20.6,20.6,0,0,1,5.621,2.344,1.717,1.717,0,0,0,2.268-.223q2.49-1.939,5.074-3.758a3.794,3.794,0,0,1,5.335.4c.958.9,1.883,1.841,2.8,2.784,1.883,1.935,2.03,3.637.475,5.8-1.19,1.655-2.386,3.309-3.655,4.9a1.721,1.721,0,0,0-.144,2.277,18.866,18.866,0,0,1,2.259,5.44,1.854,1.854,0,0,0,1.879,1.59c2.088.268,4.173.571,6.248.924a3.767,3.767,0,0,1,3.405,3.926q.06,2.27,0,4.542a3.678,3.678,0,0,1-3.242,3.844q-3.293.63-6.628,1.033a1.644,1.644,0,0,0-1.61,1.358,20.167,20.167,0,0,1-1.9,4.734c-1.038,1.649-.736,2.793.443,4.129a46.762,46.762,0,0,1,3.065,4.111,3.811,3.811,0,0,1-.334,5.344q-1.48,1.589-3.066,3.077a3.777,3.777,0,0,1-5.343.384c-1.484-1.04-2.921-2.146-4.656-3.426v2.267q0,14.615,0,29.23c0,2.383-.208,2.586-2.613,2.587q-28.143,0-56.286.018c-1.286,0-2.387-.08-2.72-1.595-.068-1.419,1.042-1.669,2.028-2.047,5.283-.218,10.568-.036,15.852-.1a3.461,3.461,0,0,0,2.263-.376c.693-.515.6-1.271.6-1.986.005-8.945-.016-17.89.023-26.835.007-1.551-.59-2.2-2.1-2.056-2.263.215-4.584-.5-6.794.437-.586,2.1-.14,4.23-.267,6.341-.058.964.047,1.935-.1,2.9-1.023,2.333-1.574,2.61-3.848,1.9a27.277,27.277,0,0,1-2.751-.981,1.991,1.991,0,0,0-1.913.049c-.977.332-1.944.685-2.921,1.007-1.811.6-2.412.313-3.336-1.488-.168-2.753-.1-5.51-.055-8.262.024-1.469-.525-1.993-1.963-1.926-1.767.082-3.541.01-5.312.024-.647.005-1.34-.082-1.74.628a14.528,14.528,0,0,0-.144,3.529q-.018,12.679,0,25.355c-.113,1.382.622,1.774,1.89,1.772a45.775,45.775,0,0,1,6,.109c.943.368,2.069.575,1.821,2.018a1.86,1.86,0,0,1-2.106,1.59c-3.147-.052-6.3-.028-9.443-.013-1.312.006-1.9-.613-1.9-1.922q.053-17.605.081-35.21a4.755,4.755,0,0,1,2.237-.6c4.912.018,9.823.008,14.735.011.26,0,.549-.079.591-.012-4.3,0-8.747.045-13.195-.027C1937.6,68.18,1936.242,68.567,1934.914,68.1Z"/>
      <path id="Trazado_568421" data-name="Trazado 568421" d="M1986.9,111.211c-.026-2-.092-3.993-.062-5.989.018-1.238-.452-1.962-1.708-2.1a8.419,8.419,0,0,0,.2-2.912c1.281-.3,1.519-1.209,1.511-2.384-.033-5.117.023-10.235-.041-15.351-.016-1.246.267-1.737,1.612-1.679,2.489.106,4.985.017,7.478.043.4,0,.944-.253,1.181.364-3.151.5-6.354-.051-8.763.2,2.432.121,5.6-.238,8.783.189.028,2.958.043,5.917.088,8.875.035,2.277.9,2.972,2.831,2.044a8.408,8.408,0,0,1,7.848-.128c2.275,1.1,3.046.413,3.056-2.184.01-2.7.028-5.395-.01-8.092-.013-.875.164-1.324,1.181-1.3,2.827.058,5.657.024,8.486.026.277,0,.511.06.591.37-3.151.5-6.355-.051-8.765.2,2.434.121,5.606-.238,8.784.189q0,14.811,0,29.622a3.015,3.015,0,0,1-2.4.592q-14.739.007-29.479,0A3,3,0,0,1,1986.9,111.211Z" transform="translate(-30.624 -45.946)" fill="#e7824d"/>
      <path id="Trazado_568422" data-name="Trazado 568422" d="M1966.81,171.007c2.066-.839,4.221-.3,6.33-.358,3.955-.1,3.958-.03,3.957,3.995,0,8.785,0,17.569-.03,26.354,0,.669.326,1.443-.324,2.029a12.607,12.607,0,0,0-4.07-.194c-4.448-.042-8.9-.029-13.346,0-.615,0-1.3-.283-1.854.254a2.571,2.571,0,0,0-1.651,1.515l-2.772.005a2.383,2.383,0,0,0-1.675-1.522c-2.3-.59-4.645-.177-6.966-.238-1.093-.028-1.622-.31-1.422-1.461a.815.815,0,0,1,.345-.6,2.5,2.5,0,0,1,.685-.273c6.249-.205,12.5.034,18.749-.111,3.421-.08,6.845-.008,10.268-.019a5.391,5.391,0,0,0,2.515-.31c.732-.578.625-1.4.625-2.179q0-11.935,0-23.869c0-.718.088-1.464-.544-2.008-1.351-.688-2.8-.266-4.192-.365a17.683,17.683,0,0,1-4.038-.245A4.5,4.5,0,0,1,1966.81,171.007Z" transform="translate(-5.114 -100.223)" fill="#c35f3c"/>
      <path id="Trazado_568423" data-name="Trazado 568423" d="M1982.5,96.38q-.006.17,0,.339c-.673-.3-.662-.917-.662-1.493q-.006-9.437.022-18.874c0-.175.149-.349.228-.524.411-.005.581.232.576.609C1982.584,83.084,1982.89,89.735,1982.5,96.38Z" transform="translate(-28.633 -42.947)" fill="#010101"/>
      <path id="Trazado_568424" data-name="Trazado 568424" d="M1982.885,95.213c-.005-6.17,0-12.339-.028-18.509,0-.691.254-1.461-.387-2.043a.738.738,0,0,1,.8-.763c.669.636,1.5.35,2.259.355,3.836.03,7.671.014,11.506.409-3.928,0-7.858.064-11.784-.032-1.539-.038-2.05.4-2.019,1.989.116,5.977.086,11.957.146,17.936C1983.379,95,1983.242,95.137,1982.885,95.213Z" transform="translate(-29.018 -41.78)" fill="#040404"/>
      <path id="Trazado_568425" data-name="Trazado 568425" d="M1935,164.944h17.628l.019.332h-3.285c-3.673,0-7.348.041-11.02-.023a22.307,22.307,0,0,0-3.685.419A.562.562,0,0,1,1935,164.944Z" transform="translate(-0.084 -96.844)" fill="#050505"/>
      <path id="Trazado_568426" data-name="Trazado 568426" d="M2022.765,36.172a2.721,2.721,0,0,0-.326-3.552c-1.466-1.763-2.707-3.712-4.136-5.508-.781-.982-.651-1.63.192-2.507,3.181-3.31,3.321-3.534,6.743-.59,3.168,2.725,6.034,4.236,9.866,1.2,1.16-.918,2.907-1.159,4.427-1.539a2.266,2.266,0,0,0,1.882-2.154c.458-2.768.587-5.594,1.412-8.3a.748.748,0,0,1,.516-.079,23.258,23.258,0,0,0,4.729.047,1.932,1.932,0,0,0,.393-.316c.844.266.681,1.025.779,1.636.373,2.338.773,4.673,1.061,7.022a2.175,2.175,0,0,0,1.894,2.14,24.041,24.041,0,0,1,7.786,3.257,2.057,2.057,0,0,0,2.684-.188c1.981-1.524,4.047-2.939,6.012-4.482.924-.726,1.524-.6,2.348.177,3.4,3.218,3.594,3.337.6,6.91-2.612,3.119-4.231,5.936-1.169,9.72.93,1.15,1.182,2.906,1.554,4.431a2.208,2.208,0,0,0,2.133,1.91c2.348.3,4.685.686,7.022,1.06.61.1,1.369-.062,1.646.769-.516,1.866.1,3.8-.334,5.669a64.027,64.027,0,0,1-8.326,1.4,2.231,2.231,0,0,0-2.123,1.918,24.017,24.017,0,0,1-3.259,7.784,2.055,2.055,0,0,0,.185,2.682c1.519,1.984,2.937,4.047,4.479,6.013a1.516,1.516,0,0,1-.153,2.353c-3.209,3.426-3.185,3.453-6.96.661-1.48-1.095-2.953-2.2-4.43-3.3a3.279,3.279,0,0,0-.779-.587c-4.067-.275-8.14.026-12.2-.16a1.06,1.06,0,0,1-.519-.3c.163-2.792-.015-2.917-3.513-2.47a1.185,1.185,0,0,1-.762-.341q0-3.166-.007-6.331a1.555,1.555,0,0,1,1.05-.461c4.079.007,6.826-2.127,8.829-5.467a1.835,1.835,0,0,0-.677-2.2,3.234,3.234,0,0,1,1.134-2.722c1.325-.152,1.69-.941,1.645-2.2a10.177,10.177,0,0,0-10.168-9.555c-1.1-.006-2.026.21-1.984-1.463.029-1.135-1.007-1.373-2.022-1.368-2.811.015-5.623.005-8.854.005.81-.767,1.375-1.252,1.878-1.794a1.3,1.3,0,0,0,.119-1.8,1.415,1.415,0,0,0-1.565-.568,3.621,3.621,0,0,0-2.433,3.529A18.22,18.22,0,0,1,2022.765,36.172Z" transform="translate(-50.376 -4.877)" fill="#fe4755"/>
      <path id="Trazado_568427" data-name="Trazado 568427" d="M2047.71,182.5c.729.59,1.331,1.04,2.421.4a7.761,7.761,0,0,1,8.185-.193c1.058.588,2.158.663,2.91-.6a1.954,1.954,0,0,0,.26-.64c.091-2.692,0-5.384.049-8.075.012-.7-.2-1.461.4-2.054,2.97-.174,5.94-.087,8.911-.048a.765.765,0,0,1,.388.611c-.147,8.782-.018,17.565-.068,26.347a8.984,8.984,0,0,1-.212,2.927,1.3,1.3,0,0,1-.51.57,2.74,2.74,0,0,1-1.328.3c-10.155-.024-20.31.1-30.466-.062a2.436,2.436,0,0,1-.729-.284,1.2,1.2,0,0,1-.42-.641c-.163-9.493-.038-18.988-.062-28.482a1.757,1.757,0,0,1,.275-1.123,69.148,69.148,0,0,1,9.085-.155c.711.528.481,1.308.492,2,.043,2.752-.025,5.5.04,8.256A1.872,1.872,0,0,0,2047.71,182.5Z" transform="translate(-62.251 -100.637)" fill="#c3603d"/>
      <path id="Trazado_568428" data-name="Trazado 568428" d="M1976.484,201.478H1943.7a3.654,3.654,0,0,1-.387-2.473c-.062-9,.09-18-.085-26.992a.561.561,0,0,1,.155-.675c2.978-.114,5.956-.1,8.933-.006.662.546.444,1.31.457,2,.05,2.722-.046,5.445.054,8.167a1.907,1.907,0,0,0,.28.636c.669,1.1,1.584,1.151,2.693.721,1.082-.42,2.2-.735,3.31-1.1.53.2,1.051-.108,1.578-.032,1.11.361,2.244.662,3.324,1.1,1.405.566,2.4.332,2.925-1.186a.383.383,0,0,0,.453-.357c-.017-3.08.09-6.152-.059-9.224a.566.566,0,0,1,.062-.58l9.092-.008a2.192,2.192,0,0,1,.188,1.338q.007,13.669,0,27.338A2.217,2.217,0,0,1,1976.484,201.478Z" transform="translate(-5.252 -100.66)" fill="#d56e41"/>
      <path id="Trazado_568429" data-name="Trazado 568429" d="M2094.55,96.742a6,6,0,0,1-1.134,2.722c-.986-.36-1.592.211-2.216.849a7.246,7.246,0,0,1-5.484,2.23c-1.083-.011-1.654-.227-1.624-1.535.088-3.871.073-7.746.006-11.618-.02-1.16.459-1.452,1.49-1.51a7.38,7.38,0,0,1,7.643,6.7C2093.347,95.57,2093.5,96.389,2094.55,96.742Z" transform="translate(-90.477 -50.229)" fill="#f7f9fa"/>
      <path id="Trazado_568430" data-name="Trazado 568430" d="M2047.224,182.2l-.427-.429c-.369-2.836-.063-5.685-.176-8.526a4.306,4.306,0,0,0-.189-2.1h-9.1a2.111,2.111,0,0,0-.194,1.335q-.008,13.67,0,27.34a2.093,2.093,0,0,0,.2,1.334l0,.007a3.241,3.241,0,0,0,2.657,1.02q13.9-.012,27.792-.005c1.011,0,1.986-.067,2.564-1.084a4.721,4.721,0,0,0,.162-1.758q.01-14.094.009-28.187h-9.1c-.436,2.576-.07,5.172-.2,7.754a8.511,8.511,0,0,1-.176,2.888q-.155.011-.31.017c-.007-3.156.026-6.313-.042-9.468-.025-1.148.232-1.66,1.516-1.61,2.5.1,5,.073,7.495.008,1.084-.028,1.5.266,1.5,1.424q-.064,14.8-.013,29.591c0,1.244-.427,1.546-1.605,1.542q-15.683-.059-31.366,0c-1.176,0-1.6-.311-1.6-1.545q.055-14.795-.006-29.591c0-.953.187-1.447,1.3-1.419q3.943.1,7.89,0c1.1-.028,1.309.448,1.309,1.41C2047.113,175.5,2047.182,178.849,2047.224,182.2Z" transform="translate(-61.765 -100.341)" fill="#c35e3e"/>
      <path id="Trazado_568431" data-name="Trazado 568431" d="M1989.6,157.771l34.281,0q0,.594,0,1.188a2.89,2.89,0,0,1-2.072.389q-14.938.014-29.876,0c-.964,0-2.05.2-2.333-1.171Z" transform="translate(-33.329 -92.506)" fill="#d66e41"/>
      <path id="Trazado_568432" data-name="Trazado 568432" d="M1976.414,170.917q3.274-.057,6.549-.115c.549-.01,1.077,0,.886.8a30.894,30.894,0,0,0-.133,4.506c-.022.517.009,1.344-.688,1.1-2.133-.762-4.237.042-6.345-.112-.58-1.817-.108-3.689-.29-5.527A1.488,1.488,0,0,1,1976.414,170.917Z" transform="translate(-25.327 -100.385)" fill="#fde7c6"/>
      <path id="Trazado_568433" data-name="Trazado 568433" d="M2023.516,81.116a15.254,15.254,0,0,1,7.478,0c-.464,1.89-.058,3.813-.216,5.713-2.337.187-4.678.093-7.017.087-.021,0-.04-.115-.061-.178-.015-1.369.051-2.741-.024-4.105-.057-1.051.372-1.38,1.366-1.326,1.4.077,2.8-.051,4.195.051C2027.336,81.155,2025.407,81.557,2023.516,81.116Z" transform="translate(-53.842 -45.864)" fill="#fee8c7"/>
      <path id="Trazado_568434" data-name="Trazado 568434" d="M2071.187,171.019l7.112.019a1.188,1.188,0,0,1,.025.637c-.171,1.822.243,3.671-.247,5.479a.961.961,0,0,1-1.092.207,5.888,5.888,0,0,0-4.213-.164,1.2,1.2,0,0,1-1.406-.452c-.717-5.155-.717-5.155,4.715-5.291a7.721,7.721,0,0,1-1.864.053c-.919.023-1.839.013-2.76.008A.344.344,0,0,1,2071.187,171.019Z" transform="translate(-82.58 -100.518)" fill="#fee8c7"/>
      <path id="Trazado_568435" data-name="Trazado 568435" d="M2071.169,176.867c2.146-.563,4.287-1.049,6.321.36.508-1.926-.066-3.911.313-5.844a2.061,2.061,0,0,1,.073-.345c.111.138.316.276.317.415.019,2.557.014,5.114.014,7.613a1.2,1.2,0,0,1-1.232-.082,5.267,5.267,0,0,0-5.243-.035c-.949.528-1.452.358-1.34-.859.218-2.351-.461-4.75.373-7.071a2.012,2.012,0,0,1,.05.307C2071.268,173.152,2070.612,175.048,2071.169,176.867Z" transform="translate(-82.158 -100.518)" fill="#f9d8a4"/>
      <path id="Trazado_568436" data-name="Trazado 568436" d="M1975.928,171.1a2.1,2.1,0,0,1,.087.351c.346,1.931-.2,3.908.3,5.832,1.816-.735,3.6-1.563,5.593-.441.737.415,1.133.151,1.167-.816.049-1.412-.382-2.87.289-4.24v7.728c-2.407-1.3-4.7-1.619-7.025-.287-.423.242-.735-.063-.7-.577C1975.783,176.13,1975.225,173.588,1975.928,171.1Z" transform="translate(-24.841 -100.565)" fill="#f9d8a5"/>
      <path id="Trazado_568437" data-name="Trazado 568437" d="M2094.078,122.771c-1.34,4.179-4.331,5.974-9.879,5.928-.4-1.635.045-2.184,1.895-2.109C2089.327,126.722,2091.927,125.115,2094.078,122.771Z" transform="translate(-90.461 -71.338)" fill="#f82a39"/>
      <path id="Trazado_568438" data-name="Trazado 568438" d="M2023.765,95.454a6.848,6.848,0,0,1,6.719,0c.147-.191.285-.176.415.017.356,1.564.143,2.5-1.726,1.524a4.285,4.285,0,0,0-3.91-.082c-2.007.849-2.043.764-1.892-1.445Q2023.56,95.168,2023.765,95.454Z" transform="translate(-53.722 -54.282)" fill="#fad9a5"/>
      <path id="Trazado_568439" data-name="Trazado 568439" d="M1989.6,158.811c.591.982,1.561.779,2.46.779q15.91,0,31.82,0v.4a2.241,2.241,0,0,1-1.344.184q-15.794.007-31.588,0a2.262,2.262,0,0,1-1.345-.182Z" transform="translate(-33.329 -93.135)" fill="#d16b3f"/>
      <path id="Trazado_568440" data-name="Trazado 568440" d="M1989.609,161.8l34.277,0c-.237.873-.965.519-1.471.52q-15.668.034-31.336,0C1990.574,162.317,1989.845,162.675,1989.609,161.8Z" transform="translate(-33.335 -94.941)" fill="#e67646"/>
      <path id="Trazado_568441" data-name="Trazado 568441" d="M1942.629,171.627q.007.2.011.393a2.226,2.226,0,0,1,.186,1.339q.007,13.472,0,26.945a2.145,2.145,0,0,1-.191,1.336h0q-.21.277-.43.008-.269-15.016,0-30.032A.277.277,0,0,1,1942.629,171.627Z" transform="translate(-4.586 -100.82)" fill="#e57646"/>
      <path id="Trazado_568442" data-name="Trazado 568442" d="M2088.683,156.222q0,.149.009.3c2.846.458,5.712.074,8.565.215,1.618.08,3.251-.243,4.854.187q0,.347,0,.694-7.591-.062-15.182-.122c-2.681-.017-2.682,0-2.64-2.752.005-.326.031-.653.048-.98l.7-.018c.3,1.7,1.161,2.6,3.01,2.148A.582.582,0,0,1,2088.683,156.222Z" transform="translate(-90.592 -90.07)" fill="#fa4a58"/>
      <path id="Trazado_568443" data-name="Trazado 568443" d="M1942.822,171.05l-.43-.011c2.056-.839,4.2-.3,6.3-.352,3.958-.1,3.963-.03,3.959,3.963,0,2.354-.012,4.709-.019,7.062q-.166,0-.331-.009c-.425-2.776-.055-5.571-.192-8.354a5.065,5.065,0,0,0-.192-2.3Z" transform="translate(-4.779 -100.244)" fill="#d26c3f"/>
      <path id="Trazado_568444" data-name="Trazado 568444" d="M1979.56,252.2c-.219-.344-.025-.458.281-.458q9.064,0,18.128.022c.287,0,.573.246.86.377C1992.407,252.4,1985.984,252.283,1979.56,252.2Z" transform="translate(-27.201 -149.34)" fill="#d36741"/>
      <path id="Trazado_568445" data-name="Trazado 568445" d="M2030.1,71.815l8.3.013c.249.166.372.538.063.543-2.785.049-5.572.027-8.358.01-.069,0-.189-.181-.19-.279S2030.034,71.911,2030.1,71.815Z" transform="translate(-57.712 -40.521)" fill="#fe4c5b"/>
      <ellipse id="Elipse_7047" data-name="Elipse 7047" cx="0.114" cy="9.39" rx="0.114" ry="9.39" transform="translate(1992.629 35.775)" fill="#040404"/>
      <path id="Trazado_568446" data-name="Trazado 568446" d="M2023.68,87.749l-.395.011a36.167,36.167,0,0,1,.025-5.932h6.222l.007.395c-.859,0-1.719-.009-2.578,0-3.763.047-3.229-.485-3.278,3.371C2023.674,86.313,2023.681,87.031,2023.68,87.749Z" transform="translate(-53.637 -46.576)" fill="#feedcc"/>
      <path id="Trazado_568447" data-name="Trazado 568447" d="M2003.752,171.763c.005.13.009.26.01.39a55.886,55.886,0,0,1-.005,10.266l-.46-.494q.007-5.094.013-10.187Z" transform="translate(-41.614 -100.952)" fill="#e67646"/>
      <path id="Trazado_568448" data-name="Trazado 568448" d="M1942.211,247.743l.43-.008c-.133,1.137.28,1.647,1.514,1.6,2.2-.074,4.409-.011,6.615,0,.046,0,.13.065.131.1a2.026,2.026,0,0,1-.046.338c-2.278.024-4.561-.051-6.83.1C1942.267,250,1941.833,249.289,1942.211,247.743Z" transform="translate(-4.593 -146.915)" fill="#d36741"/>
      <path id="Trazado_568449" data-name="Trazado 568449" d="M2061.932,82.224h-9.414v-.392h9.4Z" transform="translate(-71.382 -46.579)" fill="#ec854e"/>
      <path id="Trazado_568450" data-name="Trazado 568450" d="M2000.969,82.224h-9.419v-.392h9.4Z" transform="translate(-34.509 -46.579)" fill="#ec854e"/>
      <path id="Trazado_568451" data-name="Trazado 568451" d="M1983.756,149.038v-8.1l.2,0V149.1Z" transform="translate(-29.796 -82.323)" fill="#040404"/>
      <path id="Trazado_568452" data-name="Trazado 568452" d="M2041.78,87.762l-.415-.017c.219-1.967-.474-3.993.389-5.917A33.567,33.567,0,0,1,2041.78,87.762Z" transform="translate(-64.603 -46.576)" fill="#fef3d0"/>
      <path id="Trazado_568453" data-name="Trazado 568453" d="M2181.336,105.5c.108-1.89-.472-3.82.334-5.669C2181.788,101.731,2182.3,103.658,2181.336,105.5Z" transform="translate(-149.229 -57.463)" fill="#fe4b5a"/>
      <path id="Trazado_568454" data-name="Trazado 568454" d="M2081.653,12.894l-.5-.041c1.825-1,3.745-.459,5.638-.348q0,.194,0,.388A14.27,14.27,0,0,1,2081.653,12.894Z" transform="translate(-88.698 -4.502)" fill="#fe4b5a"/>
      <path id="Trazado_568455" data-name="Trazado 568455" d="M1985.072,197.237a.967.967,0,0,1-1.578.032C1984.012,196.888,1984.535,196.714,1985.072,197.237Z" transform="translate(-29.637 -116.177)" fill="#df7243"/>
      <path id="Trazado_568456" data-name="Trazado 568456" d="M2000.983,148.955c-.686-.525-1.436-1.026-.987-2.081.416-.978,1.284-.988,2.16-.987q5.028.007,10.056,0c.818,0,1.626.038,2.03.885.467.979-.132,1.6-.838,2.161-1.581.593-3.223.252-4.827.239C2006.046,149.15,2003.5,149.495,2000.983,148.955Z" transform="translate(-39.535 -85.318)" fill="#060302"/>
      <path id="Trazado_568457" data-name="Trazado 568457" d="M2001,133.9c-.68-.518-1.439-1-1.03-2.059.384-.994,1.235-1.03,2.116-1.023q2.158.017,4.317,0c.881-.007,1.731.03,2.116,1.023.411,1.058-.353,1.539-1.03,2.058A16.455,16.455,0,0,1,2001,133.9Z" transform="translate(-39.532 -76.203)" fill="#080403"/>
      <path id="Trazado_568458" data-name="Trazado 568458" d="M2002.622,153.616l12.42-.023c.153.158.17.428-.024.429-4.1.027-8.208.025-12.313.024-.047,0-.135-.062-.135-.1A1.991,1.991,0,0,1,2002.622,153.616Z" transform="translate(-41.174 -89.979)" fill="#ee864f"/>
      <path id="Trazado_568459" data-name="Trazado 568459" d="M2002.636,138.613h6.489c.15.165.149.426-.044.428-2.134.027-4.268.018-6.4.012-.042,0-.123-.073-.12-.107A2.149,2.149,0,0,1,2002.636,138.613Z" transform="translate(-41.167 -80.919)" fill="#f38951"/>
      <path id="Trazado_568460" data-name="Trazado 568460" d="M2027.456,201.8q0-15.007,0-30.015c.541.454.375,1.082.376,1.65q.013,13.356,0,26.712C2027.829,200.715,2027.993,201.341,2027.456,201.8Z" transform="translate(-56.224 -100.98)" fill="#de7243"/>
      <path id="Trazado_568461" data-name="Trazado 568461" d="M1943.492,202.407q0-14.81.006-29.619c.67.654.376,1.491.378,2.243q.032,13.687.015,27.373Z" transform="translate(-5.444 -101.588)" fill="#d26c3f"/>
      <path id="Trazado_568462" data-name="Trazado 568462" d="M2121,140.033a1.458,1.458,0,0,1-1.426-1.463c-.054-.95,1.938-2.924,2.87-2.878a1.378,1.378,0,0,1,1.416,1.346C2123.962,137.994,2122.094,140,2121,140.033Z" transform="translate(-111.936 -79.152)" fill="#090203"/>
      <path id="Trazado_568463" data-name="Trazado 568463" d="M2134.31,120.924c-.563,1.1-.411,2.818-2.192,3.059-.914.123-1.454-.531-1.509-1.433-.083-1.356,1.3-3.348,2.261-3.269C2133.791,119.355,2134.237,119.944,2134.31,120.924Z" transform="translate(-118.609 -69.225)" fill="#070202"/>
      <path id="Trazado_568464" data-name="Trazado 568464" d="M2089.395,155.62c-.573.063-1.145.158-1.72.184-2.111.1-2.621-.618-1.925-2.662a5.417,5.417,0,0,1,2.285-.38c.817-.048,1.6-.011,2.017.828C2090.475,154.446,2090.051,155.084,2089.395,155.62Z" transform="translate(-91.304 -89.469)" fill="#060202"/>
      <path id="Trazado_568465" data-name="Trazado 568465" d="M2070.175,54.39c1.1.005,1.855.543,1.716,1.511-.256,1.782-1.973,1.671-3.217,1.966a1.222,1.222,0,0,1-1.5-1.371C2067.318,54.595,2069.1,54.916,2070.175,54.39Z" transform="translate(-80.241 -29.982)" fill="#060202"/>
      <path id="Trazado_568466" data-name="Trazado 568466" d="M2108.981,58.673c-.225.935-.72,1.464-1.655,1.429-1.449-.053-3.22-1.475-3.066-2.472a1.282,1.282,0,0,1,1.663-1.207C2107.2,56.779,2108.645,57.065,2108.981,58.673Z" transform="translate(-102.67 -31.176)" fill="#060102"/>
      <path id="Trazado_568467" data-name="Trazado 568467" d="M2134.526,85.341c-.169.974-.647,1.519-1.578,1.524s-2.3-2.144-2.118-3.358c.131-.883.73-1.522,1.614-1.326C2134.123,82.556,2133.993,84.227,2134.526,85.341Z" transform="translate(-118.735 -46.768)" fill="#070202"/>
      <path id="Trazado_568468" data-name="Trazado 568468" d="M2108.4,149.056c-.368,1.5-1.83,1.76-3.094,2.069a1.26,1.26,0,0,1-1.595-1.467c.272-1.675,1.892-1.82,3.156-2.136C2107.73,147.305,2108.311,147.945,2108.4,149.056Z" transform="translate(-102.331 -86.282)" fill="#050102"/>
      <path id="Trazado_568469" data-name="Trazado 568469" d="M2138.16,103.011c-.049,1.085.167,2.428-1.434,2.495-1.459.061-1.542-1.084-1.5-2.2.043-1.138-.271-2.583,1.5-2.587C2138.2,100.72,2138.149,101.95,2138.16,103.011Z" transform="translate(-121.399 -58.004)" fill="#040101"/>
      <path id="Trazado_568470" data-name="Trazado 568470" d="M2124.28,69.775a1.375,1.375,0,0,1-1.531,1.31c-.964-.029-2.766-2.1-2.656-3.03a1.336,1.336,0,0,1,1.425-1.3C2122.5,66.737,2124.318,68.683,2124.28,69.775Z" transform="translate(-112.248 -37.459)" fill="#050101"/>
      <path id="Trazado_568471" data-name="Trazado 568471" d="M2088.16,55.567c-1.073-.02-2.433.062-2.451-1.469-.02-1.549,1.291-1.509,2.444-1.462s2.438.079,2.389,1.607C2090.5,55.652,2089.319,55.706,2088.16,55.567Z" transform="translate(-91.456 -28.912)" fill="#050101"/>
      <path id="Trazado_568472" data-name="Trazado 568472" d="M2108.862,161.126c-3.8,0-7.592.013-11.387-.012-.687,0-1.458.264-2.032-.39,3.794,0,7.588-.008,11.382.018C2107.514,160.747,2108.281,160.49,2108.862,161.126Z" transform="translate(-97.343 -94.274)" fill="#f94553"/>
      <path id="Trazado_568473" data-name="Trazado 568473" d="M2082.424,13.863l5.135,0A6.865,6.865,0,0,1,2082.424,13.863Z" transform="translate(-89.469 -5.47)" fill="#f94552"/>
      <path id="Trazado_568474" data-name="Trazado 568474" d="M2048.268,238.853c-.627-.518-1.224-1.081-.888-1.993.361-.977,1.219-1.058,2.115-1.055q5.023.017,10.047,0c.882,0,1.743.042,2.153,1.007.449,1.058-.327,1.546-1.007,2.07-3.5.558-7.032.117-10.548.232C2049.522,239.137,2048.826,239.387,2048.268,238.853Z" transform="translate(-68.216 -139.7)" fill="#050201"/>
      <path id="Trazado_568475" data-name="Trazado 568475" d="M2039.179,247.743h32.391c.391.889.182,1.382-.869,1.377-1.506-.008-3.013,0-4.519,0q-12.772,0-25.544-.006C2039.766,249.112,2038.551,249.385,2039.179,247.743Z" transform="translate(-63.21 -146.92)" fill="#b6573a"/>
      <path id="Trazado_568476" data-name="Trazado 568476" d="M2048.614,223.866c-.757-.431-1.551-.871-1.252-1.944.316-1.134,1.261-1.167,2.216-1.158,1.442.014,2.885.021,4.327,0,.914-.015,1.75.124,2.062,1.114.333,1.059-.455,1.525-1.2,1.981A15.474,15.474,0,0,1,2048.614,223.866Z" transform="translate(-68.225 -130.601)" fill="#060302"/>
      <path id="Trazado_568477" data-name="Trazado 568477" d="M2038.8,247.51c-.077.989.48,1.194,1.342,1.192q14.853-.023,29.707,0c.862,0,1.418-.2,1.342-1.193l0,0,.2-.15.2.15c.144,1.169-.318,1.608-1.543,1.6q-15.046-.058-30.092,0c-1.22,0-1.694-.422-1.544-1.6C2038.54,247.509,2038.671,247.509,2038.8,247.51Z" transform="translate(-62.833 -146.687)" fill="#b25639"/>
      <path id="Trazado_568478" data-name="Trazado 568478" d="M2122.1,171.8c.527.461.366,1.086.366,1.656q.012,13.351,0,26.7c0,.57.158,1.195-.372,1.654v0a2.176,2.176,0,0,1-.188-1.337q-.008-13.473,0-26.947a2.219,2.219,0,0,1,.187-1.339Q2122.088,171.992,2122.1,171.8Z" transform="translate(-113.335 -100.989)" fill="#d16641"/>
      <path id="Trazado_568479" data-name="Trazado 568479" d="M2037.828,201.8c-.536-.456-.377-1.081-.377-1.651q-.012-13.353,0-26.706c0-.57-.16-1.2.375-1.652Q2037.827,186.8,2037.828,201.8Z" transform="translate(-62.257 -100.988)" fill="#cd6540"/>
      <path id="Trazado_568480" data-name="Trazado 568480" d="M2121.719,172.787q0,14.811,0,29.622l-.4,0q0-13.689.015-27.377C2121.342,174.277,2121.048,173.44,2121.719,172.787Z" transform="translate(-112.967 -101.587)" fill="#bf5e3b"/>
      <path id="Trazado_568481" data-name="Trazado 568481" d="M2049.623,243.517l12.42.032c.223.347.017.45-.28.451q-5.969.006-11.937-.006a.374.374,0,0,1-.294-.151C2049.5,243.76,2049.587,243.628,2049.623,243.517Z" transform="translate(-69.571 -144.364)" fill="#ca633f"/>
      <path id="Trazado_568482" data-name="Trazado 568482" d="M2061.329,171.8c.781,1.471.282,3.049.351,4.574.091,2.013.018,4.033.015,6.049-.786-1.47-.277-3.048-.348-4.572C2061.253,175.834,2061.327,173.814,2061.329,171.8Z" transform="translate(-76.663 -100.988)" fill="#d06641"/>
      <path id="Trazado_568483" data-name="Trazado 568483" d="M2098.4,182.437c0-2.934-.012-5.868.007-8.8,0-.627-.208-1.321.373-1.84,0,2.935.014,5.87-.005,8.8C2098.769,181.225,2098.989,181.921,2098.4,182.437Z" transform="translate(-99.113 -100.988)" fill="#cd6440"/>
      <path id="Trazado_568484" data-name="Trazado 568484" d="M2050.491,228.6l6.158-.009c.2.75-.407.443-.655.441-1.849-.01-3.7-.06-5.547-.106-.018,0-.053-.106-.045-.157A.58.58,0,0,1,2050.491,228.6Z" transform="translate(-70.102 -135.34)" fill="#cf6540"/>
      <path id="Trazado_568485" data-name="Trazado 568485" d="M1953.737,238.9c-.741-.463-1.51-.95-1.161-2,.326-.979,1.168-1.105,2.077-1.1q5.11.021,10.219,0c.906,0,1.754.108,2.1,1.074.374,1.043-.4,1.54-1.123,2.019A63.562,63.562,0,0,1,1953.737,238.9Z" transform="translate(-10.886 -139.699)" fill="#050301"/>
      <path id="Trazado_568486" data-name="Trazado 568486" d="M1953.768,223.855c-.746-.452-1.533-.92-1.2-1.979.31-.992,1.149-1.13,2.065-1.115,1.444.025,2.889.017,4.333,0,.957-.009,1.9.021,2.215,1.162.293,1.074-.5,1.516-1.264,1.939A15.313,15.313,0,0,1,1953.768,223.855Z" transform="translate(-10.885 -130.601)" fill="#060302"/>
      <path id="Trazado_568487" data-name="Trazado 568487" d="M1955.615,243.637l12.112-.008c.148.19.094.415-.111.415-3.958.018-7.915.015-11.872.011-.051,0-.142-.051-.146-.086A1.863,1.863,0,0,1,1955.615,243.637Z" transform="translate(-12.764 -144.432)" fill="#dc7143"/>
      <path id="Trazado_568488" data-name="Trazado 568488" d="M2004.462,183.054l0-10.266c.813,1.466.3,3.049.367,4.574.082,1.878-.019,3.763-.049,5.646,0,.035-.086.091-.136.1A.539.539,0,0,1,2004.462,183.054Z" transform="translate(-42.318 -101.588)" fill="#d16b3f"/>
      <path id="Trazado_568489" data-name="Trazado 568489" d="M1966.367,171.795c.814,1.334.295,2.8.358,4.192.1,2.149.025,4.306.025,6.46-.821-1.333-.3-2.795-.361-4.191C1966.292,176.106,1966.366,173.949,1966.367,171.795Z" transform="translate(-19.228 -100.988)" fill="#dd7243"/>
      <path id="Trazado_568490" data-name="Trazado 568490" d="M1955.577,228.59l6.147.01c.006,1-.74.409-1.058.415-1.717.029-3.435-.049-5.152-.1a.251.251,0,0,1-.033-.16A.609.609,0,0,1,1955.577,228.59Z" transform="translate(-12.693 -135.337)" fill="#e27445"/>
      <path id="Trazado_568491" data-name="Trazado 568491" d="M1976.837,177.814c-.762-1.91-.211-3.888-.3-5.832C1977.193,173.9,1976.676,175.874,1976.837,177.814Z" transform="translate(-25.363 -101.101)" fill="#fef5d2"/>
      <path id="Trazado_568492" data-name="Trazado 568492" d="M2071.737,177.336c-.882-1.8-.2-3.7-.354-5.54h5.823l0,.389c-1.327,0-2.656.043-3.98-.014-1.069-.046-1.566.321-1.509,1.449C2071.781,174.857,2071.735,176.1,2071.737,177.336Z" transform="translate(-82.726 -100.988)" fill="#feedcb"/>
      <path id="Trazado_568493" data-name="Trazado 568493" d="M2088.676,171.939c-.1,1.948.475,3.933-.313,5.844C2088.528,175.838,2087.984,173.855,2088.676,171.939Z" transform="translate(-93.031 -101.075)" fill="#fef2d0"/>
    </g>
  </g>
</svg>
