<svg xmlns="http://www.w3.org/2000/svg" xmlns:xlink="http://www.w3.org/1999/xlink" width="184.85" height="102.658" viewBox="0 0 184.85 102.658">
  <defs>
    <clipPath id="clip-path">
      <rect id="Rectángulo_39224" data-name="Rectángulo 39224" width="184.85" height="102.658" fill="#47b5ab"/>
    </clipPath>
  </defs>
  <g id="Grupo_145057" data-name="Grupo 145057" transform="translate(0 0)">
    <g id="Grupo_145056" data-name="Grupo 145056" transform="translate(0 0)" clip-path="url(#clip-path)">
      <path id="Trazado_150312" data-name="Trazado 150312" d="M67.767,7.39A3.7,3.7,0,1,1,71.462,3.7,3.694,3.694,0,0,1,67.767,7.39" transform="translate(26.276 0)" fill="#47b5ab"/>
      <path id="Trazado_150313" data-name="Trazado 150313" d="M67.767,29.91a3.7,3.7,0,1,1,3.694-3.694,3.694,3.694,0,0,1-3.694,3.694" transform="translate(26.276 9.235)" fill="#47b5ab"/>
      <path id="Trazado_150314" data-name="Trazado 150314" d="M67.767,52.431a3.7,3.7,0,1,1,3.694-3.694,3.694,3.694,0,0,1-3.694,3.694" transform="translate(26.276 18.471)" fill="#47b5ab"/>
      <path id="Trazado_150315" data-name="Trazado 150315" d="M67.767,74.951a3.7,3.7,0,1,1,3.694-3.694,3.694,3.694,0,0,1-3.694,3.694" transform="translate(26.276 27.706)" fill="#47b5ab"/>
      <path id="Trazado_150316" data-name="Trazado 150316" d="M46.409,7.39A3.7,3.7,0,1,1,50.1,3.7,3.694,3.694,0,0,1,46.409,7.39" transform="translate(17.517 0)" fill="#47b5ab"/>
      <path id="Trazado_150317" data-name="Trazado 150317" d="M46.409,29.91A3.7,3.7,0,1,1,50.1,26.216a3.694,3.694,0,0,1-3.694,3.694" transform="translate(17.517 9.235)" fill="#47b5ab"/>
      <path id="Trazado_150318" data-name="Trazado 150318" d="M46.409,52.431A3.7,3.7,0,1,1,50.1,48.737a3.694,3.694,0,0,1-3.694,3.694" transform="translate(17.517 18.471)" fill="#47b5ab"/>
      <path id="Trazado_150319" data-name="Trazado 150319" d="M46.409,74.951A3.7,3.7,0,1,1,50.1,71.257a3.694,3.694,0,0,1-3.694,3.694" transform="translate(17.517 27.706)" fill="#47b5ab"/>
      <path id="Trazado_150320" data-name="Trazado 150320" d="M25.052,7.39A3.7,3.7,0,1,1,28.747,3.7,3.694,3.694,0,0,1,25.052,7.39" transform="translate(8.759 0)" fill="#47b5ab"/>
      <path id="Trazado_150321" data-name="Trazado 150321" d="M25.052,29.91a3.7,3.7,0,1,1,3.694-3.694,3.694,3.694,0,0,1-3.694,3.694" transform="translate(8.759 9.235)" fill="#47b5ab"/>
      <path id="Trazado_150322" data-name="Trazado 150322" d="M25.052,52.431a3.7,3.7,0,1,1,3.694-3.694,3.694,3.694,0,0,1-3.694,3.694" transform="translate(8.759 18.471)" fill="#47b5ab"/>
      <path id="Trazado_150323" data-name="Trazado 150323" d="M25.052,74.951a3.7,3.7,0,1,1,3.694-3.694,3.694,3.694,0,0,1-3.694,3.694" transform="translate(8.759 27.706)" fill="#47b5ab"/>
      <path id="Trazado_150324" data-name="Trazado 150324" d="M3.694,7.39A3.7,3.7,0,1,1,7.389,3.7,3.694,3.694,0,0,1,3.694,7.39" transform="translate(0 0)" fill="#47b5ab"/>
      <path id="Trazado_150325" data-name="Trazado 150325" d="M3.694,29.91a3.7,3.7,0,1,1,3.694-3.694A3.694,3.694,0,0,1,3.694,29.91" transform="translate(0 9.235)" fill="#47b5ab"/>
      <path id="Trazado_150326" data-name="Trazado 150326" d="M3.694,52.431a3.7,3.7,0,1,1,3.694-3.694,3.694,3.694,0,0,1-3.694,3.694" transform="translate(0 18.471)" fill="#47b5ab"/>
      <path id="Trazado_150327" data-name="Trazado 150327" d="M3.694,74.951a3.7,3.7,0,1,1,3.694-3.694,3.694,3.694,0,0,1-3.694,3.694" transform="translate(0 27.706)" fill="#47b5ab"/>
      <path id="Trazado_150328" data-name="Trazado 150328" d="M129.543,7.39A3.7,3.7,0,1,1,133.238,3.7a3.694,3.694,0,0,1-3.694,3.694" transform="translate(51.61 0)" fill="#47b5ab"/>
      <path id="Trazado_150329" data-name="Trazado 150329" d="M129.543,29.91a3.7,3.7,0,1,1,3.694-3.694,3.694,3.694,0,0,1-3.694,3.694" transform="translate(51.61 9.235)" fill="#47b5ab"/>
      <path id="Trazado_150330" data-name="Trazado 150330" d="M129.543,52.431a3.7,3.7,0,1,1,3.694-3.694,3.694,3.694,0,0,1-3.694,3.694" transform="translate(51.61 18.471)" fill="#47b5ab"/>
      <path id="Trazado_150331" data-name="Trazado 150331" d="M129.543,74.951a3.7,3.7,0,1,1,3.694-3.694,3.694,3.694,0,0,1-3.694,3.694" transform="translate(51.61 27.706)" fill="#47b5ab"/>
      <path id="Trazado_150332" data-name="Trazado 150332" d="M108.186,7.39A3.7,3.7,0,1,1,111.881,3.7a3.694,3.694,0,0,1-3.694,3.694" transform="translate(42.852 0)" fill="#47b5ab"/>
      <path id="Trazado_150333" data-name="Trazado 150333" d="M108.186,29.91a3.7,3.7,0,1,1,3.694-3.694,3.694,3.694,0,0,1-3.694,3.694" transform="translate(42.852 9.235)" fill="#47b5ab"/>
      <path id="Trazado_150334" data-name="Trazado 150334" d="M108.186,52.431a3.7,3.7,0,1,1,3.694-3.694,3.694,3.694,0,0,1-3.694,3.694" transform="translate(42.852 18.471)" fill="#47b5ab"/>
      <path id="Trazado_150335" data-name="Trazado 150335" d="M108.186,74.951a3.7,3.7,0,1,1,3.694-3.694,3.694,3.694,0,0,1-3.694,3.694" transform="translate(42.852 27.706)" fill="#47b5ab"/>
      <path id="Trazado_150336" data-name="Trazado 150336" d="M86.828,7.39A3.7,3.7,0,1,1,90.523,3.7,3.694,3.694,0,0,1,86.828,7.39" transform="translate(34.093 0)" fill="#47b5ab"/>
      <path id="Trazado_150337" data-name="Trazado 150337" d="M86.828,29.91a3.7,3.7,0,1,1,3.694-3.694,3.694,3.694,0,0,1-3.694,3.694" transform="translate(34.093 9.235)" fill="#47b5ab"/>
      <path id="Trazado_150338" data-name="Trazado 150338" d="M86.828,52.431a3.7,3.7,0,1,1,3.694-3.694,3.694,3.694,0,0,1-3.694,3.694" transform="translate(34.093 18.471)" fill="#47b5ab"/>
      <path id="Trazado_150339" data-name="Trazado 150339" d="M86.828,74.951a3.7,3.7,0,1,1,3.694-3.694,3.694,3.694,0,0,1-3.694,3.694" transform="translate(34.093 27.706)" fill="#47b5ab"/>
    </g>
  </g>
</svg>
