<svg xmlns="http://www.w3.org/2000/svg" xmlns:xlink="http://www.w3.org/1999/xlink" width="369.053" height="249.704" viewBox="0 0 369.053 249.704">
  <defs>
    <clipPath id="clip-path">
      <rect id="Rectángulo_279130" data-name="Rectángulo 279130" width="159.053" height="88.332" fill="none"/>
    </clipPath>
  </defs>
  <g id="Grupo_842205" data-name="Grupo 842205" transform="translate(-1050.947 -5102.094)">
    <g id="Grupo_842136" data-name="Grupo 842136" transform="translate(1050.947 5138.615)">
      <g id="Grupo_841638" data-name="Grupo 841638" clip-path="url(#clip-path)">
        <path id="Trazado_565584" data-name="Trazado 565584" d="M49.373,42.387a3.184,3.184,0,1,1,3.18-3.188v.013a3.179,3.179,0,0,1-3.18,3.175" transform="translate(31.546 -36.029)" fill="#ffce7e"/>
        <path id="Trazado_565585" data-name="Trazado 565585" d="M49.373,58.62a3.184,3.184,0,1,1,3.178-3.188v.01a3.177,3.177,0,0,1-3.178,3.178" transform="translate(31.546 -24.938)" fill="#ffce7e"/>
        <path id="Trazado_565586" data-name="Trazado 565586" d="M49.373,74.853a3.184,3.184,0,1,1,3.178-3.188v.01a3.177,3.177,0,0,1-3.178,3.178" transform="translate(31.546 -13.847)" fill="#ffce7e"/>
        <path id="Trazado_565587" data-name="Trazado 565587" d="M49.373,91.086A3.184,3.184,0,1,1,52.551,87.9v.01a3.177,3.177,0,0,1-3.178,3.178" transform="translate(31.546 -2.756)" fill="#ffce7e"/>
        <path id="Trazado_565588" data-name="Trazado 565588" d="M33.979,42.387A3.184,3.184,0,1,1,37.156,39.2v.017a3.18,3.18,0,0,1-3.176,3.175" transform="translate(21.026 -36.029)" fill="#ffce7e"/>
        <path id="Trazado_565589" data-name="Trazado 565589" d="M33.979,58.62a3.184,3.184,0,1,1,3.176-3.191v.013a3.179,3.179,0,0,1-3.18,3.178" transform="translate(21.026 -24.938)" fill="#ffce7e"/>
        <path id="Trazado_565590" data-name="Trazado 565590" d="M33.979,74.853a3.184,3.184,0,1,1,3.176-3.191v.013a3.179,3.179,0,0,1-3.18,3.178" transform="translate(21.026 -13.847)" fill="#ffce7e"/>
        <path id="Trazado_565591" data-name="Trazado 565591" d="M33.979,91.086a3.184,3.184,0,1,1,3.176-3.191v.013a3.179,3.179,0,0,1-3.18,3.178" transform="translate(21.026 -2.756)" fill="#ffce7e"/>
        <path id="Trazado_565592" data-name="Trazado 565592" d="M18.584,42.387a3.184,3.184,0,1,1,3.18-3.188v.013a3.179,3.179,0,0,1-3.18,3.175" transform="translate(10.509 -36.029)" fill="#ffce7e"/>
        <path id="Trazado_565593" data-name="Trazado 565593" d="M18.584,58.62a3.184,3.184,0,1,1,3.178-3.188v.01a3.177,3.177,0,0,1-3.178,3.178" transform="translate(10.509 -24.938)" fill="#ffce7e"/>
        <path id="Trazado_565594" data-name="Trazado 565594" d="M18.584,74.853a3.184,3.184,0,1,1,3.178-3.188v.01a3.177,3.177,0,0,1-3.178,3.178" transform="translate(10.509 -13.847)" fill="#ffce7e"/>
        <path id="Trazado_565595" data-name="Trazado 565595" d="M18.584,91.086A3.184,3.184,0,1,1,21.762,87.9v.01a3.177,3.177,0,0,1-3.178,3.178" transform="translate(10.509 -2.756)" fill="#ffce7e"/>
        <path id="Trazado_565596" data-name="Trazado 565596" d="M3.188,42.387A3.184,3.184,0,1,1,6.368,39.2v.013a3.179,3.179,0,0,1-3.18,3.175" transform="translate(-0.01 -36.029)" fill="#ffce7e"/>
        <path id="Trazado_565597" data-name="Trazado 565597" d="M3.188,58.62a3.184,3.184,0,1,1,3.178-3.188v.01A3.177,3.177,0,0,1,3.188,58.62Z" transform="translate(-0.01 -24.938)" fill="#ffce7e"/>
        <path id="Trazado_565598" data-name="Trazado 565598" d="M3.188,74.853a3.184,3.184,0,1,1,3.178-3.188v.01A3.177,3.177,0,0,1,3.188,74.853Z" transform="translate(-0.01 -13.847)" fill="#ffce7e"/>
        <path id="Trazado_565599" data-name="Trazado 565599" d="M3.188,91.086A3.184,3.184,0,1,1,6.366,87.9v.01A3.177,3.177,0,0,1,3.188,91.086Z" transform="translate(-0.01 -2.756)" fill="#ffce7e"/>
        <path id="Trazado_565600" data-name="Trazado 565600" d="M93.9,42.387a3.184,3.184,0,1,1,3.18-3.188v.013A3.178,3.178,0,0,1,93.9,42.39" transform="translate(61.97 -36.029)" fill="#ffce7e"/>
        <path id="Trazado_565601" data-name="Trazado 565601" d="M93.9,58.62a3.184,3.184,0,1,1,3.178-3.188v.01A3.177,3.177,0,0,1,93.9,58.62" transform="translate(61.97 -24.938)" fill="#ffce7e"/>
        <path id="Trazado_565602" data-name="Trazado 565602" d="M93.9,74.853a3.184,3.184,0,1,1,3.178-3.188v.01A3.177,3.177,0,0,1,93.9,74.853" transform="translate(61.97 -13.847)" fill="#ffce7e"/>
        <path id="Trazado_565603" data-name="Trazado 565603" d="M93.9,91.086A3.184,3.184,0,1,1,97.08,87.9v.01A3.177,3.177,0,0,1,93.9,91.086" transform="translate(61.97 -2.756)" fill="#ffce7e"/>
        <path id="Trazado_565604" data-name="Trazado 565604" d="M78.508,42.387a3.184,3.184,0,1,1,3.18-3.188v.013A3.178,3.178,0,0,1,78.51,42.39" transform="translate(51.452 -36.029)" fill="#ffce7e"/>
        <path id="Trazado_565605" data-name="Trazado 565605" d="M78.508,58.62a3.184,3.184,0,1,1,3.178-3.188v.01a3.177,3.177,0,0,1-3.178,3.178" transform="translate(51.452 -24.938)" fill="#ffce7e"/>
        <path id="Trazado_565606" data-name="Trazado 565606" d="M78.508,74.853a3.184,3.184,0,1,1,3.178-3.188v.01a3.177,3.177,0,0,1-3.178,3.178" transform="translate(51.452 -13.847)" fill="#ffce7e"/>
        <path id="Trazado_565607" data-name="Trazado 565607" d="M78.508,91.086A3.184,3.184,0,1,1,81.686,87.9v.01a3.177,3.177,0,0,1-3.178,3.178" transform="translate(51.452 -2.756)" fill="#ffce7e"/>
        <path id="Trazado_565608" data-name="Trazado 565608" d="M63.113,42.387a3.184,3.184,0,1,1,3.18-3.188v.013a3.179,3.179,0,0,1-3.18,3.175" transform="translate(40.933 -36.029)" fill="#ffce7e"/>
        <path id="Trazado_565609" data-name="Trazado 565609" d="M63.113,58.62a3.184,3.184,0,1,1,3.178-3.188v.01a3.177,3.177,0,0,1-3.178,3.178" transform="translate(40.933 -24.938)" fill="#ffce7e"/>
        <path id="Trazado_565610" data-name="Trazado 565610" d="M63.113,74.853a3.184,3.184,0,1,1,3.178-3.188v.01a3.177,3.177,0,0,1-3.178,3.178" transform="translate(40.933 -13.847)" fill="#ffce7e"/>
        <path id="Trazado_565611" data-name="Trazado 565611" d="M63.113,91.086A3.184,3.184,0,1,1,66.291,87.9v.01a3.177,3.177,0,0,1-3.178,3.178" transform="translate(40.933 -2.756)" fill="#ffce7e"/>
      </g>
    </g>
    <g id="Grupo_842166" data-name="Grupo 842166" transform="translate(1409.728 5076.576)">
      <path id="Trazado_570552" data-name="Trazado 570552" d="M-60.764,231.545l-44.358,25.609c-4.873,2.814-12.774,2.814-17.647,0L-243.8,187.276c-4.873-2.813-4.873-7.375,0-10.189l44.358-25.609c4.873-2.814,12.774-2.814,17.647,0l121.033,69.878C-55.89,224.169-55.89,228.731-60.764,231.545Z" transform="translate(2.471 15.958)" fill="#7f87de" opacity="0.1" style="mix-blend-mode: multiply;isolation: isolate"/>
      <g id="Grupo_842166-2" data-name="Grupo 842166" transform="translate(-266.633 25.518)">
        <path id="Trazado_570553" data-name="Trazado 570553" d="M-55.347,104.2c.293-.7,5.209-9.2,15.365-9.3s1.549,8.728-.709,9.744-7.353,1.07-10.546,5.334S-55.347,104.2-55.347,104.2Z" transform="translate(293.856 -16.579)" fill="#bcb8cf"/>
        <path id="Trazado_570554" data-name="Trazado 570554" d="M-39.73,72.019a37.646,37.646,0,0,1-7.475,32.663l-14.538-1.227s13.753-11.039,15.96-16.286S-39.73,72.019-39.73,72.019Z" transform="translate(293.032 -19.526)" fill="#2a2f3b"/>
        <path id="Trazado_570555" data-name="Trazado 570555" d="M-12.515,151.55a9.525,9.525,0,0,1-1.1,3.714c-1.192,1.438-.932,4.042-3.317,5.5-1.96,1.192-4.852,3.495-9.635,3.906a19.046,19.046,0,0,1-2.193.042c-.288-.014-.589-.028-.9-.069a1.514,1.514,0,0,1-.247-.014,10.641,10.641,0,0,1-3.782-1.083,16.322,16.322,0,0,1-2.535-1.618c-2.631-2-4.619-4.263-7.661-3.837a81.666,81.666,0,0,1-14.446,1.672h-.616c-.288-.014-.576-.014-.877-.027-.246,0-.493-.015-.741-.028-.177,0-.342-.014-.52-.014-.3-.014-.616-.041-.931-.069-.932-.054-1.865-.15-2.823-.287-.274-.028-.535-.069-.809-.111-.082-.014-.164-.027-.26-.041-.493-.082-1-.165-1.522-.261-.027,0-.055-.014-.082-.014-.315-.069-.6-.123-.9-.192-.205-.041-.411-.1-.6-.137-.22-.042-.426-.1-.645-.151-.069-.014-.137-.041-.205-.054-.178-.042-.357-.082-.535-.138-.26-.068-.52-.137-.766-.219-.316-.082-.631-.178-.932-.274-.576-.178-1.138-.37-1.714-.576-.219-.082-.452-.164-.685-.26s-.452-.178-.7-.274a1.877,1.877,0,0,1-.315-.123c-.165-.069-.357-.151-.535-.234a7.437,7.437,0,0,1-.753-.329c-.3-.123-.6-.274-.905-.411-.273-.124-.534-.261-.808-.4s-.534-.273-.795-.424-.549-.288-.808-.438-.549-.316-.809-.466-.507-.3-.768-.466c-.288-.178-.575-.357-.862-.549-.261-.164-.508-.342-.768-.52-.617-.424-1.22-.864-1.837-1.33-.123-.1-.247-.192-.37-.3-.247-.178-.466-.356-.712-.547-6.4-5.222-8.072-12.431-7.634-19.49.014-.137.014-.26.028-.4,0-.081.014-.177.014-.26q.041-.391.082-.781c.014-.261.054-.535.081-.809.055-.4.109-.808.178-1.219.178-1.192.411-2.372.685-3.522a.566.566,0,0,1,.014-.069A65.616,65.616,0,0,1-85.893,106.5l20.9-4.619,10.567-2.33.52-.109,4.714-2.549a.048.048,0,0,0,.028.014,23.235,23.235,0,0,1,2.507,1.179h.015a29.821,29.821,0,0,1,8.756,7.415c0,.027.015.041.028.041a29.064,29.064,0,0,1,3,4.66c.1.164.164.328.26.493,0,0,.617,1.192,1.741,7s15.308,22.189,15.308,22.189,4.194,2.029,5.277,3.864a1.785,1.785,0,0,1,.246.658A35.15,35.15,0,0,1-12.515,151.55Z" transform="translate(288.883 -16.322)" fill="#dfddeb"/>
        <path id="Trazado_570556" data-name="Trazado 570556" d="M-19.647,145.311a9.525,9.525,0,0,1-1.1,3.714c-1.192,1.438-.932,4.042-3.317,5.5-1.96,1.192-4.852,3.495-9.635,3.906a19.046,19.046,0,0,1-2.193.042c-.288-.014-.589-.028-.9-.069l-1.81-5.865,11.54-5.222Z" transform="translate(296.014 -10.083)" fill="#1e222e"/>
        <path id="Trazado_570557" data-name="Trazado 570557" d="M-71.906,131.821c-1.427,5.983-3.4,10.666-5.849,12.312s-10.409,10.182-10.024,19.59-.12,17.657-1.439,21.165-.752,12.241-.756,16.795,1.664,7.1,1.463,10.408c-.193,3.142.561,5.1,1.62,8.682a12.489,12.489,0,0,1,3.042,5c.243.414,2.163,4.057-8.122,6.06a6.618,6.618,0,0,1-2.324.038c-.729-.12-1.5-.283-1.942-.4a11.908,11.908,0,0,1-4.5-2.242,3.719,3.719,0,0,1-1.422-1.377c-1.151-2.425.029-4.529-.133-6.606a11.857,11.857,0,0,1,.085-1.85c-.666-2.026-1.831-2.88-2.493-4.433-1.2-2.837.523-17.143,1.3-27.445.457-6.119-.432-9.254-1.234-10.8a11.177,11.177,0,0,1-1.25-4.015,71.714,71.714,0,0,0-1.455-8.518c-.436-1.906-.987-4.011-1.692-6.278a113.017,113.017,0,0,1-4.138-20.49C-117.688,129.208-70.481,125.833-71.906,131.821Z" transform="translate(286.367 -12.213)" fill="#dfddeb"/>
        <path id="Trazado_570558" data-name="Trazado 570558" d="M-97.938,215.252c1.352,3.852,1.355,9.262,1,12.669a11.908,11.908,0,0,1-4.5-2.242,3.719,3.719,0,0,1-1.422-1.377c-1.151-2.425.029-4.529-.133-6.606a11.858,11.858,0,0,1,.085-1.85c-.666-2.026-1.831-2.88-2.493-4.433-1.2-2.837.523-17.143,1.3-27.445.457-6.119-.432-9.254-1.234-10.8a11.177,11.177,0,0,1-1.25-4.015,71.715,71.715,0,0,0-1.455-8.518c4.184-3.651,11.152-7.316,11.837-.56.985,9.742-2.961,36.469-4.159,42.563S-99.957,209.491-97.938,215.252Z" transform="translate(287.067 -8.666)" fill="#bcb8cf"/>
        <path id="Trazado_570559" data-name="Trazado 570559" d="M-211.067,30.063s-12.591-8.087-20.986-2.686-9.723,20.8-9.085,28.147,7.088,35.347,7.088,35.347l16.584-21.1S-231.712,52.555-231.824,47s1.393-12.129,9.818-7.883,12.365-9.734,12.365-9.734Z" transform="translate(269.9 -25.518)" fill="#2a2f3b"/>
        <path id="Trazado_570560" data-name="Trazado 570560" d="M-241.085,96.975s1.588,25.032-11.91,37.68c0,0-12.926-.016-13.547,10.173s2.183,12.882,2.183,12.882l.214-3.03s2.849,4.894,2.909,7.918a15.169,15.169,0,0,0,.687-6.889s1.919-.314.616,3.288c0,0,2.457-.875,2.881-7.209,0,0,1.874-2.514.956,6.581,0,0,6.118-10.355,4.609-17.035,0,0,14.757-19.933,14.606-39.733-.036-4.717,4.975-12.476,4.975-12.476l-5.648-7.313Z" transform="translate(266.633 -18.265)" fill="#2a2f3b"/>
        <path id="Trazado_570561" data-name="Trazado 570561" d="M-211.067,30.063s-12.591-8.087-20.986-2.686-9.723,20.8-9.085,28.147,7.088,35.347,7.088,35.347l16.584-21.1S-231.712,52.555-231.824,47s1.393-12.129,9.818-7.883,12.365-9.734,12.365-9.734Z" transform="translate(269.9 -25.518)" fill="#1e222e"/>
        <path id="Trazado_570562" data-name="Trazado 570562" d="M-231.9,89.126s-5.013,7.757-4.974,12.476c.15,19.8-14.607,39.73-14.607,39.73s-4.6-4.642-7.529,3.562c-2.591,7.236-2.339,15.491-2.242,17.328-.262-3.037-2.886-7.543-2.886-7.543l-.217,3.032s-2.8-2.695-2.182-12.882,13.547-10.175,13.547-10.175c13.5-12.646,11.908-37.675,11.908-37.675l3.534-15.163Z" transform="translate(266.633 -18.264)" fill="#1e222e"/>
        <path id="Trazado_570563" data-name="Trazado 570563" d="M-188.269,165.616a5.541,5.541,0,0,1-3,3.118c-5.532,2.946-10.054,1.324-12.656-.82a4.96,4.96,0,0,1-1.492-2.1,3.743,3.743,0,0,1-.152-.551,10.68,10.68,0,0,1-.135-3.755c.061-.455.125-1,.189-1.606a30.57,30.57,0,0,0,.067-7c-.642-4.395-.807-11.121-.053-14.194s3.358-10.847-.109-19.512a13.487,13.487,0,0,1-1-4.368,147.965,147.965,0,0,0,11.26,21.938c.308,3.822.826,7.816,1.255,11.6a26.849,26.849,0,0,0,3.254,10.065,22.769,22.769,0,0,0,1.726,2.666A5.058,5.058,0,0,1-188.269,165.616Z" transform="translate(274.366 -14.01)" fill="#bcb8cf"/>
        <path id="Trazado_570564" data-name="Trazado 570564" d="M-220.9,114.359c-.116.508,2.017,18.769,17.1,21.875s25.413-4.322,24.52-4.8-7.779-22.806-7.779-22.806l-15.076-2.646-12.745.255Z" transform="translate(272.525 -15.15)" fill="#ffb5b5"/>
        <path id="Trazado_570565" data-name="Trazado 570565" d="M-212.909,126.329s-2.644,12.93.256,12.745,5.339-10.711,4.956-10.955S-212.909,126.329-212.909,126.329Z" transform="translate(273.413 -12.529)" fill="#ffb5b5"/>
        <path id="Trazado_570566" data-name="Trazado 570566" d="M-202.812,129.618s-.427,13.189,2.4,12.519,3.458-11.458,3.039-11.634S-202.812,129.618-202.812,129.618Z" transform="translate(274.853 -12.105)" fill="#ffb5b5"/>
        <path id="Trazado_570567" data-name="Trazado 570567" d="M-23.514,110.391l-3.457,3.988-6.263,7.228-26.225,38.82a23.759,23.759,0,0,0-2.734,1.807,38.206,38.206,0,0,0-5,4.654c-7.989,8.764-14.258,21.675-18.1,25.363a8.4,8.4,0,0,1-1.036.848c-4.948,3.459-11.746.064-17.932-1.948a29.159,29.159,0,0,0-3.224-.791c-7.536-1.491-21.209-2.586-24.836-2.856l-.9-.068c-27.747-2.053-46.109-21.959-57.108-39.435a147.965,147.965,0,0,1-11.26-21.938c-1.175-2.848-1.831-4.647-2-4.912-.006-.01-.016-.015-.021-.025-.822-.789-10.3,2.091-12.459,8.446-.052.157-.108.319-.176.492a79.247,79.247,0,0,0-6.868,15.225s0,.01-.009.015c-2.5,5.36-10.163,10.681-10.858,13.652a36.363,36.363,0,0,0-.579,9.6c.212,4.791.918,10.056,1.474,14.966a26.846,26.846,0,0,0,3.485,10.463,24.475,24.475,0,0,0,1.5,2.267,5.077,5.077,0,0,1,.851,4.517,4.928,4.928,0,0,1-3.005,3.118c-3.436,1.46-5.8,1.884-7.6,1.709-2.251-.2-3.609-1.338-5.058-2.529a5.013,5.013,0,0,1-1.5-2.1,4.407,4.407,0,0,1-.152-.551,10.794,10.794,0,0,1-.135-3.756c.109-.808.238-1.9.325-3.089a26.61,26.61,0,0,0-.065-5.516c-.642-4.395-.807-11.12-.053-14.193s3.359-10.848-.109-19.513,3.224-13.081,1.5-21.352-.923-30.171.178-42.041,2.786-22.351,6.788-31.034c2.129-4.623,2.776-11.269,3.954-17.04,1.037-5.074,12.52-11.208,15.759-12.956,2.691-1.448,6.513-2.039,10.489-2.194a114.139,114.139,0,0,1,16,.913c8.207.817,15.34,2.312,16.678,2.985,2.5,1.255,9.785,7.36,13.506,11.058,1.572,1.566,4.871,5,8.183,8.419,4.512,4.666,9.068,9.339,9.366,9.333,0,0,18.133,13.267,26.132,17,1.007.468,2.089.955,3.217,1.456h.006c5.671,2.49,12.593,5.3,17.843,8.312a31.031,31.031,0,0,1,5.134,3.543c5.61,5,25.393,13.334,35.5,14.606a67.722,67.722,0,0,0,7.209.481c4.475.081,8.761-.166,12.084-.259a23.5,23.5,0,0,1,5.44.224c.01,0,.015,0,.025.01A8.5,8.5,0,0,1-27.118,107s.01,0,.015.009A16.27,16.27,0,0,1-23.514,110.391Z" transform="translate(269.34 -25.237)" fill="#dfddeb"/>
        <path id="Trazado_570568" data-name="Trazado 570568" d="M-27.691,149.011c-1.269,4.559-4.119,9.351-6,13.807-4.09-2.034-6.255-6.01-10.2-5.452-5.008.7-24.8,6.32-42.353-7.991-8.557-6.976-8.683-17.516-6.571-26.481a26.822,26.822,0,0,1,11.371-16.246,26.935,26.935,0,0,1,9.1-3.855,13.227,13.227,0,0,1,2.583-.308A12.988,12.988,0,0,1-58.6,108.36c.358.552.712,1.11,1.061,1.662a21.43,21.43,0,0,1,2.11,4.265,28.476,28.476,0,0,0,10.3,13.611,97.137,97.137,0,0,1,11.312,8.966C-30.776,139.894-26.428,144.462-27.691,149.011Z" transform="translate(288.882 -15.601)" fill="#2a2f3b"/>
        <path id="Trazado_570569" data-name="Trazado 570569" d="M-16.7,143.784a59.423,59.423,0,0,1-7.844-2.065c-3.676-1.407-17.843-22.113-19.307-27.045-.853-2.865-3.46-6.021-7.09-9.182a75.259,75.259,0,0,0-7.906-5.916l-.012-.009a1.657,1.657,0,0,1-.569-2.146l.368-.718a23.5,23.5,0,0,1,5.44.224c.01,0,.015,0,.025.01a8.5,8.5,0,0,1,2.507,1.174s.01,0,.015.009a29.341,29.341,0,0,1,8.758,7.415.252.252,0,0,0,.032.04,32.337,32.337,0,0,1,3,4.655c.089.164.167.328.252.493,0,0,.628,1.2,1.747,7s15.309,22.19,15.309,22.19S-17.771,141.946-16.7,143.784Z" transform="translate(293.307 -16.351)" fill="#2a2f3b"/>
        <path id="Trazado_570570" data-name="Trazado 570570" d="M-205.941,27.736c-19.552,3.137-21.97,26.509-21.9,30.145.015.77-.081,2.258-.252,4.291-.629,7.575-2.275,22.694-2.917,36.121-.668,13.922,1.466,24.9,1.276,32.738a23.471,23.471,0,0,1-.524,4.771c-1.806,7.864-8.97,16.919-9.222,21.422s-1.607,23.32-.213,32.555c.36,2.391.676,4.843.945,7.165.389,3.341.687,6.419.884,8.651-2.251-.2-3.609-1.338-5.058-2.529a5.013,5.013,0,0,1-1.5-2.1,4.407,4.407,0,0,1-.152-.551,10.794,10.794,0,0,1-.135-3.756c.084-.606.174-1.374.252-2.216.021-.212.042-.435.058-.656,0-.071.012-.147.016-.217a26.61,26.61,0,0,0-.065-5.516c-.642-4.395-.807-11.12-.053-14.193s3.359-10.848-.109-19.513,3.224-13.081,1.5-21.352-.923-30.171.178-42.041,2.786-22.351,6.788-31.034c2.129-4.623,2.776-11.269,3.954-17.04,1.037-5.074,12.52-11.208,15.759-12.956C-213.739,28.482-209.917,27.892-205.941,27.736Z" transform="translate(269.34 -25.232)" fill="#bcb8cf"/>
        <path id="Trazado_570571" data-name="Trazado 570571" d="M-89.8,182.62l-1.036.848c-4.948,3.459-11.746.064-17.932-1.948a29.163,29.163,0,0,0-3.224-.791,20.1,20.1,0,0,0-1.935,9.021c.019.483.04.966.049,1.445l-19.31.387c-.473-2.252-1.114-4.828-1.992-7.652-.636-2.057-1.185-4.1-1.647-6.056l-.9-.068c-27.747-2.053-46.109-21.96-57.108-39.435a147.965,147.965,0,0,1-11.26-21.938c-1.175-2.848-1.831-4.647-2-4.912l-2.555-9.066s4.76-.509,8.991,7.047c13.5,24.116,34.589,24.453,48.37,21.386a62.482,62.482,0,0,0,12.094-4.006c1.033-.468,1.6-.772,1.6-.772,13.178,4.063,21.319,37.991,24.143,38.655,4.273,1.008,13.647-7.028,18.582-9.828,2.516-1.426,6.292-5.526,6.406-5.6-.13.315-8.19,18.1-7.422,24.469C-97.1,180.279-89.8,182.62-89.8,182.62Z" transform="translate(273.845 -15.606)" fill="#bcb8cf"/>
        <path id="Trazado_570572" data-name="Trazado 570572" d="M-105.245,134.667c-.2.755.677,16.424-.75,22.405-.1.426-.2.841-.312,1.251-1.4,5.383-3.265,9.531-5.542,11.063a29.191,29.191,0,0,0-8.084,10.574,20.1,20.1,0,0,0-1.935,9.021c.019.483.04.966.049,1.445.288,8.8-.235,16.4-1.488,19.721-1.32,3.506-.757,12.236-.762,16.789s1.67,7.109,1.464,10.408c-.194,3.147.566,5.1,1.624,8.687a12.463,12.463,0,0,1,3.042,4.992c.251.433-1.153,5.327-7.96,6.012a4.11,4.11,0,0,1-2.024.051,12.081,12.081,0,0,1-3.064-.553,11.95,11.95,0,0,1-3.839-2.048,3.764,3.764,0,0,1-1.423-1.383c-1.151-2.419.03-4.523-.132-6.6a11.713,11.713,0,0,1,.085-1.841v-.01c-.665-2.032-1.831-2.884-2.491-4.437-1.206-2.837.523-17.138,1.3-27.445.456-6.12-.438-9.254-1.234-10.791a11.158,11.158,0,0,1-1.25-4.02,70.353,70.353,0,0,0-1.156-7.144c-.473-2.252-1.114-4.828-1.992-7.652-.636-2.057-1.185-4.1-1.647-6.056-.952-3.974-1.575-7.581-1.96-10.2a45.15,45.15,0,0,0-1.575-6.717c-.079-.256-.151-.514-.216-.774-1.929-7.744,2.4-17.014,3.153-21.628-1.76-5.834-2.874-10.672-2.174-12.449,1.869-4.732,18.653-17.8,25.139-16.886S-104.5,131.882-105.245,134.667Z" transform="translate(281.788 -14.838)" fill="#dfddeb"/>
        <path id="Trazado_570573" data-name="Trazado 570573" d="M-135.276,149.913c-.212,29.105,2.739,44.611,2.934,54.37s-3.122,30.14-1.28,35.645,3.9,8.7,2.671,16.6a11.95,11.95,0,0,1-3.839-2.048,3.764,3.764,0,0,1-1.423-1.383c-1.151-2.419.03-4.523-.132-6.6a11.967,11.967,0,0,1,.084-1.851c-.665-2.032-1.831-2.884-2.491-4.437-1.206-2.837.523-17.138,1.3-27.445.456-6.119-.438-9.254-1.234-10.791a11.158,11.158,0,0,1-1.25-4.02,70.353,70.353,0,0,0-1.156-7.144c-.473-2.252-1.114-4.828-1.992-7.652-.636-2.057-1.185-4.1-1.647-6.056-.341-1.419-.641-2.793-.9-4.093-.475-2.365-.824-4.48-1.071-6.171a44.557,44.557,0,0,0-1.566-6.65q-.119-.383-.214-.772a28.416,28.416,0,0,1-.63-4.787c-.638-10.163,1.018-27.791,1.609-29.289.762-1.925,3.99-5.229,7.987-8.411,5.831-4.636,13.3-9.017,17.153-8.475,0,0-9.25,9-12.088,29.726A90.179,90.179,0,0,0-135.276,149.913Z" transform="translate(281.756 -14.838)" fill="#bcb8cf"/>
        <path id="Trazado_570574" data-name="Trazado 570574" d="M-144.51,87.141c-1.134,2.506.454,5.306,1.172,7.961,1.649,6.117-1.479,12.406-4.511,17.968q-4.044,7.433-8.089,14.856c-2.283,4.191-2.341,3.3-6.158,6.158s-9.483,3.837-13.293.976c-5.938-4.454-6.749-9.973-13.185-13.667q-2.821-10.681-5.642-21.357c-.9-3.4-1.805-6.865-1.588-10.37.239-3.889,1.842-7.582,2.213-11.459s-4.244-4.942-4.684-9.779c2.382-8.273,9.928-14.072,16.9-16.78,7.233-2.811,15.745-4.346,23.435-3.2l.268.04c4.512,4.666,9.068,9.339,9.366,9.333,0,0,18.133,13.267,26.132,17,1.007.468,2.089.955,3.217,1.456a66.331,66.331,0,0,0-22.044,7.691A7.7,7.7,0,0,0-144.51,87.141Z" transform="translate(275.44 -22.613)" fill="#2a2f3b"/>
        <path id="Trazado_570575" data-name="Trazado 570575" d="M-228.043,181.791a4.928,4.928,0,0,1-3.005,3.118c-3.436,1.46-5.8,1.884-7.6,1.709-.2-2.233-.494-5.31-.884-8.651,3.475.47,8.671-.955,9.139-2.959a24.475,24.475,0,0,0,1.5,2.267A5.077,5.077,0,0,1-228.043,181.791Z" transform="translate(270.125 -6.257)" fill="#363a44"/>
        <path id="Trazado_570576" data-name="Trazado 570576" d="M-237.953,186.665c-2.251-.2-3.609-1.338-5.058-2.529a5.013,5.013,0,0,1-1.5-2.1,4.407,4.407,0,0,1-.152-.551,10.794,10.794,0,0,1-.135-3.756c.084-.606.174-1.374.252-2.216.021-.217.042-.435.058-.656,0-.071.012-.147.016-.217a9.353,9.353,0,0,0,5.634,3.367C-238.448,181.355-238.15,184.432-237.953,186.665Z" transform="translate(269.433 -6.303)" fill="#2a2f3b"/>
        <path id="Trazado_570577" data-name="Trazado 570577" d="M-230.527,183.64s-1.556-4.678-2.546-3.828-1.157,5.435-1.157,5.435A15.9,15.9,0,0,0-230.527,183.64Z" transform="translate(270.807 -5.651)" fill="#2a2f3b"/>
        <path id="Trazado_570578" data-name="Trazado 570578" d="M-188.36,160.64a5.541,5.541,0,0,1-3,3.118c-5.532,2.946-10.054,1.324-12.656-.82a4.96,4.96,0,0,1-1.492-2.1,3.743,3.743,0,0,1-.152-.551,10.68,10.68,0,0,1-.135-3.755c.061-.455.125-1,.189-1.606.374.008,1.37,2.5,6.818,1.606s7.857-3.079,7.857-3.079a22.769,22.769,0,0,0,1.726,2.666A5.058,5.058,0,0,1-188.36,160.64Z" transform="translate(274.457 -9.033)" fill="#2a2f3b"/>
        <path id="Trazado_570579" data-name="Trazado 570579" d="M-120.763,239.14a7.18,7.18,0,0,1-3.328,2.319,11.279,11.279,0,0,1-5.065.4,14.16,14.16,0,0,1-2.552-.453c-.4-.1-.755-.2-1.049-.286-3.836-1.118-4.656-3.085-4.888-3.575-1.151-2.419.03-4.523-.132-6.6a11.713,11.713,0,0,1,.085-1.841c0,.151.148,1.9,5.247,3.209,5.337,1.374,9.879-2.474,9.879-2.474a15.517,15.517,0,0,1,3.232,5.627A5.661,5.661,0,0,1-120.763,239.14Z" transform="translate(283.187 0.714)" fill="#363a44"/>
        <path id="Trazado_570580" data-name="Trazado 570580" d="M-85.806,219.5a9.01,9.01,0,0,1-3.8,2.4,11.274,11.274,0,0,1-5.064.4,14.162,14.162,0,0,1-2.552-.453c-.036-.009-.071-.018-.1-.028-.354-.094-.678-.183-.947-.257-3.836-1.118-5-3.31-5.234-3.8-1.151-2.419.15-4.778-.012-6.855a12.03,12.03,0,0,1,.068-1.9c0,.151.392,2.436,5.491,3.743.152.037.3.075.455.1,5.14,1.055,9.424-2.576,9.424-2.576a15.507,15.507,0,0,1,3.232,5.627A4.17,4.17,0,0,1-85.806,219.5Z" transform="translate(287.59 -1.875)" fill="#363a44"/>
        <path id="Trazado_570581" data-name="Trazado 570581" d="M-131.708,241.41c-.4-.1-.755-.2-1.049-.286-3.836-1.118-4.656-3.085-4.888-3.575-1.151-2.419.03-4.523-.132-6.6a11.713,11.713,0,0,1,.085-1.841c0,.151.148,1.9,5.247,3.209C-132.445,232.317-131.315,238.41-131.708,241.41Z" transform="translate(283.187 0.714)" fill="#2a2f3b"/>
        <path id="Trazado_570582" data-name="Trazado 570582" d="M-122.368,238.492a7.18,7.18,0,0,1-3.328,2.319c.05-.771.453-6.3,1.06-6.65C-123.979,233.785-122.368,238.492-122.368,238.492Z" transform="translate(284.792 1.362)" fill="#2a2f3b"/>
        <path id="Trazado_570583" data-name="Trazado 570583" d="M-97.5,212.87l.181,8.963c-.354-.094-.678-.183-.947-.257-3.836-1.118-5-3.31-5.234-3.8-1.151-2.419.15-4.778-.012-6.855a12.54,12.54,0,0,1,.021-2.032c0,.151.332,2.219,5.23,3.732C-98.114,212.667-97.652,212.843-97.5,212.87Z" transform="translate(287.59 -1.891)" fill="#2a2f3b"/>
        <path id="Trazado_570584" data-name="Trazado 570584" d="M-87.1,218.065s-1.579-4.438-2.418-3.893-.38,6.408-.38,6.408A6.985,6.985,0,0,0-87.1,218.065Z" transform="translate(289.389 -1.216)" fill="#2a2f3b"/>
        <path id="Trazado_570585" data-name="Trazado 570585" d="M-226.711,124.7q-2.581,1.3-4.672,2.4c.191-7.838-1.944-18.816-1.276-32.738.642-13.427,2.288-28.546,2.917-36.121,1.47.439,2.984,2.082,3.752,6.509,1.777,10.235-.659,30.4.783,39.043S-218.812,120.736-226.711,124.7Z" transform="translate(270.993 -21.302)" fill="#2a2f3b"/>
        <path id="Trazado_570586" data-name="Trazado 570586" d="M-230.23,127.115c-5.009,2.639-7.976,4.4-9.305,4.947-1.7.7,1.963-14.4-1.4-23.215s4.528-44.459,8.559-49.668a4.656,4.656,0,0,1,3.785-.922c-.629,7.575-2.275,22.694-2.917,36.121C-232.173,108.3-230.039,119.277-230.23,127.115Z" transform="translate(269.839 -21.317)" fill="#1e222e"/>
        <path id="Trazado_570587" data-name="Trazado 570587" d="M-220.857,51.308s2.39,15.7,9.313,13.447,8.094-6.808,14.052-9.646,15.627-2.731,20.68-6.758,5.562-8.873-.224-11.173-11.862-6.71-20.9-4.112S-209.1,36.914-212.017,41.2-220.375,45.216-220.857,51.308Z" transform="translate(272.531 -24.648)" fill="#2a2f3b"/>
        <path id="Trazado_570588" data-name="Trazado 570588" d="M-218.041,70.057c.061,8.462.939,26.565,3.647,28.625s9.651,1.793,11.325-5.125,1.344-8.258,2.681-16.976-1.639-13.492-6.047-11.288S-218.075,65.23-218.041,70.057Z" transform="translate(272.893 -20.462)" fill="#2a2f3b"/>
        <path id="Trazado_570589" data-name="Trazado 570589" d="M-144.233,84.7s-4.58,12.659,1.2,14.869,10.469-9.312,17.665-9.935,13.417-.45,14.957-2.14-8.7-11.152-14.7-11.031S-143.111,80.68-144.233,84.7Z" transform="translate(282.182 -18.953)" fill="#2a2f3b"/>
        <path id="Trazado_570590" data-name="Trazado 570590" d="M-117.916,120.566c-5.946,4.688-8.074,19.172-13.2,19.955a4.917,4.917,0,0,1-3.907-1.125c2.838-20.73,12.088-29.726,12.088-29.726-3.849-.542-11.322,3.839-17.153,8.475-.687-7.4-2.719-12.771-3.525-13.526-7.7-7.22,21.689-2.858,27.412-3.788s7.952-5.67,16.376,4.991C-91.375,116.507-111.97,115.878-117.916,120.566Z" transform="translate(282.319 -16.053)" fill="#2a2f3b"/>
        <path id="Trazado_570591" data-name="Trazado 570591" d="M-123.478,108.454s-9.25,9-12.088,29.726c-3.01-2.4-4.945-8.252-4.842-15.609a54.444,54.444,0,0,0-.224-5.642C-134.8,112.293-127.328,107.912-123.478,108.454Z" transform="translate(282.868 -14.838)" fill="#1e222e"/>
        <path id="Trazado_570592" data-name="Trazado 570592" d="M-35.34,158.158c-.373-.014-.756-.041-1.15-.078a10.739,10.739,0,0,1-3.785-1.093,16,16,0,0,1-2.535-1.617l1.13-5.212.387-1.246s5.5-1.344,5.332-1.165.156,6,.156,6S-37.275,157.139-35.34,158.158Z" transform="translate(295.471 -9.771)" fill="#2a2f3b"/>
        <path id="Trazado_570593" data-name="Trazado 570593" d="M-26.556,163.463a17.865,17.865,0,0,1-2.2.05c-.373-.014-.756-.041-1.15-.078a10.739,10.739,0,0,1-3.785-1.093,16,16,0,0,1-2.535-1.617c-2.635-1.992-4.619-4.265-7.668-3.836a80.97,80.97,0,0,1-14.439,1.67c-.2,0-.408,0-.614,0-.292,0-.585-.009-.882-.018-.247,0-.5-.015-.746-.025-.172-.007-.343-.014-.515-.025q-.461-.022-.938-.058c-.923-.067-1.861-.159-2.821-.29-.268-.035-.536-.07-.8-.111l-.257-.04c-.5-.081-1.011-.172-1.522-.268-.03,0-.061-.014-.091-.018-.3-.059-.6-.119-.905-.189-.2-.041-.4-.087-.6-.133s-.424-.1-.642-.154a1.855,1.855,0,0,1-.208-.056c-.173-.042-.35-.084-.527-.131-.263-.07-.522-.14-.78-.221-.308-.084-.623-.178-.932-.278q-.852-.262-1.7-.576c-.228-.081-.457-.163-.685-.253s-.462-.177-.7-.273a3.319,3.319,0,0,1-.315-.125c-.178-.071-.361-.149-.544-.23-.254-.1-.5-.212-.752-.327-.3-.135-.605-.275-.905-.42-.27-.126-.538-.262-.8-.4s-.54-.277-.8-.422-.541-.291-.8-.443-.541-.306-.806-.467-.509-.3-.764-.463c-.291-.176-.581-.361-.868-.552q-.383-.249-.765-.514c-.613-.421-1.227-.862-1.836-1.329-.128-.1-.251-.2-.378-.3-.236-.177-.466-.364-.7-.555-6.4-5.221-8.081-12.431-7.639-19.487.007-.131.015-.262.027-.4,0-.086.011-.172.02-.257.019-.262.045-.519.07-.782s.054-.535.089-.8c.052-.409.109-.818.172-1.223.183-1.2.417-2.375.69-3.53l.015-.065a26.855,26.855,0,0,1,11.356-16.181c-.236.534-3.348,13.355,4.186,16.041,5.6,1.992,15.176.945,22.053,4.509s24.955,18.137,24.955,18.137,1.416-.517,2.558,3.677C-28.612,151.849-31.414,159.982-26.556,163.463Z" transform="translate(288.882 -15.126)" fill="#1e222e"/>
        <path id="Trazado_570594" data-name="Trazado 570594" d="M-96.906,103.831s6.761,5.653,12.851,6.687,11.249-1.093,13.381,4.355-3.888,7.882-6.205,7.639S-94.086,114.748-96.906,103.831Z" transform="translate(288.501 -15.428)" fill="#2a2f3b"/>
        <path id="Trazado_570595" data-name="Trazado 570595" d="M-79.716,119.373s-6.975-1-9.707.2-7.5,4.228-8.609,7.2a12.953,12.953,0,0,0-.919,6.48c.961,3.159,8.561,2.934,11.819.506s10.531-13.2,10.531-13.2Z" transform="translate(288.222 -13.476)" fill="#bcb8cf"/>
        <path id="Trazado_570596" data-name="Trazado 570596" d="M-79.123,120.519s-10.235-3.339-15.208,4.642.432,9.159,4.013,7.8S-80.679,123.553-79.123,120.519Z" transform="translate(288.575 -13.367)" fill="#ffb5b5"/>
        <path id="Trazado_570597" data-name="Trazado 570597" d="M-64.474,128.618s.82-3.582,8.5,1.612c0,0,1.97,1.743-.8,4.325S-64.868,131.152-64.474,128.618Z" transform="translate(292.678 -12.389)" fill="#2a2f3b"/>
        <path id="Trazado_570598" data-name="Trazado 570598" d="M-20.477,150.36c-3.494-1.381-6.031.68-8.657,3.105s-6.944,1.922-6.944,1.922-4.189-1.4-4.6-7.116,3.569-7.124,3.569-7.124c9.156-2.858,12.706-6.174,12.706-6.174s4.2,2.036,5.272,3.874a1.648,1.648,0,0,1,.245.659C-18.65,141.487-19.3,148.931-20.477,150.36Z" transform="translate(295.742 -11.415)" fill="#2a2f3b"/>
        <path id="Trazado_570599" data-name="Trazado 570599" d="M-64.066,99.055c-.393.26-.8.5-1.19.738-5.117,3.04-10.485,6.16-16.42,6.577a32.521,32.521,0,0,1-8.676-.839,105.22,105.22,0,0,1-22.613-7.324,2.8,2.8,0,0,1-1.344-.981c-.73-1.229.6-2.6,1.605-3.609a10.535,10.535,0,0,0,2.892-8.727,12.428,12.428,0,0,0-2.094-4.466,31.031,31.031,0,0,1,5.134,3.543c5.61,5,25.393,13.334,35.5,14.606A67.722,67.722,0,0,0-64.066,99.055Z" transform="translate(286.232 -18.444)" fill="#2a2f3b"/>
        <path id="Trazado_570600" data-name="Trazado 570600" d="M-147.745,124.771a62.482,62.482,0,0,1-12.094,4.006c1.767-2.066,3.768-4.015,5.39-5.987,1.524-1.854,3.343-3.865,5.748-3.969Q-148.225,121.8-147.745,124.771Z" transform="translate(280.393 -13.496)" fill="#2a2f3b"/>
        <path id="Trazado_570601" data-name="Trazado 570601" d="M-145.094,148.772a6.105,6.105,0,0,1-5.133,2.989,8.617,8.617,0,0,1-1.833-.214c-5.934-1.271-10.449-6.561-11.462-12.434-.742-4.3,1.43-7.8,4.177-11.014a62.482,62.482,0,0,0,12.094-4.006q1.346,8.36,2.688,16.71C-144.126,143.489-143.74,146.417-145.094,148.772Z" transform="translate(279.899 -12.817)" fill="#1e222e"/>
        <path id="Trazado_570602" data-name="Trazado 570602" d="M-141.036,169.481c-1.139.708-2.572-.15-3.632-.975l-.982-.766c-.475-2.365-.824-4.48-1.071-6.171a44.557,44.557,0,0,0-1.566-6.65q-.119-.383-.214-.772a28.416,28.416,0,0,1-.63-4.787,5.33,5.33,0,0,1,4.282,1.521c1.374,1.473,1.88,3.529,2.337,5.49q1.084,4.677,2.167,9.346C-140.037,167.047-139.871,168.762-141.036,169.481Z" transform="translate(281.772 -9.566)" fill="#1e222e"/>
      </g>
      <path id="Trazado_570603" data-name="Trazado 570603" d="M-58.694,130.953a.557.557,0,0,0,.408-.595c-.035-.433-.83-1.232-1.129-.6C-59.623,130.2-59.242,131.052-58.694,130.953Z" transform="translate(26.692 13.401)" fill="#fff"/>
    </g>
  </g>
</svg>
