<svg xmlns="http://www.w3.org/2000/svg" xmlns:xlink="http://www.w3.org/1999/xlink" width="166" height="166" viewBox="0 0 166 166">
  <defs>
    <clipPath id="clip-path">
      <circle id="Elipse_7051" data-name="Elipse 7051" cx="83" cy="83" r="83" transform="translate(387 2995)" fill="#fff" stroke="#707070" stroke-width="1"/>
    </clipPath>
  </defs>
  <g id="Enmascarar_grupo_700146" data-name="Enmascarar grupo 700146" transform="translate(-387 -2995)" clip-path="url(#clip-path)">
    <g id="Grupo_841833" data-name="Grupo 841833" transform="translate(-2734.756 2644.381)">
      <path id="Trazado_568649" data-name="Trazado 568649" d="M3154.585,443.776c0-13.837.024-27.673-.024-41.51-.008-2.295.55-4.176,2.768-5.126s3.986-.049,5.6,1.57q41.791,41.837,83.628,83.628c1.618,1.616,2.525,3.373,1.553,5.6-.924,2.119-2.715,2.744-4.947,2.742q-41.609-.045-83.218-.022c-3.68,0-5.361-1.689-5.362-5.374Q3154.579,464.531,3154.585,443.776Z" transform="translate(0 -7.635)"/>
      <path id="Trazado_568650" data-name="Trazado 568650" d="M3280.531,455.415c.548,2.717-1.879,3.492-3.33,4.722-1.334,1.132-3.085.854-4.538-.234a13.827,13.827,0,0,1-1.427-1.335q-26.872-26.865-53.74-53.735c-3.24-3.24-3.221-4.889.071-8.181q5.332-5.333,10.667-10.662c2.419-2.4,4.494-2.4,6.93.033q27.362,27.344,54.708,54.705c2.506,2.507,2.49,4.527-.019,7.068-1.422,1.44-2.883,2.84-4.288,4.3a1.8,1.8,0,0,1-2.262.557c-1.614-.84-1.046-2.052-.215-2.88,1.364-1.36.9-2.216-.258-3.373q-26.7-26.623-53.346-53.3c-1.634-1.633-1.692-1.63-3.264-.068-1.621,1.61-3.244,3.22-4.834,4.861-3.134,3.132-3.462,2.612-.141,5.984,1.126,1.144,2.1,2.156,3.733.679a1.479,1.479,0,0,1,2.12.291,1.882,1.882,0,0,1,.1,2.671c-.9,1.073-.588,1.81.327,2.641.8.723,1.486.949,2.391.2a1.873,1.873,0,0,1,2.8.056,1.842,1.842,0,0,1-.082,2.657c-.706.86-.833,1.5.092,2.3.841.728,1.539,1.433,2.673.47a1.862,1.862,0,0,1,2.8.052,1.837,1.837,0,0,1-.078,2.659c-.844,1-.572,1.68.273,2.484.827.787,1.546,1.1,2.531.263a1.921,1.921,0,1,1,2.654,2.777c-1.01,1.17-.275,1.822.485,2.626a1.416,1.416,0,0,0,2.325.114,1.824,1.824,0,0,1,2.652-.072,1.844,1.844,0,0,1,.037,2.8c-.861,1.026-.5,1.7.312,2.491.783.77,1.429,1.253,2.479.36a1.891,1.891,0,1,1,2.7,2.646c-.833,1.024-.454,1.707.338,2.509s1.477,1.153,2.492.3a1.845,1.845,0,0,1,2.66-.092c.973.92.677,1.939-.027,2.807-.856,1.055-.351,1.715.4,2.5.816.861,1.513,1.052,2.5.235a1.824,1.824,0,0,1,2.656-.032,1.879,1.879,0,0,1,.009,2.8c-.98,1.15-.2,1.832.507,2.664.815.959,1.473.712,2.314.054a1.844,1.844,0,0,1,2.658-.038,1.883,1.883,0,0,1,.007,2.805,1.508,1.508,0,0,0,.253,2.372c.1.088.179.191.275.279,1.008.921,1.752,2.277,3.052,2.7,1.637.53,2.093-1.486,3.311-2,.238-.1.455-.256.7-.349A1.383,1.383,0,0,1,3280.531,455.415Z" transform="translate(-36.794)"/>
      <path id="Trazado_568651" data-name="Trazado 568651" d="M3289.677,465.839a2.125,2.125,0,0,0-1.768-.6c-.958.216-1.406-.545-1.931-1.069q-27.425-27.39-54.824-54.805a3.6,3.6,0,0,1-1.027-1.408c2-2.05,4.027-4.079,6-6.16.619-.654,1.052-.574,1.569.05.248.3.548.558.824.835q27.189,27.189,54.4,54.352c1.2,1.2,1.543,1.993.036,3.113-1.019.756-1.665,1.731-.5,2.932A10.02,10.02,0,0,0,3289.677,465.839Z" transform="translate(-45.94 -10.425)" fill="#fecf64"/>
      <path id="Trazado_568652" data-name="Trazado 568652" d="M3196.5,511.03c-.615-.325-.309-.9-.325-1.355-.029-.8-.094-1.557-.979-1.861a1.5,1.5,0,0,0-1.908.814c-.289.763.131,1.61-.281,2.358l0,0a12.17,12.17,0,0,1-4.368.028l0,0c-.374-.764.07-1.631-.3-2.4q-1.425-1.894-2.846,0c-.375.765.066,1.631-.3,2.4l0,0a12.206,12.206,0,0,1-4.368-.035l0,0c-.417-.748,0-1.595-.28-2.358-.8-1.24-1.747-1.115-2.762-.282a1.255,1.255,0,0,1-.477-.6,12.038,12.038,0,0,1-.163-3.116q-.018-34.46-.014-68.92a.366.366,0,0,1,.524-.344c.434.388.889.755,1.3,1.167q35.924,35.914,71.832,71.844c.49.49,1.188.845,1.3,1.645a.679.679,0,0,1-.41.412c-2.545.635-5.154.036-7.714.393a4.936,4.936,0,0,1-.848.205c-.609-.328-.308-.9-.324-1.357-.028-.8-.093-1.557-.978-1.86a1.5,1.5,0,0,0-1.908.815c-.295.763.127,1.611-.283,2.36l0,0a12.153,12.153,0,0,1-4.368.024l0,0c-.377-.763.064-1.628-.3-2.393-.95-1.266-1.9-1.257-2.847,0-.379.765.063,1.633-.3,2.4l0,0a12.2,12.2,0,0,1-4.368-.04v0c-.418-.747,0-1.592-.277-2.355a1.5,1.5,0,0,0-1.911-.81c-.881.306-.948,1.061-.976,1.863-.016.456.287,1.03-.324,1.357-1.442-.29-2.982.34-4.371-.459-.034-.321-.087-.643-.1-.965-.03-1.011-.316-1.878-1.5-1.873s-1.489.845-1.484,1.875c0,.323-.048.647-.074.97a6.222,6.222,0,0,1-4.629,0c-.031-.384-.067-.768-.091-1.152-.058-.944-.368-1.6-1.492-1.6s-1.432.654-1.491,1.6c-.024.384-.062.768-.093,1.151a9.4,9.4,0,0,1-3.668.079c1.142.378,2.426-.165,3.575.307-1.232.545-2.524.141-3.785.23-1.065.076-.816-.763-.818-1.356,0-.878-.051-1.742-1.053-2.047-1.131-.346-1.632.426-2.03,1.3a.462.462,0,0,0-.447.415c-.521,1.725-2.109.9-3.17,1.336A3.877,3.877,0,0,1,3196.5,511.03Z" transform="translate(-13.724 -31.095)" fill="#7fb3fa"/>
      <path id="Trazado_568653" data-name="Trazado 568653" d="M3169.319,428.119l-.147.013h-.147c-.119,4.3-.045,8.6-.047,12.9q-.015,28.642.008,57.284c0,.886-.264,1.836.368,2.644l.1.14c-.339.866.313,1.9-.451,2.691-.367-.057-.724-.163-1.09-.232-4.819-.184-4.418.279-4.418-4.543q0-36.469.028-72.939c0-.951-.634-2.352,1.106-2.654A45.952,45.952,0,0,1,3169.319,428.119Z" transform="translate(-5.377 -23.848)" fill="#61a1f8"/>
      <path id="Trazado_568654" data-name="Trazado 568654" d="M3178.084,416.359c.385.346.788.674,1.153,1.04q39.192,39.183,78.365,78.382c.894.9,2.641,1.885,1.153,3.319-1.455,1.4-2.106-.648-2.814-1.354q-38.626-38.5-77.16-77.095c-.5-.5-.964-1.052-1.446-1.579C3177.2,418.06,3176.669,416.942,3178.084,416.359Z" transform="translate(-13.717 -19.556)" fill="#9cc5f9"/>
      <path id="Trazado_568655" data-name="Trazado 568655" d="M3164.2,422.258c-.9.447-.742,1.284-.742,2.052q0,37.824-.033,75.648c0,1.5.5,1.929,1.919,1.858.926-.046,1.958-.388,2.812.352-1.511.806-3.131.211-4.693.365a.766.766,0,0,1-.753-.766,5.82,5.82,0,0,0,.155-2.323q.015-37.808.027-75.615c0-.783-.413-1.733.544-2.32Z" transform="translate(-4.957 -22.686)" fill="#5f9df3"/>
      <path id="Trazado_568656" data-name="Trazado 568656" d="M3163.118,420.473a4.633,4.633,0,0,0-.367,2.67q-.008,37.671-.017,75.341c0,.752.274,1.577-.341,2.247a18.141,18.141,0,0,1-.2-1.923q-.015-38.718-.008-77.436c0-.326,0-.652,0-.978,0-.246-.031-.644.274-.583C3162.715,419.861,3162.9,420.24,3163.118,420.473Z" transform="translate(-4.636 -21.651)" fill="#68aefe"/>
      <path id="Trazado_568657" data-name="Trazado 568657" d="M3159.9,500.262v-79.74h.2v79.8Z" transform="translate(-3.245 -22.087)" fill="#010304"/>
      <path id="Trazado_568658" data-name="Trazado 568658" d="M3169.1,408.981c-.77.761-.076,1.925-.749,2.713l-5.271-5.116c-.522-.507-1.121-1.033-.406-1.78a1.442,1.442,0,0,1,2.232-.085C3166.334,406.1,3167.7,407.555,3169.1,408.981Z" transform="translate(-4.732 -12.178)" fill="#7db0f4"/>
      <path id="Trazado_568659" data-name="Trazado 568659" d="M3354.379,625.93l.047-.106c.6,0,.817.471,1.388,1.231-3.655-.16-7,.162-10.359-.221l.417-.455c1.991-.4,4-.1,6-.181A7.422,7.422,0,0,0,3354.379,625.93Z" transform="translate(-116.053 -146.898)" fill="#86bdf9"/>
      <path id="Trazado_568660" data-name="Trazado 568660" d="M3226.523,624.662l.417-.454a1.552,1.552,0,0,1,1.273-.17c1.469.271,2.238-.26,2.25-1.785l.436.471c.439,1.68-.169,2.388-1.915,2.114C3228.173,624.711,3227.324,625,3226.523,624.662Z" transform="translate(-43.749 -144.727)" fill="#88c0fe"/>
      <path id="Trazado_568661" data-name="Trazado 568661" d="M3164.636,627.551c1.515-.754,3.133-.174,4.692-.365l.418.458A12.919,12.919,0,0,1,3164.636,627.551Z" transform="translate(-6.125 -147.705)" fill="#67adfe"/>
      <path id="Trazado_568662" data-name="Trazado 568662" d="M3265.606,627.253l4.629,0A4.38,4.38,0,0,1,3265.606,627.253Z" transform="translate(-67.509 -147.767)" fill="#88c0fe"/>
      <path id="Trazado_568663" data-name="Trazado 568663" d="M3285.466,627.175c1.45.215,3-.47,4.37.459C3288.363,627.637,3286.809,628.416,3285.466,627.175Z" transform="translate(-79.583 -147.693)" fill="#87bffe"/>
      <path id="Trazado_568664" data-name="Trazado 568664" d="M3251.57,627.638h-3.67l-.017-.386h3.781Z" transform="translate(-56.734 -147.766)" fill="#88c0fe"/>
      <path id="Trazado_568665" data-name="Trazado 568665" d="M3325.414,628.308l4.368-.024A7.582,7.582,0,0,1,3325.414,628.308Z" transform="translate(-103.869 -148.394)" fill="#709ed7"/>
      <path id="Trazado_568666" data-name="Trazado 568666" d="M3186.573,628.273l4.368.035A7.6,7.6,0,0,1,3186.573,628.273Z" transform="translate(-19.462 -148.387)" fill="#709dd6"/>
      <path id="Trazado_568667" data-name="Trazado 568667" d="M3206.481,628.308l4.368-.028A7.571,7.571,0,0,1,3206.481,628.308Z" transform="translate(-31.564 -148.391)" fill="#709dd6"/>
      <path id="Trazado_568668" data-name="Trazado 568668" d="M3305.507,628.268l4.367.04A7.6,7.6,0,0,1,3305.507,628.268Z" transform="translate(-91.767 -148.384)" fill="#709ed6"/>
      <path id="Trazado_568669" data-name="Trazado 568669" d="M3185.819,622.263c.588.727.246,1.565.28,2.358C3185.554,623.889,3185.913,623.049,3185.819,622.263Z" transform="translate(-18.985 -144.733)" fill="#709dd6"/>
      <path id="Trazado_568670" data-name="Trazado 568670" d="M3197.576,624.657c.019-.809-.341-1.665.3-2.4C3197.781,623.059,3198.179,623.921,3197.576,624.657Z" transform="translate(-26.1 -144.732)" fill="#709dd6"/>
      <path id="Trazado_568671" data-name="Trazado 568671" d="M3205.662,622.254c.636.731.277,1.587.3,2.4C3205.358,623.914,3205.758,623.053,3205.662,622.254Z" transform="translate(-31.041 -144.728)" fill="#709dd6"/>
      <path id="Trazado_568672" data-name="Trazado 568672" d="M3217.506,624.63c.034-.793-.311-1.631.281-2.358C3217.7,623.058,3218.06,623.9,3217.506,624.63Z" transform="translate(-38.225 -144.739)" fill="#709dd6"/>
      <path id="Trazado_568673" data-name="Trazado 568673" d="M3304.759,622.264c.583.727.244,1.564.278,2.356C3304.5,623.887,3304.854,623.049,3304.759,622.264Z" transform="translate(-91.295 -144.734)" fill="#709ed6"/>
      <path id="Trazado_568674" data-name="Trazado 568674" d="M3316.508,624.659c.016-.81-.343-1.667.3-2.4C3316.713,623.06,3317.112,623.922,3316.508,624.659Z" transform="translate(-98.403 -144.731)" fill="#709ed6"/>
      <path id="Trazado_568675" data-name="Trazado 568675" d="M3324.6,622.255c.632.731.274,1.586.3,2.392C3324.295,623.913,3324.693,623.053,3324.6,622.255Z" transform="translate(-103.347 -144.728)" fill="#709ed7"/>
      <path id="Trazado_568676" data-name="Trazado 568676" d="M3336.438,624.632c.034-.794-.312-1.633.282-2.36C3336.631,623.059,3337,623.9,3336.438,624.632Z" transform="translate(-110.528 -144.739)" fill="#709ed7"/>
      <path id="Trazado_568677" data-name="Trazado 568677" d="M3225.757,418.214a5.909,5.909,0,0,1,1.923,1.63q27.063,27.044,54.116,54.1c.55.549,1.16,1.038,1.743,1.555-.242.216-.494.423-.725.65-3.113,3.081-2.47,3.289-5.789-.029-.553-.553-1.069-1.151-1.667-1.652-.946-.794-1.1-1.5-.056-2.359.785-.647,1.139-1.511.278-2.355s-1.743-.467-2.349.331c-.924,1.216-1.623.876-2.383-.124a5.965,5.965,0,0,0-.963-.971c-.923-.76-1.179-1.474-.1-2.355.782-.637,1.167-1.495.316-2.356s-1.725-.506-2.349.291c-.894,1.144-1.609.993-2.381-.083a4.206,4.206,0,0,0-.825-.831c-1.076-.844-1.536-1.63-.132-2.66a1.357,1.357,0,0,0,.2-2.208c-.753-.77-1.523-.531-2.233.127a1.69,1.69,0,0,0-.279.272c-.725,1.081-1.387.865-2.083-.051a6.045,6.045,0,0,0-1.106-1.1c-.978-.759-1.363-1.451-.136-2.383.794-.6,1.189-1.48.343-2.35s-1.713-.53-2.351.268c-.877,1.1-1.586,1.041-2.384-.058a6.052,6.052,0,0,0-1.241-1.243c-.911-.687-.9-1.3.016-1.946a2.04,2.04,0,0,0,.271-.281c.658-.692.952-1.454.2-2.233a1.341,1.341,0,0,0-2.207.127c-1.118,1.515-1.93.925-2.8-.2a5.016,5.016,0,0,0-.968-.965c-.907-.67-.926-1.294,0-1.945a2.126,2.126,0,0,0,.272-.28c.662-.688.962-1.45.214-2.232a1.349,1.349,0,0,0-2.21.116c-1.077,1.384-1.9.92-2.779-.163a7.071,7.071,0,0,0-1.107-1.1c-.717-.563-.816-1.038-.059-1.687.8-.689,1.671-1.539.67-2.627s-1.892-.36-2.631.468c-.616.69-1.163.708-1.789.029a15.214,15.214,0,0,0-1.667-1.649c-.849-.673-.725-1.183.036-1.828s1.482-1.5.582-2.492c-.989-1.091-1.894-.43-2.63.422-.7.815-1.286.664-1.929-.055a13.317,13.317,0,0,0-1.525-1.516c-.788-.636-.835-1.146-.023-1.827.837-.7,1.565-1.6.5-2.628-.969-.937-1.811-.278-2.492.5s-1.24.74-1.93,0c-1.07-1.142-2.152-2.281-3.324-3.314-1.242-1.1-1.181-2.028.053-3.038C3224.545,419.391,3225.138,418.786,3225.757,418.214Z" transform="translate(-41.57 -20.683)" fill="#fdc14f"/>
      <path id="Trazado_568678" data-name="Trazado 568678" d="M3254.959,391.973c.8.09,1.206.731,1.7,1.227q12.746,12.728,25.48,25.468,14.053,14.052,28.1,28.107c.323.323.638.655.973.964a1.487,1.487,0,0,1,0,2.495c-1.029.979-1.382-.193-1.816-.626q-20.177-20.111-40.3-40.272-7.544-7.546-15.078-15.1c-.33-.332-1.019-.618-.633-1.237A1.85,1.85,0,0,1,3254.959,391.973Z" transform="translate(-60.011 -4.73)" fill="#fddf7c"/>
      <path id="Trazado_568679" data-name="Trazado 568679" d="M3219.959,510.684c.755,1.07,2.048,1.7,2.473,3.04a13.122,13.122,0,0,0,2.923,3.832c3.509,3.465,7,6.944,10.451,10.471.646.661,1.855,1.386.465,2.506a5.32,5.32,0,0,1-2.316.278q-14.882.015-29.763,0c-2.845,0-2.861-.038-2.862-2.813q0-15.027-.007-30.054,0,15.643,0,31.285a1.708,1.708,0,0,1-.157.947c-.551.307-.673-.155-.795-.491a6.124,6.124,0,0,1-.171-2.134q-.007-15.657,0-31.315c0-.2-.01-.392,0-.587.056-.761-.2-1.8.617-2.107s1.318.661,1.848,1.191c4.388,4.377,8.792,8.739,13.139,13.156A9.815,9.815,0,0,0,3219.959,510.684Z" transform="translate(-27.737 -66.444)" fill="#f7f9fa"/>
      <path id="Trazado_568680" data-name="Trazado 568680" d="M3215.982,504.2c-1.266.769-2.037-.035-2.85-.852-4.927-4.95-9.877-9.878-14.8-14.834a10,10,0,0,1-1.04-1.469c-.779.452-.644.81-.644,1.1q-.011,17.231,0,34.463c0,.388.064.776.1,1.163a2.943,2.943,0,0,0,.625.274,62.16,62.16,0,0,0,6.841.107q13.115.034,26.23,0a5.66,5.66,0,0,0,2.12-.145c.134-.192.1-.471.292-.639-.936-1.67-2.5-2.761-3.8-4.092-3.183-3.266-6.435-6.465-9.663-9.687-.655-.653-1.359-1.275-.939-2.354.958-1.068,1.835-.921,2.8.054q7.937,7.987,15.92,15.929a2.452,2.452,0,0,1,.772,2.983,2.65,2.65,0,0,1-2.734,1.476q-19.289-.02-38.58-.018c-2.1,0-2.962-.886-2.964-3.007-.017-12.86.006-25.72-.028-38.58a3.048,3.048,0,0,1,2.031-3,.581.581,0,0,1,.97.014,19.566,19.566,0,0,1,1.816,1.435c5.625,5.6,11.223,11.22,16.851,16.813C3216.166,502.19,3216.8,503,3215.982,504.2Z" transform="translate(-23.76 -59.963)" fill="#010101"/>
      <path id="Trazado_568681" data-name="Trazado 568681" d="M3177.307,508.261c-.288.071-.665.336-.743-.2a9.473,9.473,0,0,1-.028-1.367q0-34.633.012-69.266c0-.674-.3-1.457.429-1.993a4.842,4.842,0,0,1,.337,2.291Q3177.308,473,3177.307,508.261Z" transform="translate(-13.331 -31.154)" fill="#5e9ff7"/>
      <path id="Trazado_568682" data-name="Trazado 568682" d="M3355.025,626.094c-.85.9-1.933.381-2.9.427-1.865.087-3.738.023-5.608.023,1.178-.774,2.489-.29,3.735-.369C3351.838,626.075,3353.433,626.114,3355.025,626.094Z" transform="translate(-116.698 -147.062)" fill="#7caff5"/>
      <path id="Trazado_568683" data-name="Trazado 568683" d="M3231.11,622.253c.262,1.607-.462,2.183-2.009,1.969a11.393,11.393,0,0,0-1.514-.014,1,1,0,0,1,1.026-.376A1.985,1.985,0,0,0,3231.11,622.253Z" transform="translate(-44.396 -144.727)" fill="#7caff5"/>
      <path id="Trazado_568684" data-name="Trazado 568684" d="M3199.7,482.731l-.97-.014c-.269-.79.39-.37.61-.416C3199.511,482.263,3200.138,482.128,3199.7,482.731Z" transform="translate(-26.811 -59.601)" fill="#86bdfe"/>
      <path id="Trazado_568685" data-name="Trazado 568685" d="M3201.547,535.406l0-.39c.688-.64.39-1.475.392-2.222.02-9.853.009-19.706.023-29.56a3.376,3.376,0,0,1,.192-1.922,3.671,3.671,0,0,1,.18,1.943c.014,9.853.045,19.706-.025,29.559-.012,1.653.333,2.259,2.138,2.243,10.309-.088,20.62-.045,30.93-.038a4.4,4.4,0,0,0,2.279-.4l.354.351c.056.754-.511.622-.932.622-11.728,0-23.456.037-35.183-.022C3201.782,535.568,3201.665,535.463,3201.547,535.406Z" transform="translate(-28.565 -71.203)" fill="#f4f6f7"/>
      <path id="Trazado_568686" data-name="Trazado 568686" d="M3201.547,587.585q17.131,0,34.264-.013c.743,0,1.586.307,2.2-.425.492-.064.577.431.926.559-.3.67-.827.412-1.221.412q-17.287.023-34.573-.011C3202.615,588.1,3201.8,588.6,3201.547,587.585Z" transform="translate(-28.565 -123.381)" fill="#f7f9fa"/>
      <path id="Trazado_568687" data-name="Trazado 568687" d="M3199.07,494.522v36.7h-.2V494.583Z" transform="translate(-26.94 -67.074)" fill="#040404"/>
      <path id="Trazado_568688" data-name="Trazado 568688" d="M3202.838,591.41h36.544v.2h-36.625Z" transform="translate(-29.301 -125.977)" fill="#050505"/>
    </g>
  </g>
</svg>
