<svg xmlns="http://www.w3.org/2000/svg" xmlns:xlink="http://www.w3.org/1999/xlink" width="166" height="166" viewBox="0 0 166 166">
  <defs>
    <clipPath id="clip-path">
      <circle id="Elipse_7054" data-name="Elipse 7054" cx="83" cy="83" r="83" transform="translate(387 2995)" fill="#fff" stroke="#707070" stroke-width="1"/>
    </clipPath>
  </defs>
  <g id="Enmascarar_grupo_700148" data-name="Enmascarar grupo 700148" transform="translate(-387 -2995)" clip-path="url(#clip-path)">
    <g id="Grupo_841841" data-name="Grupo 841841" transform="translate(-3935.09 2635.207)">
      <path id="Trazado_568865" data-name="Trazado 568865" d="M4388.515,407.945a3.151,3.151,0,0,1,2.4-1.547,54.823,54.823,0,0,1,67.129,38.956,56.438,56.438,0,0,1,1.81,13.088c.033,1.741-.627,2.448-2.375,2.428-4.844-.054-9.689-.015-14.535-.02-2.758,0-2.858-.122-3.037-2.856-.908-13.821-7.481-24.077-19.887-30.149-21.911-10.725-48,4.564-49.672,28.9a15.056,15.056,0,0,0-.093,1.706c.085,1.875-.848,2.452-2.631,2.424q-7.373-.115-14.747,0c-1.987.034-2.609-.771-2.552-2.684a55.03,55.03,0,0,1,10.71-31.416c.37-.508.736-1.019,1.25-1.73-1.429-.393-2.7-.713-3.954-1.094-2.532-.77-3.169-2.819-1.372-4.684q4-4.153,8.17-8.148c1.777-1.7,3.79-1.09,4.58,1.283.224.674.4,1.365.593,2.048.173.6.348,1.206.58,2.012a63.136,63.136,0,0,1,10.784-6.682c1.154-.541,2.154-.755,3,.446.771,1.334.054,2.244-1.032,2.758-1.638.775-1.51,1.716-.717,3.034,1.316,2.185,2.61,4.387,3.784,6.652.782,1.511,1.771,1.762,3.295,1.089a36.162,36.162,0,0,1,11.692-2.972c2.26,0,4.519-.009,6.773,0a38.922,38.922,0,0,1,11.515,2.851c2.233.906,2.5.788,3.688-1.345,1.208-2.169,2.432-4.331,3.7-6.462.812-1.361.565-2.132-.876-2.807a46.472,46.472,0,0,0-12.992-3.913,5.5,5.5,0,0,1-1.021-.179,46.618,46.618,0,0,0-14.88.031,7.38,7.38,0,0,1-1.076.207c-1.7.158-3.319.737-4.991,1.045C4389.338,410.618,4388.8,410.193,4388.515,407.945Z"/>
      <path id="Trazado_568866" data-name="Trazado 568866" d="M4442.611,425.608a39.847,39.847,0,0,0-12.462,3.577c-1.012.506-1.333.13-1.78-.661-1.749-3.1-3.5-6.2-5.364-9.225-.7-1.134-.346-1.576.7-2.009,1.236-.513,2.657-.936,2.332-2.784,1.247-.826,3.191-.478,3.85-2.288.291,1.7,1.18,2.187,2.864,1.678a17.811,17.811,0,0,1,5.161-1.035.76.76,0,0,0,.56.184c.146-.007.3.075.441-.039a.341.341,0,0,1-.3-.244,39.638,39.638,0,0,1,15.688,0,.453.453,0,0,1-.422.262,1.513,1.513,0,0,0,1.128-.161,46.444,46.444,0,0,1,14.514,4.576c1.049.494.894.964.421,1.762-1.843,3.107-3.664,6.228-5.425,9.382-.482.864-.87,1.035-1.8.572a40.077,40.077,0,0,0-12.414-3.55A37.683,37.683,0,0,0,4442.611,425.608Z" transform="translate(-41.368 -4.277)" fill="#f5e680"/>
      <path id="Trazado_568867" data-name="Trazado 568867" d="M4455.589,516.269c-.633.052-1.266.149-1.9.15q-18.164.013-36.329,0c-4.592,0-6.174-2.721-3.89-6.68q11.615-20.135,23.25-40.256c2.313-4,5.461-4.039,7.748-.086q11.746,20.3,23.464,40.624c1.275,2.21,1.181,3.85-.212,5.271-1.006,1.027-4.337,1.594-5.653.958a2.05,2.05,0,0,1-.982-1.332c-.331-1.618.825-2,1.967-2.1,1.7-.141,1.674-.83.966-2.053-3.388-5.859-6.745-11.735-10.14-17.59-3.967-6.841-7.857-13.726-11.893-20.527-1.389-2.341-1.387-2.342-2.694-.058-.141.247-.286.493-.44.734-6.9,11.846-13.7,23.748-20.595,35.6a22.192,22.192,0,0,0-1.036,2.105c-.513,1.046-.287,1.637.971,1.631.569,0,1.139.008,1.708.008,11.179,0,22.359-.014,33.539.017,1.294,0,2.833-.3,3.292,1.56-.3,1.627-1.579,1.373-2.688,1.374q-18.068.014-36.135.013a2.968,2.968,0,0,0-1.268.076c-.211.034.119.474.04.2-.009-.032.031-.034.063-.066.485-.466,1.076-.189,1.6-.19q17.64-.032,35.28.014C4454.273,515.674,4455.242,515.1,4455.589,516.269Z" transform="translate(-35.53 -35.441)" fill="#010100"/>
      <path id="Trazado_568868" data-name="Trazado 568868" d="M4460.924,518.731c-.619-1.184-1.74-.762-2.667-.764-11.741-.026-23.481,0-35.221-.043-.932,0-2.25.584-2.739-.432-.437-.907.579-1.768,1.151-2.555a23.739,23.739,0,0,1,5.722-.207c5.458.035,10.92-.2,16.373.136.787.112,1.559.5,2.377.141a48.735,48.735,0,0,1,6.37-.169,7.933,7.933,0,0,0,4.779-1.532c2.564-1.94,3.051-4.959,1.156-8.194-2.76-4.709-5.38-9.5-8.2-14.172a8.146,8.146,0,0,1-.51-.93,9.083,9.083,0,0,0-2.842-5.063c.386-.728-.525-.725-.663-1.159-1.087-1.979-2.62-3.729-3.091-6.024.586-1.176.909-2.991,2.2-3.089,1.065-.081,1.417,1.75,2.006,2.766q11.027,19.01,21.986,38.057c1.342,2.326,1.336,2.38-1.271,2.431-1.243.024-2.062.413-2.311,1.692l-4.145,0C4460.97,519.456,4461.131,519,4460.924,518.731Z" transform="translate(-39.965 -40.138)" fill="#f3dc44"/>
      <path id="Trazado_568869" data-name="Trazado 568869" d="M4580.821,554.743a7.784,7.784,0,1,1-7.567-7.882A7.738,7.738,0,0,1,4580.821,554.743Z" transform="translate(-122.946 -81.43)" fill="#020101"/>
      <path id="Trazado_568870" data-name="Trazado 568870" d="M4359.894,549.349c-.277-1.631.489-2.35,2.065-2.5a7.783,7.783,0,1,1-7.031,7.561c.048-1.515.581-2.47,2.278-2.332,1.41.252,1.364,1.418,1.468,2.432a4.211,4.211,0,0,0,2.592,3.749,2.875,2.875,0,0,0,2.734.133c1.677-.927,2.776-2.169,2.519-4.26a3.706,3.706,0,0,0-2.871-3.3,4.089,4.089,0,0,0-2.186-.214C4360.751,550.423,4360.052,550.221,4359.894,549.349Z" transform="translate(-2.631 -81.403)" fill="#010202"/>
      <path id="Trazado_568871" data-name="Trazado 568871" d="M4366.715,553.664c2.3.639,3.495,2.007,3.6,4.118.1,2.078-.964,3.576-3.159,4.448-1,.009-2-.08-2.994-.057a4.076,4.076,0,0,1-2.946-4.307,2.772,2.772,0,0,0-.955-2.4,3.734,3.734,0,0,1,2.687-2.725l1.635.921A2.857,2.857,0,0,0,4366.715,553.664Z" transform="translate(-5.683 -84.797)" fill="#8fdec2"/>
      <path id="Trazado_568872" data-name="Trazado 568872" d="M4461.553,577.62l.455.892c-.267.633-.44,1.359-1.353,1.343-.712-.717-1.618-.4-2.435-.4q-17.4-.031-34.8-.024a4.063,4.063,0,0,1-2.13-.2,4.413,4.413,0,0,1,2.311-.207q17.506-.025,35.012-.021C4459.777,579,4461.141,579.282,4461.553,577.62Z" transform="translate(-40.596 -99.027)" fill="#040404"/>
      <path id="Trazado_568873" data-name="Trazado 568873" d="M4377.58,439.129a1.2,1.2,0,0,1-.208-.366c-.191-1.306-1.421-2.817-.641-3.815a16.312,16.312,0,0,1,5.248-3.943c.765-.413,1.295.327,1.66.954,1.75,3.009,3.463,6.04,5.235,9.037.715,1.21-.254,1.648-.932,2.128a39.7,39.7,0,0,0-5.9,5.117,37.952,37.952,0,0,0-10,20.5c-.09.555-.232,1.1-.351,1.652-.3-.118-.172-.455-.341-.664.171.464-.114,1,.275,1.4.1.871.277,1.695-1.117,1.674-3.893-.059-7.788-.026-11.682-.05-.15,0-.3-.222-.447-.34,3.987-.465,7.971-.068,11.379-.219-2.635,0-5.854.019-9.073-.013-.8-.008-1.742.331-2.308-.621.331-10.4,3.986-19.587,9.974-28,1.524-2.145,2.991-2.659,5.357-1.634,1.7.738,3-.139,3.821-1.724.6-.2.244-.682.277-1.03.027-.27-.179-.4-.075-.134C4377.739,439.037,4377.633,439.094,4377.58,439.129Z" transform="translate(-4.608 -15.09)" fill="#8fdec2"/>
      <path id="Trazado_568874" data-name="Trazado 568874" d="M4544.034,470.438c-.59-2.558-.994-5.176-1.8-7.662a37.082,37.082,0,0,0-14.018-19.225c-1.429-1.016-1.952-1.84-.82-3.521,1.664-2.472,3.019-5.152,4.537-7.725.7-1.184,1.544-1.947,2.771-.529,8.5,7.751,13.377,17.468,15.589,28.645a19.864,19.864,0,0,1,.368,4.442C4550.548,468.711,4547.942,470.9,4544.034,470.438Z" transform="translate(-100.936 -15.162)" fill="#e3979c"/>
      <path id="Trazado_568875" data-name="Trazado 568875" d="M4554.625,471.465c1.185-.78,2.7-.313,3.927-1.187,2.741-1.952,2.451-4.783,2-7.38-1.868-10.742-6.176-20.335-14.022-28.128a5.024,5.024,0,0,1-1.238-1.966A49.361,49.361,0,0,1,4564.08,455.5a39.511,39.511,0,0,1,3.436,12.874c-.088.271-.024-.11-.13.151-.127.315-.027.647-.13.956.143-.24-.012-.6.3-.769a7.972,7.972,0,0,1,.361,3.517c-.231,1.147-1.1,1.068-1.973,1.064-3.286-.017-6.571-.005-9.856-.01,3.947.137,7.9-.234,11.843.222-1.451.8-3.016.274-4.522.347-2.131.1-4.282-.108-6.405.065C4555.035,474.078,4554.222,473.449,4554.625,471.465Z" transform="translate(-111.527 -16.189)" fill="#e17f85"/>
      <path id="Trazado_568876" data-name="Trazado 568876" d="M4373.063,433.971l6.818-6.969c.832,3.124,1.636,6.143,2.521,9.464Z" transform="translate(-13.007 -12.87)" fill="#edeaed"/>
      <path id="Trazado_568877" data-name="Trazado 568877" d="M4581.733,526.2h-12.314c0-.142,0-.285,0-.427,3.281,0,6.563-.012,9.844.008.938.006,1.861.06,2.462-.857Z" transform="translate(-125.325 -68.88)" fill="#e9838a"/>
      <path id="Trazado_568878" data-name="Trazado 568878" d="M4358.38,525.907c1.983.86,4.066.311,6.1.406a38.528,38.528,0,0,1,6.153.447h-12.252Z" transform="translate(-4.608 -69.446)" fill="#94e6c9"/>
      <path id="Trazado_568879" data-name="Trazado 568879" d="M4469.3,443.186a15.771,15.771,0,0,1,7.692,0Z" transform="translate(-68.057 -21.855)" fill="#ded375"/>
      <path id="Trazado_568880" data-name="Trazado 568880" d="M4561.6,524.995v3.294A4.609,4.609,0,0,1,4561.6,524.995Z" transform="translate(-120.679 -68.924)" fill="#050505"/>
      <path id="Trazado_568881" data-name="Trazado 568881" d="M4394.843,524.968v3.269l-.181.007v-3.272Z" transform="translate(-25.363 -68.909)" fill="#050505"/>
      <path id="Trazado_568882" data-name="Trazado 568882" d="M4403.177,449.607l.118-.406c.645.473.33,1.06.183,1.622a.355.355,0,0,1-.193-.016.669.669,0,0,1-.156-.141Z" transform="translate(-30.205 -25.568)" fill="#96e9cb"/>
      <path id="Trazado_568883" data-name="Trazado 568883" d="M4388.773,522.25c-.557-.462-.474-1.043-.237-1.985.148.615.226.934.3,1.253C4388.817,521.762,4388.794,522.006,4388.773,522.25Z" transform="translate(-21.754 -66.218)" fill="#96e8cb"/>
      <path id="Trazado_568884" data-name="Trazado 568884" d="M4596.695,516.25c-.055.456-.11.912-.194,1.611-.384-.874-.4-1.448.149-1.95A.257.257,0,0,1,4596.695,516.25Z" transform="translate(-140.661 -63.728)" fill="#ec858b"/>
      <path id="Trazado_568885" data-name="Trazado 568885" d="M4496,413.914a1.473,1.473,0,0,1-1.7.266c.235-.471.693-.208.991-.368Z" transform="translate(-82.359 -5.325)" fill="#fdf186"/>
      <path id="Trazado_568886" data-name="Trazado 568886" d="M4459.02,413.811l1.309.238c-.926.306-1.5.441-2.013-.139Z" transform="translate(-61.774 -5.324)" fill="#fdf186"/>
      <path id="Trazado_568887" data-name="Trazado 568887" d="M4451.458,493.866a173.245,173.245,0,0,1,9.425,16.1c2.394,4.445-.856,9.329-6.042,9.546-2.407.1-4.823.013-7.235.011a.531.531,0,0,1-.009-.563c.626-.683,1.51-1.041,2.142-1.727a4.109,4.109,0,1,0-6,0c.633.686,1.517,1.043,2.146,1.726a.531.531,0,0,1-.012.565q-10.263,0-20.524,0c-.755,0-1.589.237-2.215-.454q8.031-14.019,16.068-28.035c1.763-3.066,3.6-6.093,5.4-9.138a33.745,33.745,0,0,1,3.435,6c-.551.4-1.266.1-2.1.276.947.107,1.818-.659,2.124.662a2.176,2.176,0,0,1-1.149.49c-3.352.725-4.605,2.436-4.135,5.9a25.448,25.448,0,0,1,.179,6.326,11.735,11.735,0,0,1-.5,1.729c-.136.354-.272.611.293.348a1.124,1.124,0,0,1,.476.406c2.308,3.525,4.751,3.54,7,.041a1.3,1.3,0,0,1,.451-.426c.1-.237.526.363.421-.1-.167-.725-.434-1.431-.6-2.167C4450.4,498.821,4449.914,496.212,4451.458,493.866Z" transform="translate(-41.648 -44.27)" fill="#f5e680"/>
      <path id="Trazado_568888" data-name="Trazado 568888" d="M4467.841,511.028c-.095-2.389-.155-4.78-.291-7.167-.254-4.481,1.437-6.276,5.86-6.153a.248.248,0,0,1,.4.119,5.416,5.416,0,0,1,3.042,5.052,52.031,52.031,0,0,0-.429,8.15,1.289,1.289,0,0,1-.083,1.573c-.616,2.132-1.761,3.732-4.207,3.733s-3.594-1.6-4.21-3.729A1.3,1.3,0,0,1,4467.841,511.028Z" transform="translate(-67.043 -53.282)" fill="#010101"/>
      <path id="Trazado_568889" data-name="Trazado 568889" d="M4461.325,574.3h-37.854v-.211h37.924Z" transform="translate(-41.842 -97.006)" fill="#fae246"/>
      <path id="Trazado_568890" data-name="Trazado 568890" d="M4478.388,496.836l-.4-.119c-.554-.7-1.461-.122-2.459-.8h2.476C4478.317,496.148,4478.883,496.27,4478.388,496.836Z" transform="translate(-71.621 -52.292)" fill="#fdef85"/>
      <path id="Trazado_568891" data-name="Trazado 568891" d="M4477.967,568.486c.012.106.021.213.032.319a1.031,1.031,0,0,1-1.734,0c.009-.107.02-.213.031-.319A1.019,1.019,0,0,1,4477.967,568.486Z" transform="translate(-72.041 -93.552)" fill="#fae346"/>
      <path id="Trazado_568892" data-name="Trazado 568892" d="M4581.525,560.83a3.366,3.366,0,0,1-2.549,2.532c-1-.02-1.994.064-2.992.059-2.208-.882-3.256-2.359-3.157-4.451q.149-3.175,3.6-4.115c.579.38,1.147.134,1.716-.033,1.74.069,2.648,1.206,3.349,2.609C4581.581,558.563,4581.5,559.7,4581.525,560.83Z" transform="translate(-127.274 -85.986)" fill="#e3979c"/>
      <path id="Trazado_568893" data-name="Trazado 568893" d="M4592.532,564.317a3.427,3.427,0,0,1-.039-3.4A3.3,3.3,0,0,1,4592.532,564.317Z" transform="translate(-138.28 -89.473)" fill="#eb9da2"/>
      <path id="Trazado_568894" data-name="Trazado 568894" d="M4580.213,574.219a2.527,2.527,0,0,1,2.992-.059A2.918,2.918,0,0,1,4580.213,574.219Z" transform="translate(-131.502 -96.784)" fill="#ed9ea3"/>
      <path id="Trazado_568895" data-name="Trazado 568895" d="M4582.953,554.559a1.034,1.034,0,0,1-1.716.033A1.84,1.84,0,0,1,4582.953,554.559Z" transform="translate(-132.088 -85.723)" fill="#f3a1a7"/>
      <path id="Trazado_568896" data-name="Trazado 568896" d="M4369.372,574.161a2.534,2.534,0,0,1,2.994.057A2.919,2.919,0,0,1,4369.372,574.161Z" transform="translate(-10.896 -96.784)" fill="#95e8cb"/>
      <path id="Trazado_568897" data-name="Trazado 568897" d="M4372.491,554.59a1.453,1.453,0,0,1-2.136,0A2.644,2.644,0,0,1,4372.491,554.59Z" transform="translate(-11.458 -85.723)" fill="#97ebcd"/>
      <path id="Trazado_568898" data-name="Trazado 568898" d="M4472.711,556.371h-1.671c-3.755-1.54-5.046-4.741-2.986-7.508a4.714,4.714,0,1,1,6.388,6.708A11.77,11.77,0,0,1,4472.711,556.371Z" transform="translate(-66.786 -81.438)" fill="#020201"/>
      <path id="Trazado_568899" data-name="Trazado 568899" d="M4467.687,528.909q.042.788.083,1.577a1.348,1.348,0,0,1-.125.384c-.136.194-.343.221-.342-.061C4467.3,530.156,4467.057,529.438,4467.687,528.909Z" transform="translate(-66.888 -71.163)" fill="#fdf187"/>
      <path id="Trazado_568900" data-name="Trazado 568900" d="M4488.122,530.481q.041-.787.083-1.573c.631.53.385,1.248.384,1.9,0,.286-.21.25-.342.056A1.366,1.366,0,0,1,4488.122,530.481Z" transform="translate(-78.824 -71.162)" fill="#fdf187"/>
      <path id="Trazado_568901" data-name="Trazado 568901" d="M4477.977,542.157a2.06,2.06,0,0,1-1.849-.043A2.142,2.142,0,0,1,4477.977,542.157Z" transform="translate(-71.963 -78.609)" fill="#fef488"/>
      <path id="Trazado_568902" data-name="Trazado 568902" d="M4477.356,506.117c1.083,1.008.44,2.273.429,3.4-.024,2.329-.24,4.657-.363,6.986-.032.609-.1,1.114-.908,1.114-.516,0-.815-.184-.837-.7-.154-3.452-.665-6.892-.384-10.358.013-.159.268-.3.411-.448C4476.253,506.131,4476.8,506.133,4477.356,506.117Z" transform="translate(-71.438 -58.124)" fill="#918791"/>
      <path id="Trazado_568903" data-name="Trazado 568903" d="M4478.014,505.562a1.125,1.125,0,0,1-1.653,0A1.03,1.03,0,0,1,4478.014,505.562Z" transform="translate(-72.096 -57.569)" fill="#9d939d"/>
      <path id="Trazado_568904" data-name="Trazado 568904" d="M4475.387,557.2a1.225,1.225,0,0,1-.265-2.085,1.491,1.491,0,0,1,2.036-.153,1.276,1.276,0,0,1-.127,2.24C4476.482,557.207,4475.935,557.205,4475.387,557.2Z" transform="translate(-71.119 -85.871)" fill="#918791"/>
      <path id="Trazado_568905" data-name="Trazado 568905" d="M4476.366,560.178a1.149,1.149,0,0,1,1.644,0A1.109,1.109,0,0,1,4476.366,560.178Z" transform="translate(-72.099 -88.852)" fill="#9d929d"/>
    </g>
  </g>
</svg>
