<svg xmlns="http://www.w3.org/2000/svg" xmlns:xlink="http://www.w3.org/1999/xlink" width="166" height="166" viewBox="0 0 166 166">
  <defs>
    <clipPath id="clip-path">
      <circle id="Elipse_7057" data-name="Elipse 7057" cx="83" cy="83" r="83" transform="translate(387 2995)" fill="#fff" stroke="#707070" stroke-width="1"/>
    </clipPath>
  </defs>
  <g id="Enmascarar_grupo_700150" data-name="Enmascarar grupo 700150" transform="translate(-387 -2995)" clip-path="url(#clip-path)">
    <g id="Grupo_841840" data-name="Grupo 841840" transform="translate(-3530.782 2660.232)">
      <path id="Trazado_568797" data-name="Trazado 568797" d="M4040.5,423.738q.029,1.9.058,3.791c-.393.67-1.438.443-1.725,1.262a9.732,9.732,0,0,0-.13,2.512q-.011,14.528-.011,29.056a6.324,6.324,0,0,1-.29,2.861c-.594.782-1.47.66-2.287.681-2.238.056-4.479-.065-6.711.073a1.46,1.46,0,0,0-.514.287,6.009,6.009,0,0,0-.56.682,5.714,5.714,0,0,0-.827,1.667c-.2,2.075-.029,4.148-.089,6.219-.067,2.345-.405,2.723-2.728,2.745-4.146.038-8.292.012-12.437.012h-41.783c-.712,0-1.425,0-2.137-.023a1.758,1.758,0,0,1-1.907-1.956c-.049-1.813-.02-3.627-.025-5.44-.017-5.894.026-11.788-.024-17.678-.02-.228-.04-.46-.066-.688a1.638,1.638,0,0,1,.3-.9c4.474-4.553,8.944-9.119,13.576-13.521.792-.941,1.68-1.791,2.551-2.657a1.909,1.909,0,0,1,3.041-.019c.463.451.915.913,1.4,1.345a1.078,1.078,0,0,0,1.69-.125c.513-.533.375-1-.055-1.529-.791-.974-2.374-1.6-2.142-3.034.246-1.516,1.808-2.271,2.823-3.334.133-.14.292-.255.438-.382.813-.8,1.507-1.708,2.36-2.468.685-.609,1.384-1.145,2.369-.645,1.82,3.407,1.853,7.074,1.446,10.763a24.173,24.173,0,0,1-4.66,11.775c-.191.261-.387.518-.56.792a.939.939,0,0,0,.119,1.379,1.067,1.067,0,0,0,1.422.055,5.443,5.443,0,0,0,1.256-1.466c5.034-7.463,6.025-15.513,3.493-24.073a6.71,6.71,0,0,1-.554-2.047,3.118,3.118,0,0,1,.98-1.834q3.885-4.014,7.9-7.9a2.979,2.979,0,0,1,1.483-.854,2.459,2.459,0,0,0,3.339-.854,10.526,10.526,0,0,1,1.774-1.781,2.724,2.724,0,0,0,.98-3.4,3.759,3.759,0,0,1,1.229-1.935q8.22-8.254,16.473-16.476a4.028,4.028,0,0,1,1.394-1.039,2.513,2.513,0,0,1,.634-.137c1.218-.055,2.433-.051,3.648-.011a2.162,2.162,0,0,1,1.976.959,7.229,7.229,0,0,1,.269,2.866c.092,5.414-.163,10.831.143,16.235a1.017,1.017,0,0,0,.444.386c.44.216.977.28,1.249.767.133,1.282-.342,2.613.316,3.851.171,1.192-.83,1.684-1.475,2.332-8.131,8.17-16.206,16.4-24.493,24.409-2.4,2.316-1.87,4.885-1.813,7.535.017.823.762.905,1.444.97,3.017.288,5.508-.237,7.8-2.712,5.141-5.558,10.636-10.789,16.021-16.118C4038.906,424.392,4039.348,423.387,4040.5,423.738Z" transform="translate(-5.855 -10.336)" fill="#7cc5d0"/>
      <path id="Trazado_568798" data-name="Trazado 568798" d="M4034.668,398.853l-1.565-.093c-.61-.648-.419-1.461-.422-2.216-.016-5.425,0-10.85-.019-16.274,0-.748.231-1.567-.4-2.209-1.854-.608-3.763-.147-5.643-.285a31.655,31.655,0,0,1-3.684.17q-29.635-.009-59.27,0a5.452,5.452,0,0,0-2.669.273c-.8.813-.495,1.842-.5,2.778q-.027,29.441-.016,58.882,0,13.4.014,26.8c0,.882-.238,1.827.394,2.624a4.3,4.3,0,0,0,2.284.251q27.765.015,55.532,0a3.831,3.831,0,0,0,2.269-.278c.494-2.3.092-4.629.23-6.94a7.352,7.352,0,0,1,.163-2.494l.806-1.152a4.187,4.187,0,0,1,2.6-.577q3.2,0,6.405-.005c1.053,0,1.561-.435,1.494-1.516-.032-.515,0-1.035,0-1.552q0-14.944,0-29.888c0-3.435,0-3.435,3.417-3.123.51.558.259,1.24.26,1.858.017,11.6-.01,23.2.04,34.793a4.743,4.743,0,0,1-1.556,3.754c-3.314,3.19-6.55,6.461-9.77,9.748a3.926,3.926,0,0,1-3.062,1.3q-31.3-.058-62.6-.03c-2.4,0-2.687-.281-2.687-2.7q-.007-47.038,0-94.078c0-2.554.249-2.8,2.779-2.8q37.033,0,74.067,0c2.469,0,2.781.309,2.785,2.815.009,6.8-.047,13.607.045,20.409C4036.412,398.524,4035.909,398.926,4034.668,398.853Z" transform="translate(0 -4.487)"/>
      <path id="Trazado_568799" data-name="Trazado 568799" d="M4112.6,459.326q-9.7,9.641-19.4,19.282c-1.239,1.231-6.291,2.032-7.825,1.218a1.835,1.835,0,0,1-.684-.661c-.829-1.414-.06-6.627,1.134-7.825q13.558-13.6,27.117-27.2a18.139,18.139,0,0,1,2.256-1.78,5.128,5.128,0,0,1,6.085,8.137C4118.427,453.481,4115.495,456.387,4112.6,459.326Z" transform="translate(-77.954 -45.924)"/>
      <path id="Trazado_568800" data-name="Trazado 568800" d="M4138.821,497.048c-3.042.135-3.042.135-3.042,3.223,0,10.423-.033,20.846.036,31.269.01,1.558-.311,2.13-1.987,2.069-2.969-.109-5.948.052-8.924.1l.416-.45c3.154-.378,6.334.027,9.038-.177.7-.217.387-.556.5-.321.046.1.024.171-.068.179a52.723,52.723,0,0,1-9.5-.026c1.445-.812,3.009-.286,4.514-.369,1.732-.1,3.474-.023,5.211-.023a3.966,3.966,0,0,0,.189-2.089q.021-15.6.018-31.2a4.293,4.293,0,0,1,.176-2.1c.564-.666,1.356-.286,2.032-.441C4137.879,496.869,4138.452,496.559,4138.821,497.048Z" transform="translate(-102.73 -79.5)" fill="#7bc1cc"/>
      <path id="Trazado_568801" data-name="Trazado 568801" d="M4007.13,409.591a125.126,125.126,0,0,0-10.077,10.028c-1.848-1.5-2.634-3.755-3.935-5.641-.482-.7.075-1.2.8-1.4s1.475-.41,1.273-1.365c-.205-.972-1.09-.773-1.756-.758-1.978.043-4.02-.372-5.872.708-.1,2.032-.4,4.069.225,6.064a2.326,2.326,0,0,0,2.826-.314c.539-.364.828.481,1.339.276,1.44,1.526,2.712,3.126,2.425,5.422-1.76.742-2.692,2.426-4.084,3.586-2.067-1.759-2.067-1.759-4.152.127-1.447,1.309-2.04,1.317-3.46.031-.478-.433-.912-.911-1.384-1.349a.973.973,0,0,0-1.522-.042,1.088,1.088,0,0,0-.084,1.694c.513.58,1.068,1.12,1.617,1.663a1.734,1.734,0,0,1-.005,2.833c-.093.089-.179.186-.267.28-1.9,2.037-1.9,2.037-.394,4.357l-13.56,13.4c-.7-.674-.548-1.558-.549-2.382q-.02-30.13,0-60.26c0-2.537.2-2.7,2.817-2.7q30.231-.006,60.463.008c.754,0,1.569-.211,2.234.378q-7.193,7.29-14.384,14.584c-1.441,1.467-2.839,2.976-4.257,4.466-1.431.2-1.907-1.087-2.684-1.818-2.146-2.018-2.107-2.059-4.048.266a4.078,4.078,0,0,1-.4.415,3.412,3.412,0,0,1-2.244.36c-5.026.028-10.052-.023-15.076.03,4.765-.048,9.529-.017,14.292-.014a28.293,28.293,0,0,0,4.043-.221,1.226,1.226,0,0,1,.67.157c.692.625.334,1-.33,1.239a6.83,6.83,0,0,1-2.312.213q-7,.011-14,0a10.552,10.552,0,0,0-1.36.03c-.619.082-1.448,0-1.411.939.036.912.864.86,1.478.869,4.665.066,9.33.015,14,.035a14.521,14.521,0,0,1,3.292.141c.589.139,1.441.262.725,1.23a1.149,1.149,0,0,1-.644.242c-6.151-.478-12.312-.105-18.469-.211q7.624-.023,15.249,0c.823,0,1.7-.142,2.353.573C4006.9,408.308,4007.5,408.792,4007.13,409.591Z" transform="translate(-5.989 -10.551)" fill="#86cdd8"/>
      <path id="Trazado_568802" data-name="Trazado 568802" d="M4069.478,466.831v-2.462c-6.993,8.018-10.965,16.746-11.353,27-.354,1.769-.052,3.558-.172,5.334-.041.608.262,1.279-.265,1.819-3.09-.13-3.1-.13-3.087-3.181.005-1.916.033-3.832.051-5.747-.192-.242-.251-.47.072-.656a51.039,51.039,0,0,1,5.759-17.786,49.6,49.6,0,0,1,6.725-9.2H4064.6c-.818-.951-.269-2.041-.313-3.07a1.544,1.544,0,0,1,1.523-.589c1.943.145,3.915-.316,5.838.266a2.385,2.385,0,0,1,1.236,2.409c-.219,2.01.445,4.074-.363,6.049C4071.488,467.231,4070.449,467.6,4069.478,466.831Z" transform="translate(-59.725 -56.02)" fill="#000101"/>
      <path id="Trazado_568803" data-name="Trazado 568803" d="M4019.617,451.977a2.326,2.326,0,0,1,2.506-1.377,40.088,40.088,0,0,0,4.265,0c1.176-.067,1.75.162,1.7,1.55-.042,1.23-.168,2.025-1.648,1.771a9.383,9.383,0,0,0-1.169-.006,48.142,48.142,0,0,1,4.007,6.495c2.593,6.837,2.988,13.717.394,20.652a28.378,28.378,0,0,1-4.543,7.86c-.619.769-1.149,1.029-1.795.128-.49-.683-1.974-.851-.779-2.343a23.609,23.609,0,0,0,4.385-22.629,4.293,4.293,0,0,0-.338-.68,14.076,14.076,0,0,0-2.727-5.438c-.26-.077-.4-.518-.77-.261,0,.773-.153,1.355-1.167,1.218-.746-.1-1.51-.067-2.266-.093A16.316,16.316,0,0,1,4019.617,451.977Z" transform="translate(-38.216 -51.339)" fill="#010101"/>
      <path id="Trazado_568804" data-name="Trazado 568804" d="M4040.165,433.508c-.268-.376-.7-.649-.724-1.178.185-.608.436-1.149,1.189-1.186,1.011-1.024-.1-.722-.488-.725-3.824-.021-7.649-.014-11.473-.015-2.269,0-4.541-.077-6.8.026-1.534.07-1.207-.911-1.247-1.771-.042-.9-.067-1.591,1.247-1.577,6.028.063,12.056.034,18.084,0,.3,0,1.487.482.681-.716-.754-.037-1-.578-1.189-1.186a1.155,1.155,0,0,1,.124-.362c1.938-2.427,1.933-2.419,4.088-.284.912.9,1.858,1.771,2.788,2.654,1.03,1.212.886,2.269-.308,3.319a23.929,23.929,0,0,0-2.852,2.868C4042.22,434.692,4041.265,434.921,4040.165,433.508Z" transform="translate(-39.023 -34.468)" fill="#020303"/>
      <path id="Trazado_568805" data-name="Trazado 568805" d="M3997.351,561.994a6.627,6.627,0,1,1,6.727-6.589A6.606,6.606,0,0,1,3997.351,561.994Z" transform="translate(-20.829 -111.291)" fill="#000101"/>
      <path id="Trazado_568806" data-name="Trazado 568806" d="M4055.2,576.63a6.629,6.629,0,0,1-13.258.109,6.629,6.629,0,1,1,13.258-.109Z" transform="translate(-52.059 -124.264)" fill="#010101"/>
      <path id="Trazado_568807" data-name="Trazado 568807" d="M4110.563,432.234c-1.141,3.89-3.082,5.783-6.161,6.011-3.8.28-6.263-1.874-7.34-6.413l0-.163a21.742,21.742,0,0,1,.533-2.253,6.607,6.607,0,0,1,12.408-.154c.208.537.364,1.095.544,1.643A.916.916,0,0,1,4110.563,432.234Z" transform="translate(-85.723 -35.711)" fill="#010101"/>
      <path id="Trazado_568808" data-name="Trazado 568808" d="M4115.893,548.162c-.626.664-.967,1.039-1.323,1.4-2.542,2.583-2.59,2.631.067,5.191.979.944.971,1.461.013,2.419s-1.481.947-2.418-.025c-2.559-2.654-2.674-2.67-5.154-.03-1.044,1.112-1.55.913-2.56-.032-1.125-1.05-.68-1.551.163-2.373,2.6-2.533,2.613-2.6-.029-5.149-.927-.894-1.131-1.419-.074-2.4.915-.846,1.386-1.147,2.4-.079,2.551,2.687,2.6,2.616,5.494-.1.345-.325.585-1.187,1.344-.593C4114.514,546.94,4115.169,547.542,4115.893,548.162Z" transform="translate(-89.867 -109.733)" fill="#000101"/>
      <path id="Trazado_568809" data-name="Trazado 568809" d="M3999.377,498.772a.589.589,0,0,1-.184-.057c-2.589-1.955-2.588-1.955-.368-4.175,1.82-1.819,1.82-1.819.066-3.573a8.052,8.052,0,0,0-.967-.95c-1.287-.906-.639-1.533.14-2.4.885-.982,1.39-.859,2.256.028,2.666,2.728,2.705,2.69,4.887.512,1.772-1.769,2.787-1.5,3.821,1.02a3.412,3.412,0,0,0-.46.334c-.992,1.006-2.586,1.909-2.8,3.063-.234,1.277,1.583,2.131,2.575,3.071s.384,1.4-.271,1.938c-.6.489-.916,1.61-2.1.513C4002.739,495.111,4002.688,495.166,3999.377,498.772Z" transform="translate(-24.724 -73.538)" fill="#000101"/>
      <path id="Trazado_568810" data-name="Trazado 568810" d="M4031.682,383.953c-20.846,0-41.693.029-62.539-.046-1.975-.007-2.479.5-2.472,2.473.075,20.844.046,41.688.046,62.531l-.386.391c-.56-.6-.382-1.346-.383-2.039q-.017-30.91,0-61.82a3.013,3.013,0,0,1,.29-1.885,2.285,2.285,0,0,1,1.323-.179c21.411.011,42.823-.033,64.234.019a.357.357,0,0,1,.277.556Z" transform="translate(-5.624 -10.279)" fill="#84cad5"/>
      <path id="Trazado_568811" data-name="Trazado 568811" d="M4027.015,569.729l-.034,9.726a2.658,2.658,0,0,1-1.519.179q-28.968.009-57.938,0a3.583,3.583,0,0,1-1.157-.1,1.753,1.753,0,0,1-.4-1.445c-.006-7.754-.023-15.507.007-23.261a2.409,2.409,0,0,1,.135-.76l.24-.3c.626.577.375,1.336.376,2.017.018,7.055.049,14.109-.019,21.163-.015,1.526.295,2.144,2,2.139q27.962-.089,55.924,0c1.648.005,2.047-.518,2.061-2.1C4026.717,574.578,4026.228,572.118,4027.015,569.729Z" transform="translate(-5.647 -114.367)" fill="#7ac2cc"/>
      <path id="Trazado_568812" data-name="Trazado 568812" d="M3965.9,383.8q0,32.867,0,65.735,0,.194,0,.388l0-.005c-1.081-.292-.545-1.178-.547-1.753q-.059-15.634-.027-31.269c.008-10.941-.032-21.882.021-32.822A.358.358,0,0,1,3965.9,383.8Z" transform="translate(-5.192 -10.511)" fill="#8bd5e1"/>
      <path id="Trazado_568813" data-name="Trazado 568813" d="M4151.185,497.826q0,16.589-.011,33.178c0,.742.286,1.566-.372,2.211q0-16.589.012-33.178C4150.816,499.3,4150.526,498.471,4151.185,497.826Z" transform="translate(-118.518 -80.192)" fill="#7ec9d4"/>
      <path id="Trazado_568814" data-name="Trazado 568814" d="M4135.884,383.6c0-.127,0-.254,0-.381a.866.866,0,0,1,.622-.2c1.867-.142,3.758.277,5.61-.235.743.529.337,1.3.342,1.938.055,6.491.058,12.981.076,19.472l-.436.012a26.185,26.185,0,0,1-.169-5.575c-.048-4.258,0-8.517-.028-12.775,0-.622.232-1.286-.187-1.873C4139.817,383.212,4137.826,383.778,4135.884,383.6Z" transform="translate(-109.436 -9.93)" fill="#7ac1cc"/>
      <path id="Trazado_568815" data-name="Trazado 568815" d="M4150.819,385.875c.744.378.364,1.061.366,1.584.031,6.213.02,12.426.019,18.639-.623-.577-.372-1.333-.373-2.014C4150.812,398.015,4150.819,391.945,4150.819,385.875Z" transform="translate(-118.536 -11.812)" fill="#7ec9d4"/>
      <path id="Trazado_568816" data-name="Trazado 568816" d="M4125.891,589.76h9.608l0,.345h-9.581A2.1,2.1,0,0,1,4125.891,589.76Z" transform="translate(-103.333 -136.345)" fill="#84d2de"/>
      <path id="Trazado_568817" data-name="Trazado 568817" d="M4086.562,458.331c-2.4.2-4.834-.364-7.212.327q-.227.312-.432-.014a1.164,1.164,0,0,1,1.041-.754c2.2-.012,4.391,0,6.586.005.041,0,.119.077.115.107A2.237,2.237,0,0,1,4086.562,458.331Z" transform="translate(-74.641 -55.795)" fill="#7fcbd7"/>
      <path id="Trazado_568818" data-name="Trazado 568818" d="M4065.18,550.53v-6.474l.159,0v6.476Z" transform="translate(-66.25 -108.427)" fill="#7ac2cd"/>
      <path id="Trazado_568819" data-name="Trazado 568819" d="M4062.7,550.5c.535-2.36-.141-4.793.436-7.152.014,1.864.039,3.73.035,5.6C4063.169,549.493,4063.343,550.125,4062.7,550.5Z" transform="translate(-64.735 -107.994)" fill="#7bc3ce"/>
      <path id="Trazado_568820" data-name="Trazado 568820" d="M4053.338,545.033v6.039l-.193,0v-6.093Z" transform="translate(-58.899 -108.991)" fill="#7fc8d3"/>
      <path id="Trazado_568821" data-name="Trazado 568821" d="M4093.3,541.262h-5.309v-.181h5.3Z" transform="translate(-80.185 -106.612)" fill="#84d2de"/>
      <path id="Trazado_568822" data-name="Trazado 568822" d="M4083.443,523.049v4.765l-.185.006v-4.853Z" transform="translate(-77.293 -95.549)" fill="#83d0dc"/>
      <path id="Trazado_568823" data-name="Trazado 568823" d="M4092.991,480.293l3.04.183A2.219,2.219,0,0,1,4092.991,480.293Z" transform="translate(-83.237 -69.483)" fill="#7fcad7"/>
      <path id="Trazado_568824" data-name="Trazado 568824" d="M4078.839,459.835l.432.014q.082,1.532.164,3.066C4078.279,462.074,4079.08,460.854,4078.839,459.835Z" transform="translate(-74.563 -56.987)" fill="#82cedb"/>
      <path id="Trazado_568825" data-name="Trazado 568825" d="M4131.726,440.779q-.009-.665-.018-1.33c.108-.165.308-.6.348-.412a8.876,8.876,0,0,1,.06,2.115c-.008.251-.188.313-.136.07C4132.007,441.1,4131.817,440.928,4131.726,440.779Z" transform="translate(-106.886 -44.256)" fill="#83d0dc"/>
      <path id="Trazado_568826" data-name="Trazado 568826" d="M4096.382,440.737l.061.081-.059.082-.218,1.079a2.6,2.6,0,0,1,.036-2.131Z" transform="translate(-85.044 -44.779)" fill="#84d2dd"/>
      <path id="Trazado_568827" data-name="Trazado 568827" d="M4056.131,605.05a2.583,2.583,0,0,1,1.84-.146C4057.5,605.387,4056.995,605.113,4056.131,605.05Z" transform="translate(-60.723 -145.53)" fill="#83d0db"/>
      <path id="Trazado_568828" data-name="Trazado 568828" d="M4113.977,459.985c-.572.412-.972.238-1.518.181C4113.019,459.754,4113.417,459.938,4113.977,459.985Z" transform="translate(-95.128 -57.029)" fill="#83cfda"/>
      <path id="Trazado_568829" data-name="Trazado 568829" d="M4054.385,535.3l-.072.656c-.5-.425-.428-.949-.2-1.8Z" transform="translate(-59.384 -102.379)" fill="#83d0dc"/>
      <path id="Trazado_568830" data-name="Trazado 568830" d="M3965.391,383.249q-.019,32.348-.035,64.7c0,.507-.1,1.051.372,1.441q0,12.837.005,25.673c-.018.242-.28.235-.391.382-.625-.5-.3-1.2-.3-1.791q-.034-44.5-.012-88.99c0-.59-.335-1.287.31-1.784.128.068.178.146.15.234S3965.429,383.249,3965.391,383.249Z" transform="translate(-5.026 -9.98)" fill="#81cdd9"/>
      <path id="Trazado_568831" data-name="Trazado 568831" d="M3966.014,383.021a3.507,3.507,0,0,1-.05-.374,12.41,12.41,0,0,1,1.335-.14q32.019-.01,64.038,0c.384,0,.768.067,1.152.1q.194.143.126.282t-.134.137q-.19.006-.38.017l-65.745-.006Q3966.185,383.037,3966.014,383.021Z" transform="translate(-5.649 -9.752)" fill="#8fdbe7"/>
      <path id="Trazado_568832" data-name="Trazado 568832" d="M3965.969,620.11l.391-.382,60.626.009c-.133.82-.795.513-1.229.513q-29.519.024-59.037.005A3.935,3.935,0,0,1,3965.969,620.11Z" transform="translate(-5.652 -154.65)" fill="#85d3df"/>
      <ellipse id="Elipse_7058" data-name="Elipse 7058" cx="0.1" cy="26.268" rx="0.1" ry="26.268" transform="translate(4035.475 410.846)" fill="#050505"/>
      <path id="Trazado_568833" data-name="Trazado 568833" d="M4132.406,604.779c-.291.322-.705,1.18-.826-.016-.135-1.334-.014-2.693-.033-4.04-.012-.832.5-.9,1.14-.892,1.155.014,2.311,0,3.466.008.3,0,.757-.132.81.26s-.371.625-.7.826a3.772,3.772,0,0,0-2.038,1.352c-1.038,1.083-1.415.917-1.968-.915C4132.317,602.675,4132.851,603.716,4132.406,604.779Z" transform="translate(-106.768 -142.49)" fill="#eb5a4b"/>
      <ellipse id="Elipse_7059" data-name="Elipse 7059" cx="0.1" cy="15.54" rx="0.1" ry="15.54" transform="translate(4035.475 366.536)" fill="#050505"/>
      <path id="Trazado_568834" data-name="Trazado 568834" d="M4133.226,605.881c-.633-1.323-.3-2.656-.113-4.005.269.631.028,1.622.718,1.775.674.149,1.279-.671,1.478-1.269.445-1.338,1.132-.534,1.774-.353A29.181,29.181,0,0,1,4133.226,605.881Z" transform="translate(-107.587 -143.591)" fill="#e05647"/>
      <path id="Trazado_568835" data-name="Trazado 568835" d="M4136.873,382.993l.007-.419a32.147,32.147,0,0,1,5.845.006C4140.831,383.511,4138.817,382.764,4136.873,382.993Z" transform="translate(-110.04 -9.716)" fill="#86d3df"/>
      <path id="Trazado_568836" data-name="Trazado 568836" d="M4094.5,495.6c-1.569-.013-2.184-1.343-1.437-2.712a4.2,4.2,0,0,1,.772-.866c6.232-6.236,12.5-12.438,18.673-18.733,1.074-1.1,1.593-.75,2.383.154.707.808,1.639,1.247.319,2.532-6.316,6.15-12.51,12.427-18.738,18.668C4095.853,495.261,4095.267,495.871,4094.5,495.6Z" transform="translate(-83.085 -64.788)" fill="#4297d0"/>
      <path id="Trazado_568837" data-name="Trazado 568837" d="M4157.152,463.807a3.915,3.915,0,0,1-1.683,1.72c-.322.153-2.593-2.219-2.415-2.506.4-.642,1.085-1.673,1.6-1.434A11.128,11.128,0,0,1,4157.152,463.807Z" transform="translate(-119.919 -58.036)" fill="#3f91c8"/>
      <path id="Trazado_568838" data-name="Trazado 568838" d="M4167.022,450.931a.825.825,0,0,1,.771.747c-.2.519.11,1.032.017,1.549-.341.78-.933,1.784-1.682,1.5a4.062,4.062,0,0,1-2.125-2.111c-.293-.758.717-1.334,1.485-1.684A5.05,5.05,0,0,0,4167.022,450.931Z" transform="translate(-126.58 -51.548)" fill="#e65849"/>
      <path id="Trazado_568839" data-name="Trazado 568839" d="M4173.228,454.4a.954.954,0,0,1-.017-1.549A1.11,1.11,0,0,1,4173.228,454.4Z" transform="translate(-131.998 -52.721)" fill="#f45d4d"/>
      <path id="Trazado_568840" data-name="Trazado 568840" d="M4169.435,450.485a.98.98,0,0,1-1.533,0A1.174,1.174,0,0,1,4169.435,450.485Z" transform="translate(-128.993 -51.103)" fill="#f55e4e"/>
      <path id="Trazado_568841" data-name="Trazado 568841" d="M3983.851,442.133c-4.836-1.479-7.054-5.11-5.518-9.085,1.038-2.688,3.2-3.914,5.9-4.4.183-.31.366-.309.55,0,4.374,1.07,6.462,3.348,6.375,6.952-.079,3.261-1.99,5.348-5.986,6.537A.893.893,0,0,1,3983.851,442.133Z" transform="translate(-12.91 -37.797)" fill="#010101"/>
      <path id="Trazado_568842" data-name="Trazado 568842" d="M4049.519,396.835c-.842.955-1.579,1.852-2.381,2.686a1.962,1.962,0,0,1-3.282-.9c-.2-.675.429-.862.729-1.225.816-.989,2.528-1.738,2.428-2.824-.093-1.006-1.5-1.993-2.488-2.787-1.293-1.038-.337-1.55.291-2.259.673-.76,1.121-1.162,2.095-.173,2.779,2.822,2.889,2.814,5.6.051.906-.925,1.4-.787,2.1.089.561.7,1.636,1.137.383,2.253-.98.872-2.644,1.711-2.493,2.951.125,1.025,1.538,1.984,2.529,2.789,1.214.985.286,1.473-.306,2.078-.61.624-1.152,1.5-2.1.3a25.511,25.511,0,0,0-2.182-2.206C4050.226,397.444,4049.99,397.253,4049.519,396.835Z" transform="translate(-53.201 -13.576)" fill="#010101"/>
      <path id="Trazado_568843" data-name="Trazado 568843" d="M4039.646,428.663l1.188,1.186-.14.11c-6.586.182-13.171.3-19.755-.057.575-.627,1.332-.374,2.013-.378,4.844-.021,9.688-.009,14.532-.013C4038.31,429.511,4039.213,429.679,4039.646,428.663Z" transform="translate(-39.228 -37.947)" fill="#84cad5"/>
      <path id="Trazado_568844" data-name="Trazado 568844" d="M4040.834,443.514l-1.189,1.186c-.432-1.015-1.336-.847-2.161-.848-4.844,0-9.688.007-14.532-.013-.681,0-1.438.249-2.013-.378a21.7,21.7,0,0,1,5.205-.171c4.85.032,9.7-.192,14.55.114Z" transform="translate(-39.228 -46.837)" fill="#84cad5"/>
      <path id="Trazado_568845" data-name="Trazado 568845" d="M4020.939,431.847l19.756.057c-.344.412-.821.312-1.262.312q-8.527.007-17.055,0C4021.872,432.216,4021.33,432.316,4020.939,431.847Z" transform="translate(-39.228 -39.892)" fill="#8dd8e3"/>
      <path id="Trazado_568846" data-name="Trazado 568846" d="M4040.694,443.2l-19.755.057c.331-.406.794-.371,1.245-.371q8.722,0,17.443,0C4040.011,442.888,4040.411,442.851,4040.694,443.2Z" transform="translate(-39.228 -46.635)" fill="#8dd8e3"/>
      <path id="Trazado_568847" data-name="Trazado 568847" d="M4019.272,453.982l.059,6.843c-1.1-2.259-.385-4.617-.378-6.937a.348.348,0,0,1,.163-.012A.636.636,0,0,1,4019.272,453.982Z" transform="translate(-37.872 -53.344)" fill="#8edae6"/>
      <path id="Trazado_568848" data-name="Trazado 568848" d="M4025.19,449.02h5.933v.188h-6.1Z" transform="translate(-41.724 -50.381)" fill="#8cd6e1"/>
      <path id="Trazado_568849" data-name="Trazado 568849" d="M4020.046,473.115a4.641,4.641,0,0,1,2.964,0Z" transform="translate(-38.682 -64.95)" fill="#8bd4df"/>
      <path id="Trazado_568850" data-name="Trazado 568850" d="M4019.244,436.454a3.494,3.494,0,0,1,0-2.638Z" transform="translate(-38.036 -41.095)" fill="#8ed9e4"/>
      <path id="Trazado_568851" data-name="Trazado 568851" d="M3993.421,428.431h-.549l-.875-.179.024-.191h2.252l.023.19Z" transform="translate(-21.55 -37.58)" fill="#8fdae5"/>
      <path id="Trazado_568852" data-name="Trazado 568852" d="M3992.548,463.66l1.319,0c.179.094.536.333.431.346a9.174,9.174,0,0,1-2.194,0C3992.016,463.995,3992.365,463.753,3992.548,463.66Z" transform="translate(-21.607 -59.323)" fill="#8edae5"/>
      <path id="Trazado_568853" data-name="Trazado 568853" d="M4029.048,467.882c-.062-.239-.072-.658.124-.613a1,1,0,0,1,.646.874C4029.316,468.779,4029.342,467.858,4029.048,467.882Z" transform="translate(-44.156 -61.526)" fill="#87cfda"/>
      <path id="Trazado_568854" data-name="Trazado 568854" d="M3999.9,559.883c.7-2.013,1.786-2.692,3.842-2.4a3.184,3.184,0,0,1,2.509,3.235,3.058,3.058,0,0,1-2.606,3.15c-1.811.387-3.055-.44-3.745-2.413A2.531,2.531,0,0,0,3999.9,559.883Z" transform="translate(-26.378 -116.589)" fill="#7cc4cf"/>
      <path id="Trazado_568855" data-name="Trazado 568855" d="M3999.535,563.756a.935.935,0,0,1,0,1.567A1.428,1.428,0,0,1,3999.535,563.756Z" transform="translate(-26.011 -120.462)" fill="#84d2dd"/>
      <path id="Trazado_568856" data-name="Trazado 568856" d="M4052.647,584.931a3.034,3.034,0,0,1-1.958-3.845,2.953,2.953,0,0,1,2.941-2.378,2.888,2.888,0,0,1,3.271,2.359,4.584,4.584,0,0,0-.028,1.927,3.473,3.473,0,0,1-1.9,1.955A18.019,18.019,0,0,0,4052.647,584.931Z" transform="translate(-57.315 -129.593)" fill="#7cc4cf"/>
      <path id="Trazado_568857" data-name="Trazado 568857" d="M4055.935,594.043a1.8,1.8,0,0,1,2.329.017A2.087,2.087,0,0,1,4055.935,594.043Z" transform="translate(-60.603 -138.705)" fill="#82cfda"/>
      <path id="Trazado_568858" data-name="Trazado 568858" d="M4066.2,586.7a1.378,1.378,0,0,1,.028-1.927A1.947,1.947,0,0,1,4066.2,586.7Z" transform="translate(-66.641 -133.299)" fill="#83d0dc"/>
      <path id="Trazado_568859" data-name="Trazado 568859" d="M4106.909,435.645a2.956,2.956,0,0,1,3.845-1.864,3.066,3.066,0,0,1,2.36,2.9,2.9,2.9,0,0,1-2.308,3.27c-.654-.038-1.309-.032-1.964-.007a2.2,2.2,0,0,1-1.878-1.588C4106.879,437.45,4107.007,436.545,4106.909,435.645Z" transform="translate(-91.738 -40.966)" fill="#7cc4cf"/>
      <path id="Trazado_568860" data-name="Trazado 568860" d="M4106.286,438.846a2.391,2.391,0,0,1,.056,2.706A2.391,2.391,0,0,1,4106.286,438.846Z" transform="translate(-91.116 -44.167)" fill="#80ccd8"/>
      <path id="Trazado_568861" data-name="Trazado 568861" d="M4111.878,449.178a1.293,1.293,0,0,1,1.963.007A1.743,1.743,0,0,1,4111.878,449.178Z" transform="translate(-94.773 -50.204)" fill="#83d0db"/>
      <path id="Trazado_568862" data-name="Trazado 568862" d="M3991.336,438.891a2.242,2.242,0,0,1,1.535,1.874,4.672,4.672,0,0,0,0,1.925,2.952,2.952,0,0,1-3.29,2.332,3.179,3.179,0,0,1-2.866-2.434c-.629-1.723.229-3.049,1.9-3.8C3989.527,438.795,3990.432,438.841,3991.336,438.891Z" transform="translate(-18.201 -44.13)" fill="#85ccd7"/>
      <path id="Trazado_568863" data-name="Trazado 568863" d="M3994.643,438.3a2.4,2.4,0,0,1-2.716-.105A2.4,2.4,0,0,1,3994.643,438.3Z" transform="translate(-21.507 -43.541)" fill="#8bd4e0"/>
      <path id="Trazado_568864" data-name="Trazado 568864" d="M4002.243,445.8a1.38,1.38,0,0,1,0-1.925A1.935,1.935,0,0,1,4002.243,445.8Z" transform="translate(-27.568 -47.236)" fill="#8ed9e5"/>
    </g>
  </g>
</svg>
