<svg id="Grupo_842200" data-name="Grupo 842200" xmlns="http://www.w3.org/2000/svg" xmlns:xlink="http://www.w3.org/1999/xlink" width="199.078" height="187.36" viewBox="0 0 199.078 187.36">
  <defs>
    <clipPath id="clip-path">
      <rect id="Rectángulo_279489" data-name="Rectángulo 279489" width="199.078" height="187.36" fill="none"/>
    </clipPath>
    <clipPath id="clip-path-3">
      <rect id="Rectángulo_279484" data-name="Rectángulo 279484" width="23.354" height="10.977" fill="none"/>
    </clipPath>
    <clipPath id="clip-path-4">
      <rect id="Rectángulo_279485" data-name="Rectángulo 279485" width="11.347" height="9.004" fill="none"/>
    </clipPath>
    <clipPath id="clip-path-5">
      <rect id="Rectángulo_279486" data-name="Rectángulo 279486" width="10.993" height="40.716" fill="none"/>
    </clipPath>
    <clipPath id="clip-path-6">
      <rect id="Rectángulo_279487" data-name="Rectángulo 279487" width="9.937" height="48.731" fill="none"/>
    </clipPath>
  </defs>
  <g id="Grupo_842199" data-name="Grupo 842199" clip-path="url(#clip-path)">
    <g id="Grupo_842198" data-name="Grupo 842198">
      <g id="Grupo_842197" data-name="Grupo 842197" clip-path="url(#clip-path)">
        <path id="Trazado_570606" data-name="Trazado 570606" d="M226.809,189.925l-.008,3.431c0,.042,0,.088,0,.13s0,.092-.008.134c0,.075-.008.151-.017.226s-.017.134-.025.2-.021.151-.034.226a.454.454,0,0,0-.013.08c-.008.038-.021.08-.029.117-.017.075-.034.147-.054.222s-.038.13-.059.2-.046.147-.071.218c-.013.034-.021.063-.029.092a1.141,1.141,0,0,0-.046.1c-.029.075-.063.151-.1.226s-.059.13-.088.193-.075.151-.117.226c-.017.034-.033.071-.054.109a.679.679,0,0,0-.046.071c-.05.092-.109.18-.163.268-.038.054-.071.109-.109.163-.067.1-.138.193-.209.289-.029.038-.05.071-.08.109l-.017.017c-.121.155-.251.306-.39.457-.038.038-.075.075-.113.117q-.163.17-.339.339l-.075.075-.088.075c-.071.063-.147.126-.218.189s-.138.117-.209.176-.155.121-.235.184-.147.113-.226.168-.168.117-.251.18-.159.109-.243.163-.18.113-.272.172c-.054.034-.109.071-.168.1s-.122.071-.18.109c-.327.189-.67.364-1.018.532-.092.046-.184.088-.276.13q-.471.22-.968.415l-.126.05c-.3.113-.607.222-.917.323-.054.021-.109.034-.163.05-.256.08-.515.151-.779.222-.2.05-.39.109-.591.159-.272.063-.553.121-.834.176-.163.034-.318.075-.486.1-.038.008-.08.013-.122.021l-.256.038c-.344.059-.691.1-1.043.151-.1.008-.2.025-.306.034l-.193.025c-.344.034-.687.059-1.031.08-.075,0-.151,0-.226.008-.138.008-.277.017-.415.021s-.277,0-.415,0c-.272,0-.549.008-.825,0-.1,0-.2,0-.306,0-.126,0-.256-.017-.381-.021-.256-.008-.511-.021-.767-.042-.109,0-.222-.008-.335-.017s-.239-.029-.36-.042c-.251-.021-.5-.05-.754-.084-.117-.013-.235-.021-.352-.038s-.214-.038-.323-.054c-.268-.042-.532-.088-.8-.138-.126-.025-.251-.042-.377-.067-.151-.034-.3-.067-.452-.1-.067-.013-.134-.025-.2-.042-.31-.075-.62-.151-.922-.239-.071-.021-.142-.046-.214-.067-.109-.029-.214-.067-.318-.1-.31-.1-.616-.2-.918-.31-.084-.034-.176-.063-.26-.1-.042-.017-.084-.029-.122-.046-.235-.092-.457-.193-.683-.293-.025-.013-.054-.025-.084-.038l-4.99,2.9a.239.239,0,0,1,0,.054c0,.038,0,.071,0,.1,0,.013,0,.017,0,.025v.025c0,.021,0,.042-.008.059a.852.852,0,0,1-.017.109.185.185,0,0,1-.008.042c0,.008,0,.017,0,.025s0,.029-.008.042c-.008.042-.021.08-.029.117a.2.2,0,0,0-.013.029.129.129,0,0,1-.008.034c-.008.017-.013.038-.021.054a.782.782,0,0,1-.042.1s0,.013-.008.017v.008a1.3,1.3,0,0,1-.088.151v0a1.416,1.416,0,0,1-.155.193.394.394,0,0,0-.042.042,1.041,1.041,0,0,1-.193.142l-16.326,9.468a1.594,1.594,0,0,1-1.6-.159,4.944,4.944,0,0,1-2.246-3.888,1.589,1.589,0,0,1,.658-1.445l16.326-9.468a.91.91,0,0,1,.172-.08s.008,0,.013,0c.042-.017.084-.025.126-.038.008,0,.017,0,.029,0,.042-.008.088-.017.13-.021h.038a.092.092,0,0,1,.034,0h.046a.868.868,0,0,1,.1,0h.021a.038.038,0,0,1,.021,0,.278.278,0,0,1,.059,0,.841.841,0,0,1,.1.017c.008,0,.017,0,.029,0a.025.025,0,0,0,.017,0l.046.013.092.025a.37.37,0,0,1,.063.021.015.015,0,0,1,.013,0s.008,0,.013,0a.6.6,0,0,1,.092.034c.029.013.059.025.092.038a.022.022,0,0,0,.017.008s.008,0,.013.008c.021.008.042.017.059.025.034.017.063.034.092.05s.05.025.071.038a.088.088,0,0,1,.025.017c.029.017.063.038.1.059.017.008.034.021.054.034l3.054-1.776a6.093,6.093,0,0,1-1.848-4.2l.008-3.431c.008-2.216,1.466-4.432,4.378-6.129,5.869-3.41,15.409-3.41,21.316,0,3.058,1.768,4.537,4.1,4.441,6.414,0-.067.008-.13.008-.2" transform="translate(-102.667 -105.258)" fill="#ccc"/>
        <path id="Trazado_570607" data-name="Trazado 570607" d="M254.5,195.6c0,.088-.007.177-.012.266s-.008.151-.016.227-.016.132-.025.2-.022.151-.036.226-.026.133-.041.2-.034.147-.054.22-.038.132-.058.2-.046.146-.072.218-.048.13-.073.194-.063.153-.1.229-.058.127-.088.19-.076.151-.117.226-.066.122-.1.182c-.052.09-.108.179-.165.268-.035.054-.069.108-.105.161-.067.1-.14.2-.213.292-.032.042-.061.085-.094.126q-.183.231-.391.456c-.036.039-.074.077-.111.115q-.164.172-.341.34c-.054.051-.108.1-.164.152s-.144.127-.218.19-.137.116-.207.173-.156.124-.236.185-.147.113-.224.168-.168.119-.254.178-.159.11-.241.163-.181.116-.272.173c-.116.072-.23.144-.35.214-.326.19-.668.365-1.016.534q-.138.067-.277.131c-.314.145-.635.283-.964.411-.044.017-.085.036-.129.053-.352.134-.715.256-1.082.371-.254.08-.515.15-.775.221-.2.054-.392.111-.592.16-.274.066-.554.122-.834.178-.2.041-.4.088-.607.123-.085.015-.171.027-.257.041q-.517.085-1.042.147c-.1.012-.2.026-.305.036q-.609.065-1.224.1l-.227.011c-.275.014-.551.018-.827.023s-.551.008-.826,0c-.23,0-.46-.01-.69-.019-.255-.01-.51-.023-.764-.041q-.349-.025-.7-.058-.378-.037-.752-.084-.339-.043-.674-.1c-.268-.042-.534-.089-.8-.139s-.556-.106-.83-.168l-.2-.044c-.384-.092-.762-.194-1.135-.3-.107-.032-.213-.066-.319-.1q-.465-.146-.915-.313c-.087-.032-.176-.062-.263-.1-.273-.106-.537-.223-.8-.34-.129-.057-.263-.109-.39-.17-.38-.181-.751-.372-1.106-.577-2.971-1.716-4.455-3.967-4.449-6.215l-.01,3.429c-.006,2.248,1.478,4.5,4.448,6.215.356.205.726.4,1.106.578.126.06.26.112.388.169.226.1.448.2.681.3.04.016.081.029.121.044.086.034.175.064.262.1q.451.167.915.313c.106.034.212.067.319.1.072.021.141.046.213.066.3.087.611.165.922.239l.2.044c.152.035.3.071.455.1.124.026.251.041.375.065.265.051.53.1.8.139.108.017.213.04.321.056s.236.025.354.039q.375.048.752.084c.12.012.239.03.36.04s.225.01.337.018c.254.018.509.031.764.041.128.005.256.017.384.02.1,0,.2,0,.306,0,.276,0,.551,0,.826,0,.137,0,.274,0,.411,0s.277-.014.416-.021l.227-.012c.344-.02.687-.045,1.029-.079.065-.007.129-.016.195-.023.1-.011.2-.024.305-.036q.525-.063,1.042-.147c.085-.014.171-.026.256-.041l.123-.019c.163-.03.322-.071.484-.1.28-.057.56-.112.834-.178.2-.049.4-.106.592-.16.261-.071.521-.141.775-.221.054-.017.112-.03.167-.048q.466-.151.915-.323c.043-.016.085-.035.127-.052.33-.129.651-.267.966-.412.093-.043.186-.086.277-.13.348-.169.69-.344,1.016-.534l.184-.109c.057-.034.109-.07.165-.1.092-.057.184-.114.273-.173s.162-.108.241-.163.172-.119.254-.179.15-.111.224-.168.16-.122.236-.185.14-.115.207-.173.147-.126.217-.19c.029-.026.061-.052.089-.078s.049-.05.075-.075q.178-.168.341-.34c.036-.038.075-.076.11-.115q.207-.225.391-.456l.017-.02c.028-.036.052-.072.079-.108.073-.1.145-.193.212-.291.036-.054.07-.107.1-.161.057-.089.114-.178.165-.267.014-.025.031-.049.045-.073s.037-.073.057-.11c.04-.075.08-.15.116-.226s.06-.127.089-.191.066-.152.1-.228c.013-.034.03-.068.043-.1s.02-.062.031-.093q.038-.109.072-.217c.021-.067.04-.133.058-.2s.037-.146.054-.22c.009-.04.021-.079.029-.119s.008-.054.013-.08c.014-.075.025-.151.036-.226s.018-.132.025-.2.012-.152.016-.227c0-.044.008-.089.01-.133s0-.088,0-.132Z" transform="translate(-130.36 -113.605)" fill="#58ace8"/>
        <path id="Trazado_570608" data-name="Trazado 570608" d="M250.064,177.337c-5.9-3.409-15.447-3.409-21.313,0s-5.835,8.936.07,12.345,15.449,3.41,21.315,0,5.835-8.937-.072-12.347" transform="translate(-130.373 -101.557)" fill="#d4edff"/>
        <path id="Trazado_570609" data-name="Trazado 570609" d="M255.73,186.885a6.274,6.274,0,0,1-3.357,4.1c-4.582,2.659-12.033,2.659-16.648,0a6.359,6.359,0,0,1-3.412-4.14c-.349-1.965.77-4,3.357-5.5,4.582-2.663,12.033-2.663,16.648,0,2.621,1.519,3.761,3.568,3.412,5.545" transform="translate(-134.95 -104.21)" fill="#00a4ad"/>
        <path id="Trazado_570610" data-name="Trazado 570610" d="M255.812,188.823a3.732,3.732,0,0,1-.152.6,3.952,3.952,0,0,1-.24.576,6.026,6.026,0,0,1-1.43,1.83,9.278,9.278,0,0,1-1.536,1.1c-.2.118-.4.227-.614.328a11.721,11.721,0,0,1-1.422.614c-.383.143-.783.269-1.186.383-4.372,1.216-9.782.774-13.426-1.33a8.356,8.356,0,0,1-2.331-1.91,5.147,5.147,0,0,1-.513-.732,4.75,4.75,0,0,1-.446-1,4.379,4.379,0,0,1-.122-.5,4.331,4.331,0,0,1,.455-1.3,6.217,6.217,0,0,1,1.5-1.817c.2-.168.408-.332.636-.492s.5-.332.77-.492c.114-.067.227-.13.345-.189a14.224,14.224,0,0,1,3.172-1.216c4.316-1.119,9.567-.652,13.131,1.405a8.631,8.631,0,0,1,2.2,1.746,5.087,5.087,0,0,1,1.153,2.108q.038.145.063.29" transform="translate(-135.034 -106.148)" fill="#57dee6"/>
        <path id="Trazado_570611" data-name="Trazado 570611" d="M221.71,213.671c0-.025,0-.05,0-.075s0-.05-.006-.076-.005-.05-.008-.076-.007-.052-.011-.078v0h0c0-.025-.008-.05-.013-.075s-.01-.054-.016-.081-.012-.054-.019-.081-.014-.055-.022-.082-.012-.042-.018-.064l0-.005,0-.013c-.008-.027-.017-.053-.026-.08s-.018-.053-.028-.079-.018-.051-.029-.076-.02-.05-.03-.075l-.024-.057,0,0-.005-.013c-.011-.025-.022-.05-.034-.075l-.039-.082c-.016-.031-.031-.062-.048-.093s-.037-.066-.055-.1l-.01-.017-.012-.021c-.036-.062-.075-.123-.115-.183s-.064-.094-.1-.14c-.022-.031-.045-.06-.069-.09l-.059-.074-.06-.07-.06-.067-.012-.013-.005-.005-.046-.048-.065-.064-.068-.064-.069-.06-.036-.029-.008-.006-.026-.021-.068-.052-.067-.048-.066-.044-.066-.04-.016-.009-.049-.027-.063-.033-.041-.019-.01-.005-.012-.005-.062-.026-.062-.023-.01,0-.009,0-.042-.014-.064-.018-.03-.007-.013,0-.02,0-.067-.011-.041,0h-.028l-.073,0h-.08a.864.864,0,0,0-.089.013h0l-.018.005a.735.735,0,0,0-.088.024l-.007,0a.726.726,0,0,0-.119.055l-10.256,5.96a.747.747,0,0,1,.119-.055.686.686,0,0,1,.095-.027l.018-.005a.853.853,0,0,1,.116-.015h.024a1.012,1.012,0,0,1,.118,0h.014a1.192,1.192,0,0,1,.128.02l.013,0a1.193,1.193,0,0,1,.137.038l.009,0a1.516,1.516,0,0,1,.147.059l.01,0c.051.023.1.05.153.08a2.414,2.414,0,0,1,.309.214l.008.006a3,3,0,0,1,.284.265l.005.005a3.625,3.625,0,0,1,.485.657l.01.017a3.772,3.772,0,0,1,.182.36l0,0a3.476,3.476,0,0,1,.14.38l0,.005a3,3,0,0,1,.088.383h0a2.33,2.33,0,0,1,.031.377c0,.059,0,.115-.008.17,0,.005,0,.01,0,.015-.005.05-.012.1-.021.145l0,.018c-.009.045-.021.088-.033.129l-.008.022a1.183,1.183,0,0,1-.043.111s0,.008-.005.012a1.047,1.047,0,0,1-.062.111.841.841,0,0,1-.107.133l-.029.028a.781.781,0,0,1-.13.1l10.255-5.96a.779.779,0,0,0,.131-.1l.029-.028a.842.842,0,0,0,.107-.133l0,0a.944.944,0,0,0,.058-.106l0,0,.005-.012c.011-.023.021-.047.031-.072s.008-.026.013-.038l.008-.023.007-.021c.008-.026.014-.052.021-.079l.006-.029,0-.018c0-.01,0-.018.006-.028s.008-.049.011-.074,0-.028,0-.042l0-.015,0-.017c0-.024,0-.049,0-.073s0-.049,0-.075v0c0-.023,0-.047,0-.07" transform="translate(-121.33 -122.518)" fill="#3a7199"/>
        <path id="Trazado_570612" data-name="Trazado 570612" d="M209.285,225.293c-.855-.493-1.55-.1-1.553.887a3.4,3.4,0,0,0,1.543,2.672c.856.494,1.552.1,1.555-.884a3.4,3.4,0,0,0-1.545-2.675" transform="translate(-120.704 -130.784)" fill="#3a7199"/>
        <path id="Trazado_570613" data-name="Trazado 570613" d="M198.436,221.079q0-.055-.005-.109c0-.036-.005-.073-.009-.11s-.008-.074-.012-.111-.01-.075-.016-.114v0h0q-.009-.055-.019-.109c-.008-.039-.016-.078-.024-.118s-.018-.079-.028-.118-.021-.08-.031-.12-.018-.062-.027-.092l0-.008-.006-.019c-.012-.039-.024-.078-.037-.116s-.026-.077-.04-.115-.027-.073-.041-.11-.029-.073-.044-.109l-.036-.083,0-.007-.008-.018c-.016-.036-.033-.073-.049-.109s-.038-.079-.057-.119-.046-.09-.07-.135-.053-.1-.08-.143l-.014-.024-.017-.03c-.053-.09-.109-.179-.167-.266q-.069-.1-.143-.2c-.033-.044-.066-.088-.1-.131s-.057-.072-.086-.107l-.087-.1-.088-.1L197.07,218l-.008-.008-.067-.07c-.031-.032-.063-.063-.1-.094s-.066-.062-.1-.092-.066-.059-.1-.088l-.052-.042-.011-.009-.038-.031-.1-.076-.1-.07-.1-.064-.1-.058-.022-.013-.072-.04-.092-.048-.059-.028-.015-.007-.018-.008-.09-.039-.091-.034-.016-.005-.013,0-.062-.02-.093-.026-.044-.01-.02,0-.029-.006-.1-.016-.059-.006-.021,0-.02,0c-.036,0-.071,0-.106,0l-.045,0-.035,0-.036,0a1.3,1.3,0,0,0-.13.019h0l-.027.008a1.144,1.144,0,0,0-.128.035l-.01,0a1.1,1.1,0,0,0-.173.08L178.261,226.6a1.094,1.094,0,0,1,.173-.08,1.138,1.138,0,0,1,.138-.04l.027-.008a1.284,1.284,0,0,1,.168-.021l.035,0a1.389,1.389,0,0,1,.171,0l.021,0a1.681,1.681,0,0,1,.187.028l.02,0a1.987,1.987,0,0,1,.2.055l.013,0a2.271,2.271,0,0,1,.214.085l.015.007c.073.034.148.072.223.116a3.432,3.432,0,0,1,.449.311l.011.009a4.285,4.285,0,0,1,.413.386l.007.008a5.243,5.243,0,0,1,.706.956l.014.025a5.478,5.478,0,0,1,.265.524l0,.007a5,5,0,0,1,.2.553l0,.008a4.257,4.257,0,0,1,.129.557h0a3.428,3.428,0,0,1,.044.548c0,.086,0,.168-.012.247l0,.021c-.007.073-.018.143-.031.21l-.005.026c-.014.065-.03.128-.049.188l-.011.033a1.584,1.584,0,0,1-.063.16l-.007.018a1.43,1.43,0,0,1-.09.162,1.2,1.2,0,0,1-.156.193l-.042.041a1.088,1.088,0,0,1-.19.145l16.327-9.466a1.085,1.085,0,0,0,.19-.145l.042-.041a1.223,1.223,0,0,0,.155-.193l0,0a1.384,1.384,0,0,0,.085-.154l0-.005c0-.006.005-.012.008-.018.016-.034.031-.068.044-.1.007-.018.013-.037.018-.056l.011-.033c0-.01.007-.019.01-.029.011-.037.021-.076.03-.115l.008-.042.005-.027c0-.014.006-.027.008-.041.006-.035.012-.071.016-.108,0-.02,0-.041.006-.061s0-.015,0-.022,0-.017,0-.025c0-.035.005-.07.007-.106s0-.072,0-.109v-.007c0-.034,0-.068,0-.1" transform="translate(-103.58 -126.077)" fill="#d4edff"/>
        <path id="Trazado_570614" data-name="Trazado 570614" d="M178.95,239.885c-1.244-.718-2.255-.142-2.259,1.291a4.947,4.947,0,0,0,2.245,3.888c1.246.72,2.258.143,2.262-1.286a4.951,4.951,0,0,0-2.248-3.893" transform="translate(-102.667 -139.207)" fill="#3a7199"/>
        <g id="Grupo_842187" data-name="Grupo 842187" transform="translate(97.361 77.125)" opacity="0.42">
          <g id="Grupo_842186" data-name="Grupo 842186">
            <g id="Grupo_842185" data-name="Grupo 842185" clip-path="url(#clip-path-3)">
              <path id="Trazado_570615" data-name="Trazado 570615" d="M253.991,198.483a9.258,9.258,0,0,1-1.536,1.1c-.2.118-.4.227-.614.328l-19.324-3.972a4.247,4.247,0,0,1-.122-.5,4.328,4.328,0,0,1,.454-1.3Z" transform="translate(-232.395 -189.93)" fill="#fff"/>
              <path id="Trazado_570616" data-name="Trazado 570616" d="M251.207,204.4c-.383.143-.783.269-1.186.383l-15.756-3.24a5.117,5.117,0,0,1-.513-.732Z" transform="translate(-233.183 -193.81)" fill="#fff"/>
              <path id="Trazado_570617" data-name="Trazado 570617" d="M260.884,189.354l-19.652-4.043A14.229,14.229,0,0,1,244.4,184.1l15.327,3.151a5.09,5.09,0,0,1,1.153,2.108" transform="translate(-237.53 -184.095)" fill="#fff"/>
              <path id="Trazado_570618" data-name="Trazado 570618" d="M258.369,192.873a3.982,3.982,0,0,1-.24.577l-21.074-4.334c.2-.168.408-.332.635-.492Z" transform="translate(-235.103 -186.726)" fill="#fff"/>
            </g>
          </g>
        </g>
        <path id="Trazado_570619" data-name="Trazado 570619" d="M375.72,281.666l-47.48-27.093a15.7,15.7,0,0,0-14.244,0l-1.223.711-.719.417c-3.923,2.279-3.9,5.976.042,8.253l47.481,27.094a15.707,15.707,0,0,0,14.252,0l1.942-1.129c3.923-2.279,3.9-5.973-.051-8.253" transform="translate(-179.619 -146.928)" fill="#ccc"/>
        <path id="Trazado_570620" data-name="Trazado 570620" d="M386.69,45.389c0-.056,0-.113-.008-.169,0-.026,0-.052-.006-.077l0-.034c0-.02,0-.04,0-.059-.005-.057-.012-.114-.019-.172s-.016-.117-.025-.176v-.011q-.013-.083-.029-.166c-.012-.061-.024-.122-.037-.183,0-.021-.01-.043-.015-.064l-.009-.038c-.006-.027-.012-.054-.019-.081-.015-.062-.031-.124-.049-.186-.013-.045-.026-.09-.039-.134l-.008-.026-.007-.024q-.028-.09-.058-.181c-.02-.059-.041-.119-.062-.178l-.012-.032-.01-.027-.042-.112c-.022-.057-.045-.114-.068-.17-.017-.041-.034-.081-.052-.121l-.01-.023-.01-.024c-.025-.057-.051-.113-.077-.169s-.058-.123-.089-.184l-.014-.027-.018-.036c-.025-.049-.049-.1-.075-.146s-.067-.119-.1-.179c-.017-.031-.034-.062-.052-.093l-.02-.036c-.031-.052-.065-.1-.1-.153-.046-.075-.092-.151-.141-.224l-.022-.036q-.107-.16-.22-.313l0,0c-.051-.069-.1-.137-.155-.2s-.086-.108-.13-.161l0,0,0,0c-.044-.053-.089-.106-.135-.158s-.09-.1-.136-.151l-.023-.023-.024-.026c-.032-.034-.064-.068-.1-.1q-.073-.074-.147-.146l-.047-.043-.035-.033-.072-.067c-.052-.046-.1-.091-.155-.136l-.07-.057-.035-.028-.051-.042c-.051-.04-.1-.079-.154-.117l-.112-.08-.021-.015-.019-.013q-.074-.051-.149-.1c-.049-.031-.1-.062-.148-.091l-.034-.02L332.549,10.262l-.111-.062q-.072-.039-.143-.074l-.092-.044-.022-.01-.027-.013c-.047-.021-.093-.041-.14-.059s-.094-.037-.141-.053l-.024-.008-.022-.007-.094-.031c-.049-.015-.1-.028-.145-.04l-.069-.016-.03-.007-.044-.01c-.052-.01-.1-.018-.153-.026-.031,0-.062-.006-.092-.009l-.032,0-.031,0c-.056,0-.11-.005-.164-.005l-.071,0-.054,0-.056,0a1.86,1.86,0,0,0-.2.029h0c-.014,0-.028.008-.042.012a1.794,1.794,0,0,0-.2.054l-.015.007a1.7,1.7,0,0,0-.269.124l-4.577,2.66a1.656,1.656,0,0,1,.268-.124,1.736,1.736,0,0,1,.214-.062c.015,0,.028-.009.042-.012a1.965,1.965,0,0,1,.261-.033l.055,0a2.186,2.186,0,0,1,.266.005l.032,0a2.516,2.516,0,0,1,.29.044l.03.007a3.041,3.041,0,0,1,.308.086l.022.007q.163.056.332.133l.022.01c.114.053.23.113.347.18l50.656,29.247c.118.068.235.143.35.222l.021.015c.108.075.213.155.318.239l.035.028q.151.124.3.259l.035.033q.148.14.29.29l.024.025q.151.162.3.335l0,0q.148.177.286.365h0v0c.084.114.164.231.243.349.049.073.094.149.14.223s.08.126.117.191c.018.03.034.061.051.091.061.108.121.217.177.327l.018.035q.1.2.191.406l.009.021q.087.2.163.4l.01.026c.051.139.1.278.139.417,0,.008.005.016.007.025q.06.2.107.4l.009.039c.031.138.059.276.081.412v.006c.022.138.038.276.05.411l0,.034c.011.136.017.271.016.4l-.271,95.379c0,.133-.007.261-.018.384,0,.011,0,.022,0,.033q-.018.17-.048.326l-.008.042q-.031.151-.075.291l-.017.052a2.508,2.508,0,0,1-.1.249l-.012.028a2.214,2.214,0,0,1-.14.255c-.007.01-.015.019-.021.03a2.035,2.035,0,0,1-.136.179c-.018.021-.036.04-.054.059a1.621,1.621,0,0,1-.131.127c-.019.016-.037.034-.057.049a1.633,1.633,0,0,1-.2.141l4.578-2.66a1.652,1.652,0,0,0,.2-.141c.02-.015.038-.032.057-.049a1.708,1.708,0,0,0,.132-.127l.054-.059a1.97,1.97,0,0,0,.136-.18c.007-.01.014-.019.021-.029l0-.007a2.18,2.18,0,0,0,.132-.239l0-.009c0-.009.008-.019.012-.028.024-.053.048-.106.068-.162.01-.028.019-.058.029-.087s.012-.034.017-.051.01-.03.015-.046c.017-.058.033-.118.047-.178.005-.022.009-.044.013-.067s.006-.028.008-.042.009-.041.013-.063q.014-.082.025-.167c0-.031.007-.064.01-.1,0-.011,0-.022,0-.034s0-.026,0-.039c0-.054.008-.109.01-.165s0-.112,0-.169v-.01l.27-95.379c0-.052,0-.105,0-.158" transform="translate(-189.124 -5.684)" fill="#ff860d"/>
        <path id="Trazado_570621" data-name="Trazado 570621" d="M376.838,45.857,326.182,16.611c-1.931-1.114-3.5-.221-3.51,2l-.27,95.379a7.686,7.686,0,0,0,3.486,6.039l50.656,29.247c1.933,1.116,3.5.22,3.509-2l.271-95.379a7.682,7.682,0,0,0-3.486-6.039" transform="translate(-187.333 -9.373)" fill="#b85a00"/>
        <path id="Trazado_570622" data-name="Trazado 570622" d="M380.662,53.262,330.006,24.015c-.4-.233-.733-.044-.734.421l-.185,65.332L329,109.1a1.608,1.608,0,0,0,.73,1.264l23.185,13.386,27.471,15.861c.4.233.735.047.737-.417l.178-52.235.092-32.427a1.616,1.616,0,0,0-.731-1.267" transform="translate(-191.168 -13.896)" fill="#fff"/>
        <path id="Trazado_570623" data-name="Trazado 570623" d="M373.846,95.8l27.519,15.888c.768.443,1.394.087,1.4-.8a3.058,3.058,0,0,0-1.387-2.4l-6-3.463L373.855,92.6c-.768-.443-1.394-.088-1.4.8a3.061,3.061,0,0,0,1.388,2.4" transform="translate(-216.419 -53.693)" fill="#57dee6"/>
        <path id="Trazado_570624" data-name="Trazado 570624" d="M373.811,108.392l27.519,15.888c.768.443,1.394.087,1.4-.8a3.057,3.057,0,0,0-1.388-2.4L373.82,105.191c-.768-.443-1.394-.088-1.4.8a3.061,3.061,0,0,0,1.388,2.4" transform="translate(-216.398 -61.011)" fill="#57dee6"/>
        <path id="Trazado_570625" data-name="Trazado 570625" d="M373.744,131.9l27.519,15.888c.768.443,1.394.088,1.4-.8a3.06,3.06,0,0,0-1.388-2.4L373.753,128.7c-.768-.443-1.394-.087-1.4.8h0a3.058,3.058,0,0,0,1.388,2.4" transform="translate(-216.359 -74.67)" fill="#57dee6"/>
        <path id="Trazado_570626" data-name="Trazado 570626" d="M373.708,144.494l27.519,15.888c.768.443,1.394.088,1.4-.8a3.06,3.06,0,0,0-1.388-2.4l-27.518-15.888c-.768-.443-1.394-.087-1.4.8a3.058,3.058,0,0,0,1.388,2.4" transform="translate(-216.339 -81.988)" fill="#57dee6"/>
        <path id="Trazado_570627" data-name="Trazado 570627" d="M401.169,180.691,373.65,164.8c-.768-.443-1.394-.087-1.4.8a3.06,3.06,0,0,0,1.388,2.4l27.518,15.888c.768.443,1.394.087,1.4-.8a3.061,3.061,0,0,0-1.388-2.4" transform="translate(-216.3 -95.649)" fill="#57dee6"/>
        <path id="Trazado_570628" data-name="Trazado 570628" d="M401.133,193.285,373.614,177.4c-.768-.443-1.394-.087-1.4.8a3.06,3.06,0,0,0,1.388,2.4l27.518,15.888c.768.443,1.394.087,1.4-.8a3.061,3.061,0,0,0-1.388-2.4" transform="translate(-216.279 -102.967)" fill="#57dee6"/>
        <path id="Trazado_570629" data-name="Trazado 570629" d="M373.539,204.106l27.519,15.888c.768.443,1.394.087,1.4-.8a3.06,3.06,0,0,0-1.388-2.4L373.548,200.9c-.768-.443-1.394-.087-1.4.8a3.061,3.061,0,0,0,1.388,2.4" transform="translate(-216.24 -116.626)" fill="#57dee6"/>
        <path id="Trazado_570630" data-name="Trazado 570630" d="M402.419,231.791a3.061,3.061,0,0,0-1.388-2.4L373.512,213.5c-.768-.443-1.394-.087-1.4.8h0a3.061,3.061,0,0,0,1.388,2.4l22.739,13.128,4.78,2.759c.768.444,1.394.087,1.4-.8" transform="translate(-216.22 -123.943)" fill="#57dee6"/>
        <path id="Trazado_570631" data-name="Trazado 570631" d="M346.954,77.9a11.314,11.314,0,0,0-1.691-2.93,8.323,8.323,0,0,0-2.325-2.065,3.919,3.919,0,0,0-2.327-.621,2.3,2.3,0,0,0-1.7.971,3.855,3.855,0,0,0-.636,2.31h0a8.246,8.246,0,0,0,.621,3.035,11.3,11.3,0,0,0,1.692,2.93,8.305,8.305,0,0,0,2.323,2.064,3.92,3.92,0,0,0,2.328.622,2.293,2.293,0,0,0,1.7-.971,3.853,3.853,0,0,0,.636-2.309,8.244,8.244,0,0,0-.621-3.036m-1.12.886-3.463,1.974c-.049.043-.119.038-.207-.012a.517.517,0,0,1-.206-.226l-1.944-3.369a.515.515,0,0,1-.094-.291c0-.1.033-.16.1-.182l.414-.257a.207.207,0,0,1,.217.016.613.613,0,0,1,.214.233l1.309,2.266,2.822-1.608a.207.207,0,0,1,.216.016.617.617,0,0,1,.216.233l.411.734a.51.51,0,0,1,.093.291c0,.1-.031.161-.094.183" transform="translate(-196.555 -41.994)" fill="#57dee6"/>
        <path id="Trazado_570632" data-name="Trazado 570632" d="M346.956,117.427a11.32,11.32,0,0,0-1.691-2.93,8.321,8.321,0,0,0-2.325-2.065,3.916,3.916,0,0,0-2.327-.621,2.3,2.3,0,0,0-1.7.97,3.857,3.857,0,0,0-.636,2.31h0a8.242,8.242,0,0,0,.621,3.034,11.307,11.307,0,0,0,1.692,2.93,8.319,8.319,0,0,0,2.323,2.064,3.917,3.917,0,0,0,2.329.621,2.294,2.294,0,0,0,1.7-.97,3.854,3.854,0,0,0,.636-2.309,8.246,8.246,0,0,0-.621-3.036m-1.12.886-3.463,1.973c-.049.043-.119.039-.207-.012a.513.513,0,0,1-.206-.226l-1.944-3.369a.514.514,0,0,1-.094-.291c0-.1.033-.16.1-.182l.413-.257a.208.208,0,0,1,.217.016.613.613,0,0,1,.214.233l1.309,2.266,2.822-1.608a.208.208,0,0,1,.216.016.62.62,0,0,1,.216.233l.411.734a.511.511,0,0,1,.093.291c0,.1-.031.161-.094.183" transform="translate(-196.556 -64.961)" fill="#57dee6"/>
        <path id="Trazado_570633" data-name="Trazado 570633" d="M346.958,155.97a11.314,11.314,0,0,0-1.691-2.93,8.323,8.323,0,0,0-2.325-2.065,3.918,3.918,0,0,0-2.327-.621,2.3,2.3,0,0,0-1.7.971,3.856,3.856,0,0,0-.636,2.31h0a8.247,8.247,0,0,0,.621,3.035,11.3,11.3,0,0,0,1.692,2.93,8.3,8.3,0,0,0,2.323,2.064,3.92,3.92,0,0,0,2.328.622,2.293,2.293,0,0,0,1.7-.971,3.854,3.854,0,0,0,.636-2.309,8.246,8.246,0,0,0-.621-3.036m-1.12.886-3.463,1.974c-.049.043-.119.038-.207-.012a.517.517,0,0,1-.206-.226l-1.944-3.369a.514.514,0,0,1-.094-.291c0-.1.033-.16.1-.182l.413-.257a.207.207,0,0,1,.217.016.613.613,0,0,1,.215.232l1.309,2.266L345,155.4a.207.207,0,0,1,.216.016.617.617,0,0,1,.216.233l.411.734a.51.51,0,0,1,.093.291c0,.1-.031.161-.094.183" transform="translate(-196.557 -87.356)" fill="#57dee6"/>
        <path id="Trazado_570634" data-name="Trazado 570634" d="M346.96,191.8a11.315,11.315,0,0,0-1.691-2.93,8.32,8.32,0,0,0-2.325-2.065,3.916,3.916,0,0,0-2.327-.621,2.3,2.3,0,0,0-1.7.97,3.857,3.857,0,0,0-.636,2.31h0a8.242,8.242,0,0,0,.621,3.034,11.3,11.3,0,0,0,1.692,2.93,8.319,8.319,0,0,0,2.323,2.064,3.917,3.917,0,0,0,2.328.621,2.294,2.294,0,0,0,1.7-.97,3.855,3.855,0,0,0,.636-2.309,8.243,8.243,0,0,0-.621-3.036m-1.12.886-3.463,1.973c-.049.043-.119.039-.207-.012a.512.512,0,0,1-.206-.226l-1.944-3.369a.514.514,0,0,1-.094-.291c0-.1.033-.16.1-.182l.413-.257a.208.208,0,0,1,.217.016.613.613,0,0,1,.215.233l1.309,2.266L345,191.229a.208.208,0,0,1,.216.016.618.618,0,0,1,.216.233l.411.734a.511.511,0,0,1,.093.291c0,.1-.031.161-.094.183" transform="translate(-196.558 -108.176)" fill="#57dee6"/>
        <path id="Trazado_570635" data-name="Trazado 570635" d="M364.241,22.319l-.056-.029-.075-.039-.059-.03-.093-.044-.066-.031-.028-.013c-.062-.028-.124-.054-.185-.078s-.124-.049-.186-.07l-.024-.008-.066-.022-.1-.031-.047-.013-.081-.022-.063-.017-.065-.015-.081-.018-.043-.01-.075-.013-.093-.015-.033-.005c-.026,0-.051-.005-.076-.008l-.1-.01-.029,0-.067,0-.117,0H362.3l-.05,0c-.049,0-.1,0-.145.007l-.044,0-.031,0c-.074.008-.146.018-.217.031l-.018,0h-.005l-.043.01c-.044.01-.088.02-.13.032l-.062.019c-.027.009-.055.016-.082.026l-.02.008c-.042.015-.082.033-.123.05-.019.008-.039.016-.058.025-.059.028-.117.057-.173.09l-1.292.751c.056-.032.114-.062.173-.09l.058-.025c.041-.018.081-.035.123-.05s.067-.023.1-.034l.062-.019c.043-.012.087-.023.13-.032l.044-.01.023,0c.071-.014.143-.024.217-.031l.075-.007c.048,0,.1-.006.145-.007h.083l.117,0,.1.005.1.01.109.013.093.015.119.022.081.018.128.032.082.023.141.044.066.022q.208.072.422.169l.067.031c.05.023.1.048.152.074l.075.039c.067.036.134.072.2.111l4.541,2.622,1.293-.751L364.387,22.4c-.049-.028-.1-.056-.147-.082" transform="translate(-209.07 -12.648)" fill="#fcee21"/>
        <path id="Trazado_570636" data-name="Trazado 570636" d="M406.251,41.5c0-.013,0-.026,0-.04s0-.056,0-.084,0-.066,0-.1,0-.051-.006-.077,0-.059-.007-.089,0-.039-.005-.059c0-.043-.009-.086-.014-.129,0-.024-.005-.048-.008-.072,0-.008,0-.016,0-.025q-.014-.116-.033-.232v-.005c0-.011,0-.023-.006-.034-.01-.065-.021-.13-.034-.195,0-.011,0-.023-.007-.035-.006-.031-.013-.062-.019-.093s-.015-.075-.023-.113c0-.021-.01-.042-.015-.063s-.016-.067-.023-.1-.012-.052-.018-.078-.016-.062-.025-.093-.018-.068-.027-.1c0-.017-.008-.034-.013-.05-.012-.044-.026-.088-.039-.133-.009-.029-.017-.058-.026-.087l-.007-.024q-.036-.119-.077-.239v0l-.008-.022q-.036-.106-.073-.21l-.013-.033c-.01-.027-.02-.054-.03-.08s-.028-.075-.042-.113l-.029-.072c-.011-.029-.023-.058-.035-.088l-.026-.065c-.018-.042-.036-.085-.054-.127l-.03-.07-.01-.025q-.05-.112-.1-.224l0-.008-.028-.058c-.028-.059-.056-.118-.085-.176l-.013-.026c-.023-.046-.047-.092-.071-.138s-.038-.075-.058-.112l-.011-.02q-.1-.18-.2-.356l-.017-.03-.021-.034q-.146-.247-.3-.486l-.016-.026-.03-.043c-.085-.127-.172-.251-.262-.374h0q-.1-.13-.2-.257l-.008-.011c-.048-.06-.1-.12-.145-.179l-.031-.039,0,0q-.088-.106-.178-.209l-.009-.01-.056-.062c-.038-.043-.076-.086-.115-.128l-.022-.023-.079-.083-.088-.092L403.267,35l-.088-.086-.075-.074-.043-.04-.095-.088-.065-.061-.052-.045-.1-.084-.058-.05-.063-.052-.094-.077-.049-.039-.079-.061-.088-.067-.036-.027c-.035-.026-.071-.051-.107-.076l-.074-.053-.019-.014q-.1-.067-.2-.129h0l-.014-.008q-.089-.057-.18-.11l-.045-.026-4.543-2.623c0-.025,0-.05,0-.075,0-.116-.009-.231-.016-.348v-.021c-.007-.109-.016-.22-.026-.33,0-.016,0-.032-.005-.048,0-.043-.009-.085-.014-.129-.007-.059-.012-.119-.02-.178,0-.032-.009-.064-.014-.1-.007-.049-.014-.1-.021-.148s-.01-.077-.016-.115-.018-.1-.026-.149-.017-.1-.026-.15l-.012-.07c-.013-.072-.029-.144-.044-.216-.008-.042-.016-.084-.026-.127l-.006-.031q-.041-.19-.088-.38v0l-.006-.025c-.03-.118-.06-.236-.093-.354l-.01-.036c-.013-.046-.027-.092-.04-.138-.02-.069-.04-.139-.061-.208l-.023-.071-.049-.152c-.016-.05-.031-.1-.048-.15s-.027-.077-.04-.115-.035-.1-.054-.153c-.012-.033-.023-.067-.035-.1-.021-.059-.044-.119-.067-.178-.016-.042-.031-.085-.048-.127l-.018-.048q-.068-.175-.14-.348v0l-.008-.02q-.068-.163-.139-.326l-.024-.052-.057-.126c-.026-.056-.05-.112-.076-.168-.016-.032-.032-.065-.047-.1l-.084-.173-.056-.115c-.02-.039-.04-.078-.06-.116q-.048-.095-.1-.189c-.017-.031-.032-.064-.049-.1s-.029-.052-.044-.078q-.128-.238-.263-.472l-.034-.061-.013-.021q-.13-.222-.266-.441l-.038-.059c-.079-.125-.159-.249-.241-.372l-.02-.031-.04-.057q-.178-.264-.366-.521c-.015-.02-.028-.04-.042-.06l-.026-.035c-.069-.093-.139-.183-.209-.274l-.082-.107-.014-.017-.1-.125c-.053-.066-.105-.132-.159-.2l-.027-.031c-.038-.045-.077-.09-.115-.134s-.091-.108-.137-.16l-.041-.047-.121-.134c-.039-.044-.078-.088-.119-.131l-.059-.062-.134-.14c-.034-.035-.067-.072-.1-.106l-.073-.072-.142-.14-.089-.088-.086-.08-.15-.14-.08-.074-.1-.085-.152-.132-.072-.062-.113-.092-.147-.12-.061-.049c-.045-.036-.091-.069-.137-.1s-.09-.07-.136-.1l-.044-.034c-.06-.044-.121-.086-.181-.129l-.109-.078-.023-.016q-.152-.1-.306-.2l-.006,0-.046-.028c-.084-.052-.168-.1-.252-.154l-.071-.041q-.115-.067-.23-.128l-.086-.045-.117-.061c-.031-.016-.061-.033-.092-.047-.049-.024-.1-.046-.145-.069l-.1-.049-.043-.021q-.145-.065-.288-.122h0q-.146-.058-.29-.109l-.038-.012-.1-.034c-.049-.016-.1-.034-.147-.048l-.073-.02-.128-.035-.1-.027-.1-.023-.128-.028-.068-.015c-.04-.008-.079-.013-.119-.019l-.143-.024-.052-.008c-.04-.005-.079-.008-.119-.012s-.106-.012-.158-.016l-.046,0c-.036,0-.071,0-.106,0-.059,0-.119-.005-.177-.006l-.05,0c-.027,0-.052,0-.079,0-.077,0-.153.005-.228.01l-.067,0-.1.011-.07.008c-.085.011-.168.024-.251.041l-.009,0-.068.016c-.068.015-.136.031-.2.049-.033.009-.064.02-.1.03s-.084.025-.125.039l-.034.013c-.065.024-.129.051-.192.078-.031.013-.062.025-.093.039-.092.043-.183.09-.271.141l-1.292.751c.088-.051.178-.1.271-.141.03-.014.062-.026.092-.039.063-.027.127-.054.192-.078s.105-.036.158-.053c.032-.01.064-.021.1-.03.066-.018.134-.034.2-.049l.067-.016c.085-.017.172-.031.259-.043l.07-.008c.054-.006.108-.01.163-.015.075-.005.151-.009.228-.01.043,0,.086,0,.129,0,.059,0,.118,0,.178.006s.1,0,.153.008.1.01.158.016.113.013.17.021l.143.024c.062.01.124.021.187.034l.128.028.2.049.127.035c.073.021.147.044.22.068l.1.034q.325.112.66.264l.1.049c.078.037.158.075.237.116l.117.061c.1.055.21.112.316.173s.217.129.324.2l.046.028q.168.107.335.222c.037.025.073.052.11.078.075.053.15.107.225.162l.137.1c.066.05.132.1.2.153l.147.12c.062.051.123.1.184.155l.152.132c.059.053.119.106.177.16l.151.14.174.168.142.14c.059.059.117.119.175.179l.134.14c.06.064.119.129.178.194.04.044.081.089.121.134q.091.1.179.207l.115.134c.062.075.124.152.186.228.034.042.068.083.1.125s.064.083.1.124c.07.091.141.182.209.275l.068.094q.188.256.367.521l.06.088q.122.183.239.369l.04.062q.136.218.266.44c.016.027.031.055.047.083q.135.234.263.472c.031.057.062.115.092.173s.065.125.1.189.078.154.116.231c.029.057.056.115.084.173q.063.132.123.264l.057.126c.057.127.112.253.165.381l.007.016c.055.133.108.266.16.4l.047.126c.035.093.069.186.1.279l.053.153c.03.088.06.176.088.265l.049.152q.043.14.083.279c.013.046.028.092.04.138.036.13.071.26.1.39l.007.025c.034.138.066.276.1.414.009.042.017.084.026.125.019.1.039.191.056.286.009.05.018.1.026.15q.023.132.042.264c.008.049.015.1.021.148.012.092.023.183.034.274,0,.043.01.086.014.129.013.127.023.253.031.378l0,.019c.009.142.015.284.018.425l4.542,2.623q.114.066.226.137l.013.008c.073.046.145.095.217.144l.074.053c.048.034.1.068.142.1l.088.067.127.1.094.077.121.1.1.084.117.106.095.088.117.114.087.086.121.124.079.083c.046.049.092.1.137.151l.055.062c.064.072.127.146.189.221l.031.038q.078.094.154.191c.066.085.132.171.2.257h0c.09.122.177.248.262.374l.047.07q.158.238.3.486l.038.064q.1.176.2.356c.024.044.047.089.07.134l.07.137c.034.067.067.134.1.2l.028.058q.06.128.116.257l.03.07q.041.095.08.191l.035.088q.036.092.072.185l.03.08c.03.081.059.162.086.243l.008.022q.044.133.085.266l.025.085c.018.062.036.123.052.184.009.034.018.067.027.1.015.057.029.114.043.172.008.034.016.067.023.1.013.059.026.118.038.177.006.031.013.061.019.092q.022.116.041.232l.005.031c.014.088.026.175.036.262,0,.024.005.049.008.072.007.063.013.126.019.188,0,.03.005.059.007.089,0,.059.008.118.011.176,0,.028,0,.056,0,.084,0,.083.005.166,0,.248l-.02,6.954,1.293-.751.02-6.954c0-.069,0-.139,0-.208" transform="translate(-222.838 -10.415)" fill="#fcee21"/>
        <path id="Trazado_570637" data-name="Trazado 570637" d="M384.7,35.527,380.153,32.9a15.9,15.9,0,0,0-7.184-12.2c-3.91-2.257-7.1-.517-7.229,3.876L361.2,21.962c-2.551-1.473-4.624-.289-4.632,2.641l-.02,6.954,32.73,18.9.02-6.954a10.146,10.146,0,0,0-4.6-7.973" transform="translate(-207.174 -11.457)" fill="#fc9b00"/>
        <path id="Trazado_570638" data-name="Trazado 570638" d="M127.881,146.761l-45.376,26.2L48.8,153.376l45.376-26.2Z" transform="translate(-28.356 -73.896)" fill="#ccc"/>
        <path id="Trazado_570639" data-name="Trazado 570639" d="M212.421,157.662c.92-.531,1.668-.1,1.671.952a3.659,3.659,0,0,1-1.66,2.875c-.92.531-1.669.106-1.672-.951a3.661,3.661,0,0,1,1.661-2.876" transform="translate(-122.463 -91.478)" fill="#070f1a"/>
        <path id="Trazado_570640" data-name="Trazado 570640" d="M211.481,155.678c1.292-.747,2.345-.148,2.349,1.339a5.146,5.146,0,0,1-2.334,4.043c-1.294.746-2.345.147-2.349-1.339a5.143,5.143,0,0,1,2.334-4.042m.013,4.6a3.659,3.659,0,0,0,1.659-2.875c0-1.057-.75-1.483-1.67-.952a3.662,3.662,0,0,0-1.662,2.875c0,1.057.752,1.483,1.672.951" transform="translate(-121.526 -90.271)" fill="#ffda54"/>
        <path id="Trazado_570641" data-name="Trazado 570641" d="M214.045,115.6l.045,11.793-2.765,1.6L211.28,117.2Z" transform="translate(-122.765 -67.172)" fill="#ffda54"/>
        <path id="Trazado_570642" data-name="Trazado 570642" d="M176.295,70.308l-6.039,3.486L143.538,58.266l1.321-.762,3.387-1.956,1.329-.768Z" transform="translate(-83.404 -31.83)" fill="#4794ff"/>
        <path id="Trazado_570643" data-name="Trazado 570643" d="M175.479,71.369l-.982.567-2.405,1.389-25.4-14.756L149.1,57.18l.982-.567Z" transform="translate(-85.236 -32.895)" fill="#e6e6e6"/>
        <path id="Trazado_570644" data-name="Trazado 570644" d="M174.5,72.722l-2.406,1.389-25.4-14.756,2.406-1.389Z" transform="translate(-85.236 -33.681)" fill="#fff"/>
        <path id="Trazado_570645" data-name="Trazado 570645" d="M207.314,95.331l6.037-3.486.106,33.11-6.038,3.486Zm1.662,8.064.045,11.793,2.765-1.6-.045-11.793-2.765,1.6m1.456,20.761a5.145,5.145,0,0,0,2.334-4.043c0-1.487-1.057-2.085-2.349-1.339a5.143,5.143,0,0,0-2.334,4.043c0,1.487,1.056,2.086,2.349,1.339" transform="translate(-120.461 -53.367)" fill="#3976cc"/>
        <path id="Trazado_570646" data-name="Trazado 570646" d="M170.361,111.74,143.642,96.213l-.106-33.11L170.256,78.63Z" transform="translate(-83.403 -36.666)" fill="#2f61a8"/>
        <path id="Trazado_570647" data-name="Trazado 570647" d="M188.092,172.256c.92-.531,1.668-.1,1.671.952a3.659,3.659,0,0,1-1.66,2.875c-.92.531-1.669.106-1.672-.951a3.661,3.661,0,0,1,1.661-2.876" transform="translate(-108.327 -99.958)" fill="#070f1a"/>
        <path id="Trazado_570648" data-name="Trazado 570648" d="M187.153,170.272c1.292-.746,2.345-.147,2.349,1.339a5.147,5.147,0,0,1-2.334,4.043c-1.294.746-2.345.147-2.349-1.339a5.143,5.143,0,0,1,2.334-4.043m.013,4.6a3.658,3.658,0,0,0,1.66-2.875c0-1.057-.751-1.483-1.671-.952a3.661,3.661,0,0,0-1.661,2.875c0,1.057.752,1.483,1.672.951" transform="translate(-107.39 -98.751)" fill="#ffda54"/>
        <path id="Trazado_570649" data-name="Trazado 570649" d="M189.717,130.2l.045,11.793-2.765,1.6-.045-11.793Z" transform="translate(-108.629 -75.652)" fill="#ffda54"/>
        <path id="Trazado_570650" data-name="Trazado 570650" d="M151.966,84.9l-6.039,3.486L119.21,72.86l1.321-.762,3.387-1.956,1.329-.768Z" transform="translate(-69.268 -40.31)" fill="#4794ff"/>
        <path id="Trazado_570651" data-name="Trazado 570651" d="M151.151,85.963l-.982.567-2.405,1.389-25.4-14.756,2.406-1.389.982-.567Z" transform="translate(-71.1 -41.375)" fill="#e6e6e6"/>
        <path id="Trazado_570652" data-name="Trazado 570652" d="M150.169,87.316l-2.406,1.389-25.4-14.756,2.406-1.389Z" transform="translate(-71.1 -42.161)" fill="#fff"/>
        <path id="Trazado_570653" data-name="Trazado 570653" d="M182.985,109.925l6.037-3.486.106,33.11-6.038,3.486Zm1.662,8.064.045,11.793,2.765-1.6-.045-11.793-2.765,1.6M186.1,138.75a5.144,5.144,0,0,0,2.334-4.043c0-1.487-1.057-2.085-2.349-1.339a5.143,5.143,0,0,0-2.334,4.043c0,1.487,1.056,2.086,2.349,1.339" transform="translate(-106.324 -61.847)" fill="#3976cc"/>
        <path id="Trazado_570654" data-name="Trazado 570654" d="M146.033,126.334l-26.719-15.527-.106-33.11,26.719,15.527Z" transform="translate(-69.267 -45.146)" fill="#2f61a8"/>
        <path id="Trazado_570655" data-name="Trazado 570655" d="M163.764,186.85c.92-.531,1.668-.1,1.671.952a3.659,3.659,0,0,1-1.66,2.875c-.92.531-1.669.106-1.672-.951a3.661,3.661,0,0,1,1.661-2.876" transform="translate(-94.191 -108.437)" fill="#070f1a"/>
        <path id="Trazado_570656" data-name="Trazado 570656" d="M162.825,184.866c1.292-.747,2.345-.148,2.349,1.339a5.146,5.146,0,0,1-2.334,4.043c-1.294.747-2.345.147-2.349-1.339a5.142,5.142,0,0,1,2.334-4.043m.013,4.6a3.659,3.659,0,0,0,1.66-2.875c0-1.057-.751-1.483-1.671-.952a3.661,3.661,0,0,0-1.661,2.876c0,1.057.752,1.483,1.672.951" transform="translate(-93.254 -107.231)" fill="#ffda54"/>
        <path id="Trazado_570657" data-name="Trazado 570657" d="M165.388,144.791l.045,11.793-2.765,1.6-.045-11.793Z" transform="translate(-94.493 -84.132)" fill="#ffda54"/>
        <path id="Trazado_570658" data-name="Trazado 570658" d="M127.638,99.5l-6.039,3.486L94.882,87.454l1.321-.762,3.387-1.956,1.329-.768Z" transform="translate(-55.131 -48.79)" fill="#4794ff"/>
        <path id="Trazado_570659" data-name="Trazado 570659" d="M126.822,100.557l-.982.567-2.405,1.389-25.4-14.756,2.406-1.389.982-.567Z" transform="translate(-56.964 -49.855)" fill="#e6e6e6"/>
        <path id="Trazado_570660" data-name="Trazado 570660" d="M125.841,101.91l-2.406,1.389-25.4-14.756,2.406-1.389Z" transform="translate(-56.964 -50.641)" fill="#fff"/>
        <path id="Trazado_570661" data-name="Trazado 570661" d="M158.657,124.519l6.037-3.486.106,33.11-6.038,3.486Zm1.662,8.064.045,11.793,2.765-1.6-.045-11.793-2.765,1.6m1.456,20.761a5.144,5.144,0,0,0,2.334-4.043c0-1.487-1.057-2.085-2.349-1.339A5.143,5.143,0,0,0,159.425,152c0,1.487,1.056,2.086,2.349,1.339" transform="translate(-92.189 -70.327)" fill="#3976cc"/>
        <path id="Trazado_570662" data-name="Trazado 570662" d="M121.7,140.929,94.985,125.4l-.106-33.11L121.6,107.819Z" transform="translate(-55.13 -53.626)" fill="#2f61a8"/>
        <path id="Trazado_570663" data-name="Trazado 570663" d="M139.435,201.444c.92-.531,1.668-.1,1.671.952a3.659,3.659,0,0,1-1.66,2.875c-.92.531-1.669.106-1.672-.951a3.661,3.661,0,0,1,1.661-2.876" transform="translate(-80.054 -116.917)" fill="#070f1a"/>
        <path id="Trazado_570664" data-name="Trazado 570664" d="M138.5,199.46c1.292-.747,2.345-.148,2.349,1.339a5.146,5.146,0,0,1-2.334,4.043c-1.294.747-2.345.147-2.349-1.339a5.142,5.142,0,0,1,2.334-4.043m.013,4.6a3.659,3.659,0,0,0,1.66-2.875c0-1.057-.751-1.483-1.671-.952a3.661,3.661,0,0,0-1.661,2.876c0,1.057.752,1.483,1.672.951" transform="translate(-79.118 -115.711)" fill="#ffda54"/>
        <path id="Trazado_570665" data-name="Trazado 570665" d="M141.06,159.385l.045,11.793-2.765,1.6-.045-11.793Z" transform="translate(-80.357 -92.612)" fill="#ffda54"/>
        <path id="Trazado_570666" data-name="Trazado 570666" d="M103.31,114.09l-6.039,3.486L70.553,102.048l1.321-.762,3.387-1.956,1.329-.768Z" transform="translate(-40.995 -57.27)" fill="#4794ff"/>
        <path id="Trazado_570667" data-name="Trazado 570667" d="M102.494,115.152l-.982.567-2.405,1.389-25.4-14.756,2.406-1.389.982-.567Z" transform="translate(-42.828 -58.335)" fill="#e6e6e6"/>
        <path id="Trazado_570668" data-name="Trazado 570668" d="M101.512,116.5l-2.406,1.389-25.4-14.756,2.406-1.389Z" transform="translate(-42.828 -59.121)" fill="#fff"/>
        <path id="Trazado_570669" data-name="Trazado 570669" d="M134.329,139.113l6.037-3.486.106,33.11-6.038,3.486Zm1.662,8.064.045,11.793,2.765-1.6-.045-11.793-2.765,1.6m1.456,20.761a5.144,5.144,0,0,0,2.334-4.043c0-1.487-1.057-2.085-2.349-1.339A5.143,5.143,0,0,0,135.1,166.6c0,1.487,1.056,2.086,2.349,1.339" transform="translate(-78.053 -78.807)" fill="#3976cc"/>
        <path id="Trazado_570670" data-name="Trazado 570670" d="M97.376,155.523,70.657,140l-.106-33.11L97.27,122.413Z" transform="translate(-40.994 -62.106)" fill="#2f61a8"/>
        <path id="Trazado_570671" data-name="Trazado 570671" d="M270.008,127.379l3.487,1.43-1.083.629-3.487-1.43Z" transform="translate(-156.261 -74.014)" fill="#fcee21"/>
        <path id="Trazado_570672" data-name="Trazado 570672" d="M288.633,148.88l-1.083.629-.584-4.333,1.083-.629Z" transform="translate(-166.744 -83.99)" fill="#fcee21"/>
        <path id="Trazado_570673" data-name="Trazado 570673" d="M283.626,128.808l3.484,2.595-1.083.629-3.484-2.595-1.548-4.529,1.083-.629Z" transform="translate(-163.274 -72.213)" fill="#fcee21"/>
        <path id="Trazado_570674" data-name="Trazado 570674" d="M268.926,127.079l3.487,1.43,1.569-2.729,1.548,4.529,3.484,2.595-2.53,1.368.584,4.333-3.112-3.683-3.123.084.607-3.645Z" transform="translate(-156.261 -73.085)" fill="#fc9b00"/>
        <path id="Trazado_570675" data-name="Trazado 570675" d="M270.008,96.309l3.487,1.43-1.083.629-3.487-1.43Z" transform="translate(-156.261 -55.961)" fill="#fcee21"/>
        <path id="Trazado_570676" data-name="Trazado 570676" d="M288.633,117.81l-1.083.629-.584-4.333,1.083-.629Z" transform="translate(-166.744 -65.937)" fill="#fcee21"/>
        <path id="Trazado_570677" data-name="Trazado 570677" d="M283.626,97.738l3.484,2.595-1.083.629-3.484-2.595-1.548-4.529,1.083-.629Z" transform="translate(-163.274 -54.159)" fill="#fcee21"/>
        <path id="Trazado_570678" data-name="Trazado 570678" d="M268.926,96.009l3.487,1.43,1.569-2.729,1.548,4.529,3.484,2.595-2.53,1.368.584,4.333-3.112-3.683-3.123.084.607-3.645Z" transform="translate(-156.261 -55.032)" fill="#fc9b00"/>
        <path id="Trazado_570679" data-name="Trazado 570679" d="M270.008,65.239l3.487,1.43-1.083.629-3.487-1.43Z" transform="translate(-156.261 -37.907)" fill="#fcee21"/>
        <path id="Trazado_570680" data-name="Trazado 570680" d="M288.633,86.741l-1.083.629-.584-4.333,1.083-.629Z" transform="translate(-166.744 -47.884)" fill="#fcee21"/>
        <path id="Trazado_570681" data-name="Trazado 570681" d="M283.626,66.668l3.484,2.595-1.083.629L282.543,67.3l-1.548-4.529,1.083-.629Z" transform="translate(-163.274 -36.106)" fill="#fcee21"/>
        <path id="Trazado_570682" data-name="Trazado 570682" d="M268.926,64.939l3.487,1.43,1.569-2.729,1.548,4.529,3.484,2.595-2.53,1.368.584,4.333-3.112-3.683-3.123.084.607-3.645Z" transform="translate(-156.261 -36.979)" fill="#fc9b00"/>
        <path id="Trazado_570683" data-name="Trazado 570683" d="M270.008,34.169,273.5,35.6l-1.083.629-3.487-1.43Z" transform="translate(-156.261 -19.854)" fill="#fcee21"/>
        <path id="Trazado_570684" data-name="Trazado 570684" d="M288.633,55.671l-1.083.629-.584-4.333,1.083-.629Z" transform="translate(-166.744 -29.83)" fill="#fcee21"/>
        <path id="Trazado_570685" data-name="Trazado 570685" d="M283.626,35.6l3.484,2.595-1.083.629-3.484-2.595L280.995,31.7l1.083-.629Z" transform="translate(-163.274 -18.053)" fill="#fcee21"/>
        <path id="Trazado_570686" data-name="Trazado 570686" d="M268.926,33.869l3.487,1.43,1.569-2.729L275.53,37.1l3.484,2.595-2.53,1.368.584,4.333-3.112-3.683-3.123.084.607-3.645Z" transform="translate(-156.261 -18.925)" fill="#fc9b00"/>
        <path id="Trazado_570687" data-name="Trazado 570687" d="M270.008,3.1,273.5,4.53l-1.083.629-3.487-1.43Z" transform="translate(-156.261 -1.801)" fill="#fcee21"/>
        <path id="Trazado_570688" data-name="Trazado 570688" d="M288.633,24.6l-1.083.629-.584-4.333,1.083-.629Z" transform="translate(-166.744 -11.777)" fill="#fcee21"/>
        <path id="Trazado_570689" data-name="Trazado 570689" d="M283.626,4.528l3.484,2.595-1.083.629-3.484-2.595L280.995.629,282.078,0Z" transform="translate(-163.274 0)" fill="#fcee21"/>
        <path id="Trazado_570690" data-name="Trazado 570690" d="M268.926,2.8l3.487,1.43L273.982,1.5,275.53,6.03l3.484,2.595-2.53,1.368.584,4.333-3.112-3.683-3.123.084.607-3.645Z" transform="translate(-156.261 -0.872)" fill="#fc9b00"/>
        <path id="Trazado_570691" data-name="Trazado 570691" d="M343.891,316.373l-2.354-.465-.574-.117-5.8-1.135a1.284,1.284,0,0,1-.779-.151l-55.2-32.079a1.671,1.671,0,0,1-.7-1.529c0-.088,0-.176.008-.264a.569.569,0,0,0,.008-.084c0-.042.008-.08.013-.117a.289.289,0,0,0,.008-.054c.008-.063.021-.126.034-.189a.647.647,0,0,1,.017-.088.178.178,0,0,1,.008-.046c.008-.038.021-.08.029-.117a1.117,1.117,0,0,1,.029-.113c0-.017.013-.038.017-.059s.021-.067.029-.1.017-.054.025-.084.025-.071.038-.1a.612.612,0,0,0,.029-.08.149.149,0,0,1,.017-.038c.025-.071.054-.142.084-.214a.013.013,0,0,0,0-.008c0-.013.013-.021.017-.034.025-.054.05-.109.075-.168a.454.454,0,0,1,.034-.063c.008-.021.021-.046.034-.071s.025-.046.038-.067c.025-.05.05-.1.08-.147a.131.131,0,0,0,.021-.042s.008-.008.008-.013c.042-.067.08-.134.126-.2a.185.185,0,0,0,.017-.029.64.64,0,0,0,.046-.067c.025-.038.05-.075.075-.109s.029-.042.042-.063.046-.059.067-.088a.6.6,0,0,0,.046-.063l.063-.075c.029-.038.059-.075.092-.113a.445.445,0,0,1,.042-.05.566.566,0,0,1,.05-.05c.05-.059.1-.117.159-.172a.588.588,0,0,1,.05-.054c.017-.017.034-.029.05-.046s.05-.05.08-.075c.042-.042.088-.08.134-.117.029-.021.054-.046.08-.067l.151-.113c.025-.017.05-.038.071-.05a2.669,2.669,0,0,1,.23-.147c.071-.042.147-.08.218-.113l.054-.025c.021-.008.042-.021.059-.029.05-.021.1-.038.147-.054a.015.015,0,0,0,.013,0l.122-.038c.021,0,.038,0,.054-.008a.794.794,0,0,1,.1-.021.372.372,0,0,1,.059-.013c.025,0,.046,0,.067-.008s.05,0,.071-.008.029,0,.042,0a1.023,1.023,0,0,1,.113,0c.013,0,.025,0,.034,0h.013a.827.827,0,0,1,.142.017c.008,0,.013,0,.021,0s.029,0,.042.008a.433.433,0,0,1,.071.017c.021,0,.042.017.063.021a.147.147,0,0,1,.038.017.06.06,0,0,1,.025.008.616.616,0,0,1,.117.059s.013,0,.017,0l55.125,32.041.05.029a1.173,1.173,0,0,1,.373.318c.008.008.013.021.025.029l3.955,5.036.327.411Z" transform="translate(-161.813 -160.636)" fill="#ccc"/>
        <path id="Trazado_570692" data-name="Trazado 570692" d="M333.7,306.36c.005-.057.013-.114.021-.171s.021-.127.033-.19c.008-.044.016-.087.026-.13s.02-.081.03-.122c.014-.057.029-.113.045-.17.01-.033.02-.066.03-.1q.03-.1.064-.191c.009-.026.018-.052.028-.078.033-.088.067-.175.105-.261l.014-.031q.051-.116.108-.23l.036-.072q.056-.109.116-.215l.023-.041c.048-.083.1-.164.15-.244.015-.023.031-.046.046-.069.038-.057.078-.114.118-.17.021-.03.044-.06.066-.09.035-.046.071-.092.107-.137s.062-.076.093-.113.06-.069.091-.1c.052-.058.105-.114.159-.169.034-.034.067-.068.1-.1l.08-.075c.044-.041.089-.08.134-.118.027-.023.054-.046.082-.067.049-.039.1-.076.15-.113l.072-.052c.075-.051.15-.1.227-.144s.147-.08.219-.113l.057-.026c.069-.031.138-.059.206-.082l.012,0c.059-.02.117-.035.174-.049l.1-.021c.043-.008.085-.015.126-.019l.072-.007a1.447,1.447,0,0,1,.153,0h.035a1.327,1.327,0,0,1,.176.022l.042.01a1.31,1.31,0,0,1,.131.038l.04.014a1.143,1.143,0,0,1,.156.075l-55.2-32.081-.013-.008a1.169,1.169,0,0,0-.12-.058l-.023-.008-.04-.014c-.021-.007-.041-.016-.062-.022s-.046-.011-.069-.016l-.042-.01-.023-.005a1.339,1.339,0,0,0-.144-.017h-.044c-.038,0-.075,0-.114,0l-.039,0-.072.008c-.023,0-.044,0-.067.006l-.06.013c-.032.006-.064.013-.1.021l-.053.011c-.04.011-.081.024-.121.038l-.013,0c-.049.017-.1.035-.147.056l-.059.027-.057.026c-.072.034-.145.071-.218.114s-.152.093-.227.145c-.024.016-.048.035-.072.052-.05.036-.1.074-.15.113l-.081.067c-.046.039-.091.077-.135.118l-.08.075c-.016.016-.034.031-.05.047s-.034.036-.051.054c-.054.055-.107.111-.159.169-.016.018-.034.035-.05.054s-.026.032-.04.048c-.032.037-.062.075-.093.113s-.041.049-.061.074-.031.042-.047.063-.044.06-.066.09-.031.041-.046.062-.048.072-.072.108l-.046.069-.02.029q-.063.1-.123.2l-.007.013-.023.041c-.028.049-.055.1-.081.146-.012.023-.023.046-.035.069l-.036.071-.032.063c-.026.055-.052.111-.077.168l-.014.031,0,.008c-.031.071-.06.142-.088.214l-.014.039-.028.078c-.013.036-.026.072-.039.107s-.017.056-.025.084-.021.065-.03.1-.013.041-.018.061c-.01.036-.018.073-.027.109s-.021.081-.03.121c0,.014-.008.029-.011.043-.006.029-.01.059-.015.088-.012.063-.024.127-.033.19,0,.018-.007.035-.009.053-.005.04-.008.079-.012.118s-.006.057-.008.085c-.007.089-.011.177-.011.264a1.669,1.669,0,0,0,.7,1.528l55.2,32.081a1.668,1.668,0,0,1-.7-1.528c0-.087,0-.175.01-.263,0-.028.005-.057.008-.085" transform="translate(-161.812 -156.994)" fill="#b85a00"/>
        <path id="Trazado_570693" data-name="Trazado 570693" d="M420.458,354.6l-2.357-.465-.575-.115-5.8-1.135a1.273,1.273,0,0,1-.781-.153l-.029-.014a1.686,1.686,0,0,1-.666-1.514,5.232,5.232,0,0,1,2.371-4.11,1.8,1.8,0,0,1,1.523-.249,1.127,1.127,0,0,1,.522.388c.01.01.014.019.024.029l3.957,5.034.326.412Z" transform="translate(-238.378 -201.488)" fill="#ff860d"/>
        <path id="Trazado_570694" data-name="Trazado 570694" d="M430.549,362.264l-2.357-.465-.575-.115a3.743,3.743,0,0,1,1.121-1.725l.326.412Z" transform="translate(-248.47 -209.157)" fill="#b85a00"/>
        <path id="Trazado_570695" data-name="Trazado 570695" d="M46.082,267.3,23.646,254.342.075,268.04l22.436,12.953Z" transform="translate(-0.044 -147.787)" fill="#ccc"/>
        <path id="Trazado_570696" data-name="Trazado 570696" d="M53.585,264.783l-.031,11.04,23.571-13.7.031-11.039Z" transform="translate(-31.117 -145.895)" fill="#db8700"/>
        <path id="Trazado_570697" data-name="Trazado 570697" d="M.031,252.862,0,263.9l22.436,12.953.031-11.04Z" transform="translate(0 -146.927)" fill="#ab6900"/>
        <path id="Trazado_570698" data-name="Trazado 570698" d="M46.082,233.12,23.646,220.166.075,233.864l22.436,12.953Z" transform="translate(-0.044 -127.929)" fill="#fc9b00"/>
        <path id="Trazado_570699" data-name="Trazado 570699" d="M46.082,233.12,23.646,220.166.075,233.864l22.436,12.953Z" transform="translate(-0.044 -127.929)" fill="#fc9b00"/>
        <path id="Trazado_570700" data-name="Trazado 570700" d="M59.65,243.888l-1.542.9-16.271-9.392,1.546-.9Z" transform="translate(-24.31 -136.255)" fill="#fcbe5b"/>
        <path id="Trazado_570701" data-name="Trazado 570701" d="M67.767,239.173l-1.546.9-16.271-9.392,1.55-.9Z" transform="translate(-29.024 -133.515)" fill="#fcbe5b"/>
        <path id="Trazado_570702" data-name="Trazado 570702" d="M51.536,248.6l-1.546.9-16.266-9.392,1.542-.9Z" transform="translate(-19.596 -138.995)" fill="#fcbe5b"/>
        <path id="Trazado_570703" data-name="Trazado 570703" d="M43.417,253.318l-1.55.9L25.6,244.827l1.546-.9Z" transform="translate(-14.876 -141.734)" fill="#fcbe5b"/>
        <path id="Trazado_570704" data-name="Trazado 570704" d="M35.3,258.034l-1.546.9-16.266-9.392,1.546-.9Z" transform="translate(-10.161 -144.474)" fill="#fcbe5b"/>
        <path id="Trazado_570705" data-name="Trazado 570705" d="M45.1,267.476a22.171,22.171,0,0,1-7.414,1.287c-3.92-.062-14.3-2.015-15.643-3.216a48.67,48.67,0,0,0,9.98,4.345c5.267,1.358,11.282-1.028,13.077-2.416" transform="translate(-12.809 -154.298)" fill="#db8700"/>
        <path id="Trazado_570706" data-name="Trazado 570706" d="M45.1,264.086s-6.728,2.182-9.857-4.373c0,0-6.242,5.81-13.2,2.444,0,0,10.728,6.893,23.057,1.929" transform="translate(-12.809 -150.908)" fill="#fcd23a"/>
        <path id="Trazado_570707" data-name="Trazado 570707" d="M167.537,334.163l-38-21.939a4.956,4.956,0,0,0-4.5,0l-14.663,8.521c-1.238.72-1.232,1.885.017,2.606l38,21.939a4.953,4.953,0,0,0,4.5,0l14.663-8.521c1.238-.719,1.232-1.885-.015-2.6" transform="translate(-63.597 -181.105)" fill="#ccc"/>
        <path id="Trazado_570708" data-name="Trazado 570708" d="M168.446,328.09c0,.033-.005.067-.011.1s-.013.054-.021.081-.016.064-.027.1-.022.052-.033.078-.029.066-.046.1-.028.047-.043.071-.047.075-.075.111c-.016.021-.034.043-.051.064a1.885,1.885,0,0,1-.135.145c-.018.018-.034.035-.053.052s-.064.054-.1.08-.058.048-.09.071-.075.051-.114.076-.078.053-.121.078l-14.663,8.521a3.247,3.247,0,0,1-.3.152l-.091.039c-.081.034-.165.066-.25.095l-.092.031c-.054.017-.109.032-.164.047l-.124.034c-.058.014-.118.026-.177.038-.039.008-.079.017-.119.024-.119.021-.24.038-.362.051l-.113.009c-.072.006-.143.011-.215.014l-.137,0h-.174l-.146,0-.161-.009-.147-.012-.159-.018-.142-.02-.169-.029-.132-.027c-.067-.015-.132-.031-.2-.048l-.109-.029c-.116-.034-.231-.072-.341-.115l-.045-.019a3.469,3.469,0,0,1-.431-.207l-38-21.939a1.594,1.594,0,0,1-.941-1.313l-.015,5.246a1.594,1.594,0,0,0,.941,1.313l38,21.939a3.445,3.445,0,0,0,.431.207l.028.013.017.006c.111.043.225.081.341.115l.028.01c.026.008.054.013.081.02.065.018.131.034.2.049l.053.013.079.013c.056.011.112.021.168.029.023,0,.045.009.068.012l.075.008.158.018.076.008.071,0,.161.009.081,0h.065c.058,0,.116,0,.174,0,.029,0,.058,0,.087,0l.051,0c.072,0,.143-.008.215-.014l.087-.006.026,0q.183-.019.362-.05l.018,0c.034-.006.067-.015.1-.021.059-.012.119-.024.177-.038.042-.01.083-.022.125-.034s.11-.03.164-.047l.035-.01c.02-.006.037-.015.057-.021q.128-.044.25-.095l.091-.039c.1-.047.2-.1.3-.152l14.663-8.521.039-.023c.029-.018.054-.037.082-.055s.078-.05.114-.076.06-.047.09-.071.067-.053.1-.08l.02-.016c.012-.012.021-.024.033-.036a1.8,1.8,0,0,0,.134-.145c.009-.01.021-.021.03-.031s.013-.022.021-.033a1.322,1.322,0,0,0,.075-.111c.01-.015.023-.031.031-.046s.007-.016.011-.024c.018-.033.032-.066.046-.1s.02-.039.027-.058,0-.013.006-.02c.011-.032.019-.063.027-.1s.014-.043.018-.064c0-.006,0-.011,0-.017.006-.034.008-.067.012-.1s.007-.044.007-.065,0-.019,0-.028l.015-5.246c0,.031-.005.062-.008.093" transform="translate(-63.576 -182.776)" fill="#855800"/>
        <path id="Trazado_570709" data-name="Trazado 570709" d="M167.537,312.325l-38-21.939a4.956,4.956,0,0,0-4.5,0l-14.663,8.521c-1.238.72-1.232,1.885.017,2.606l38,21.939a4.953,4.953,0,0,0,4.5,0l14.663-8.521c1.238-.719,1.232-1.885-.015-2.6" transform="translate(-63.597 -168.416)" fill="#c48200"/>
        <path id="Trazado_570710" data-name="Trazado 570710" d="M154.751,324.821a2.5,2.5,0,0,1-1.179-.252l-37.05-21.391,13.7-7.963a2.465,2.465,0,0,1,1.167-.249,2.511,2.511,0,0,1,1.182.253l37.048,21.39-13.7,7.963a2.461,2.461,0,0,1-1.168.25" transform="translate(-67.706 -171.392)" fill="#ffb729"/>
        <path id="Trazado_570711" data-name="Trazado 570711" d="M176.1,318.057c0,.058,0,.116-.008.174s-.006.1-.011.15-.01.087-.016.13-.014.1-.023.148-.018.087-.027.13-.023.1-.036.145-.024.087-.038.13-.031.1-.048.144-.031.085-.048.127-.041.1-.063.15-.038.084-.058.125-.05.1-.077.148-.044.08-.067.12c-.034.059-.071.117-.109.176-.023.035-.045.071-.069.106-.044.064-.091.128-.14.191-.021.028-.041.056-.063.084-.08.1-.166.2-.256.3-.023.026-.049.05-.072.075q-.107.112-.224.223c-.036.033-.071.067-.108.1s-.094.083-.143.124-.09.076-.136.114-.1.082-.155.122l-.146.11c-.055.04-.111.079-.168.118s-.1.072-.158.107-.119.076-.18.114-.15.094-.229.14c-.214.124-.439.24-.667.35l-.182.086c-.206.1-.416.186-.632.27l-.085.035c-.231.088-.469.168-.71.243-.167.053-.338.1-.509.145-.129.036-.258.073-.389.1-.179.044-.363.08-.545.117-.133.027-.265.057-.4.081l-.166.026q-.34.056-.685.1l-.2.024c-.132.014-.265.022-.4.033-.222.018-.445.035-.668.045-.142.006-.285.009-.429.012-.18,0-.361.005-.541,0-.151,0-.3-.007-.454-.013-.167-.007-.334-.015-.5-.027s-.3-.023-.457-.038-.329-.034-.493-.055c-.148-.019-.3-.039-.443-.062q-.263-.041-.523-.091c-.138-.026-.275-.053-.411-.083-.207-.046-.411-.1-.614-.15-.131-.035-.264-.067-.393-.106l-.209-.065q-.305-.1-.6-.205c-.057-.021-.115-.041-.172-.063-.179-.069-.352-.146-.525-.223-.085-.038-.173-.072-.256-.111-.249-.119-.492-.244-.725-.379a5.5,5.5,0,0,1-2.819-3.251,3.419,3.419,0,0,1-.1-.828h0l-.026,5.322c0,1.475.97,2.953,2.92,4.079.233.134.475.26.725.378.083.04.171.074.256.111.147.066.292.134.445.194l.08.029c.057.022.115.042.173.063q.3.109.6.205l.209.065c.047.014.092.03.139.043.083.023.17.04.253.062.2.054.407.105.615.151.055.012.108.029.163.04.081.017.165.027.246.043.174.033.349.064.525.091.07.011.139.026.209.036s.155.016.232.026c.164.021.328.039.494.055.079.008.156.02.235.026s.148.007.222.012c.167.011.334.02.5.027.083,0,.167.011.25.013.067,0,.134,0,.2,0,.181,0,.362,0,.543,0,.089,0,.179,0,.269,0,.053,0,.106-.008.16-.01.224-.01.446-.026.668-.044.089-.008.18-.009.269-.018.043,0,.085-.011.129-.016l.2-.024q.344-.042.684-.1l.168-.027.08-.013c.108-.02.212-.046.318-.068.184-.037.367-.073.547-.117.131-.032.259-.07.388-.1.171-.047.343-.093.51-.145.036-.011.073-.02.109-.031q.305-.1.6-.212l.085-.035c.216-.084.426-.175.632-.27l.182-.085c.229-.111.453-.226.667-.351l.121-.071c.037-.022.071-.046.107-.068.061-.038.122-.076.181-.114l.157-.106c.057-.039.113-.078.168-.118s.1-.073.147-.11l.155-.121.136-.113c.049-.041.1-.083.143-.125.019-.017.04-.034.059-.051s.032-.033.049-.049q.117-.111.225-.224c.024-.025.049-.05.072-.075q.136-.148.256-.3l.011-.013c.018-.023.034-.048.052-.071.048-.063.1-.127.139-.191.024-.035.046-.07.069-.106.038-.058.075-.117.109-.176.009-.016.021-.032.029-.048s.024-.048.037-.072c.026-.049.052-.1.076-.148s.04-.083.059-.126.043-.1.063-.15c.009-.022.02-.044.028-.067s.013-.041.02-.061c.017-.047.032-.1.047-.143s.026-.087.038-.131.024-.1.035-.145c.006-.026.014-.052.019-.078s.005-.035.008-.052c.009-.049.016-.1.023-.149s.012-.086.016-.129.008-.1.01-.15c0-.029.005-.058.006-.087s0-.058,0-.087Z" transform="translate(-90.813 -184.777)" fill="#855800"/>
        <path id="Trazado_570712" data-name="Trazado 570712" d="M173.214,306.074a15.41,15.41,0,0,0-13.986,0c-3.85,2.238-3.83,5.864.046,8.1a15.41,15.41,0,0,0,13.984,0c3.85-2.238,3.83-5.864-.043-8.1" transform="translate(-90.85 -176.871)" fill="#c48200"/>
        <path id="Trazado_570713" data-name="Trazado 570713" d="M174.447,308.267a12.6,12.6,0,0,0-11.43,0c-3.146,1.829-3.13,4.792.037,6.621a12.594,12.594,0,0,0,11.428,0c3.147-1.829,3.13-4.792-.035-6.619" transform="translate(-93.357 -178.324)" fill="#ffb729"/>
        <path id="Trazado_570714" data-name="Trazado 570714" d="M177.745,287.412c0,.023,0,.047,0,.073a.1.1,0,0,0,0,.026.363.363,0,0,1,0,.049c0,.028-.007.054-.011.081,0,.011,0,.021,0,.03s0,.03-.006.047-.011.054-.017.079,0,.023-.006.034a.405.405,0,0,1-.009.043c-.006.026-.015.053-.023.079a.2.2,0,0,1-.011.036.248.248,0,0,1-.01.039.736.736,0,0,1-.03.079c0,.013-.008.026-.013.036s-.009.026-.015.039a.8.8,0,0,1-.036.079c-.006.015-.013.028-.019.041s-.008.021-.015.034-.03.051-.043.079-.015.028-.023.041l-.017.03c-.017.028-.034.054-.051.079s-.021.034-.034.051-.006.013-.01.019l-.06.079s-.007.009-.009.013-.023.032-.036.047,0,0,0,.006c-.021.026-.045.052-.066.077s-.036.045-.058.069-.047.049-.072.075-.041.045-.062.064-.056.054-.083.079c-.011.011-.022.019-.032.03l-.032.03c-.03.026-.062.052-.094.077-.011.011-.021.019-.034.03a.371.371,0,0,0-.032.028l-.1.077c-.01.008-.023.019-.036.028l-.034.026c-.043.03-.088.06-.135.09l-.017.013c-.01.009-.023.015-.034.024-.064.041-.131.081-.2.122s-.171.1-.261.141c-.023.013-.052.026-.077.039-.068.034-.139.069-.209.1l-.071.032-.284.116-.049.017c-.081.03-.165.06-.248.088l-.1.032-.137.043-.118.032c-.047.015-.094.026-.141.039s-.079.021-.12.03-.1.024-.143.034l-.122.026-.147.03c-.039.006-.075.013-.114.021-.107.017-.214.036-.321.051-.015,0-.03,0-.047,0-.092.013-.186.023-.282.034l-.107.011c-.062.006-.122.01-.184.015l-.114.008c-.064,0-.128.006-.19.008-.036,0-.073,0-.109,0-.056,0-.109,0-.165,0l-.118,0-.176,0c-.034,0-.07,0-.1,0l-.16-.007-.116,0-.175-.013-.1-.007-.205-.019-.067-.006c-.092-.011-.182-.021-.271-.034l-.043-.006c-.079-.013-.156-.023-.231-.036l-.1-.019-.176-.032-.09-.021c-.064-.013-.129-.028-.193-.043l-.1-.026c-.058-.015-.116-.03-.171-.047l-.1-.026-.269-.083c-.015-.007-.032-.011-.047-.017-.1-.034-.2-.071-.3-.109-.041-.015-.079-.032-.12-.047l-.094-.039c-.045-.019-.088-.041-.132-.06l-.086-.039-.139-.07c-.023-.013-.049-.023-.072-.036-.068-.036-.137-.073-.2-.111s-.137-.081-.2-.124c-.021-.013-.043-.028-.064-.043-.043-.028-.086-.055-.124-.083s-.047-.036-.071-.053-.072-.052-.107-.079-.047-.039-.069-.058-.064-.052-.094-.077-.045-.041-.069-.062l-.081-.077c-.023-.021-.043-.043-.064-.064s-.051-.051-.075-.077-.036-.045-.056-.066-.047-.054-.068-.079a.818.818,0,0,1-.049-.068c-.021-.026-.043-.052-.062-.079s-.03-.047-.045-.069-.036-.053-.052-.081-.028-.047-.041-.07-.032-.054-.045-.081-.023-.049-.034-.073-.026-.053-.038-.081a.783.783,0,0,1-.028-.075c-.01-.026-.021-.054-.03-.079s-.015-.052-.023-.077-.017-.054-.024-.081-.01-.049-.015-.075-.013-.053-.017-.081-.007-.051-.011-.077-.006-.054-.008-.081,0-.052,0-.077,0-.054,0-.081v-.009a2.819,2.819,0,0,1,1.649-2.305,8.832,8.832,0,0,1,8.019,0,2.84,2.84,0,0,1,1.675,2.34" transform="translate(-96.689 -165.084)" fill="#c1272d"/>
        <path id="Trazado_570715" data-name="Trazado 570715" d="M177.73,291.957l0,3.938-.007,7.182v.015c0,.028,0,.056,0,.083s0,.058-.006.088-.006.049-.008.072-.009.058-.015.086a.1.1,0,0,1,0,.023c0,.017-.007.034-.011.051l-.019.083c-.008.026-.015.049-.023.075s-.017.054-.026.081l-.013.03c0,.015-.01.03-.015.043-.013.03-.023.057-.036.088s-.021.047-.034.07-.028.058-.043.086a.272.272,0,0,0-.021.039c-.007.01-.011.019-.017.03-.019.034-.041.066-.062.1a.68.68,0,0,1-.041.06c-.026.039-.052.075-.079.111-.011.013-.019.026-.03.039l-.006.009a2.211,2.211,0,0,1-.147.171c-.013.015-.028.03-.041.043a1.776,1.776,0,0,1-.129.129c-.01.008-.019.019-.028.028a.233.233,0,0,0-.034.03c-.028.024-.053.049-.081.073l-.079.064c-.03.023-.058.047-.09.071l-.083.062-.1.068-.09.06c-.034.023-.069.045-.1.066s-.041.026-.062.036-.047.03-.071.043c-.083.049-.171.1-.261.141-.026.015-.051.026-.077.039-.069.034-.139.068-.21.1l-.072.032c-.092.041-.186.079-.282.115l-.052.017c-.081.03-.163.06-.246.088l-.041.013-.062.019c-.045.015-.092.03-.137.043l-.117.034c-.047.013-.094.026-.141.036s-.079.021-.12.03-.1.023-.143.034l-.122.026-.148.03-.083.015-.03.007c-.107.019-.214.036-.321.051l-.045,0c-.094.013-.191.026-.284.034a.329.329,0,0,1-.045,0l-.062.006c-.062.007-.122.011-.184.015-.038,0-.077.007-.113.009-.064,0-.128.006-.193.008-.026,0-.051,0-.077,0a.158.158,0,0,0-.03,0l-.167,0-.116,0-.175,0c-.03,0-.062,0-.092,0h-.015c-.053,0-.107,0-.16-.006-.038,0-.077,0-.113,0-.058,0-.116-.006-.173-.011l-.1-.006a.009.009,0,0,0-.007,0c-.068,0-.134-.013-.2-.019l-.07-.006c-.09-.011-.18-.021-.269-.034h0l-.036-.006c-.079-.011-.158-.024-.235-.036l-.1-.019-.175-.032a.067.067,0,0,0-.019,0c-.023-.006-.047-.01-.071-.015l-.192-.045-.1-.026-.171-.045a.462.462,0,0,0-.053-.015l-.045-.013c-.09-.028-.177-.053-.267-.083-.015-.006-.032-.01-.047-.015-.1-.034-.2-.072-.3-.111a.141.141,0,0,1-.03-.011l-.09-.036-.094-.039c-.045-.019-.09-.041-.133-.06l-.085-.039-.141-.071c-.023-.013-.047-.023-.071-.034-.068-.036-.137-.075-.2-.114a2.839,2.839,0,0,1-1.675-2.338l.006-7.15,0-3.963c0,.028,0,.055,0,.081s0,.051,0,.077.006.055.008.081.007.051.011.077.01.054.017.081.008.052.015.075.015.056.024.081.015.052.023.077.019.053.03.079a.786.786,0,0,0,.028.075c.013.028.026.054.038.081s.021.049.034.073.03.054.045.081.026.047.041.07.034.054.052.081.03.045.045.069.041.053.062.079a.818.818,0,0,0,.049.068c.021.026.045.054.068.079s.036.045.056.066.049.052.075.077.041.043.064.064l.081.077c.024.021.045.043.069.062s.062.052.094.077.045.041.069.058.07.053.107.079.045.036.071.053.081.056.124.083c.021.015.043.03.064.043.066.043.132.084.2.124s.135.075.2.111c.023.013.049.023.072.036l.139.07.086.039c.045.019.088.041.132.06l.094.039c.041.015.079.032.12.047.1.039.2.075.3.109.015.006.032.01.047.017l.269.083.1.026c.055.017.113.032.171.047l.1.026c.064.015.129.03.193.043l.09.021.176.032.1.019c.075.013.152.023.231.036l.043.006c.09.013.18.023.271.034l.067.006.205.019.1.007.175.013.116,0,.16.007c.034,0,.07,0,.1,0l.176,0,.118,0c.055,0,.109,0,.165,0,.036,0,.072,0,.109,0,.062,0,.126,0,.19-.008l.114-.008c.062,0,.122-.009.184-.015l.107-.011c.1-.01.191-.021.282-.034.017,0,.032,0,.047,0,.107-.015.214-.034.32-.051.039-.009.075-.015.114-.021l.147-.03.122-.026c.047-.01.1-.021.143-.034s.079-.019.12-.03.094-.023.141-.039l.118-.032.137-.043.1-.032c.083-.028.167-.058.248-.088l.049-.017.284-.116.071-.032c.07-.032.141-.066.209-.1.026-.013.054-.026.077-.039.09-.045.178-.092.261-.141s.137-.081.2-.122c.01-.009.023-.015.034-.024l.017-.013c.047-.03.092-.06.135-.09l.034-.026c.013-.008.026-.019.036-.028l.1-.077a.371.371,0,0,1,.032-.028c.013-.011.023-.019.034-.03.032-.026.064-.051.094-.077l.032-.03c.01-.011.021-.019.032-.03.028-.026.057-.051.083-.079s.043-.043.062-.064.051-.049.072-.075.039-.045.058-.069.045-.051.066-.077c0,0,0,0,0-.006s.023-.032.036-.047.007-.009.009-.013l.06-.079c0-.006.006-.013.01-.019s.023-.034.034-.051.034-.052.051-.079l.017-.03c.009-.013.015-.028.023-.041s.03-.053.043-.079.01-.024.015-.034.013-.026.019-.041a.8.8,0,0,0,.036-.079c.006-.013.009-.026.015-.038s.008-.024.013-.036a.736.736,0,0,0,.03-.079.248.248,0,0,0,.01-.039.2.2,0,0,0,.011-.036c.008-.026.017-.054.023-.079a.405.405,0,0,0,.009-.043c0-.011,0-.021.006-.034s.013-.054.017-.079,0-.032.006-.047,0-.019,0-.03c0-.028.009-.053.011-.081a.363.363,0,0,0,0-.049.1.1,0,0,1,0-.026c0-.026,0-.049,0-.073" transform="translate(-96.674 -169.628)" fill="#855800"/>
        <g id="Grupo_842190" data-name="Grupo 842190" transform="translate(69.706 119.026)" style="mix-blend-mode: multiply;isolation: isolate">
          <g id="Grupo_842189" data-name="Grupo 842189">
            <g id="Grupo_842188" data-name="Grupo 842188" clip-path="url(#clip-path-4)">
              <path id="Trazado_570716" data-name="Trazado 570716" d="M177.732,287.412l0,3.938c-.017.017-.036.032-.053.047s-.062.054-.094.079-.07.056-.107.083l-.1.075-.116.081c-.036.023-.07.049-.109.073s-.081.053-.124.079c-.023.015-.047.032-.073.047s-.055.032-.083.049c-.148.085-.3.165-.458.24-.042.021-.083.041-.126.06-.141.064-.287.126-.434.186-.019.006-.039.015-.059.023-.134.052-.272.1-.413.145-.023.009-.049.013-.075.021-.114.036-.231.069-.351.1-.088.024-.176.049-.265.071-.124.03-.25.056-.377.081-.072.015-.145.034-.218.047a.4.4,0,0,0-.056.009l-.116.019c-.155.023-.312.047-.47.066l-.137.015c-.03,0-.06.008-.09.01-.062.006-.124.009-.183.013-.154.013-.306.023-.46.03l-.109.009c-.062,0-.124,0-.186,0-.124,0-.248,0-.372,0-.047,0-.092,0-.139,0s-.113-.007-.171-.009c-.116,0-.231-.01-.345-.019-.051,0-.1,0-.154-.006l-.16-.019c-.114-.01-.227-.023-.34-.039-.054-.006-.107-.008-.16-.017s-.095-.017-.144-.026c-.122-.017-.242-.039-.361-.062-.056-.011-.114-.017-.169-.03-.037-.007-.073-.019-.112-.028-.143-.03-.282-.066-.424-.1-.055-.015-.115-.026-.173-.043-.032-.008-.064-.019-.1-.03l-.144-.045c-.139-.043-.275-.09-.413-.141-.039-.013-.079-.028-.117-.043l-.056-.019c-.1-.041-.2-.088-.3-.132-.06-.028-.12-.052-.178-.077-.171-.081-.338-.169-.5-.261a5.6,5.6,0,0,1-.87-.614l0-3.963v-.009a2.818,2.818,0,0,1,1.649-2.305,8.832,8.832,0,0,1,8.019,0,2.84,2.84,0,0,1,1.675,2.34" transform="translate(-166.385 -284.109)" fill="#ccc"/>
            </g>
          </g>
        </g>
        <path id="Trazado_570717" data-name="Trazado 570717" d="M176.755,279.843c0,.048,0,.1-.006.144s0,.083-.009.124-.009.072-.014.108-.012.082-.019.123-.014.072-.022.108-.018.08-.029.12-.021.072-.031.108-.026.079-.039.119-.026.07-.04.105-.034.083-.052.124-.031.069-.049.1-.041.082-.063.123-.036.066-.055.1c-.028.049-.059.1-.09.145l-.057.088c-.036.053-.076.106-.116.158-.018.023-.033.047-.052.07q-.1.125-.212.248l-.06.062q-.089.093-.186.185l-.089.083q-.058.052-.118.1l-.113.094-.129.1-.121.091-.139.1-.131.088c-.049.032-.1.063-.149.094s-.124.078-.19.116c-.177.1-.363.2-.552.29l-.151.071c-.171.079-.345.154-.523.223l-.071.029c-.191.073-.389.139-.588.2-.139.044-.28.082-.422.121-.107.029-.213.06-.322.087-.148.036-.3.066-.452.1-.11.023-.22.048-.331.067l-.137.022q-.282.046-.568.08l-.166.02c-.109.012-.22.018-.329.028-.184.015-.368.029-.553.037-.118.005-.236.008-.355.01-.149,0-.3,0-.448,0-.125,0-.25-.005-.375-.01s-.277-.013-.414-.022-.253-.02-.379-.032-.273-.028-.408-.046-.245-.033-.367-.052c-.145-.023-.29-.048-.434-.075-.114-.022-.227-.044-.34-.069-.171-.038-.34-.08-.508-.124-.109-.029-.219-.056-.326-.088l-.173-.054c-.168-.053-.334-.11-.5-.17-.047-.018-.1-.034-.142-.052-.148-.057-.291-.121-.434-.184-.07-.031-.143-.059-.212-.092-.206-.1-.407-.2-.6-.313a4.554,4.554,0,0,1-2.334-2.692,2.808,2.808,0,0,1-.084-.685h0l-.022,4.406c0,1.221.8,2.445,2.417,3.377.193.111.394.215.6.313.069.033.142.061.212.093.122.054.242.11.368.16l.066.024.143.052q.244.091.5.17l.173.054.115.036c.068.02.14.033.209.052.168.044.337.087.509.124.046.01.089.024.135.033.067.014.136.023.2.036.144.027.289.053.435.075.058.009.115.022.173.03s.128.013.192.021c.136.018.272.033.409.046.065.006.129.016.194.022s.123.005.184.01c.138.01.277.017.415.022.069,0,.138.009.207.011s.111,0,.167,0c.15,0,.3,0,.449,0,.074,0,.149,0,.222,0,.044,0,.088-.007.132-.009.185-.008.369-.021.553-.037.074-.006.149-.008.223-.015l.106-.013.167-.02q.285-.035.566-.08l.139-.022.066-.01c.089-.016.175-.039.264-.057.152-.031.3-.061.453-.1.109-.026.215-.057.322-.087.142-.039.284-.077.422-.121.029-.009.06-.016.09-.026.169-.054.335-.114.5-.176l.071-.029c.179-.07.353-.145.523-.223l.151-.071c.189-.092.375-.187.553-.29l.1-.059.089-.056c.051-.031.1-.063.15-.1s.087-.058.13-.088.093-.065.139-.1l.122-.091.128-.1c.039-.031.075-.062.112-.094s.08-.069.119-.1l.048-.042.041-.041c.065-.061.127-.123.186-.185l.059-.062q.113-.123.212-.248l.01-.011c.015-.019.028-.039.043-.059.04-.052.079-.105.115-.158.02-.029.038-.058.057-.087.031-.049.062-.1.09-.146.008-.013.017-.026.024-.04s.02-.039.031-.059c.022-.041.043-.081.063-.122s.033-.07.048-.1.036-.083.052-.124c.007-.018.016-.037.023-.056s.01-.034.016-.05c.014-.039.027-.079.039-.118s.022-.072.032-.108.02-.08.029-.119c.005-.022.011-.043.016-.064s0-.029.007-.043c.008-.041.013-.082.019-.124s.01-.071.013-.107.007-.083.009-.124c0-.024,0-.048.005-.072s0-.048,0-.072Z" transform="translate(-93.177 -162.578)" fill="#855800"/>
        <path id="Trazado_570718" data-name="Trazado 570718" d="M174.369,269.922a12.757,12.757,0,0,0-11.579,0c-3.188,1.853-3.171,4.855.038,6.707a12.757,12.757,0,0,0,11.577,0c3.188-1.853,3.171-4.855-.036-6.706" transform="translate(-93.207 -156.032)" fill="#c48200"/>
        <path id="Trazado_570719" data-name="Trazado 570719" d="M175.39,271.738a10.427,10.427,0,0,0-9.463,0c-2.6,1.514-2.591,3.967.031,5.481a10.426,10.426,0,0,0,9.461,0c2.6-1.514,2.591-3.967-.029-5.48" transform="translate(-95.283 -157.235)" fill="#ffb729"/>
        <path id="Trazado_570720" data-name="Trazado 570720" d="M294.641,405.666c-6.274-3.622-16.409-3.622-22.642,0s-6.2,9.493.074,13.115,16.405,3.62,22.638,0,6.2-9.493-.07-13.113" transform="translate(-155.342 -234.136)" fill="#ccc"/>
        <path id="Trazado_570721" data-name="Trazado 570721" d="M311.363,422.332s3.775-1.944,5.853-1.353,1.466,2.318,1.08,3.026-5.492,4.081-8.238,4.248c-3.334.2-1.741-4.812-1.741-4.812Z" transform="translate(-178.929 -244.547)" fill="#011326"/>
        <path id="Trazado_570722" data-name="Trazado 570722" d="M284.865,413.511s3.775-1.943,5.853-1.353,1.466,2.318,1.08,3.026-5.492,4.081-8.238,4.248c-3.334.2-1.741-4.812-1.741-4.812Z" transform="translate(-163.532 -239.422)" fill="#011326"/>
        <path id="Trazado_570723" data-name="Trazado 570723" d="M293.22,312.978s-.2,1.625-.528,4.244c-1.32,10.583-4.7,37.437-5.174,38.933-.021.059-.042.117-.067.172a2.817,2.817,0,0,1-2.677,1.2.362.362,0,0,1-.067,0,4.628,4.628,0,0,1-2.769-.985c-.306-.268-.243-2.476-.21-5.823.168-12.556,1.751-40.893,1.751-40.893Z" transform="translate(-163.683 -180.024)" fill="#03284f"/>
        <g id="Grupo_842193" data-name="Grupo 842193" transform="translate(118.017 136.787)" style="mix-blend-mode: multiply;isolation: isolate">
          <g id="Grupo_842192" data-name="Grupo 842192">
            <g id="Grupo_842191" data-name="Grupo 842191" clip-path="url(#clip-path-5)">
              <path id="Trazado_570724" data-name="Trazado 570724" d="M292.692,326.914c-1.32,10.583-4.7,37.437-5.174,38.932-.021.059-.042.117-.067.172a2.679,2.679,0,0,1-2.677,1.2.364.364,0,0,1-.067,0,4.628,4.628,0,0,1-2.769-.985c-.306-.268-.243-2.476-.21-5.823,2.434.532,3.963-1.613,4.692-3.729.9-2.614,4.324-30.177,4.324-30.177Z" transform="translate(-281.7 -326.503)" fill="#ccc"/>
            </g>
          </g>
        </g>
        <path id="Trazado_570725" data-name="Trazado 570725" d="M310.028,222.721s.534,3.556-.641,4.041-3.2-.424-4.06-1.439,0-5.77,0-5.77Z" transform="translate(-177.191 -127.573)" fill="#ff8b66"/>
        <path id="Trazado_570726" data-name="Trazado 570726" d="M309.794,199.026a4.915,4.915,0,0,0,.569-3.946,3.049,3.049,0,0,0-2.561-2.4,4.845,4.845,0,0,1-4,2.586c-3.027.315-5.827,2.334-4.9,6.811s6.765,4.716,6.765,4.716l1.73-2.131Z" transform="translate(-173.575 -111.96)" fill="#03284f"/>
        <path id="Trazado_570727" data-name="Trazado 570727" d="M370.057,240.979a5.526,5.526,0,0,0,1.1-1.693c.2-.73.133-2.623,1.295-2.523s2.091,1.76,1.892,3.22-2.955,2.988-2.955,2.988Z" transform="translate(-215.024 -137.57)" fill="#ff9e7f"/>
        <path id="Trazado_570728" data-name="Trazado 570728" d="M313.05,314.081s-2.1,46.666-3.255,47.967-5.015.748-5.686-.217c-.3-.429-.6-4.318-1-9.557-1.048-13.95-1.765-38.193-1.765-38.193Z" transform="translate(-175.1 -182.499)" fill="#03284f"/>
        <g id="Grupo_842196" data-name="Grupo 842196" transform="translate(128.013 131.583)" style="mix-blend-mode: multiply;isolation: isolate">
          <g id="Grupo_842195" data-name="Grupo 842195">
            <g id="Grupo_842194" data-name="Grupo 842194" clip-path="url(#clip-path-6)">
              <path id="Trazado_570729" data-name="Trazado 570729" d="M315.5,314.081s-2.1,46.666-3.255,47.967-5.015.748-5.686-.217c-.3-.429-.6-4.318-1-9.557,1.6-1.207,3.368-.148,5.193-5.375,2.39-6.84,2.943-32.058,2.943-32.058s.224-.3.583-.76Z" transform="translate(-305.56 -314.081)" fill="#ccc"/>
            </g>
          </g>
        </g>
        <path id="Trazado_570730" data-name="Trazado 570730" d="M281.891,234.855c-.009.034-3.581,7.867-4.193,10.1s6.166,11.2,6.166,11.2,2.843-5.073,2.8-5.292-1.924-6.648-2.274-6.954-2.5-9.047-2.5-9.047" transform="translate(-161.335 -136.464)" fill="#03284f"/>
        <path id="Trazado_570731" data-name="Trazado 570731" d="M291.212,227.118a4.451,4.451,0,0,0-4.665,3.922c-.532,3.724.638,20.858.532,23.2s-1.171,8.088-1.171,8.088,7.556,7.663,18.943,2.447a100.22,100.22,0,0,1-.745-10c.106-2.873.958-18.091.745-20.007s-10.619-7.845-13.639-7.646" transform="translate(-166.128 -131.965)" fill="#053b75"/>
        <path id="Trazado_570732" data-name="Trazado 570732" d="M323.256,242.167a2.981,2.981,0,0,0-2.835,2.29c-.482,1.928,5.72,14.265,8.846,14.958,2.646.586,14.165-13.482,14.165-13.482s-1.024-2.048-2.41-2.109l-10.465,9.3s-4.946-11.261-7.3-10.955" transform="translate(-186.166 -140.709)" fill="#03284f"/>
        <path id="Trazado_570733" data-name="Trazado 570733" d="M315.546,215.263a2.008,2.008,0,0,1-1.721.415,1.178,1.178,0,0,1-.726-.434,4.755,4.755,0,0,1-.836-2.641c-.932-.283-1.619-2.795-.6-2.994s1.522,1.735,1.522,1.735l.379-.161c-.244-.848.2-.97.765-1.291s.045-1.664.649-2.184a11.238,11.238,0,0,1,1.773-1.073c.045.61.443,7.177-1.2,8.629" transform="translate(-180.799 -120.066)" fill="#ff9e7f"/>
      </g>
    </g>
  </g>
</svg>
