<svg xmlns="http://www.w3.org/2000/svg" width="108" height="107" viewBox="0 0 108 107">
  <g id="Grupo_842160" data-name="Grupo 842160" transform="translate(-0.033)">
    <rect id="Rectángulo_38178" data-name="Rectángulo 38178" width="108" height="107" transform="translate(0.033)" fill="none"/>
    <g id="Grupo_842164" data-name="Grupo 842164" transform="translate(-1989.198 -7.886)">
      <path id="Trazado_570522" data-name="Trazado 570522" d="M2066.671,38.347a1.828,1.828,0,0,1-.981,1.214c-2.732.278-5.472.075-8.207.112q-4.271.059-8.542-.009c-.894-.015-1.177.26-1.18,1.164-.009,2.842.155,5.686-.086,8.526.158.954.906.484,1.357.486,8.057.031,16.115.051,24.171-.006a3.158,3.158,0,0,1,3.02,1.5c1.134,1.707,2.444,3.3,3.673,4.939.381.508.878,1.08.4,1.7-1.773,2.318-3.205,4.906-5.415,6.879a1.446,1.446,0,0,0-.523-.246c-4.73-.091-9.461-.01-14.191-.041-.918-.006-1.85,0-1.985-1.25.326-1.161,1.292-1.083,2.178-1.089,3.684-.023,7.369-.005,11.053-.012a8.73,8.73,0,0,0,1.885-.089,2.327,2.327,0,0,0,.466-.262c.968-1.048,1.745-2.245,2.623-3.364a1.482,1.482,0,0,0,.078-2.011c-.728-.969-1.445-1.945-2.188-2.9a2.619,2.619,0,0,0-2.249-.928q-11.3-.027-22.606,0c-.456,0-.981-.1-1.2.5-.214,2.51-.016,5.019-.094,7.524-.161,1.132.468,1.473,1.461,1.494a32.55,32.55,0,0,1,3.741.078c.927.127,1.8.414,1.374,1.694-.09.989-.79,1.088-1.571,1.086-1.521-.006-3.041-.018-4.561.011-.34.006-.919-.268-.9.481a3.947,3.947,0,0,1,.1,1.561q.012,12.155.013,24.31a3.234,3.234,0,0,0,.155,1.7q3.558.039,7.116.078c1.976.019,2.133.175,2.139,2.2,0,1.689-.011,3.378,0,5.067.009,1.05-.465,1.537-1.532,1.535q-12.428-.017-24.856,0c-1.156,0-1.6-.538-1.586-1.651q.046-2.77,0-5.541c-.021-1.159.543-1.622,1.64-1.616,2.111.009,4.226-.081,6.331.032,1.286.069,1.666-.245,1.655-1.6-.069-9.024-.036-18.049-.036-27.074,0-3.642-.047-7.284.027-10.924.023-1.133-.325-1.384-1.412-1.378-8.127.046-16.254,0-24.38.055a3.055,3.055,0,0,1-2.87-1.472C2009,49.059,2007.7,47.4,2006.4,45.73a1.523,1.523,0,0,1-.007-2.126q2.175-2.818,4.274-5.693a1.956,1.956,0,0,1,1.744-.863c2.849.026,5.7.021,8.549,0,.809-.005,1.471.155,1.737,1.027.3,1.556-.791,1.792-1.885,1.848-2.048.1-4.1.086-6.153.017a3.456,3.456,0,0,0-3.194,1.59c-2.73,3.783-2.519,2.651-.022,6.2.483.651.861,1.4,1.672,1.74,7.915.15,15.826.028,23.737.059.475,0,.962.012,1.279-.443.271-2.6.089-5.209.1-7.813,0-.8-.356-1.293-1.23-1.266q-4.489.118-8.972,0c-1.734-.045-2.134-.479-2.127-1.94.323-.932,1.066-1.025,1.913-1.021,3.27.02,6.541-.034,9.809.033.993.02,1.227-.264,1.215-1.231-.054-4.324.011-8.651-.042-12.975-.018-1.456.437-2.158,2-2.071,1.682.093,3.376.063,5.061.008,1.307-.043,1.924.545,1.739,1.8-.224,1.507.418,1.767,1.795,1.756,8.016-.064,16.034-.008,24.05-.057a2.834,2.834,0,0,1,2.632,1.333c1.168,1.689,2.4,3.344,3.7,4.932a1.867,1.867,0,0,1-.042,2.775,20.123,20.123,0,0,0-2.721,3.679c-1.3,2.557-3.422,2.747-5.844,2.516a1.434,1.434,0,0,1-1.439-1.2c-.3-1.055.417-1.3,1.189-1.424s1.582,0,2.366-.1a1.748,1.748,0,0,0,.4-.2,45.466,45.466,0,0,0,2.894-3.718c.332-.424.666-.949.3-1.436-1.08-1.45-1.829-3.185-3.483-4.155-.677-.049-1.351-.006-2.028-.008q-10.56,0-21.115.009c-.662,0-1.38-.185-1.945.364-.5,2.571-.116,5.164-.217,7.742-.058,1.233.663,1.456,1.718,1.451,4.952-.022,9.9-.032,14.857,0C2065.643,36.879,2066.8,36.777,2066.671,38.347Z" transform="translate(0)" fill="#010100"/>
      <path id="Trazado_570523" data-name="Trazado 570523" d="M2032.783,75.259c.1,1.153.829,1.413,1.849,1.412,3.135,0,6.271.038,9.407.062a2.029,2.029,0,0,1,.516,1.453c.042,1.685.1,3.374-.023,5.055a2.324,2.324,0,0,1-2.646,2.49c-7.427.039-14.855.015-22.283.02a2.938,2.938,0,0,1-1.487-.459c-2.768-3.284-2.687-3.228-.235-6.74a3.845,3.845,0,0,1,3.869-1.929c2.034.166,4.092.026,6.14.044.982.008,1.631-.327,1.688-1.4A6.021,6.021,0,0,0,2032.783,75.259Z" transform="translate(-6.879 -37.189)" fill="#b8e969"/>
      <path id="Trazado_570524" data-name="Trazado 570524" d="M2137.257,120.022c.313-.568.851-.29,1.273-.291,7.869-.015,15.74.01,23.609-.019a2.183,2.183,0,0,1,2.1,1.034,33.557,33.557,0,0,0,2.374,3.167c.588.7.727,1.247.057,2.017-1.1,1.268-2.091,2.637-3.128,3.964-.522-.388-1.122-.183-1.68-.186-4.135-.021-8.271-.01-12.406-.008,4.185,0,8.371,0,12.556.013.51,0,1.055-.17,1.531.176-.413.5-.98.265-1.471.267-4.1.022-8.2,0-12.305.02-.651,0-1.406-.217-1.815.583-.179.185-.044.532-.339.657l-3.34.034c-.016-1.012-.581-1.325-1.524-1.292-1.254.044-2.521-.093-3.763.036-1.562.163-2.106-.405-1.739-1.905a3.28,3.28,0,0,1,1.708-.18q10.219.009,20.438,0a9.824,9.824,0,0,0,1.581-.064,3,3,0,0,0,2.046-4.858c-.682-.918-1.17-2.032-2.292-2.566a5.5,5.5,0,0,0-1.878-.131q-9.448-.01-18.9-.008a8.664,8.664,0,0,1-2.2-.118A1.422,1.422,0,0,1,2137.257,120.022Z" transform="translate(-89.573 -67.512)" fill="#e44242"/>
      <path id="Trazado_570525" data-name="Trazado 570525" d="M2163.5,50.179a5.846,5.846,0,0,1-2.579.191,1.422,1.422,0,0,0-1.563,1.189l-3.059,0c-.279-1.145-1.147-1.185-2.1-1.182-5.113.017-10.227-.062-15.337.05-1.532.034-1.823-.516-1.555-1.8a1.692,1.692,0,0,1,.451-.321,7.453,7.453,0,0,1,2.355-.169q9.968-.012,19.937-.005a3.4,3.4,0,0,0,2.768-.866c1.3-1.39,1.389-2.353.3-3.927a11.756,11.756,0,0,1-1.566-2.366.934.934,0,0,1,0-.526c.606-.473,1.349-.062,1.992-.3,1.159,1.489,2.307,2.987,3.486,4.461a.746.746,0,0,1,0,1.1c-1.179,1.471-2.33,2.965-3.491,4.45-.924-.284-1.867.031-2.794-.139A14.288,14.288,0,0,1,2163.5,50.179Z" transform="translate(-89.627 -13.211)" fill="#f9d207"/>
      <path id="Trazado_570526" data-name="Trazado 570526" d="M2170.172,155.307l.339-.657c.283,1.142,1.217.994,2.04,1,4.274.013,8.548,0,12.822.015.554,0,1.175-.207,1.64.314a29.26,29.26,0,0,1-5,.141c-3.716.078-7.435-.1-11.151.092C2170.4,156.084,2170.321,155.669,2170.172,155.307Z" transform="translate(-112.13 -91.402)" fill="#070707"/>
      <path id="Trazado_570527" data-name="Trazado 570527" d="M2172.348,159c.458-.377,1-.232,1.515-.232q7.318-.012,14.636,0c0,.093,0,.185,0,.278a77.239,77.239,0,0,1-9.421.147A31.726,31.726,0,0,1,2172.348,159Z" transform="translate(-113.615 -94.196)"/>
      <path id="Trazado_570528" data-name="Trazado 570528" d="M2137.494,120.793c.088.006.177.011.266.015a1.4,1.4,0,0,0,.912.158q10.959,0,21.918,0a1.594,1.594,0,0,0,.919-.14c.9,1.164,1.831,2.3,2.681,3.5,1.177,1.657-.479,4.955-2.673,4.983-7.763.1-15.529.037-23.293.02a2.38,2.38,0,0,1-.738-.267Q2137.49,124.927,2137.494,120.793Z" transform="translate(-89.81 -68.282)" fill="#eb6161"/>
      <path id="Trazado_570529" data-name="Trazado 570529" d="M2117.245,96.376c-.024-.367-.069-.734-.069-1.1q-.005-32.494,0-64.988c0-.367.044-.734.068-1.1a1.835,1.835,0,0,1,1.94-.086,1.5,1.5,0,0,1,.311.527,9.146,9.146,0,0,1,.171,2.518q.007,30.472,0,60.944a11.728,11.728,0,0,1-.083,2.054C2119.33,96.589,2118.706,96.911,2117.245,96.376Z" transform="translate(-75.939 -5.509)" fill="#aaa"/>
      <path id="Trazado_570530" data-name="Trazado 570530" d="M2117.278,96.658c1.623.259,1.917-.584,1.914-2.017q-.049-31.56-.021-63.121c0-.685.028-1.37.043-2.055,1.169-.42,1.712-.186,1.71,1.232q-.047,33.553-.025,67.106a1.773,1.773,0,0,1-.151,1.077c-.464.023-.928.062-1.392.064C2117.126,98.96,2117.126,98.956,2117.278,96.658Z" transform="translate(-75.971 -5.79)" fill="gray"/>
      <path id="Trazado_570531" data-name="Trazado 570531" d="M2087.606,256.809l22.187,0a1.19,1.19,0,0,1,.27.563c.418,2.794.191,3.058-2.608,3.058h-17.821c-2.46,0-2.458,0-2.341-2.431A1.8,1.8,0,0,1,2087.606,256.809Z" transform="translate(-55.508 -161.162)" fill="#595959"/>
      <path id="Trazado_570532" data-name="Trazado 570532" d="M2022.585,88.234q11.673,0,23.346-.009c2.182,0,2.574-.392,2.58-2.556.005-2,0-4,0-5.995,1.286-.334,1.745.1,1.685,1.475-.122,2.775-.077,5.556-.1,8.335a.922.922,0,0,1-.562.158c-8.385-.029-16.77-.059-25.154.016a5.493,5.493,0,0,0-.571.114A4.728,4.728,0,0,1,2022.585,88.234Z" transform="translate(-11.348 -40.131)" fill="#a0e32d"/>
      <path id="Trazado_570533" data-name="Trazado 570533" d="M2124.729,98.335q0-33.819.018-67.639c0-1.154-.062-2.03-1.552-1.776l-.081.008a.308.308,0,0,1,.017-.391.534.534,0,0,1,.422.029c1.27-.3,1.62.2,1.618,1.478q-.052,33.464-.041,66.929C2125.128,97.431,2125.445,98.057,2124.729,98.335Z" transform="translate(-79.952 -5.245)" fill="#898989"/>
      <path id="Trazado_570534" data-name="Trazado 570534" d="M2052.408,110.478l.308,0c.053.582-.362.533-.729.533q-12.508,0-25.015-.013c-.181,0-.363-.152-.544-.232,0-.09,0-.181,0-.272a1.567,1.567,0,0,1,1.066-.168q11.919-.007,23.838,0A1.777,1.777,0,0,1,2052.408,110.478Z" transform="translate(-13.973 -61.128)" fill="#a9f02e"/>
      <path id="Trazado_570535" data-name="Trazado 570535" d="M2086.99,256.809c0,3.468,0,3.468,3.493,3.468h16.465c2.226,0,2.226,0,2.228-2.2q0-.633,0-1.267c1.3.961.507,2.29.465,3.408-.029.787-1.046.434-1.615.436-6.792.027-13.584-.011-20.376.051-1.031.009-1.388-.311-1.2-1.225C2086.628,258.59,2085.847,257.5,2086.99,256.809Z" transform="translate(-54.893 -161.162)" fill="#5c5c5c"/>
      <path id="Trazado_570536" data-name="Trazado 570536" d="M2165.093,114.356H2138.7V114.2h26.45Z" transform="translate(-90.64 -63.78)" fill="#040404"/>
      <path id="Trazado_570537" data-name="Trazado 570537" d="M2137.485,39.975c.016-.484.392-.411.68-.41q11.671.034,23.341.081a.348.348,0,0,1-.122.519,3.179,3.179,0,0,1-1.69.26c-7.039,0-14.077.03-21.116-.013a2.52,2.52,0,0,1-.6-.1A1.534,1.534,0,0,1,2137.485,39.975Z" transform="translate(-89.809 -12.812)" fill="#feed61"/>
      <ellipse id="Elipse_7063" data-name="Elipse 7063" cx="5.746" cy="0.092" rx="5.746" ry="0.092" transform="translate(2028.538 93.782)" fill="#040404"/>
      <path id="Trazado_570538" data-name="Trazado 570538" d="M2138.535,250.98h8.135v.159h-8.094Z" transform="translate(-90.526 -157.182)" fill="#040404"/>
      <path id="Trazado_570539" data-name="Trazado 570539" d="M2137.485,40.867l.269,0a1.987,1.987,0,0,1,.491,1.293q.1,2.82,0,5.642a1.863,1.863,0,0,1-.49,1.289c-.088.012-.177.022-.267.029Q2137.487,44.995,2137.485,40.867Z" transform="translate(-89.809 -13.704)" fill="#f7de5a"/>
      <path id="Trazado_570540" data-name="Trazado 570540" d="M2140.43,158.083h4.949l0,.125h-4.951Z" transform="translate(-91.82 -93.746)" fill="#090909"/>
      <path id="Trazado_570541" data-name="Trazado 570541" d="M2119.754,28.217l-.486.106a3.06,3.06,0,0,1-1.779-.044A2.447,2.447,0,0,1,2119.754,28.217Z" transform="translate(-76.154 -4.896)" fill="gray"/>
      <path id="Trazado_570542" data-name="Trazado 570542" d="M2213.259,39.923c-.009-.109-.018-.218-.028-.327a3.97,3.97,0,0,1,2.217.1c-.593.43-1.276.145-1.911.242A.166.166,0,0,1,2213.259,39.923Z" transform="translate(-141.533 -12.762)" fill="#fede08"/>
      <path id="Trazado_570543" data-name="Trazado 570543" d="M2117.426,28.945l1.78.044a.346.346,0,0,1,.047.257l-1.856-.005Z" transform="translate(-76.091 -5.563)" fill="#b7b7b7"/>
      <path id="Trazado_570544" data-name="Trazado 570544" d="M2162.1,120.857c-.371.422-.872.291-1.329.291q-10.55.01-21.1,0c-.457,0-.959.127-1.321-.31Z" transform="translate(-90.398 -68.314)" fill="#f06363"/>
      <path id="Trazado_570545" data-name="Trazado 570545" d="M2189.1,151.108h-14.514l-.022-.347h1.844c3.687,0,7.375-.007,11.063.008.556,0,1.176-.189,1.629.343Z" transform="translate(-115.131 -88.73)" fill="#e94444"/>
      <path id="Trazado_570546" data-name="Trazado 570546" d="M2138.335,49.1q0-4.112,0-8.224l.318,0a3.255,3.255,0,0,0,1.7.153c6.784.012,13.568,0,20.352.016a3.262,3.262,0,0,1,1.7.152c.716.9,1.438,1.8,2.146,2.714.6.775,1.158,1.671.536,2.589-.789,1.162-1.312,2.658-3.207,2.644C2154.033,49.09,2146.184,49.108,2138.335,49.1Z" transform="translate(-90.389 -13.709)" fill="#fbe15c"/>
      <path id="Trazado_570547" data-name="Trazado 570547" d="M2163.091,41.188q-10.978,0-21.956-.016c-.6,0-1.275.234-1.8-.3l23.462-.006.278.015A2.554,2.554,0,0,1,2163.091,41.188Z" transform="translate(-91.073 -13.7)" fill="#f7de5a"/>
      <path id="Trazado_570548" data-name="Trazado 570548" d="M2156.768,70.437c.1.358-.171.3-.351.3q-8.364.006-16.728,0a.541.541,0,0,1-.294-.053c-.052-.037-.039-.163-.055-.249a10.04,10.04,0,0,1,3.121-.141c4.254-.027,8.51-.016,12.764,0A2.921,2.921,0,0,1,2156.768,70.437Z" transform="translate(-91.075 -33.763)" fill="#fee207"/>
      <path id="Trazado_570549" data-name="Trazado 570549" d="M2156.767,70.167l-17.429,0c.311-.388.751-.313,1.163-.313q7.552,0,15.1,0C2156.017,69.853,2156.457,69.779,2156.767,70.167Z" transform="translate(-91.074 -33.493)" fill="#f5ce06"/>
      <path id="Trazado_570550" data-name="Trazado 570550" d="M2213.459,71.115h-3.077a4.374,4.374,0,0,1,3.11-.027Z" transform="translate(-139.587 -34.147)" fill="#fee207"/>
      <path id="Trazado_570551" data-name="Trazado 570551" d="M2052.409,110.1l-25.979.018c.4-.506.966-.325,1.468-.326q11.515-.015,23.03,0C2051.434,109.793,2051.994,109.625,2052.409,110.1Z" transform="translate(-13.974 -60.75)" fill="#9ddf2b"/>
    </g>
  </g>
</svg>
