<svg xmlns="http://www.w3.org/2000/svg" xmlns:xlink="http://www.w3.org/1999/xlink" width="436.848" height="338.243" viewBox="0 0 436.848 338.243">
  <defs>
    <clipPath id="clip-path">
      <rect id="Rect치ngulo_279130" data-name="Rect치ngulo 279130" width="159.053" height="88.332" fill="none"/>
    </clipPath>
  </defs>
  <g id="Grupo_842206" data-name="Grupo 842206" transform="translate(-391.499 -6248.001)">
    <g id="Grupo_842156" data-name="Grupo 842156" transform="translate(437 6251.001)">
      <g id="Grupo_841638" data-name="Grupo 841638" clip-path="url(#clip-path)">
        <path id="Trazado_565584" data-name="Trazado 565584" d="M49.373,42.387a3.184,3.184,0,1,1,3.18-3.188v.013a3.179,3.179,0,0,1-3.18,3.175" transform="translate(31.546 -36.029)" fill="#ffce7e"/>
        <path id="Trazado_565585" data-name="Trazado 565585" d="M49.373,58.62a3.184,3.184,0,1,1,3.178-3.188v.01a3.177,3.177,0,0,1-3.178,3.178" transform="translate(31.546 -24.938)" fill="#ffce7e"/>
        <path id="Trazado_565586" data-name="Trazado 565586" d="M49.373,74.853a3.184,3.184,0,1,1,3.178-3.188v.01a3.177,3.177,0,0,1-3.178,3.178" transform="translate(31.546 -13.847)" fill="#ffce7e"/>
        <path id="Trazado_565587" data-name="Trazado 565587" d="M49.373,91.086A3.184,3.184,0,1,1,52.551,87.9v.01a3.177,3.177,0,0,1-3.178,3.178" transform="translate(31.546 -2.756)" fill="#ffce7e"/>
        <path id="Trazado_565588" data-name="Trazado 565588" d="M33.979,42.387A3.184,3.184,0,1,1,37.156,39.2v.017a3.18,3.18,0,0,1-3.176,3.175" transform="translate(21.026 -36.029)" fill="#ffce7e"/>
        <path id="Trazado_565589" data-name="Trazado 565589" d="M33.979,58.62a3.184,3.184,0,1,1,3.176-3.191v.013a3.179,3.179,0,0,1-3.18,3.178" transform="translate(21.026 -24.938)" fill="#ffce7e"/>
        <path id="Trazado_565590" data-name="Trazado 565590" d="M33.979,74.853a3.184,3.184,0,1,1,3.176-3.191v.013a3.179,3.179,0,0,1-3.18,3.178" transform="translate(21.026 -13.847)" fill="#ffce7e"/>
        <path id="Trazado_565591" data-name="Trazado 565591" d="M33.979,91.086a3.184,3.184,0,1,1,3.176-3.191v.013a3.179,3.179,0,0,1-3.18,3.178" transform="translate(21.026 -2.756)" fill="#ffce7e"/>
        <path id="Trazado_565592" data-name="Trazado 565592" d="M18.584,42.387a3.184,3.184,0,1,1,3.18-3.188v.013a3.179,3.179,0,0,1-3.18,3.175" transform="translate(10.509 -36.029)" fill="#ffce7e"/>
        <path id="Trazado_565593" data-name="Trazado 565593" d="M18.584,58.62a3.184,3.184,0,1,1,3.178-3.188v.01a3.177,3.177,0,0,1-3.178,3.178" transform="translate(10.509 -24.938)" fill="#ffce7e"/>
        <path id="Trazado_565594" data-name="Trazado 565594" d="M18.584,74.853a3.184,3.184,0,1,1,3.178-3.188v.01a3.177,3.177,0,0,1-3.178,3.178" transform="translate(10.509 -13.847)" fill="#ffce7e"/>
        <path id="Trazado_565595" data-name="Trazado 565595" d="M18.584,91.086A3.184,3.184,0,1,1,21.762,87.9v.01a3.177,3.177,0,0,1-3.178,3.178" transform="translate(10.509 -2.756)" fill="#ffce7e"/>
        <path id="Trazado_565596" data-name="Trazado 565596" d="M3.188,42.387A3.184,3.184,0,1,1,6.368,39.2v.013a3.179,3.179,0,0,1-3.18,3.175" transform="translate(-0.01 -36.029)" fill="#ffce7e"/>
        <path id="Trazado_565597" data-name="Trazado 565597" d="M3.188,58.62a3.184,3.184,0,1,1,3.178-3.188v.01A3.177,3.177,0,0,1,3.188,58.62Z" transform="translate(-0.01 -24.938)" fill="#ffce7e"/>
        <path id="Trazado_565598" data-name="Trazado 565598" d="M3.188,74.853a3.184,3.184,0,1,1,3.178-3.188v.01A3.177,3.177,0,0,1,3.188,74.853Z" transform="translate(-0.01 -13.847)" fill="#ffce7e"/>
        <path id="Trazado_565599" data-name="Trazado 565599" d="M3.188,91.086A3.184,3.184,0,1,1,6.366,87.9v.01A3.177,3.177,0,0,1,3.188,91.086Z" transform="translate(-0.01 -2.756)" fill="#ffce7e"/>
        <path id="Trazado_565600" data-name="Trazado 565600" d="M93.9,42.387a3.184,3.184,0,1,1,3.18-3.188v.013A3.178,3.178,0,0,1,93.9,42.39" transform="translate(61.97 -36.029)" fill="#ffce7e"/>
        <path id="Trazado_565601" data-name="Trazado 565601" d="M93.9,58.62a3.184,3.184,0,1,1,3.178-3.188v.01A3.177,3.177,0,0,1,93.9,58.62" transform="translate(61.97 -24.938)" fill="#ffce7e"/>
        <path id="Trazado_565602" data-name="Trazado 565602" d="M93.9,74.853a3.184,3.184,0,1,1,3.178-3.188v.01A3.177,3.177,0,0,1,93.9,74.853" transform="translate(61.97 -13.847)" fill="#ffce7e"/>
        <path id="Trazado_565603" data-name="Trazado 565603" d="M93.9,91.086A3.184,3.184,0,1,1,97.08,87.9v.01A3.177,3.177,0,0,1,93.9,91.086" transform="translate(61.97 -2.756)" fill="#ffce7e"/>
        <path id="Trazado_565604" data-name="Trazado 565604" d="M78.508,42.387a3.184,3.184,0,1,1,3.18-3.188v.013A3.178,3.178,0,0,1,78.51,42.39" transform="translate(51.452 -36.029)" fill="#ffce7e"/>
        <path id="Trazado_565605" data-name="Trazado 565605" d="M78.508,58.62a3.184,3.184,0,1,1,3.178-3.188v.01a3.177,3.177,0,0,1-3.178,3.178" transform="translate(51.452 -24.938)" fill="#ffce7e"/>
        <path id="Trazado_565606" data-name="Trazado 565606" d="M78.508,74.853a3.184,3.184,0,1,1,3.178-3.188v.01a3.177,3.177,0,0,1-3.178,3.178" transform="translate(51.452 -13.847)" fill="#ffce7e"/>
        <path id="Trazado_565607" data-name="Trazado 565607" d="M78.508,91.086A3.184,3.184,0,1,1,81.686,87.9v.01a3.177,3.177,0,0,1-3.178,3.178" transform="translate(51.452 -2.756)" fill="#ffce7e"/>
        <path id="Trazado_565608" data-name="Trazado 565608" d="M63.113,42.387a3.184,3.184,0,1,1,3.18-3.188v.013a3.179,3.179,0,0,1-3.18,3.175" transform="translate(40.933 -36.029)" fill="#ffce7e"/>
        <path id="Trazado_565609" data-name="Trazado 565609" d="M63.113,58.62a3.184,3.184,0,1,1,3.178-3.188v.01a3.177,3.177,0,0,1-3.178,3.178" transform="translate(40.933 -24.938)" fill="#ffce7e"/>
        <path id="Trazado_565610" data-name="Trazado 565610" d="M63.113,74.853a3.184,3.184,0,1,1,3.178-3.188v.01a3.177,3.177,0,0,1-3.178,3.178" transform="translate(40.933 -13.847)" fill="#ffce7e"/>
        <path id="Trazado_565611" data-name="Trazado 565611" d="M63.113,91.086A3.184,3.184,0,1,1,66.291,87.9v.01a3.177,3.177,0,0,1-3.178,3.178" transform="translate(40.933 -2.756)" fill="#ffce7e"/>
      </g>
    </g>
    <g id="Grupo_842155" data-name="Grupo 842155" transform="translate(-337.816 6129.066)">
      <path id="Trazado_570332" data-name="Trazado 570332" d="M736.722,277.334c6.145-9.09,16.918-18.163,27.514-21.577,10.528-3.394,22.481,8.182,32.672,10.861,9.363,2.462,19.336,2.992,28.072,7.166a27.393,27.393,0,0,1,10.29,8.592c.835-1.113,1.7-2.209,2.567-3.286,23.61-29.225,54.61-51.8,87.647-69.685,25.032-13.552,51.329-24.558,77.814-34.9,23.971-9.367,47.613-15.223,73.665-14.066a153.754,153.754,0,0,1,43.765,8.367c6.684,2.334,13.717,5.575,16.99,11.853,4.981,9.552-1.173,21.365-9.279,28.458a68.493,68.493,0,0,1-14.753,9.664,46.455,46.455,0,0,1,12.018,9.074,95,95,0,0,1,20.911,31.752c3.35,8.383,5.427,18.1,1.563,26.257-3.39,7.166-10.74,11.672-18.219,14.291-11.745,4.109-25.594,4.27-35.869-2.751-6.511-4.45-10.957-11.267-16.549-16.834-10.419-10.375-24.449-15.918-38.676-18.673-8.158-1.579-13.793-1.852-19.272.036-1.088.687-2.177,1.37-3.262,2.065l-.594-.386a46.062,46.062,0,0,0-7.27,4.973,297.2,297.2,0,0,1-82.6,46.766c-26.819,9.692-56.984,12.885-83.755,3.057-4.093-1.5-8.23-3.41-10.985-6.788a14.59,14.59,0,0,1-2.3-4.025,34.147,34.147,0,0,1-9.054,3.205c-7.993,1.647-16.392,1.4-24.088,4.117-11.941,4.214-21.1,15.179-33.6,17.2-12.6,2.04-25.538-6.523-30.333-18.348S729.573,287.906,736.722,277.334Z" transform="translate(0 124.763)" fill="#515151" opacity="0.15" style="mix-blend-mode: multiply;isolation: isolate"/>
      <g id="Grupo_842148" data-name="Grupo 842148" transform="translate(734.277 118.935)">
        <path id="Trazado_570333" data-name="Trazado 570333" d="M746.066,167.949c-2.868-.574-1.478-8.889,1.358-8.6l1.253.4a80.78,80.78,0,0,1,9.527-2.583l7.756,2.056,4,2.1,1.8.546c2.346.353,2.1,2.35-.1,2.852l-3.418-.193-4.675-1.775-2.053.968,7.849,5.993,7.391-.5c2.619.024,2.6,1.948.827,2.494l-3.025.916-1.7,1.683-1.8,1.2-2.31,1a34,34,0,0,1-10.025-1.6l-8.041-4.7Z" transform="translate(-688.509 -3.61)" fill="#ffb294"/>
        <g id="Grupo_842141" data-name="Grupo 842141" transform="translate(0 48.602)">
          <path id="Trazado_570334" data-name="Trazado 570334" d="M750.3,138.833c16.119-.285,19.24,33.961,21.111,40.078l28.342,2.213c1.494,2.077,3.752,11.106.181,13.874-8.271,3.037-28.354,4.868-39.552.984-5.383-2.623-18.762-32.454-19.561-51.3Z" transform="translate(-699.555 -107.514)" fill="#fff"/>
          <g id="Grupo_842138" data-name="Grupo 842138" transform="translate(96.837 48.147)">
            <path id="Trazado_570335" data-name="Trazado 570335" d="M756.377,164.428l3.479-.651,7.166.06a6.679,6.679,0,0,0,5.117-2.237l.579-.651c1.329-.193,1.619-1.129,2.225-2.326l2.06-2.269.378-2.759-.125-5.222c.253-2.635-.912-2.253-2.161-1.486l-.478,2.032-1.9,1.454-4.547,3-.474-4.8,3.543-2.378,2.129-1.02c1.832-1.016,1.153-2.37-.627-2.121l-4.663,1.173-6.479,4.1c-1.121,2.9-2.571,5.977-5.218,6.423C754.353,156.1,753.835,164.428,756.377,164.428Z" transform="translate(-754.659 -143.022)" fill="#ffb294"/>
            <path id="Trazado_570336" data-name="Trazado 570336" d="M762.91,148.344l1.9-1.454.478-2.032c.45-1.366,2.49-2.209,2.161,1.486l.125,5.222-.378,2.759-2.06,2.269c-.607,1.2-.9,2.133-2.225,2.326l-.579.651a6.65,6.65,0,0,1-4.426,2.177l2.253-10.082a4.462,4.462,0,0,1,1.908-2.763Z" transform="translate(-744.856 -140.991)" fill="#ffb294"/>
          </g>
          <g id="Grupo_842140" data-name="Grupo 842140">
            <path id="Trazado_570337" data-name="Trazado 570337" d="M734.946,195.372c-1.418,1.864-1.41,6.182-1.08,11.062,1.321,4.932,6,4.551,9.981,5.173,7.7,1.2,11.524,6.993,21.766,6.973,6.089-.008,10.15-1.313,11.427-5.169.189-1.775-.847-3.583-3.009-5.41,0,0-13.95-6.254-14.311-6.495s-6.611-4.812-6.732-5.294-2.406-11.182-2.406-11.182H735.548Z" transform="translate(-721.098 31.847)"/>
            <path id="Trazado_570338" data-name="Trazado 570338" d="M733.193,199.373c-1.386,4.442-1.663,5.732-1.08,9.021a48.508,48.508,0,0,1,2.045,4.932c.851,2.972.723,7.937,5.145,10.905,5.27,4.165,15.46,4.358,18.665-.084,0-2.165-1.434-6.945-4.1-10.813l-5.173-9.62.329-9.013-14.862-3.265Z" transform="translate(-726.703 51.175)"/>
            <path id="Trazado_570339" data-name="Trazado 570339" d="M750.129,158.992v60.29c-4.844,17.48-14.187,33.888-15.673,51.357,0,7.358,14.906,8.969,18.673,4.242,1.478-13.52,12.914-31.876,19.854-53.232,4.6-21.541,8.4-43.878,7.122-61.868Z" transform="translate(-718.768 -46.697)" fill="#175279"/>
            <path id="Trazado_570340" data-name="Trazado 570340" d="M731.937,292.818a4.848,4.848,0,0,0,2.735,4.334c.116.036.229.112.325.149a5.3,5.3,0,0,0,.932.4c4.691,1.747,12.178.51,14.685-2.643,1.466-13.508,7.792-33.973,14.745-55.329,2.205-14.781,4.92-43,5.338-56.088,11.154-3.117,16.512-16.681,16.589-23.236,0-.305,0-.57-.02-.835l-7.161.209-41.556,1.233c0,1.161.02,2.241.06,3.229l1.442,76.533C735.186,258.275,732.054,275.623,731.937,292.818Z" transform="translate(-726.367 -44.954)" fill="#2a7aad"/>
            <path id="Trazado_570341" data-name="Trazado 570341" d="M731.332,161.72l2.639,34.808,3.9,16.38,2.507,10.564c0,1.161.02,2.241.06,3.229.815,17.9,8.949,9.367,12.652,9.331a1.905,1.905,0,0,1,.743.153c8.929,4.238,34.921-7.431,34.427-9.1a15.78,15.78,0,0,1,.55-3.173c.1-.362.193-.7.305-1.044,1.161-3.744,3-7.222,2.358-11.781-1.35-9.483-4.013-47.71-4.013-47.71-1.269-9.784,1.085-17.709-7.085-23.505l-5.531-.265-15.56-.739a134.852,134.852,0,0,0-21.316,16.207C735.662,157.2,733.441,159.422,731.332,161.72Z" transform="translate(-728.192 -107.413)" fill="#2a7aad"/>
            <path id="Trazado_570342" data-name="Trazado 570342" d="M732.983,155.072c4.065-.285,13.054,2.257,16.91,28.707l27.056-15.372s4.539-25.156-7.089-28.8l-15.56-.739A134.855,134.855,0,0,0,732.983,155.072Z" transform="translate(-723.212 -107.413)" fill="#fff"/>
            <path id="Trazado_570343" data-name="Trazado 570343" d="M731.937,327.15a4.848,4.848,0,0,0,2.735,4.334c.116.036.229.112.325.149a9.465,9.465,0,0,1,.932.4c1.9-22.1,3.836-44.139,12.994-55.273-1.9-21.469-.189-56.145,2.338-68.857a15.324,15.324,0,0,1,1.313-4.334c5-8.262,33.515-3.743,34.407-7.788a.74.74,0,0,0,.02-.209l-.466-8.752L755.9,172.1l-11.03-23.915-10.74,28.92,4.422,18.236c0,1.161.02,2.241.06,3.229l1.442,76.533C735.186,292.607,732.054,309.955,731.937,327.15Z" transform="translate(-726.367 -79.286)" fill="#2e6f99" opacity="0.5" style="mix-blend-mode: multiply;isolation: isolate"/>
            <path id="Trazado_570344" data-name="Trazado 570344" d="M733.682,146.778c-8.053,11.411,1.566,33.438,5,44.713,3.647,11.954,5.017,9.945,12.275,12.7,10.3,3.912,23.69,3.8,37.716,5.23,3.8-.944,4.776-5.965,2.041-9.427L755.926,188.72l-6.057-24.385C746.238,151.18,742.949,137.717,733.682,146.778Z" transform="translate(-730.55 -92.46)" fill="#fff"/>
            <g id="Grupo_842139" data-name="Grupo 842139" transform="translate(19.319)">
              <path id="Trazado_570345" data-name="Trazado 570345" d="M757.118,160.245a7.173,7.173,0,0,1-3.366,2.771c-9.463,2.792-15.564-7.146-16.135-14.367-.5-6.4-.952-11.427-.952-11.427l21.714,5.27s.2,1.715.305,4.141C758.865,150.75,758.8,156.92,757.118,160.245Z" transform="translate(-731.424 -112.37)" fill="#ffb294"/>
              <path id="Trazado_570346" data-name="Trazado 570346" d="M752.078,153.359c-7.093,1.755-12.664-11.054-12.664-11.054l14.5-2.768C756.738,149.1,755.047,152.624,752.078,153.359Z" transform="translate(-723.131 -105.383)" fill="#ffb294" opacity="0.5" style="mix-blend-mode: multiply;isolation: isolate"/>
              <path id="Trazado_570347" data-name="Trazado 570347" d="M741.423,156.247s5.3,7.616,8.844,11.038a14.368,14.368,0,0,0,9.467,4.238c8.335.269,7.616-6.816,8-10.463.036-.325,2.848.072,2.848-2.069,0-1.538-2.683-4.209-2.515-6.017a31.336,31.336,0,0,0-1.032-9.439c-1.02-4.776-5.607-13.777-19.521-11.873-6.716.92-10.592,4.868-11.467,10.777-.7,4.7,1.848,12.476,1.848,12.476Z" transform="translate(-733.647 -129.929)" fill="#ffb294"/>
              <path id="Trazado_570348" data-name="Trazado 570348" d="M740.208,162.157c3.671,6.121,10.086,5.667,10.748-.125.133-1.161,3.366-.783,4.675-1.117l-1.02-4.009c-.494-3.149,1.723-3.037,3.563-3.45,6.776-1.522,10.439-4.394,11.323-7.8,2.233-8.576-9.078-14.9-17.6-14.608-10.347.345-15.3,7.109-16.388,13.146C734.352,150.617,740.208,162.157,740.208,162.157Z" transform="translate(-735.36 -131.035)"/>
              <path id="Trazado_570349" data-name="Trazado 570349" d="M741.562,137.663c-1.9-.956-4.43,1-2.78,4.358,2.515,5.133,4.668,5.137,5.643,3.555C745.578,143.712,744.361,139.065,741.562,137.663Z" transform="translate(-726.649 -111.77)" fill="#ffb294"/>
            </g>
          </g>
        </g>
        <g id="Grupo_842147" data-name="Grupo 842147" transform="translate(61.68)">
          <path id="Trazado_570350" data-name="Trazado 570350" d="M800.4,235.8c6.218,2.089,21.035-10.134,21.035-10.134l-.767-3.531-.478-2.169,4.619-5.539V206.9l13.532-57.566c-.056-2.221-14.139,2.129-20.212,2.912l-6.764,10.174-2.1,31.788s-1.35,17.613-3.784,21.485c-1.968,3.161-4.438,6.089-6.25,8.985C796.6,228.924,796.656,231.852,800.4,235.8Z" transform="translate(-590.557 -29.115)" fill="#54371a"/>
          <path id="Trazado_570351" data-name="Trazado 570351" d="M800.769,184.229c9.3,4.784,22.164-12.078,22.164-12.078l-1.245-5.7c-.675,3.229-4.394,6.2-5.218,6.8-10.423,7.571-16.006,2.426-15.737-2.093C798.107,175.4,793.608,180.541,800.769,184.229Z" transform="translate(-592.059 24.405)" fill="#1a1a1a"/>
          <g id="Grupo_842146" data-name="Grupo 842146">
            <g id="Grupo_842142" data-name="Grupo 842142" transform="translate(77.278 123.851)">
              <path id="Trazado_570352" data-name="Trazado 570352" d="M774.894,294.545c12.882,7.17,20.188-4.286,20.188-4.286l.378-6.125,2.506-2.747-2.008-7.407-.8-43.323c4.86-11.323,4.5-13.934-.157-27.7l10.351-43.191-8.194-10-32.013,13.982,11.761,42.09c-3.82,13.243-1.643,24.819,3.161,29.771l-1.418,38.909a48.082,48.082,0,0,1-5.824,8.592C769.074,288.09,770.3,291.99,774.894,294.545Z" transform="translate(-765.146 -149.769)" fill="#593716"/>
              <path id="Trazado_570353" data-name="Trazado 570353" d="M767.52,200.018c11.564,10.552,28.775-10.009,28.775-10.009l-1.631-6.021c-3.185,3.237-14.552,12.472-22.088,6.483-2.386-1.9-1.956-4.8-.546-7.5C768.472,187.417,762.077,195.053,767.52,200.018Z" transform="translate(-764.351 -49.623)" fill="#1a1a1a"/>
            </g>
            <path id="Trazado_570354" data-name="Trazado 570354" d="M813.191,129.06a295.359,295.359,0,0,1,30.217,8.246c9.76,3.414,19.155,7.889,27.233,14.183a62.633,62.633,0,0,1,18.822,23.919,64.67,64.67,0,0,1,5.619,30.237l1.908.161a67.247,67.247,0,0,0-4.575-31.655A66.474,66.474,0,0,0,873.493,148c-8.326-7.057-18.067-12.174-28.052-16.131a301.509,301.509,0,0,0-30.5-9.692Z" transform="translate(-542.933 -109.159)" fill="#593716"/>
            <path id="Trazado_570355" data-name="Trazado 570355" d="M801.922,170.122a22.092,22.092,0,0,0,2.414,10.054,25.244,25.244,0,0,0,5.631,7.334,27.454,27.454,0,0,0,3.924,3.016c-.285,3.3-1.538,11.781-1.683,12.452-1.052,4.872,3.531,7.065,4.816,2.5.655-2.322,1.273-10.009,1.438-12.508a27.992,27.992,0,0,0,11.126,2.567c.161,2.113-.362,12.544-.2,14.657.277,3.137,3.245,2.783,3.916.9.82-2.133.852-13.271.888-15.56a33.253,33.253,0,0,0,13.564-3.908c.607,1.868.719,8.459,1.321,10.323a2.218,2.218,0,0,0,1.8,1.7c1.551.37,2.751-.827,2.113-4.254-.337-1.812-.008-8.355.064-10.182.016-.442.088-.9.125-1.386a23.6,23.6,0,0,0,8.383-17.705c0-7.848-4.157-14.882-10.692-19.569a32.371,32.371,0,0,0-17.1-5.86c-.655-.052-1.35-.072-2.025-.072C815.261,144.62,801.922,156.039,801.922,170.122Z" transform="translate(-576.928 -41.451)" fill="#f29672"/>
            <path id="Trazado_570356" data-name="Trazado 570356" d="M758.737,268.018l29.33,18.187,2.193,9.632A27.259,27.259,0,0,0,801,311.964l14.311,10.214a57.893,57.893,0,0,0,47.457-2.824l40.223-21.015a60.815,60.815,0,0,0,14.713-10.829l22.533-22.533,24.518-24.49,16.388-12.448,2.422-1.86,29.141-22.1,6.21-42.7-7.045-20.766a13.441,13.441,0,0,0-4-5.9,12.058,12.058,0,0,0-3.012-2.016L978.54,120.222a13.665,13.665,0,0,0-7.7-1.149l-29.824,4.221a18.809,18.809,0,0,0-7.76,2.916L912.8,139.586l-68.9,29.269a19.666,19.666,0,0,0-6.117,4.129l-25.791,25.666L788,197.968l-2.3-.064-8.78-.217a10.659,10.659,0,0,0-10.9,9.375l-.9,7.668-4.374,36.684-.559,4.374Z" transform="translate(-707.202 -118.927)" fill="#593716"/>
            <path id="Trazado_570357" data-name="Trazado 570357" d="M840.614,152.241c-.269,3.017-1.386,5.884-2.153,8.813s-1.165,6.125-.024,8.929a24.58,24.58,0,0,1-5.687-14.612c-.149-3.41.309-10.532,3.109-13.01,2.081-1.84,2.651.028,3.675,2.6A16.03,16.03,0,0,1,840.614,152.241Z" transform="translate(-484.007 -50.498)" fill="#54371a"/>
            <path id="Trazado_570358" data-name="Trazado 570358" d="M758.74,173.054l29.3,18.2,2.057,9a29,29,0,0,0,11.432,17.147l13.789,9.829a57.75,57.75,0,0,0,31.591,2.719l7.9-2.113-15.54-4.936c-11.982-4.366-21.28-14.613-23.216-27.221a24.072,24.072,0,0,0-10.692-16.545l-12.8-8.3-15.609-20.425-16.215,6.037Z" transform="translate(-707.193 -23.978)" fill="#c7b299"/>
            <path id="Trazado_570359" data-name="Trazado 570359" d="M758.737,210.947l29.33,18.187,2.225,9.769a26.883,26.883,0,0,0,10.6,15.91l14.428,10.295a57.893,57.893,0,0,0,47.457-2.824l40.223-21.015a60.815,60.815,0,0,0,14.713-10.829l22.533-22.533,24.518-24.49,16.388-12.448,2.422-1.86L971.864,153c-2.667,4.318-5.274,8.318-7.82,12.106-10.242,15.147-19.677,26.349-29.422,35.475-19.368,18.155-40.1,28.028-71.231,44.1l-18.589-2.39a26.377,26.377,0,0,1-21.851-18.34l-1.273-4.037a15.458,15.458,0,0,0-8.318-9.435,15.377,15.377,0,0,1-8.937-14.9c2.574-3.912,7.354-5.74,11.949-6.611,1.8-.341,14.773-3.848,19.613-6.547,10.118-5.651,13.781-8.909,4.1-21.385-9.4-12.134-13.657-9.5-31.037-11.082-4.5-.4-14.492-5.68-23.341-9.126-6.764-2.635-12.849-4.217-15.239-1.735a21.631,21.631,0,0,0-5.587,16.541c.064.683.124,1.338.249,2.02,1.49,9.463,8.286,17.782,16.794,22.312a39.951,39.951,0,0,0,7.17,2.98l-28.9,15.765Z" transform="translate(-707.202 -61.856)" fill="#54371a" opacity="0.5" style="mix-blend-mode: multiply;isolation: isolate"/>
            <path id="Trazado_570360" data-name="Trazado 570360" d="M806.71,173.9l19.428,23.529a48.38,48.38,0,0,0,17.1,13.179l16.745,7.688,7.885,40.022a13.705,13.705,0,0,1-1.7,10.552,46.18,46.18,0,0,0-3.623,6.764c-2.169,5.133-3.74,11.833.992,13.978,6.877,3.109,21.051-12.5,21.051-12.5l.173-3.876-.305-1.386,3.057-5.093-2.876-8.652-1-47.5a7.559,7.559,0,0,0-3.747-6.535c-10.459-5.772-9.447-24.578-11.914-41.271l-2.667-30.189Z" transform="translate(-562.484 -77.659)" fill="#593716"/>
            <path id="Trazado_570361" data-name="Trazado 570361" d="M821.543,184.465c8.841,7.029,24.959-11.243,24.959-11.243l-.9-5.6c-1.333.8-2.595,2.061-3.607,2.788a52.909,52.909,0,0,1-7.636,4.511c-6.471,3.165-12.46-1.7-9.861-7.3C820.868,172.648,817.474,181.231,821.543,184.465Z" transform="translate(-523.322 27.953)" fill="#1a1a1a"/>
            <g id="Grupo_842143" data-name="Grupo 842143" transform="translate(131.113 154.65)">
              <path id="Trazado_570362" data-name="Trazado 570362" d="M788.293,302.217c12.885,7.17,20.188-4.286,20.188-4.286l.378-6.129,2.506-2.747-2-7.4-.8-43.327c4.856-11.319,4.5-13.93-.157-27.695l10.351-43.195-8.194-10-32.013,13.986,11.757,42.086c-3.82,13.247-1.643,24.823,3.165,29.771l-1.422,38.913a47.979,47.979,0,0,1-5.824,8.588C782.473,295.762,783.7,299.658,788.293,302.217Z" transform="translate(-778.549 -157.437)" fill="#593716"/>
              <path id="Trazado_570363" data-name="Trazado 570363" d="M780.921,207.69c11.568,10.548,28.779-10.014,28.779-10.014l-1.635-6.021c-3.181,3.241-14.552,12.476-22.083,6.487-2.386-1.9-1.956-4.8-.55-7.507C781.877,195.085,775.479,202.725,780.921,207.69Z" transform="translate(-777.756 -57.291)" fill="#1a1a1a"/>
            </g>
            <path id="Trazado_570364" data-name="Trazado 570364" d="M766.026,197.988a12.085,12.085,0,0,0,3.571,6.286c2.591,2.522,5.965,4.049,9.25,5.559q15.05,6.82,30.121,13.657c3.551,1.615,7.371,3.27,11.222,2.647,6.037-.976,9.7-6.961,13.673-11.616,9.608-11.291,24.349-16.673,38.66-20.581,14.315-3.888,29.249-6.909,41.661-15.006,9.981-6.535,17.778-16.018,27.759-22.586,9.961-6.555,23.955-9.608,33.475-2.382,3.358,2.559,7.262,6.447,10.994,4.495,2.627-1.386,3.125-4.92,3-7.9a46.013,46.013,0,0,0-3.518-15.842,12.725,12.725,0,0,0-3.037-2l-26.317-12.468a13.483,13.483,0,0,0-7.688-1.173l-29.816,4.23a19.2,19.2,0,0,0-7.78,2.928L890.815,139.6l-68.9,29.265a19.766,19.766,0,0,0-6.129,4.121L790,198.647Z" transform="translate(-685.213 -118.935)" fill="#c7b299" opacity="0.1" style="mix-blend-mode: screen;isolation: isolate"/>
            <g id="Grupo_842145" data-name="Grupo 842145" transform="translate(0 56.098)">
              <g id="Grupo_842144" data-name="Grupo 842144" transform="translate(0.001)">
                <path id="Trazado_570365" data-name="Trazado 570365" d="M783.44,142.011c-3.048-3.575-6.366-7.322-10.881-8.616-5.852-1.675-11.938,1.217-17.336,4.025-1.9.992-3.977,2.181-4.611,4.226-.864,2.788,1.354,5.507,3.4,7.587,2.852,2.9,5.824,5.888,9.616,7.375,3.764,1.482,7.945,1.33,11.99,1.153,3.041-.133,16.737,1.113,17.733-2.1C794.45,152.137,785.312,144.2,783.44,142.011Z" transform="translate(-732.291 -132.901)" fill="#593716"/>
                <path id="Trazado_570366" data-name="Trazado 570366" d="M775.26,142.934c-2.426-2.9-4.961-5.872-8.371-7.507a13.51,13.51,0,0,0-11.64.08c-2.065,1.02-4.029,3.029-3.663,5.306.261,1.587,1.567,2.764,2.792,3.8,2.47,2.1,5.025,4.242,8.1,5.27a25.544,25.544,0,0,0,8.6.819c1.663-.028,8.463.755,9.126-.811C780.875,148.3,776.268,143.938,775.26,142.934Z" transform="translate(-728.907 -129.137)" fill="#54371a" opacity="0.5" style="mix-blend-mode: multiply;isolation: isolate"/>
                <path id="Trazado_570367" data-name="Trazado 570367" d="M759.52,231.485a26.789,26.789,0,0,0,14.4,4.422h.39c4.157-.068,8.543-1.225,11.9-6.162l4.443-10.564,22.73-3.093a28.357,28.357,0,0,0,21.557-15.432l9.873-19.746,2.932-22.786L819.1,138.665a10.56,10.56,0,0,0-5.981-1.848H795.144a10.622,10.622,0,0,0-7.973,3.587l-6.587,7.407a10.685,10.685,0,0,0-2.558,5.4l-1.88,11.721-16.569,28.129L755.632,197l-4.049,4.049c-.337.767-.659,1.494-1,2.205C744.41,217.013,741.727,220.05,759.52,231.485Z" transform="translate(-745.907 -121.087)" fill="#593716"/>
                <path id="Trazado_570368" data-name="Trazado 570368" d="M795.016,143.4c3.6.313,7.318.663,10.488,2.4,4.394,2.41,7,7.053,9.383,11.463,1.5,2.779,3.033,6.065,1.771,8.961-1.273,2.924-4.772,4.029-7.865,4.8a70.992,70.992,0,0,1-14.564,2.6c-4.936.185-10.05-.731-14.159-3.478-3.952-2.635-6.675-6.736-8.965-10.9-1.659-3.013-3.181-6.23-3.334-9.668-.237-5.334,2.269-8.258,7.282-7.933C781.713,142.082,788.364,142.817,795.016,143.4Z" transform="translate(-679.998 -106.575)" fill="#593716"/>
              </g>
              <path id="Trazado_570369" data-name="Trazado 570369" d="M787.794,164.587c-4.82.369-10.182-.08-13.6-3.5-3.507-3.507-3.876-8.973-4.033-13.926a3.758,3.758,0,0,1,.651-2.78,3.6,3.6,0,0,1,2.342-.827,39.5,39.5,0,0,1,22,4.579c4.567,2.442,16.155,9.315,7.166,13.319C797.876,163.426,792.607,164.218,787.794,164.587Z" transform="translate(-672.768 -101.22)" fill="#54371a" opacity="0.5" style="mix-blend-mode: multiply;isolation: isolate"/>
              <path id="Trazado_570370" data-name="Trazado 570370" d="M759.521,221.163a26.789,26.789,0,0,0,14.4,4.422h.39c4.157-.068,8.543-1.225,11.9-6.162l4.443-10.564c-3.036-2.631-7.105-3.217-9.005-6.82-3.836-7.371-1.313-15.966,2.185-22.891,3.515-6.981,8.206-13.283,12.857-19.569.337-.446.675-.908,1.012-1.37,1.811-2.434,9.182-3.515,9.821-6.483.622-2.964-9.005-9.64-11.684-11.062-3.145-1.687-4.049,1.972-6.057,4.9-2.025,2.932-2.627,6.571-3.587,10a46.513,46.513,0,0,1-15.468,23.5c-6.037,4.864-8.15,6.784-12.343,8.258a3.522,3.522,0,0,1-2.751-.643l-4.049,4.049c-.337.767-.659,1.494-1,2.205-.514,1.153-1.012,2.217-1.454,3.229-.623,1.37-1.189,2.631-1.651,3.784C744.141,208.218,745.226,211.985,759.521,221.163Z" transform="translate(-745.906 -110.766)" fill="#f5d9b8"/>
              <path id="Trazado_570371" data-name="Trazado 570371" d="M761.518,158.756a1.667,1.667,0,0,1,2.273,2.434,3.393,3.393,0,0,1-2.7.594q-4.567-.307-9.134-.619c-.478-.032-1.04-.116-1.261-.546-.394-.755.683-1.41,1.522-1.57a38.472,38.472,0,0,1,9.721-.623Z" transform="translate(-731.721 -56.13)" fill="#1a1a1a"/>
              <path id="Trazado_570372" data-name="Trazado 570372" d="M746.3,157.945a.945.945,0,0,0,.032.229,20.074,20.074,0,0,0,2.133,5.206c.357.675,1.1,1.474,1.723,1.028.39-.281.373-.868.3-1.35-.321-2.093-.691-7.029-2.221-8.612a2.246,2.246,0,0,0-.317-.285C747.327,155.531,746.761,156.792,746.3,157.945Z" transform="translate(-744.722 -68.767)" fill="#1a1a1a"/>
              <path id="Trazado_570373" data-name="Trazado 570373" d="M768.617,150.811a3.63,3.63,0,0,1-1.836,2.659,4.856,4.856,0,0,1-3.245.49,3.492,3.492,0,0,1-2.647-1.807,3.233,3.233,0,0,1,1.474-3.808C764.669,146.9,769.039,147.132,768.617,150.811Z" transform="translate(-701.313 -88.81)"/>
              <path id="Trazado_570374" data-name="Trazado 570374" d="M756.689,144.956a3.082,3.082,0,0,1-.16,2.9,1.9,1.9,0,0,1-2.647.486,2.913,2.913,0,0,1-.7-2.314,5.8,5.8,0,0,1,.3-2.1C754.464,141.453,756.047,143.377,756.689,144.956Z" transform="translate(-723.971 -103.21)"/>
            </g>
          </g>
        </g>
      </g>
      <g id="Grupo_842154" data-name="Grupo 842154" transform="translate(1038.65 142.598)">
        <g id="Grupo_842150" data-name="Grupo 842150" transform="translate(0.632)">
          <path id="Trazado_570375" data-name="Trazado 570375" d="M808.726,140.57s3.8.45,6.1-.743l2.968,7.752,27.02-12.415c5.194-2.824,10.134-4.41,14.219-1.8l-6.455,14.46s-30.169,16.155-41.942,10.4C804.183,154.961,807.38,147.1,808.726,140.57Z" transform="translate(-805.728 -103.07)" fill="#fff"/>
          <path id="Trazado_570376" data-name="Trazado 570376" d="M819.987,220.255a63.93,63.93,0,0,1,2.619,9.78c.458,2.314.823,4.7,1.128,7.049a177.267,177.267,0,0,1,1.221,23.365l11.158,2.868s.133-1.49,2.177-14.215c.478-3.037,1.069-6.724,1.8-11.174.137-.8.249-1.587.325-2.35,1.337-12.018-2.711-19.641-3.936-26.787a17.828,17.828,0,0,1,.213-8.1c1.526-5.559,3.7-16.657,5.422-25.98,1.607-8.443,2.792-15.42,2.792-15.42s-21.626-20.135-26.462-.169C813.608,179.065,812.387,192.38,819.987,220.255Z" transform="translate(-782.157 -48.006)" fill="#ffb294"/>
          <path id="Trazado_570377" data-name="Trazado 570377" d="M812.815,194.664c3.27-1.024,6.527-1.6,9.379-3.474,5.008-3.294,7.869-9.813,9.178-15.058-.024.1,7.583,4.712,8.23,5.206,1.587,1.213,1.237,2.2,1.747,4.029.305,1.1.659,2.719.94,4.374-6.358,5.676-15.348,10.2-23,9.1C816.848,198.484,815.836,195.841,812.815,194.664Z" transform="translate(-787.392 29.943)" fill="#ffb294"/>
          <path id="Trazado_570378" data-name="Trazado 570378" d="M812.072,190.082a18.618,18.618,0,0,1,7.688-4.254c3.39,1.008,3.864,3.993,6.475,4.173,9.5.655,22.027-5.957,22.654-10.941a22.179,22.179,0,0,1,.851,6.868c-.064,2.418-1.173,4.977-3.354,6.017-2.077.988-4.511.4-6.808.277-8.917-.474-17.429,6.431-26.132,4.434C809.638,195.785,809.939,192.114,812.072,190.082Z" transform="translate(-794.337 38.778)" fill="#2a7aad"/>
          <path id="Trazado_570379" data-name="Trazado 570379" d="M816.556,170.145c.458,2.314.823,4.7,1.128,7.049a55.218,55.218,0,0,0,5.483,2.848,20.217,20.217,0,0,1,5.844,4.643c.8.916,1.948,3.627,3.229,4.527.478-3.037,1.068-6.724,1.8-11.174.137-.8.249-1.587.325-2.35a10.264,10.264,0,0,0-4.527-2.659A52.8,52.8,0,0,0,816.556,170.145Z" transform="translate(-776.107 11.885)" fill="#ffc8b3" style="mix-blend-mode: multiply;isolation: isolate"/>
          <path id="Trazado_570380" data-name="Trazado 570380" d="M819.208,166.382a97.384,97.384,0,0,0,3.209,24.015,171.278,171.278,0,0,0,9.077,26.5c1.775,4.069,3.667,7.985,5.579,11.652.972,1.816,1.948,3.591,2.92,5.274,10.736,18.645,11.922,40.616,11.922,40.616h9.8s-.707-3.362,1.434-26.936a41.455,41.455,0,0,0,.132-6.133c-.763-15.822-10.7-21.549-13.183-29.325a11.644,11.644,0,0,1-.554-4.013c.462-11.214-1.317-43.866-1.317-43.866s-11.616-7.64-20.156-7.792C823.164,156.3,819.284,158.666,819.208,166.382Z" transform="translate(-768.119 -29.667)" fill="#ffb294"/>
          <path id="Trazado_570381" data-name="Trazado 570381" d="M834.521,212.644c-2.362,1.181-6.467-1.157-9.286-2.591,5.724-7.379,10.451-17.079,8.66-26.112.06.305,4.591-.245,4.964-.3,2.1-.309,2.547-1.008,2.687,1.072a17.821,17.821,0,0,0,2.679,8.407C845.337,201.8,839.935,207.225,834.521,212.644Z" transform="translate(-749.929 51.503)" fill="#ffb294"/>
          <path id="Trazado_570382" data-name="Trazado 570382" d="M823.512,212.468c.671-1.972,3.414-3.952,7.563-9.809,3.9-1.434,6.925,3.772,9.286,2.591,5.414-5.418,10.817-10.841,9.7-19.521.141.233.245.458.4.7,6.286,10.058,2.013,11.893-1.289,16.2-5.133,6.7-3.125,13.5-21.441,14.078-1.277.04-2.707.028-3.627-.86A3.277,3.277,0,0,1,823.512,212.468Z" transform="translate(-755.769 58.896)" fill="#2a7aad"/>
          <path id="Trazado_570383" data-name="Trazado 570383" d="M822.264,175.617c1.775,4.069,3.667,7.985,5.579,11.652,2.864,1.643,6.531,1.988,9.857,2.655a27.142,27.142,0,0,1,13.753,6.917,17.655,17.655,0,0,1,2.6,3.249c-.763-15.822-10.7-21.549-13.183-29.325a3.22,3.22,0,0,0-.4-.153c-4.74-1.55-9.841.418-14.444,2.35C824.594,173.573,823.027,174.316,822.264,175.617Z" transform="translate(-758.888 11.61)" fill="#ffc8b3" style="mix-blend-mode: multiply;isolation: isolate"/>
          <path id="Trazado_570384" data-name="Trazado 570384" d="M821.9,156.245c10.363,3.454,23.823,3.756,31.964-4.675,2.94,7.748,15.231,17.673,6.961,41.753l-28.735-5.394s-16.239-10.347-16.874-31.362c-.068-2.165-.08-4.225-.065-6.222A26.808,26.808,0,0,0,821.9,156.245Z" transform="translate(-780.363 -47.844)" fill="#f2946f"/>
          <path id="Trazado_570385" data-name="Trazado 570385" d="M820.792,230.241c.02,3.647,15.573,8.347,29.9,8.118,10.335-.133,20.023-2.808,22.81-10.279-4.6-7.7-2.579-11.058-3.113-20.019-1-16.219,4.507-39.66-13.106-55.94a1.023,1.023,0,0,0-.209-.209c-4.318-3.936-2.791.153-7.033,1.012a61.009,61.009,0,0,1-21.722.442c-1.872-.309-8.716-3.84-9.957-2.675a34.591,34.591,0,0,1-1.044,6.19A142.259,142.259,0,0,0,820.792,230.241Z" transform="translate(-783.573 -48.191)" fill="#fff"/>
          <path id="Trazado_570386" data-name="Trazado 570386" d="M820.394,176.988s-2.9,10.773-3.037,28.161c7.6,5.764,30,10.182,38.708,1.221a7.834,7.834,0,0,1-.594-3.286c.249-4.45,4.663-15.512,8.768-24.987,3.687-8.483,7.146-15.685,7.146-15.685l1.108-6.611L852.76,138.93l-18.4-6.752s-4.852,2.607-6.435,11.2-2.543,5.254-10.584,16.89C809.3,171.887,820.394,176.988,820.394,176.988Z" transform="translate(-782.564 -102.648)" fill="#fff"/>
          <path id="Trazado_570387" data-name="Trazado 570387" d="M839.252,146.411,818.51,158.826l6.717-23.414Z" transform="translate(-770.212 -92.894)" fill="#227fbc"/>
          <path id="Trazado_570388" data-name="Trazado 570388" d="M827.748,142.255a8.538,8.538,0,0,1-9.853,4.334,104.038,104.038,0,0,0-2.651,18.264c1.864-11.825,6.31-11.451,8.644-9.8a14.878,14.878,0,0,1,3.306,3.94c6.27,9.037,19.264,5.021,23.4-2.109C830.359,166.624,824.7,152.144,827.748,142.255Z" transform="translate(-780.065 -72.249)" fill="#d1e1eb" style="mix-blend-mode: multiply;isolation: isolate"/>
          <path id="Trazado_570389" data-name="Trazado 570389" d="M837.371,244.987c1.739-11.347-.285-23.06-4.43-33.776-1.591-4.093-4.161-8.716-5.764-13.339-5.169-10.106-.273-22.272,1.771-28.747,5.933-19.075,10.407-30,10.407-30,.269-.173-1.506,14.7-.61,14.372-4.105,9.475-9.511,24.188-9.76,28.639a7.366,7.366,0,0,0,2.33,4.985c15.693,16.239,10.616,38.728,11.58,54.45.534,8.961-1.49,12.323,3.113,20.019-2.787,7.471-12.476,10.146-22.81,10.279C830.932,265.106,835.784,255.209,837.371,244.987Z" transform="translate(-756.077 -81.698)" fill="#d1e1eb" style="mix-blend-mode: multiply;isolation: isolate"/>
          <path id="Trazado_570390" data-name="Trazado 570390" d="M823.556,183.512c-3.655-7.009-6.113-14.568-8.555-22.087q2.187,11.1,4.37,22.2c.856,4.338,1.759,8.809,4.242,12.468,1.542,2.281,11.516,9.371,10.913,3.245-.221-2.221-3.973-5.234-5.246-6.86A57.74,57.74,0,0,1,823.556,183.512Z" transform="translate(-780.798 -14.42)" fill="#d9f0ff"/>
          <path id="Trazado_570391" data-name="Trazado 570391" d="M816.684,143.944l1.554-2.081,1.165-2.988-.169-2.036-.562-4.675-3.394-1.522-5.462-.133-2.5,1.145-.068,2.936-.679,3.868.45,4.093,2.177,3.133C809.8,147,816.09,146.8,816.684,143.944Z" transform="translate(-806.231 -107.685)" fill="#ffb294"/>
          <path id="Trazado_570392" data-name="Trazado 570392" d="M816.122,141.018l2.305-1.305.233-2.675-.293-2.189-.265-3.041-2.667-.6-5.318.273-1.844-.265-1.024,1.257-.679,3.868c.554,5.049-.117,3.278,2.627,7.226C809.8,144.886,815.523,143.865,816.122,141.018Z" transform="translate(-806.231 -105.571)" fill="#ffb294" opacity="0.5" style="mix-blend-mode: multiply;isolation: isolate"/>
          <path id="Trazado_570393" data-name="Trazado 570393" d="M807.469,138.031c-1.559-2.241,2.679-7.66,7.977-3.4l2.454-.554a8.024,8.024,0,0,1,2.358.253,2.56,2.56,0,0,1,1.133,1.008c.357.691-.538,1.072-.538,1.072l-1.784.707-1.731,1-3.7.627C810.639,138.967,808.088,138.967,807.469,138.031Z" transform="translate(-804.504 -100.033)" fill="#ffb294"/>
          <path id="Trazado_570394" data-name="Trazado 570394" d="M817.774,133.494l-1.908-1.418s-.707,2.932-1.121,3.25-2.2.1-2.2.1-.482.775-.988.944a2.279,2.279,0,0,1-1.651-.185,3.046,3.046,0,0,1-.916-1.036s-1.836,0-2.334-.639.257-2.049.257-2.049l.659-1.374,4.5-.4Z" transform="translate(-806.486 -107.124)" fill="#ffb294"/>
          <path id="Trazado_570395" data-name="Trazado 570395" d="M833.209,138.856a65.5,65.5,0,0,1-11.407,1.06c-3.069-12.363,10.512-17.356,20.409-14.139,5.463,1.775,2.751,7.676-.615,8.8a30.272,30.272,0,0,0-4.764,2.374A16.089,16.089,0,0,1,833.209,138.856Z" transform="translate(-761.615 -124.826)"/>
          <path id="Trazado_570396" data-name="Trazado 570396" d="M842.18,149.131c-.671,2.133-1.386,3.306-4.073,5.342-4.772,3.619-11.4,7.563-16.267,4.009-4.571-3.7,4.659-17.6,6.258-22.537.209-.647,15.93-5.471,16.789-4.671C846.851,133.1,842.85,147,842.18,149.131Z" transform="translate(-763.966 -105.647)" fill="#ffb294"/>
          <path id="Trazado_570397" data-name="Trazado 570397" d="M852.594,134.481l1.486,4.7c.759,3.1,1.647,7.632-.872,12.255l-4.884-3.1,1.506,9.005c-10.082-2.121-22.192.964-32.382,8.005C830.229,149.29,843.416,151.09,852.594,134.481Z" transform="translate(-773.416 -95.7)" fill="#dfecf5"/>
          <path id="Trazado_570398" data-name="Trazado 570398" d="M826.162,140.427l-3.258-2.884a15.675,15.675,0,0,1,8.869-4.808l3.812,3.386c-5.374,3.631-12.038,16.456-15.821,29.948l-1.253.831c.269-10.813.888-20.967,2.719-26.956Z" transform="translate(-770.213 -100.967)" fill="#dfecf5"/>
          <path id="Trazado_570399" data-name="Trazado 570399" d="M820.584,145.511c-.125-1.908,1.089-9.178,4.563-11.568,4.141-2.848,12.046-.209,14.356,2.9,1.539,2.069.149,3.1-1.4,4.683C833.032,146.676,821.086,153.143,820.584,145.511Z" transform="translate(-763.98 -100.995)" fill="#ffc8b3" style="mix-blend-mode: multiply;isolation: isolate"/>
          <path id="Trazado_570400" data-name="Trazado 570400" d="M820.859,161.25c-1.988-3.217.1-17.424,6-25.686,8.162-11.427,21.5-12.074,26.413-6.937,5.88,6.145,3.563,31.655-11.058,29.876-2.028-.245-2.643-.554-4.282.823C830.086,165.913,822.727,164.27,820.859,161.25Z" transform="translate(-765.332 -122.642)" fill="#ffb294"/>
          <g id="Grupo_842149" data-name="Grupo 842149" transform="translate(54.813 16.118)">
            <path id="Trazado_570401" data-name="Trazado 570401" d="M835.186,138.243a2.946,2.946,0,0,1,.619,3.4l-.41.9c-.88,1.928-2.767,2.587-4.2,1.474l-1.687-1.354a4.981,4.981,0,0,1-1.048-5.752l.241-.53a1.78,1.78,0,0,0-.522-.747,1.194,1.194,0,0,0-.755-.249l-.245.53c-.916,2.008-2.876,2.7-4.374,1.534l-1.213-.948a4.784,4.784,0,0,1-1.008-5.527l.406-.892c.546-1.189,1.7-1.595,2.591-.908l3.322,2.587a2.826,2.826,0,0,1,.823,2.739,1.723,1.723,0,0,1,.812.345,2.384,2.384,0,0,1,.619.763,1.555,1.555,0,0,1,2.237-.357Zm-.378,3.84.41-.9a1.869,1.869,0,0,0-.394-2.153l-3.8-2.992a1.061,1.061,0,0,0-1.639.574l-.341.751a3.889,3.889,0,0,0,.82,4.5l1.687,1.354c1.112.864,2.571.349,3.253-1.141Zm-8.218-6.628.341-.751a1.86,1.86,0,0,0-.39-2.153l-3.326-2.587a1.061,1.061,0,0,0-1.639.574l-.41.892a3.711,3.711,0,0,0,.779,4.278l1.217.948c1.173.912,2.707.374,3.426-1.2Z" transform="translate(-820.132 -128.839)"/>
          </g>
          <path id="Trazado_570402" data-name="Trazado 570402" d="M824.1,145.936c1.065,6.049,6.844,19.344-1.346,25.441a27.037,27.037,0,0,0,24.1-10.512c9.652-12.95,4.571-31.153-4.772-34.836-4.86-1.916-11.472-1.273-15.147,2.872C823.643,132.617,822.944,139.373,824.1,145.936Z" transform="translate(-757.419 -124.306)"/>
        </g>
        <g id="Grupo_842151" data-name="Grupo 842151" transform="translate(81.668 53.129)">
          <path id="Trazado_570403" data-name="Trazado 570403" d="M836.643,154.74l2.242,4.278,8.106,7.077L850.3,171.3l2.615,6.165c.586,1.1.016,2.129-.619,1.571l1.157,2.6c.843,1.876-.309,2.374-1.406.859l-5.37-7.977,4.551,8.728c.836,1.655-.442,2.277-1.474.687l-6.194-8.885,3.338,7.531c.859,1.992-.157,2.775-1.5.936l-7.961-11.761.333,5.23-.161,2.767c-.177,1.812-1.835,1.538-2.008-.462l-.43-2.518-1.82-4.193.072-9.969-.55-6.656Z" transform="translate(-807.902 -87.715)" fill="#ffb294"/>
          <path id="Trazado_570404" data-name="Trazado 570404" d="M835.555,138.076c3.953,1.49,8.278,16.681,12.645,33.487,4.567,7.4,4.812,23.558,8.941,37l-7.447,4.386c-3.374-14.36-9.5-24.8-9.5-36.294-4.057-7.226-8.825-14.448-11.905-19.931C823.907,149.448,829.048,137.454,835.555,138.076Z" transform="translate(-826.66 -138.053)" fill="#fff"/>
        </g>
        <g id="Grupo_842153" data-name="Grupo 842153" transform="translate(0 5.113)">
          <path id="Trazado_570405" data-name="Trazado 570405" d="M806.91,141.562l.028.052c.779,1.346,2.041,2.073,2.816,1.623l12.568-7.25-2.844-4.928-12.568,7.254C806.135,138.762,806.135,140.216,806.91,141.562Z" transform="translate(-806.328 -111.139)" fill="#dbd7d7"/>
          <rect id="Rect치ngulo_279466" data-name="Rect치ngulo 279466" width="4.455" height="5.687" transform="matrix(0.866, -0.5, 0.5, 0.866, 13.151, 19.921)" fill="#919191"/>
          <g id="Grupo_842152" data-name="Grupo 842152" transform="translate(14.27)">
            <path id="Trazado_570406" data-name="Trazado 570406" d="M832.553,146.182c0-6.856-4.816-15.195-10.757-18.625-3.161-1.824-6-1.876-7.965-.5l-.012-.016-3.193,1.8.9,2.133h.835a12.288,12.288,0,0,0-.185,2.137c0,6.856,4.816,15.195,10.753,18.625a12.873,12.873,0,0,0,1.779.844l1.49,2.374,2.1-1.213,1.028-.562C831.316,152.071,832.553,149.653,832.553,146.182Z" transform="translate(-807.634 -126.099)" fill="#9b9b9b"/>
            <path id="Trazado_570407" data-name="Trazado 570407" d="M831.386,146.672c0,6.856-4.816,9.64-10.753,6.21s-10.753-11.769-10.753-18.625,4.812-9.636,10.753-6.21S831.386,139.816,831.386,146.672Z" transform="translate(-809.881 -124.648)" fill="#dbd7d7"/>
            <path id="Trazado_570408" data-name="Trazado 570408" d="M826.09,146.919c-1.5,1.888-4.149,2.177-7.17.434-4.675-2.7-8.471-9.27-8.471-14.673,0-2.4.743-4.161,1.984-5.141a7.076,7.076,0,0,0-1.273,4.43c0,5.4,3.784,11.978,8.463,14.673C822.222,148.14,824.539,148.14,826.09,146.919Z" transform="translate(-808.168 -121.755)" fill="#727272"/>
            <path id="Trazado_570409" data-name="Trazado 570409" d="M826.862,143.137a7.1,7.1,0,0,1-1.282,4.442l-.024.02c-1.551,1.221-3.868,1.221-6.467-.277-4.679-2.7-8.463-9.274-8.463-14.673a7.076,7.076,0,0,1,1.273-4.43c1.55-1.241,3.88-1.253,6.487.249C823.066,131.172,826.862,137.739,826.862,143.137Z" transform="translate(-807.634 -122.435)" fill="#bcdbed"/>
            <path id="Trazado_570410" data-name="Trazado 570410" d="M816.067,132.227a2.094,2.094,0,0,1-.378,1.313l-.008.008a1.679,1.679,0,0,1-1.912-.084,5.525,5.525,0,0,1-2.5-4.334,2.1,2.1,0,0,1,.378-1.309,1.662,1.662,0,0,1,1.916.076A5.523,5.523,0,0,1,816.067,132.227Z" transform="translate(-805.688 -121.711)" fill="#94d4ed"/>
            <path id="Trazado_570411" data-name="Trazado 570411" d="M823.113,136.439a6.151,6.151,0,0,1-1.121,3.872l-.02.02c-1.35,1.06-3.374,1.06-5.635-.245a14.577,14.577,0,0,1-4.76-4.756l9.54-5.864A14.9,14.9,0,0,1,823.113,136.439Z" transform="translate(-804.765 -115.942)" fill="#69a4b7"/>
          </g>
        </g>
      </g>
    </g>
  </g>
</svg>
