<svg xmlns="http://www.w3.org/2000/svg" width="141" height="141" viewBox="0 0 141 141">
  <g id="Grupo_841820" data-name="Grupo 841820" transform="translate(-240.085 -1286.827)">
    <rect id="Rectángulo_38178" data-name="Rectángulo 38178" width="141" height="141" transform="translate(240.085 1286.827)" fill="none"/>
    <g id="Grupo_841827" data-name="Grupo 841827" transform="translate(-1447.66 1736.86)">
      <path id="Trazado_568371" data-name="Trazado 568371" d="M1735.656-256.572l2.891-.877a10.615,10.615,0,0,0,4.866.324c4.172-.527,8.2.4,12.166,1.551a17.751,17.751,0,0,0,5.061.752c5.56-.022,11.12-.038,16.679.009,1.461.012,2.945.092,3.556,1.818.069.945,0,1.892-.009,2.84-.607,1.513-1.949,1.783-3.343,1.971-7.408,1-14.839,1.814-22.24,2.869-1.109.158-2.915-.034-2.948,1.192-.037,1.33,1.771,1.1,2.853,1.257a97.843,97.843,0,0,0,17.412,1.288c1.855-.066,3.671-.516,5.528-.413a2.451,2.451,0,0,1,1.511.435c.51.444.49.449,1.018.4.332-.03.656.133.995.078-.488-.279-1.554.326-1.415-.922a2.312,2.312,0,0,1,2.017-.77c1.167.022,2.208.756,3.429.567a1.068,1.068,0,0,1,1.34.688,1.205,1.205,0,0,1-.747,1.347c-1.882,1-3.608,2.282-5.533,3.177a94.1,94.1,0,0,1-11.8,4.844,20.223,20.223,0,0,0-3.768,2.111c-4.06,1.287-8.157.668-12.258.286-8.612-.8-17.233-1.517-25.841-2.359-3.429-.336-6.853-.393-10.287-.4a3.832,3.832,0,0,1-2.559-.575A2.666,2.666,0,0,1,1713.7-235c-.024-3.269-.051-6.538.008-9.806.037-2.068.349-2.345,2.416-2.36,1.427-.01,2.857-.069,4.253.031-2.155-.107-4.281.011-6.41-.063a1.192,1.192,0,0,1-.54-.323c.129-1.213,1.121-.991,1.853-1.025,1.981-.093,3.966-.057,5.949-.027a6.007,6.007,0,0,0,3.822-1.2,41.339,41.339,0,0,1,7.289-4.17A7.448,7.448,0,0,0,1735.656-256.572Z" transform="translate(-4.701 -102.645)" fill="#fec79e"/>
      <path id="Trazado_568372" data-name="Trazado 568372" d="M1818.005-258.1a3.907,3.907,0,0,0-1.981.451c-.537.431-1.244,0-1.8.357-8.185,1.288-16.284.158-24.386-.869-.477-.061-.948-.162-1.425-.216-.947-.108-1.593-.612-1.582-1.566s.68-1.416,1.619-1.534c3.948-.5,7.893-1.023,11.84-1.526,4.492-.571,8.986-1.127,13.479-1.693,1.116-.141,2.173-.387,2.594-1.636.054-.681-.032-1.366.05-2.046-.461-1.61-1.75-1.714-3.1-1.713q-9.275,0-18.55,0a7.542,7.542,0,0,1-2.626-.371,30.4,30.4,0,0,0-14.994-1.639c-1.192.18-2.385.355-2.849-1.2.083-1.3.949-1.646,2.079-1.816a32.889,32.889,0,0,1,15.448,1.285,3.324,3.324,0,0,0,2.879-.253c5.866-3.132,11.769-6.2,17.662-9.276,4.067-2.125,6.877-1.115,8.629,3.188.3.735.535.852,1.148.472.233-.144.48-.265.722-.393,4.483-2.371,7.457-1.2,9.068,3.691,1.106-.575,2.185-1.162,3.285-1.7,3.335-1.645,6.541-.451,7.812,3.061.354.979.7.983,1.568.886a5.823,5.823,0,0,1,6.672,4.186,5.9,5.9,0,0,1-3.089,6.928c-3.951,2.206-7.951,4.324-11.9,6.529-1.108.619-2.047.7-2.926-.313-1.032-1.579.186-2.253,1.239-2.885,3.651-2.192,7.479-4.068,11.17-6.192,1.322-.761,2.139-1.709,1.738-3.327a1.883,1.883,0,0,0-1.1-1.3,2.064,2.064,0,0,0-1.946.278c-5.909,3.02-11.542,6.546-17.538,9.4A24.437,24.437,0,0,1,1818.005-258.1Z" transform="translate(-40.45 -86.798)"/>
      <path id="Trazado_568373" data-name="Trazado 568373" d="M1730.956-256.494a1.945,1.945,0,0,1-1.431,2.358,40.268,40.268,0,0,0-9.869,5.73,3.953,3.953,0,0,1-2.5.679c-2.772.112-5.558-.3-8.318.229.541.734.3,1.581.311,2.378.03,3.881-.005,7.762.023,11.641.2.787-.012,1.662.517,2.376,1.733.688,3.539.349,5.292.3,7.093-.2,14.091.9,21.132,1.4,5.814.415,11.6,1.161,17.424,1.449,1.175.129,2.356.052,3.532.068,3.795.123,7.3-1.111,10.776-2.391,6.338-2.334,12.081-5.868,17.986-9.072a9.814,9.814,0,0,1,2.025-1c1.1-.3,2.058-.2,2.524,1.049a1.765,1.765,0,0,1-.867,2.106c-8.209,4.406-16.137,9.382-25.222,11.973-5.425,1.547-10.855,1.129-16.355.682-13.344-1.085-26.627-3.107-40.07-2.7-1.75.053-2.462-.611-2.442-2.412q.1-9.377,0-18.757c-.019-1.78.656-2.6,2.422-2.412,6.039.65,11.646-.214,16.51-4.254,1.074-.892,2.583-1.248,3.862-1.908A1.988,1.988,0,0,1,1730.956-256.494Z" transform="translate(0 -102.723)" fill="#010100"/>
      <path id="Trazado_568374" data-name="Trazado 568374" d="M1875.225-391.327q0-1.5,0-3.008a8.536,8.536,0,0,0,1.037-4.739c-.058-4.394-.014-8.789-.022-13.184,0-1.184-.022-2.344-1.207-3.087-.993-.623-.676-1.408-.084-2.079,1.543-1.75,3.183-3.412,4.78-5.113a1.828,1.828,0,0,1,2.906,0c1.533,1.671,3.163,3.246,4.688,4.92.79.867,1.112,1.7-.183,2.5-1.189.74-.961,2.042-.963,3.185-.019,11.124,0,22.249-.023,33.373,0,1.136.249,2.364-.713,3.313a17.061,17.061,0,0,1-8.551-.049,3.608,3.608,0,0,1-.666-2.7c-.032-2.662-.057-5.325,0-7.986A10.4,10.4,0,0,0,1875.225-391.327Z" transform="translate(-99.239 -5.263)" fill="#fe4755"/>
      <path id="Trazado_568375" data-name="Trazado 568375" d="M1867.718-396.589c1.352.284,1.625,1.219,1.622,2.455-.009,4.457.043,8.915.072,13.372a2.73,2.73,0,0,0,2.86,1.487,18.162,18.162,0,0,1,2.847,0,2.71,2.71,0,0,0,2.855-1.489c.028-12.566.074-25.131.06-37.7,0-1.616.346-2.728,2.478-2.742-2.139-2.286-4.112-4.37-6.053-6.482-.52-.566-.906-.683-1.484-.052-1.941,2.118-3.925,4.2-6.115,6.527,2.269,0,2.5,1.268,2.486,2.886-.053,5.357-.036,10.714-.008,16.07.006,1.263-.108,2.362-1.62,2.657-1.38-.3-1.554-1.312-1.548-2.509.025-4.737-.044-9.475.043-14.211.025-1.368-.372-1.81-1.712-1.682-1,.095-2.141.241-2.71-.942-.605-1.259.463-1.882,1.127-2.6,2.991-3.219,6.053-6.374,9.006-9.627,1.28-1.41,2.269-1.391,3.541.007,3.05,3.351,6.2,6.615,9.293,9.923.6.641,1.354,1.252.826,2.31a1.966,1.966,0,0,1-2.307.929c-1.733-.252-2.13.4-2.119,2.11.08,12.358.048,24.716.031,37.075,0,.73.243,1.513-.265,2.191-.762-.024-.611-.609-.612-1.052q-.015-19.464-.009-38.927c0-.289.024-.54.35-.625.1-.267.01.28-.156.061-.109-.144-.181-.115-.182.087-.048,5.629-.015,11.259-.019,16.889-.007,7.277-.046,14.555.032,21.832.017,1.59-.389,2.23-2.056,2.17-3.5-.126-7,.059-10.5-.092a1.239,1.239,0,0,1-.666-.4,5.215,5.215,0,0,1-.378-2.8c-.053-5.129.07-10.26-.069-15.388q-.069-.366-.172-.725C1866.571-396.326,1867.213-396.373,1867.718-396.589Z" transform="translate(-91.732 0)" fill="#010101"/>
      <path id="Trazado_568376" data-name="Trazado 568376" d="M1809.3-359.519c-.839-.616-.466-1.516-.469-2.281-.029-8.646-.065-17.292.022-25.937.016-1.581-.418-2.07-1.941-1.883-.925.113-2.016.247-2.521-.869-.551-1.218.418-1.88,1.11-2.616,3.005-3.2,6.049-6.369,9-9.619,1.272-1.4,2.274-1.4,3.549-.005,3.051,3.346,6.186,6.616,9.295,9.909.626.664,1.287,1.323.823,2.33s-1.439,1-2.316.876c-1.69-.24-2.172.343-2.152,2.084.1,8.576.055,17.154.026,25.731,0,.765.369,1.665-.47,2.281a.807.807,0,0,1-.688.059q-6.291-.124-12.582,0A.805.805,0,0,1,1809.3-359.519Z" transform="translate(-58.028 -16.703)" fill="#010001"/>
      <path id="Trazado_568377" data-name="Trazado 568377" d="M1758.5-222.377c-7.023-.577-14.05-1.107-21.068-1.744-7.568-.686-15.122-1.534-22.742-1.271-.38.013-.831.157-1.116-.277,1.53-.822,3.178-.276,4.768-.4,1.264-.095,2.539.029,3.776-.046-2.134.065-4.235.017-6.337.024-1.2,0-2.049-.324-1.646-1.8.076-.089.151-.176.228-.264,8.564-.276,17.041.778,25.537,1.615,5.224.515,10.489.679,15.692,1.343a27.577,27.577,0,0,0,9.919-.481c4.535-1.933,9.313-3.252,13.7-5.566,5.463-2.88,10.818-5.951,16.253-8.881q7.616-4.106,15.193-8.287a3.346,3.346,0,0,1,1.55-.516c.837,2.106.508,3.072-1.617,4.254q-5.641,3.136-11.334,6.175c-1.053.562-1.846,1.181-1.57,2.521l-2.52,1.6c-.943-1.184-1.947-.853-3.074-.232-5.326,2.933-10.559,6.049-16.14,8.49-4.39,1.92-8.849,3.648-13.745,3.738A7.235,7.235,0,0,0,1758.5-222.377Z" transform="translate(-4.785 -107.655)" fill="#f5bb93"/>
      <path id="Trazado_568378" data-name="Trazado 568378" d="M1751.51-344.91c-.506-.679-.26-1.462-.264-2.194-.024-5.085-.062-10.17.021-15.254.021-1.307-.367-1.739-1.616-1.555a4.894,4.894,0,0,1-1.439-.014c-1.439-.222-2.075-1.471-1.124-2.519,3.465-3.814,7.021-7.547,10.582-11.272a1.484,1.484,0,0,1,2.35.171q5.1,5.395,10.171,10.811a1.548,1.548,0,0,1,.485,1.852,1.63,1.63,0,0,1-1.865.966c-2.214-.393-2.672.577-2.606,2.647.156,4.943.052,9.893.047,14.841,0,.945.158,1.983-1.122,2.316a.7.7,0,0,1-.13-.682.966.966,0,0,0,.332-.634c.027-5.66-.009-11.321.018-16.7-.057-.557-.453-.142-.224-.294.08-.054.14,0,.14.15-.019,5.808.368,11.622-.2,17.425-2.074.733-4.214.215-6.32.327-1.575.084-3.161-.037-4.737.031-1.414.061-1.913-.461-1.891-1.915.075-5.08.038-10.163.012-15.244,0-.418.321-.953-.258-1.295.484.456.251,1.028.253,1.533.019,4.944.029,9.889-.012,14.832C1752.1-346.008,1752.59-345.139,1751.51-344.91Z" transform="translate(-24.205 -31.712)" fill="#010101"/>
      <path id="Trazado_568379" data-name="Trazado 568379" d="M1875.4-356.076c3.575,0,7.152-.077,10.723.035,1.631.051,2.107-.454,2.1-2.091-.064-12.165-.035-24.33-.034-36.5v-2.6a3.968,3.968,0,0,1,.4,2.522q.025,18.145.026,36.289c0,.787-.307,1.666.4,2.345a.771.771,0,0,1-.836.8c-4.019-.411-8.05-.07-12.074-.187C1875.707-355.482,1875.329-355.52,1875.4-356.076Z" transform="translate(-99.824 -20.548)" fill="#040404"/>
      <path id="Trazado_568380" data-name="Trazado 568380" d="M1873.845-324.5l.413.413q.207.15.138.3c-.046.1-.092.15-.138.15-1.1.1-1.5-.642-1.5-1.51-.019-6,.017-12,.047-18,0-.109.147-.218.225-.327h.406c.457,3.736.062,7.487.21,11.228.1,2.58-.278,5.173.205,7.742Z" transform="translate(-98.273 -52.122)"/>
      <path id="Trazado_568381" data-name="Trazado 568381" d="M1772.065-323.848v.415c-3.108.442-6.233.067-9.347.2a12.254,12.254,0,0,0-3.436.179.77.77,0,0,1-.835-.8c.674-.608.4-1.415.407-2.138.023-4.811.012-9.622.012-14.433v-1.941l.412.01c0,5.413.077,10.827-.042,16.237-.041,1.831.49,2.378,2.313,2.3C1765.049-323.948,1768.559-323.848,1772.065-323.848Z" transform="translate(-31.142 -52.776)" fill="#040404"/>
      <path id="Trazado_568382" data-name="Trazado 568382" d="M1816.514-296.867l.378-.005a94.487,94.487,0,0,1,13.2,0l.378.005c-.285.637-.888.589-1.413.592q-5.567.028-11.133,0C1817.4-296.278,1816.8-296.23,1816.514-296.867Z" transform="translate(-65.246 -79.355)" fill="#020303"/>
      <path id="Trazado_568383" data-name="Trazado 568383" d="M1760.47-296.233c1.121-.781,2.383-.335,3.573-.362,3.069-.069,6.14-.021,9.21-.021,0,.128,0,.255,0,.383A80.414,80.414,0,0,1,1760.47-296.233Z" transform="translate(-32.33 -79.593)"/>
      <path id="Trazado_568384" data-name="Trazado 568384" d="M1876.407-296.092v-.451c3.479,0,6.957-.01,10.435.008.657,0,1.38-.211,1.934.376A88.824,88.824,0,0,1,1876.407-296.092Z" transform="translate(-100.422 -79.668)"/>
      <path id="Trazado_568385" data-name="Trazado 568385" d="M1886.123-250.494c-2.371,2.016-5.266,3.162-7.943,4.646q-13.031,7.226-26.23,14.149a42.931,42.931,0,0,1-12.525,4.454c2.9-2.479,6.663-3.034,10.024-4.473,3.663-1.567,7.084-3.563,10.577-5.438a1.4,1.4,0,0,0,.639-.723c.09-.292-.318-.56-.52-.446-1.438.813-2.579-.475-3.888-.494,8.557-2.3,15.91-7.113,23.579-11.267.953-.516,1.937-.974,2.906-1.459.69.177,1.37-.134,2.058-.038A1.466,1.466,0,0,1,1886.123-250.494Z" transform="translate(-78.702 -106.079)" fill="#fdc69d"/>
      <path id="Trazado_568386" data-name="Trazado 568386" d="M1723.643-232.888c-1.468.877-3.071.354-4.6.383-4.473.083-4.473.029-4.473,4.594q0,4.52,0,9.041v.007l-.372.089a.908.908,0,0,1-.239-.7c.118-4.5-.251-9,.2-13.492A57.35,57.35,0,0,1,1723.643-232.888Z" transform="translate(-4.993 -116.93)" fill="#f9c39b"/>
      <path id="Trazado_568387" data-name="Trazado 568387" d="M1713.571-233.13l0,14.023a.284.284,0,0,1-.461.006,106.884,106.884,0,0,1,.142-14.427c.108.037.216.072.326.106.139.067.185.132.137.2A.189.189,0,0,1,1713.571-233.13Z" transform="translate(-4.41 -116.694)" fill="#fed6aa"/>
      <path id="Trazado_568388" data-name="Trazado 568388" d="M1714.48-233.2c0-.1,0-.2,0-.293,3.163.041,6.345-.529,9.484.3Z" transform="translate(-5.319 -116.625)" fill="#fed6aa"/>
      <path id="Trazado_568389" data-name="Trazado 568389" d="M1871.06-219.185a3.005,3.005,0,0,1,1.8-.357c.774.944,1.636-.1,2.575.109-1.184,1.514-2.826.7-4.183,1.164,0-.694.765-.239.8-.817Z" transform="translate(-97.282 -124.905)" fill="#fdc69d"/>
      <path id="Trazado_568390" data-name="Trazado 568390" d="M1875.745-245.533a1.668,1.668,0,0,1-.049,2.046A1.483,1.483,0,0,1,1875.745-245.533Z" transform="translate(-99.778 -109.643)" fill="#fdd2a7"/>
      <path id="Trazado_568391" data-name="Trazado 568391" d="M1878.974-250.312a7.47,7.47,0,0,0,2.047-3.02,1.985,1.985,0,0,1,1.182-1.307q7.914-4.152,15.813-8.332c1.065-.562,2.13-.705,2.991.293.766.887,1.061,1.878.013,2.823a1.188,1.188,0,0,1-.285-1.462c-2.426,2.04-5.6,3.219-8.5,4.842-3.452,1.933-6.942,3.816-10.48,5.594C1880.918-250.461,1880.1-249.518,1878.974-250.312Z" transform="translate(-101.93 -99.143)" fill="#f2af82"/>
      <path id="Trazado_568392" data-name="Trazado 568392" d="M1861.651-247.478c2.593-.683,4.759-2.261,7.1-3.456,4.483-2.289,8.882-4.747,13.265-7.226,1.578-.893,1.851-.318,1.682,1.139a4.136,4.136,0,0,1-.834.869c-7.724,4.3-15.234,9.094-24.13,10.768a11.246,11.246,0,0,1-1.638.073c-.728.317-1.559-.071-2.275.334l-.711.091c-1.552-.046-3.18.753-4.63-.42l1.505-.109c.69-.352,1.494.068,2.179-.321l1.128-.083c.823-.4,1.766.1,2.583-.342l.7-.074c.686-.377,1.513.1,2.186-.359Z" transform="translate(-84.607 -101.977)" fill="#e8a477"/>
      <path id="Trazado_568393" data-name="Trazado 568393" d="M1841.087-269.821c4.194-2.245,8.368-4.526,12.592-6.713,1.264-.655,2.525-.578,3.257.948.251.8-.341,1.146-.86,1.424-3.327,1.784-6.549,3.764-9.969,5.379a1.519,1.519,0,0,1-.643-.078,24.743,24.743,0,0,0-2.582-.066C1842.143-268.947,1841.392-268.934,1841.087-269.821Z" transform="translate(-79.678 -91.207)" fill="#f2af82"/>
      <path id="Trazado_568394" data-name="Trazado 568394" d="M1878.185-262.46l-2.251-1.72c3.161-1.707,6.155-3.332,9.158-4.941a2,2,0,0,1,2.756.561,1.738,1.738,0,0,1-.161,2.679c-.568-.584-1.091-.236-1.642.053-1.555.817-3.135,1.584-4.654,2.476C1880.425-262.785,1879.446-262.054,1878.185-262.46Z" transform="translate(-100.144 -95.603)" fill="#f1ae82"/>
      <path id="Trazado_568395" data-name="Trazado 568395" d="M1853.4-267.094c2.668-2.193,5.932-3.365,8.833-5.16.685-.424,1.577-.563,1.936-1.428.9,1.569.117,2.584-1.183,3.323-2.062,1.172-4.17,2.263-6.259,3.388A5.458,5.458,0,0,1,1853.4-267.094Z" transform="translate(-86.908 -93.111)" fill="#e7a476"/>
      <path id="Trazado_568396" data-name="Trazado 568396" d="M1881.389-258.988c2.995-1.037,5.591-2.868,8.4-4.271,1.448-.722,1.051.168,1.1.85-2.35,2.042-5.288,3.064-7.958,4.548C1881.89-257.282,1881.812-258.475,1881.389-258.988Z" transform="translate(-103.348 -99.075)" fill="#e5a275"/>
      <path id="Trazado_568397" data-name="Trazado 568397" d="M1843.622-258.105l3.327.123c-3.287.749-6.611.253-9.918.249-.436,0-.322-.465.087-.644,2.022.17,4.057.041,6.076.268Z" transform="translate(-77.132 -102.1)" fill="#573f2f"/>
      <path id="Trazado_568398" data-name="Trazado 568398" d="M1846.118-226.5c1.482.811,3.107.052,4.629.42-2.258.607-4.555.231-6.991.376C1844.421-226.775,1845.29-226.575,1846.118-226.5Z" transform="translate(-81.246 -120.783)" fill="#be8661"/>
      <path id="Trazado_568399" data-name="Trazado 568399" d="M1843.714-258.893c-2.027-.037-4.079.459-6.076-.268l1.423-.551C1840.481-258.694,1842.263-259.731,1843.714-258.893Z" transform="translate(-77.652 -101.316)" fill="#f5b284"/>
      <path id="Trazado_568400" data-name="Trazado 568400" d="M1946.449-252.046a1.416,1.416,0,0,1-2.058.038A1.643,1.643,0,0,1,1946.449-252.046Z" transform="translate(-140.351 -105.616)" fill="#fed2a6"/>
      <path id="Trazado_568401" data-name="Trazado 568401" d="M1863.725-228.509c-.786.68-1.711.311-2.583.342A5.392,5.392,0,0,1,1863.725-228.509Z" transform="translate(-91.457 -119.63)" fill="#dd9d71"/>
      <path id="Trazado_568402" data-name="Trazado 568402" d="M1871.295-229.53c-.639.666-1.439.35-2.185.359A4.936,4.936,0,0,1,1871.295-229.53Z" transform="translate(-96.136 -119.042)" fill="#dd9d71"/>
      <path id="Trazado_568403" data-name="Trazado 568403" d="M1855.307-227.467c-.652.608-1.433.344-2.178.321A4.481,4.481,0,0,1,1855.307-227.467Z" transform="translate(-86.75 -120.247)" fill="#d4976d"/>
      <path id="Trazado_568404" data-name="Trazado 568404" d="M1862.421-226.191c.678-.653,1.5-.32,2.274-.333A3.781,3.781,0,0,1,1862.421-226.191Z" transform="translate(-92.208 -120.764)" fill="#dd9d71"/>
      <path id="Trazado_568405" data-name="Trazado 568405" d="M1713.14-198.577l.461-.006.01.009c.02,1.558.825,1.931,2.318,1.9a39.115,39.115,0,0,1,7.574.155c-.281.907-1.009.349-1.47.361-2.933.074-5.869.047-8.8.052A3.992,3.992,0,0,1,1713.14-198.577Z" transform="translate(-4.442 -137.218)" fill="#fbc59b"/>
      <path id="Trazado_568406" data-name="Trazado 568406" d="M1822.438-185.291a3.775,3.775,0,0,1,3.709.007A9.314,9.314,0,0,1,1822.438-185.291Z" transform="translate(-68.725 -144.741)" fill="#fec59b"/>
      <path id="Trazado_568407" data-name="Trazado 568407" d="M1888.883-307.536c.394,1.571-.094,2.246-1.823,2.091a28.092,28.092,0,0,0-4.915,0c-1.718.149-2.238-.5-1.823-2.09Z" transform="translate(-102.642 -73.228)" fill="#f72a39"/>
      <path id="Trazado_568408" data-name="Trazado 568408" d="M1874.765-324.5c-.665-.609-.4-1.412-.4-2.132-.022-5.612-.013-11.225-.014-16.838.67.607.4,1.411.4,2.131C1874.774-335.729,1874.765-330.115,1874.765-324.5Z" transform="translate(-99.192 -52.122)" fill="#040404"/>
      <path id="Trazado_568409" data-name="Trazado 568409" d="M1874.845-396.172v16.347h-.206v-16.36Z" transform="translate(-99.384 -21.161)" fill="#040404"/>
      <path id="Trazado_568410" data-name="Trazado 568410" d="M1819.442-385.97c-.391-.865-1.274-.9-2.277-1.23,2.089-2.233,4.1-4.337,6.052-6.492.644-.71.994-.343,1.458.157,1.906,2.057,3.832,4.1,5.851,6.251-.761.5-1.852.364-2.218,1.314a3.991,3.991,0,0,0-.386.542,2.687,2.687,0,0,0-.134.7c-.057,7.727,0,15.448-.028,23.17-.012,3.1-.288,3.394-3.415,3.369-1.276-.01-2.606.295-3.814-.418-.74-.88-.53-1.947-.535-2.952-.036-7.729.026-15.458-.038-23.183a2.679,2.679,0,0,0-.134-.671A4.1,4.1,0,0,0,1819.442-385.97Z" transform="translate(-65.628 -22.394)" fill="#fe4755"/>
      <path id="Trazado_568411" data-name="Trazado 568411" d="M1831.229-374.434a1.943,1.943,0,0,1,.31,0c0,9.128-.063,18.258.053,27.384.025,1.976-.621,2.531-2.429,2.3a19.387,19.387,0,0,0-2.469-.018c-4.026,0-4.029,0-4.029-3.927q0-12.869.007-25.737a2,2,0,0,1,.31,0c.612.783.4,1.707.4,2.577.035,8-.03,16.01.039,24.012,1.07,1.224,6.242,1.21,7.362-.025.081-8,.005-15.994.044-23.99C1830.833-372.73,1830.619-373.651,1831.229-374.434Z" transform="translate(-68.858 -33.934)" fill="#f42938"/>
      <path id="Trazado_568412" data-name="Trazado 568412" d="M1830.633-297.266h-13.2c2.226-.852,4.542-.351,6.805-.348C1826.362-297.611,1828.547-298.15,1830.633-297.266Z" transform="translate(-65.784 -78.961)" fill="#050505"/>
      <path id="Trazado_568413" data-name="Trazado 568413" d="M1724.319-196.511c-2.637,0-5.281-.1-7.911.037-1.675.087-2.208-.554-1.981-2.093.135,0,.271,0,.407,0-.152,1.224.337,1.723,1.614,1.669,1.979-.083,3.964-.038,5.947-.012C1723.052-196.9,1723.78-197.13,1724.319-196.511Z" transform="translate(-5.258 -137.226)" fill="#f2b890"/>
      <path id="Trazado_568414" data-name="Trazado 568414" d="M1761.929-343.146c-.028-5.083-.092-10.165-.061-15.248.009-1.57-.253-2.768-2.513-2.8,2.229-2.362,4.218-4.408,6.128-6.526.719-.8,1.094-.39,1.607.162,1.867,2.011,3.756,4,5.816,6.189-2.193.288-2.379,1.672-2.359,3.39.058,4.944-.026,9.89-.055,14.835A11.5,11.5,0,0,1,1761.929-343.146Z" transform="translate(-31.675 -37.617)" fill="#fe4755"/>
      <path id="Trazado_568415" data-name="Trazado 568415" d="M1765.411-307.536h8.564c.414,1.589-.1,2.24-1.823,2.09a28.106,28.106,0,0,0-4.917,0C1765.507-305.29,1765.017-305.964,1765.411-307.536Z" transform="translate(-35.156 -73.228)" fill="#f72a39"/>
      <ellipse id="Elipse_7046" data-name="Elipse 7046" cx="0.081" cy="13.082" rx="0.081" ry="13.082" transform="translate(1740.991 -398.953)" fill="#040404"/>
      <path id="Trazado_568416" data-name="Trazado 568416" d="M1831.717-347.282a15.579,15.579,0,0,1-8.127.035.561.561,0,0,1,.383-.222.574.574,0,0,1,.377.234c1.509,0,3.026-.093,4.525.027,1.607.129,2.128-.407,2.11-2.065-.083-7.68-.044-15.361-.025-23.042,0-.722-.265-1.526.4-2.136a4.393,4.393,0,0,1,.19,2.211c.016,7.577.005,15.154.017,22.731A5.773,5.773,0,0,0,1831.717-347.282Z" transform="translate(-69.402 -33.927)" fill="#fa4553"/>
      <path id="Trazado_568417" data-name="Trazado 568417" d="M1823.843-347.236c-.115,0-.23,0-.345-.01q-.031-13.6-.063-27.2.2-.009.411-.01a1.642,1.642,0,0,1,.2.985q0,12.624,0,25.248A1.606,1.606,0,0,1,1823.843-347.236Z" transform="translate(-69.311 -33.926)" fill="#fe4b5a"/>
      <path id="Trazado_568418" data-name="Trazado 568418" d="M1824.424-347.236q0-13.608,0-27.216c.7.68.4,1.555.4,2.34q.035,12.438.015,24.876Z" transform="translate(-69.891 -33.926)" fill="#fa4553"/>
      <path id="Trazado_568419" data-name="Trazado 568419" d="M1842.715-347.282c-.608-.636-.341-1.43-.343-2.152q-.028-12.509-.011-25.018.2,0,.41.009Q1842.742-360.862,1842.715-347.282Z" transform="translate(-80.399 -33.927)" fill="#fe4b5a"/>
    </g>
  </g>
</svg>
