<svg xmlns="http://www.w3.org/2000/svg" width="141" height="141" viewBox="0 0 141 141">
  <g id="Grupo_841824" data-name="Grupo 841824" transform="translate(-240.085 -1286.827)">
    <rect id="Rectángulo_38178" data-name="Rectángulo 38178" width="141" height="141" transform="translate(240.085 1286.827)" fill="none"/>
    <g id="Grupo_841829" data-name="Grupo 841829" transform="translate(-2127.099 1259.392)">
      <path id="Trazado_568494" data-name="Trazado 568494" d="M2407.929,89.676c.415-1.432,1.52-1.534,2.768-1.528,5.968.026,11.937-.031,17.9.041,1.484.018,2.3-.185,2.069-1.945-.2-1.475.416-3.43-.336-4.356-.812-1-2.833-.227-4.321-.342-.791-.062-1.716.159-2.007-.954.913-.531.666-1.425.668-2.219.022-8.257-.021-16.513.025-24.766,1.553-1.118,3.275-.115,4.5-.5-1.225.307-2.937-.611-4.494.492-.094,8.862.041,17.724-.076,26.757-.947-.464-.762-1-.762-1.449q-.016-12.454-.008-24.908a1.707,1.707,0,0,1,.167-.795c.255-.995,1.083-.909,1.821-.932a19.812,19.812,0,0,1,2.881.012c1.469.168,2-.232,1.982-1.858a5.354,5.354,0,0,1,4.941-5.374,5.516,5.516,0,0,1,5.943,4.556c.11.535.161,1.081.239,1.623q.368.211,0,.413c.306,1.136,1.238.585,1.851.59,5.949.049,11.9.023,17.846.038a3.476,3.476,0,0,1,2.192.289c-.35.965-1.17.5-1.758.5-5.845.038-11.69.02-17.535.026a14.8,14.8,0,0,0-1.723,0c6.5.014,13.285-.019,20.071.031.867.006,1.653.308,1.653,1.421-.5,1.615-1.872,1.394-3.073,1.4-8.392.029-16.784.012-25.176.014-2.063,0-4.127-.013-6.191.007-.741.007-1.533-.145-2.13.49a3.583,3.583,0,0,0-.311,1.8c.017,6.215-.039,12.43.033,18.64a2.318,2.318,0,0,0,.236.635c.571.555,1.295.4,1.964.4,15.492-.018,30.983.045,46.475-.009a4.362,4.362,0,0,0,3.987-2.009c1.678-2.439,3.253-4.949,5.029-7.319a2.456,2.456,0,0,0,.076-3.219c-1.9-2.619-3.648-5.344-5.5-7.995a3.071,3.071,0,0,0-2.827-1.38c-1.031.041-2.064-.083-3.1.02a33,33,0,0,1-4.45-.085c-1.4-.187-2.3-.831-1.759-2.459a.258.258,0,0,1,.176-.159c3.721-1.16,7.531-.418,11.3-.507a9.052,9.052,0,0,0,1.213.026.75.75,0,0,1,.684.063c3.28,4.146,6.035,8.661,9.109,12.952a1.76,1.76,0,0,1-.07,2.266c-2.86,4.122-5.735,8.235-8.53,12.4-.775,1.155-1.826,1.034-2.913,1.034-11.7,0-23.4-.009-35.094.033-.578,0-1.581-.63-1.755.653q.372.2,0,.414c-.443,5.515-.443,5.515,5.016,5.516.952,0,1.905-.022,2.856.012.756.027,1.532.085,1.714,1.065a61.926,61.926,0,0,0-6.986-.194c-.6.022-.178.353-.3.107-.038-.074.012-.118.149-.114,1.582.045,3.17.1,4.744-.009,1.415-.1,1.726.467,1.717,1.781-.051,7.806-.029,15.613-.02,23.419.005-8.121,0-16.242.006-24.412.863.1.8.494.8.8q.02,12.691,0,25.383a1.416,1.416,0,0,1-.174.584c-.351,1.084-1.281.863-2.066.874-1.994.029-3.993.089-5.981-.018-1.293-.069-1.634.365-1.609,1.624.077,3.849.018,7.7.033,11.552,0,1.164-.061,2.243-1.5,2.524-2.055.332-2.253-1.192-2.31-2.537-.145-3.4-.129-6.807-.013-10.209-.135-.972.135-2.156-1.406-2.32-1.625-.173-2.294.394-2.33,2.3-.059,3.1-.017,6.194-.017,9.291q0,7.329.006,14.659a4.5,4.5,0,0,0,.246,2.223c1.189.469,2.384,1.033,3.352-.388.275-2.455-.041-4.916.168-7.359.118-1.38.322-2.83,2.33-2.556,1.286.258,1.478,1.187,1.481,2.3.007,2.717.062,5.434.1,8.151.458.667,1.163.64,1.852.662,2.063.064,4.129-.069,6.188.07.612.041.911-.147,1-.728.185-.533-.274-.888-.373-1.344a1.484,1.484,0,0,1,.748-1.749,1.392,1.392,0,0,1,1.85.354,3.958,3.958,0,0,1,.722,1c.794,1.719,1.643,1.867,2.747.229a1.54,1.54,0,0,1,1.943-.754,1.641,1.641,0,0,1,.932,2.211.361.361,0,0,1-.311.445c-.726,1.147.451.608.637.61,3.509.042,7.018.032,10.527.031,1.128,0,2.431-.045,2.475,1.475.048,1.662-1.293,1.631-2.514,1.63q-32.513-.01-65.025,0c-.344,0-.689.009-1.032-.009a1.487,1.487,0,0,1-1.6-1.528,1.443,1.443,0,0,1,1.585-1.532c1.643-.048,3.288-.013,5.015-.013-.06-1.511-2.6-3.085-.206-4.1,2.288-.974,2.275,2.034,3.742,2.89,1.349-.494,1.966-3.58,4.314-1.495.317,2.313.317,2.315,2.819,2.317,2.66,0,5.32.016,7.979-.009.8-.007,1.656.158,2.347-.463a2.746,2.746,0,0,0,.27-1.8c.008-8.46-.038-16.92.042-25.379.016-1.694-.43-2.2-2.171-2.19-10.454.083-20.909.044-31.364.035a6.458,6.458,0,0,1-2.25-.134c-3.47-4.361-6.374-9.12-9.6-13.652a1.65,1.65,0,0,1,.135-2.086c2.857-4.126,5.717-8.25,8.54-12.4a2.447,2.447,0,0,1,2.262-1.128c2.2.024,4.406.043,6.607-.007a2.126,2.126,0,0,1,2.368,1.536c.261,1.631-.816,2.026-2.069,2.135a47,47,0,0,1-4.749.044,2.931,2.931,0,0,0-2.776,1.426c-1.685,2.683-3.567,5.234-5.376,7.834a2.549,2.549,0,0,0-.013,3.364c2.135,2.955,3.992,6.109,6.341,8.919a1.832,1.832,0,0,0,.574.357,10.064,10.064,0,0,0,2.269.11c14.515,0,29.029.041,43.544-.016,5.8-.023,4.915.113,4.974-4.864.053-4.471.015-8.942.01-13.413,0-3.43-.008-3.43-3.5-3.634-11.189.15-22.377.089-33.564.026C2408.521,91.957,2408,91.406,2407.929,89.676Z"/>
      <path id="Trazado_568495" data-name="Trazado 568495" d="M2413.152,152.994c.362,1.592,1.555,1.634,2.868,1.631q15.627-.033,31.253-.009c.752,0,1.5.05,2.255.076a3.245,3.245,0,0,1,.686,2.5q.038,8.527,0,17.054a3.787,3.787,0,0,1-.547,2.36c-.963.748-2.1.513-3.176.514q-20.576.026-41.154.012c-1.166,0-2.332-.025-3.5.055a1.608,1.608,0,0,1-.779-.2c-2.328-3.315-4.642-6.64-7-9.935a1.345,1.345,0,0,1,.005-1.828q3.387-4.808,6.665-9.692a1.918,1.918,0,0,1,1.869-.947c1.719.057,3.444-.035,5.162.034a2.122,2.122,0,0,0,2.487-1.63Z" transform="translate(-5.223 -63.318)" fill="#b2e49e"/>
      <path id="Trazado_568496" data-name="Trazado 568496" d="M2486.766,67.741c.548-.825,1.381-.385,2.057-.387,10.856-.034,21.713-.017,32.569-.038.9,0,1.975.367,2.58-.75.233-.24.062-.689.439-.855,1.035-.056,2.106.276,3.093-.284.005,1.382.722,1.942,2.071,1.914,1.434-.03,2.87.035,4.305.059a4.451,4.451,0,0,1,2,1.714c1.939,2.594,3.583,5.389,5.528,7.978a2.717,2.717,0,0,1-.038,3.591c-1.875,2.552-3.51,5.271-5.4,7.813-.635.853-1.257,1.664-2.483,1.557q-21.973.016-43.934,0a3.988,3.988,0,0,1-2.408-.312c-.41-3.288-.118-6.59-.173-9.884-.054-3.236.075-6.477-.048-9.71-.062-1.655.343-2.243,2.122-2.229,10.813.083,21.627.037,32.441.044.178,0,.4.17.49-.14.273-.044-.152-.293.01-.071.053.073,0,.123-.159.131-3.022.151-6.047.054-9.07.06q-11.985.025-23.97,0A3.71,3.71,0,0,1,2486.766,67.741Z" transform="translate(-59.8 -11.961)" fill="#dc636e"/>
      <path id="Trazado_568497" data-name="Trazado 568497" d="M2509.965,241.938c-1.339.218-1.71,1.092-1.7,2.338.016,2.844-.033,5.688-.056,8.532-4.484.71-4.516.684-4.516-3.763q0-10.316.007-20.633a5.347,5.347,0,0,1,.238-2.44,3.562,3.562,0,0,1,4.284-.026c.019,3.5.061,6.994.043,10.491-.006,1.243.3,2.168,1.679,2.395Q2509.953,240.384,2509.965,241.938Z" transform="translate(-69.715 -105.691)" fill="#365e7c"/>
      <path id="Trazado_568498" data-name="Trazado 568498" d="M2532.887,178.677v-26.4l-.36,0v25.787l-.486.021v-1.95c0-7.576-.046-15.151.036-22.726.018-1.651-.481-2.186-2.11-2.086a36.152,36.152,0,0,1-6.142-.192c3.042.028,6.1-.631,9.122.2.361.32.26.754.261,1.151q.008,12.433,0,24.866C2533.206,177.8,2533.343,178.317,2532.887,178.677Z" transform="translate(-81.535 -62.092)" fill="#030303"/>
      <path id="Trazado_568499" data-name="Trazado 568499" d="M2480.056,64.894c0,8.369.013,16.738-.022,25.106,0,.779.51,1.885-.853,2.185-.386-.3-.292-.741-.292-1.138q-.008-12.555,0-25.11c0-.4-.075-.834.306-1.137V91.3h.448v-8.4c0-5.291-.01-10.581.012-15.872,0-.724-.266-1.529.4-2.141Z" transform="translate(-55.175 -11.594)" fill="#030303"/>
      <path id="Trazado_568500" data-name="Trazado 568500" d="M2546.2,64.431l-.439.855c-.371-1.49-1.59-1.294-2.663-1.3-5.713-.017-11.427-.008-17.14-.008h-2.032l-.006-.412h2.67c5.507,0,11.014.009,16.521-.011.734,0,1.524.233,2.189-.313C2545.922,63.4,2546.019,63.948,2546.2,64.431Z" transform="translate(-81.593 -10.682)" fill="#070707"/>
      <path id="Trazado_568501" data-name="Trazado 568501" d="M2600.059,63.091l-.4.007c-3.837.409-7.684.108-11.527.159-.3,0-.461-.247-.461-.562a86.115,86.115,0,0,1,11.6-.143A.778.778,0,0,1,2600.059,63.091Z" transform="translate(-118.981 -10.201)" fill="#010101"/>
      <path id="Trazado_568502" data-name="Trazado 568502" d="M2586.519,63.08c1.265.783,2.659.327,3.988.368,2.665.083,5.333.031,8,.035-.833.739-1.841.369-2.764.383-3.346.05-6.692.025-10.039.028A.771.771,0,0,1,2586.519,63.08Z" transform="translate(-117.826 -10.585)" fill="#050505"/>
      <path id="Trazado_568503" data-name="Trazado 568503" d="M2534.3,92.139c2.791-3.038,4.639-6.754,7.173-9.979.489-.622.223-1.27-.218-1.887-2.468-3.452-4.912-6.921-7.364-10.384,3.546-.716,6.112.3,7.833,3.734a50.306,50.306,0,0,0,4.518,6.649,1.618,1.618,0,0,1,0,2.2c-2.227,3.143-4.4,6.327-6.569,9.509a1.831,1.831,0,0,1-1.658.968q-25.295-.03-50.588-.008a.591.591,0,0,1-.644-.378,4.063,4.063,0,0,1,2.218-.205q21.538-.022,43.077-.021A4.3,4.3,0,0,0,2534.3,92.139Z" transform="translate(-59.807 -14.451)" fill="#d94953"/>
      <path id="Trazado_568504" data-name="Trazado 568504" d="M2460.269,178.818q0-10.926,0-21.85c4.223-.259,4.223-.259,4.223,3.8,0,5.843-.02,11.686.017,17.529.007,1.106-.052,1.742-1.494,1.738-16.567-.046-33.134-.02-49.7-.021-.455,0-.984.168-1.292-.374a4.754,4.754,0,0,1,2.81-.4q21.031-.014,42.063-.008a24.411,24.411,0,0,0,2.678-.056A1.835,1.835,0,0,0,2460.269,178.818Z" transform="translate(-15.965 -65.593)" fill="#94d5a3"/>
      <path id="Trazado_568505" data-name="Trazado 568505" d="M2507.674,222.841l-4.115-.007c-.445.625-.2,1.333-.2,1.995-.021,7.761-.007,15.522-.023,23.283a3.539,3.539,0,0,1-.2,2.012c-.568-.486-.359-1.149-.36-1.741q-.015-12.806.006-25.612c.006-2.831.038-2.694,3.071-2.817C2508.439,219.849,2507.6,221.551,2507.674,222.841Z" transform="translate(-69.17 -102.586)" fill="#2a4c65"/>
      <path id="Trazado_568506" data-name="Trazado 568506" d="M2486.755,71.024h36.208a3.609,3.609,0,0,1-2.432.4c-10.315.019-20.631.068-30.945-.034-2.036-.02-2.516.619-2.48,2.559.117,6.324.044,12.652.044,18.978-.134.17-.269.163-.4,0Z" transform="translate(-59.789 -15.244)" fill="#df646f"/>
      <path id="Trazado_568507" data-name="Trazado 568507" d="M2459.957,210.626c-.685.7-1.559.388-2.345.389q-22.951.032-45.9.022l-.221-.37.529-.043a2.765,2.765,0,0,1,1.609-.194q22.362-.011,44.724,0A2.731,2.731,0,0,1,2459.957,210.626Z" transform="translate(-15.652 -96.989)" fill="#b8eca3"/>
      <path id="Trazado_568508" data-name="Trazado 568508" d="M2486.747,123.991h.4l47.127,0c-.684.7-1.561.4-2.35.4q-22.584.033-45.168.024Q2486.754,124.205,2486.747,123.991Z" transform="translate(-59.789 -46.308)" fill="#e26571"/>
      <path id="Trazado_568509" data-name="Trazado 568509" d="M2505.435,56.967c-.939-.263-2.582.642-2.491-1.424.068-1.533.7-2.687,2.451-2.725,1.769-.039,2.352,1.034,2.465,2.633C2508.008,57.551,2506.461,56.766,2505.435,56.967Z" transform="translate(-69.286 -4.565)" fill="#335a77"/>
      <path id="Trazado_568510" data-name="Trazado 568510" d="M2561.793,131.558h-37.72v-.2h37.8Z" transform="translate(-81.68 -50.626)" fill="#040404"/>
      <path id="Trazado_568511" data-name="Trazado 568511" d="M2508.05,137.962q0,1.856.008,3.713a.615.615,0,0,1-.182.089c-4.079.476-4.079.476-4.455-3.51C2504.876,136.763,2506.447,137.1,2508.05,137.962Z" transform="translate(-69.568 -54.069)" fill="#355d7c"/>
      <path id="Trazado_568512" data-name="Trazado 568512" d="M2507.54,135.472c-1.481.224-3.057-.515-4.466.44a8,8,0,0,1-.037,3.67c-.822-1.839-.379-3.771-.254-5.632.094-1.41,1.5-.763,2.354-.9C2507.034,132.753,2508.073,133.342,2507.54,135.472Z" transform="translate(-69.058 -51.579)" fill="#2a4c65"/>
      <path id="Trazado_568513" data-name="Trazado 568513" d="M2503.7,254.215q.01-13.412.022-26.824a.7.7,0,0,1,.072-.386c.049-.069.213-.056.326-.08q0,11.978,0,23.956c0,2.907,0,2.907,2.865,2.91l1.239,0C2506.8,254.848,2505.215,254.134,2503.7,254.215Z" transform="translate(-69.733 -106.677)" fill="#396485"/>
      <path id="Trazado_568514" data-name="Trazado 568514" d="M2443.458,151.307h21.056l0,.191H2443.48Z" transform="translate(-34.401 -62.328)" fill="#040404"/>
      <path id="Trazado_568515" data-name="Trazado 568515" d="M2519.929,234.985V221.073l.207,0v13.855Z" transform="translate(-79.25 -103.244)" fill="#040404"/>
      <ellipse id="Elipse_7048" data-name="Elipse 7048" cx="9.518" cy="0.113" rx="9.518" ry="0.113" transform="translate(2413.876 148.431)" fill="#050505"/>
      <path id="Trazado_568516" data-name="Trazado 568516" d="M2576.555,295.461h-12.51l0-.206h12.591Z" transform="translate(-105.121 -146.751)" fill="#050505"/>
      <ellipse id="Elipse_7049" data-name="Elipse 7049" cx="0.138" cy="6.623" rx="0.138" ry="6.623" transform="translate(2440.64 135.75)" fill="#040404"/>
      <path id="Trazado_568517" data-name="Trazado 568517" d="M2418.833,151.647h-8.7l0-.229h8.7Z" transform="translate(-14.855 -62.394)" fill="#040404"/>
      <path id="Trazado_568518" data-name="Trazado 568518" d="M2532.929,295.385h-8.941l0-.184h8.941Z" transform="translate(-81.629 -146.72)" fill="#050505"/>
      <path id="Trazado_568519" data-name="Trazado 568519" d="M2503.726,143.74q.018-1.835.037-3.67c.047.049.1.1.14.148.732.894-.53,2.537.917,3a12.339,12.339,0,0,0,3.417.125C2506.807,144.313,2505.236,143.681,2503.726,143.74Z" transform="translate(-69.747 -55.738)" fill="#386383"/>
      <path id="Trazado_568520" data-name="Trazado 568520" d="M2520.144,134.251v5.637h-.207v-5.649Z" transform="translate(-79.255 -52.318)" fill="#040404"/>
      <path id="Trazado_568521" data-name="Trazado 568521" d="M2436.054,295.332h-5.226l0-.207h5.234Z" transform="translate(-26.994 -146.675)" fill="#050505"/>
      <path id="Trazado_568522" data-name="Trazado 568522" d="M2481.726,64.4c1.743-.891,3.541-.2,5.321,0h-5.321Z" transform="translate(-56.844 -11.095)" fill="#050505"/>
      <path id="Trazado_568523" data-name="Trazado 568523" d="M2462.187,171.539a2.425,2.425,0,0,1-.884,1.574c-2.772,2.768-5.554,5.526-8.3,8.315a1.806,1.806,0,0,1-2.99-.017c-1.092-1.142-2.223-2.247-3.347-3.358-.753-.744-1.261-1.559-.387-2.494s1.68-.494,2.5.205c.97.821,1.665,2.569,2.856,2.345,1.07-.2,1.915-1.647,2.839-2.562,1.661-1.643,3.3-3.31,4.966-4.947a1.477,1.477,0,0,1,1.868-.377A1.709,1.709,0,0,1,2462.187,171.539Z" transform="translate(-35.782 -73.31)" fill="#020201"/>
      <path id="Trazado_568524" data-name="Trazado 568524" d="M2460.708,210.281l-47.939,0c.684-.7,1.561-.4,2.35-.4q22.794-.029,45.589-.014Q2460.707,210.074,2460.708,210.281Z" transform="translate(-16.402 -96.643)" fill="#b0e29d"/>
      <path id="Trazado_568525" data-name="Trazado 568525" d="M2556.672,81.6a2.192,2.192,0,0,1-.87,1.571c-1.117,1.118-2.187,2.287-3.365,3.336-.835.743-.767,1.244.023,1.961,1.219,1.107,2.343,2.318,3.509,3.484.708.709,1.062,1.505.292,2.348-.855.937-1.719.593-2.494-.171-1.175-1.157-2.385-2.283-3.487-3.506-.742-.824-1.25-.777-1.971.014-1.11,1.217-2.316,2.346-3.488,3.505-.708.7-1.517,1.056-2.352.278-.922-.858-.582-1.718.19-2.495,1.114-1.121,2.169-2.309,3.365-3.335,1.015-.872.881-1.456-.046-2.273-1.183-1.042-2.254-2.213-3.362-3.339-.7-.708-1.052-1.518-.261-2.349.867-.911,1.719-.571,2.5.207,1.165,1.167,2.382,2.286,3.483,3.51.751.836,1.252.741,1.966-.039,1.158-1.265,2.405-2.451,3.643-3.641a1.479,1.479,0,0,1,1.868-.379A1.543,1.543,0,0,1,2556.672,81.6Z" transform="translate(-92.138 -20.556)" fill="#010101"/>
    </g>
  </g>
</svg>
