<svg xmlns="http://www.w3.org/2000/svg" width="107" height="107" viewBox="0 0 107 107">
  <g id="Grupo_841677" data-name="Grupo 841677" transform="translate(-240 -1286.742)">
    <rect id="Rectángulo_38178" data-name="Rectángulo 38178" width="107" height="107" transform="translate(240 1286.742)" fill="none"/>
    <g id="Grupo_841819" data-name="Grupo 841819" transform="translate(-701.662 1329.214)">
      <path id="Trazado_568232" data-name="Trazado 568232" d="M1002.571-19.277c-.6-.044-1.2-.085-1.8-.134-.84-.069-1.413-.5-1.4-1.361a1.31,1.31,0,0,1,1.409-1.349c2.9-.138,5.74.044,8.083,2.018a1.731,1.731,0,0,0,2.117.252,10.677,10.677,0,0,0,5.4-4.916c.848-1.641,1.994-2.8,4-2.45,1.909.329,2.594,1.722,2.924,3.476a15.931,15.931,0,0,1-.149,7.391,48.457,48.457,0,0,1,8.848-2.278,23.648,23.648,0,0,1,3.079-.213,6.568,6.568,0,0,1,6.676,6.522,15.3,15.3,0,0,1-10.4,14.9c-.966.31-1.788.323-2.346-.68-.682-1.238.209-1.77,1.076-2.2a19.214,19.214,0,0,0,3.739-2.106c2.569-2.152,4.386-4.718,4.529-8.207.011-.615.012-1.231,0-1.844-.336-2.072-.92-2.655-3-2.984-.637-.013-1.271-.012-1.906.011a35.359,35.359,0,0,0-13.533,4.133c-1.435.758-2.814,1.62-4.305,2.27-.915.363-.606,1.094-.428,1.685.57,1.9,1.135,3.806,1.675,5.717a2.047,2.047,0,0,0,1.952,1.561c1.972.268,3.954.312,5.935.43,1.715.1,2.093.681,1.783,2.262-.326.951-1.106,1.01-1.926.967a47.935,47.935,0,0,1-5.263-.34c-1.558-.257-1.846.091-1.47,1.594a82.7,82.7,0,0,1,1.8,10.383c.86,7.258-1.561,13.367-6.377,18.63a3.749,3.749,0,0,0-1.207,3.477c.473,3.09-.8,5.111-3.7,6.258a2.094,2.094,0,0,0-1.173,1.239,7.277,7.277,0,0,1-7.413,4.486c-3.211-.128-6.434-.1-9.648-.008a7.018,7.018,0,0,1-6.875-4.161,3.15,3.15,0,0,0-1.859-1.746c-2.417-.87-3.65-3.241-3.173-6.251a3.15,3.15,0,0,0-.979-3.021,23.3,23.3,0,0,1-6.354-21.254c.5-2.8,1.021-5.6,1.622-8.387.252-1.165.06-1.446-1.191-1.269-1.856.263-3.75.266-5.627.371-.82.045-1.6-.016-1.927-.966-.306-1.58.077-2.161,1.783-2.286A53.137,53.137,0,0,0,971.342-.1c.686-.126,1.492-.025,1.86-.853.769-2.043,1.27-4.166,1.862-6.263a1.494,1.494,0,0,0-.685-2,49.865,49.865,0,0,0-15.3-6.034,11.008,11.008,0,0,0-2.165-.18c-.63-.028-1.26-.02-1.888-.017a2.9,2.9,0,0,0-1.86.537,2.775,2.775,0,0,0-1.224,2.494c0,.614,0,1.227.017,1.839C952.332-5.957,955-3,958.9-.923a10.727,10.727,0,0,1,1.929.977c.584.483,1.053,1.042.471,1.844-.557,1-1.378.99-2.344.681a15.294,15.294,0,0,1-10.4-14.873,6.568,6.568,0,0,1,6.64-6.552,32.085,32.085,0,0,1,10.3,1.965c.491.154.976.328,1.629.548a16.77,16.77,0,0,1-.093-7.531c.341-1.688,1.037-3.011,2.843-3.341,1.879-.343,3.09.6,3.925,2.23a10.924,10.924,0,0,0,5.635,5.17,1.647,1.647,0,0,0,1.958-.255,9.368,9.368,0,0,1,6.243-2.072c2.3.016,4.607.034,6.908-.011,1.108-.021,1.9.27,2.12,1.469.159,1.341-.882,1.534-1.781,1.865-2.649.22-5.3.057-7.952.1a4.673,4.673,0,0,0-3.876,1.553c-1.755,1.311-1.984,3.391-2.606,5.257-.295.884.548,1.1,1.12,1.378,4.018,1.959,6.294,5.336,7.654,9.435.416,1.251.628,2.536-.968,3.231-1.616.287-2.1-.861-2.49-2.034a13.124,13.124,0,0,0-5.814-7.322c-.885-.34-1.052.347-1.214.909-1.877,6.544-3.794,13.081-4.581,19.878a4.889,4.889,0,0,1-.144.86,35.84,35.84,0,0,0-.084,6.739,3.055,3.055,0,0,1,.144.523,19.644,19.644,0,0,0,4.148,8.649c.513.665.976.971,1.245-.171a11.665,11.665,0,0,1,1.146-2.463c4.044-6.358,5.451-13.471,6.019-20.829.1-1.244.208-2.466,1.791-2.734,1.253.161,1.675,1.034,1.773,2.134a26.359,26.359,0,0,1,.029,3.409,8.174,8.174,0,0,1-.135,1.192,59.455,59.455,0,0,1-2.381,10.489c-.352.968.086,1.2.971.919,1.015-.233,2.069-.011,3.081-.283a2.1,2.1,0,0,1,.881.039,1.983,1.983,0,0,1,1.409,1.446c.046,1.577-.971,2.025-2.295,2.211-2.195.31-4.459.368-6.412,1.626a19.032,19.032,0,0,0-3.871,10.847,2.27,2.27,0,0,0,1.611,2.359,6.4,6.4,0,0,0,2.16.169q9.968.011,19.936,0a7.57,7.57,0,0,0,1.979-.124,2.009,2.009,0,0,0,1.442-1.228c.791-2.9-.512-5.448-1.353-8.074-1.046-3.263-3.1-5.221-6.677-5.339a20.272,20.272,0,0,1-2.333-.3c-1.214-.184-2.016-.783-1.961-2.148a1.978,1.978,0,0,1,1.382-1.436,2.083,2.083,0,0,1,.869-.054c4.32.6,4.267.61,3.2-3.519-1.5-5.795-2.293-11.669-1.131-17.624a15.485,15.485,0,0,1,8.194-11.39c1.03-.538,1.155-1.163.836-2.207-.914-2.989-2.2-5.558-5.751-5.99A1.53,1.53,0,0,1,1002.571-19.277Z" transform="translate(0)"/>
      <path id="Trazado_568233" data-name="Trazado 568233" d="M1060.577-7.854a6.077,6.077,0,0,1,5.068,3.31,8.2,8.2,0,0,1,.7,1.665c1,3.022.979,3-1.671,4.715-4.813,3.11-6.959,7.755-7.357,13.28a45.4,45.4,0,0,0,2.371,17.329c.2.618.384,1.241.636,2.059l-5.3-.8c.224-.286.523-.21.778-.193-.429.042-.93-.258-1.345.184-.492.287-1.037.515-1.247,1.116a1.572,1.572,0,0,1-2.75,0c-.212-.6-.755-.825-1.245-1.113-.415-.442-.917-.142-1.3-.18a.686.686,0,0,1,.737.189,12.9,12.9,0,0,1-3.242.386c-1.227.314-1.022-.5-.831-1.142.452-1.51.962-3,1.307-4.544,1.1-4.926,1.94-9.866,1.091-14.94-.873-5.212-3.154-9.53-7.777-12.358a2.707,2.707,0,0,1-1.275-3.546,29.275,29.275,0,0,1,1.48-3.7,4.79,4.79,0,0,1,3.694-1.707,1.423,1.423,0,0,0,.455.3c2.611.144,5.223.042,7.829.052.22-.044.373-.148.332-.412.75-.224,1.423-.536,1.627-1.4,1.487-.41,2.309.649,3.242,1.466a1.648,1.648,0,0,0,.648.3,14.379,14.379,0,0,0,2.963-.023A1.419,1.419,0,0,0,1060.577-7.854Z" transform="translate(-56.676 -11.364)" fill="#f4fbfe"/>
      <path id="Trazado_568234" data-name="Trazado 568234" d="M966.375,22.854c.113-1.234-.714-1.6-1.676-2.007-4.623-1.942-7.668-5.162-8.149-10.375a2.867,2.867,0,0,0-.019-2.18,2.789,2.789,0,0,1,1.425-2.6c.6.536.385,1.214.322,1.865A10.853,10.853,0,0,0,969.16,19.764a40.525,40.525,0,0,0,7.6-.243,2.025,2.025,0,0,1,2.027.45c.107,1.222-.763,1.317-1.63,1.406a48.2,48.2,0,0,1-6.45.417c-1.239-.039-1.939.469-1.844,1.8A3.532,3.532,0,0,0,966.375,22.854Z" transform="translate(-5.076 -20.956)" fill="#8a5c5c"/>
      <path id="Trazado_568235" data-name="Trazado 568235" d="M1141.264,33.678c.1-1.345-.623-1.834-1.862-1.795a51.761,51.761,0,0,1-6.487-.416,1.606,1.606,0,0,1-1.692-1.278c-.616-2.388-1.292-4.764-2.048-7.112-.356-1.106.084-1.429,1.042-1.511,1.361,1.388,1.38,3.305,1.911,5,.993,3.173,1.043,3.29,4.395,3.29,3.622,0,7.272.277,10.759-1.095a1.416,1.416,0,0,1,1.543.16,8.815,8.815,0,0,1-3.729,2.14,1.712,1.712,0,0,0-1.34,1.879A3.481,3.481,0,0,0,1141.264,33.678Z" transform="translate(-114.733 -31.047)" fill="#8a5c5c"/>
      <path id="Trazado_568236" data-name="Trazado 568236" d="M1089.851-5.075l-.355-.355,2.666-.07a1.771,1.771,0,0,1,1.33.059v.366A7.78,7.78,0,0,1,1089.851-5.075Z" transform="translate(-89.591 -13.777)" fill="#fefefe"/>
      <path id="Trazado_568237" data-name="Trazado 568237" d="M1051.5,111.915a3.04,3.04,0,0,0,2.75,0c-.026,1.222.63,1.746,1.792,1.761a4.385,4.385,0,0,1,.723.044c2.4.431,5.29.043,6.8,2.31a18.093,18.093,0,0,1,3.419,11.753c-.014.159-.178.305-.273.458a5.789,5.789,0,0,1-2.641.521c-7.141-.005-14.282.008-21.424-.01-2.755-.007-3.544-.981-3.239-3.7a28.411,28.411,0,0,1,3.278-9.55c2.018-1.61,4.493-1.53,6.855-1.795C1050.719,113.579,1051.532,113.267,1051.5,111.915Z" transform="translate(-57.714 -88.474)" fill="#feccbd"/>
      <path id="Trazado_568238" data-name="Trazado 568238" d="M1101.842,31.7a11.089,11.089,0,0,1,5.507-6.009c.743-.415,1.145-.362,1.407.545,2.154,7.442,4.237,14.9,5.1,22.632a19.635,19.635,0,0,1-4.952,15.776c-.533.082-.771-.283-.954-.671-2.234-4.756-4.947-9.292-5.89-14.6C1101.014,43.479,1100.421,37.615,1101.842,31.7Z" transform="translate(-96.904 -33.513)" fill="#c28677"/>
      <path id="Trazado_568239" data-name="Trazado 568239" d="M1032.836,38.814c-1.122.412-1.219,1.315-1.251,2.354a48.325,48.325,0,0,1-3.362,16.289c-1.044,2.657-3.005,4.838-3.888,7.574-1.062.141-1.469-.7-1.959-1.357-3.42-4.593-4.276-9.765-3.5-15.335a133.84,133.84,0,0,1,4.518-19.837c.209-.7.306-1.6,1.362-1.659a12.293,12.293,0,0,1,6.044,7.686c.309,1.012.7,1.781,1.907,1.744A1.836,1.836,0,0,1,1032.836,38.814Z" transform="translate(-44.535 -34.4)" fill="#c28677"/>
      <path id="Trazado_568240" data-name="Trazado 568240" d="M1150.857,17.617c-4.446,1.673-9.076,1.577-13.718,1.491-1.721-.032-2.774-.571-3.151-2.414-.444-2.173-1.148-4.294-1.739-6.437,4.947-2.856,10.068-5.28,15.76-6.256.71-.122,1.438-.137,2.158-.2a2.671,2.671,0,0,0,2.193-.026c2.174.332,2.934,1.1,3.271,3.3a2.9,2.9,0,0,0-.02,2.18A10.7,10.7,0,0,1,1150.857,17.617Z" transform="translate(-116.765 -19.738)" fill="#c28677"/>
      <path id="Trazado_568241" data-name="Trazado 568241" d="M980.792,18.726c-3.063.218-6.128.32-9.2.391A11.441,11.441,0,0,1,959.953,5.35a4.27,4.27,0,0,0,.007-.9,2.074,2.074,0,0,1,1.847-.7A2.676,2.676,0,0,0,964,3.776a34.568,34.568,0,0,1,14.021,4.4,22.592,22.592,0,0,0,4.041,2,1.132,1.132,0,0,1,.843,1.646Q981.855,15.277,980.792,18.726Z" transform="translate(-7.079 -19.712)" fill="#c28678"/>
      <path id="Trazado_568242" data-name="Trazado 568242" d="M1042.9,21.453q-.065-1.271-.13-2.542c1.056-.589,1.071-1.469.747-2.491-1.368-4.316-3.8-7.775-8.024-9.681-1.1-.494-1.252-.988-.847-2.028.712-1.827.884-3.916,2.678-5.18.1,1.569-.783,2.895-1.126,4.357a1.678,1.678,0,0,0,.817,2.211c7.766,4.911,9.342,12.336,8.483,20.824a48.637,48.637,0,0,1-2.691,12.143c-.216.58.218.565.522.7-.284.089-.564.2-.854.261-.333.07-.675.1-1.286.18a65.282,65.282,0,0,0,3.039-12.285c.254.142.236.384.229.623-.2-.141-.182.331-.192.408a2.479,2.479,0,0,0,.051-1.99c.014-1.138-.02-2.279.054-3.413A1.724,1.724,0,0,0,1042.9,21.453Z" transform="translate(-54.597 -17.04)" fill="#d5deef"/>
      <path id="Trazado_568243" data-name="Trazado 568243" d="M1023.249,25.962c-1.159,1.29-1.207,3.009-1.652,4.544-1.985,6.854-3.767,13.8-4,20.945a16.328,16.328,0,0,0,5.228,12.7l-.555,1.668c-2.766-3.162-4.885-6.365-5.549-10.376.062-.235.042.087.1-.146a3.507,3.507,0,0,0,.065-.7c-.044.192-.019.411-.214.543a16.189,16.189,0,0,1-.019-7.413.7.7,0,0,1,.216.759c-.061-.322.161-.868-.156-1.4.422-5.1,1.838-9.994,3.1-14.917.482-1.877,1.117-3.716,1.579-5.6C1021.728,25.253,1022.308,25.177,1023.249,25.962Z" transform="translate(-43.028 -33.519)" fill="#895b5c"/>
      <path id="Trazado_568244" data-name="Trazado 568244" d="M1124.808-12.866a14.388,14.388,0,0,0,6.05-6.1c.189-.373.405-.83.919-.682a.98.98,0,0,1,.555.638c.528,2.557,1.075,5.126-.483,7.553a12.365,12.365,0,0,1-4.478,2.9,1.379,1.379,0,0,1-2.125-.888C1124.872-10.55,1124.111-11.622,1124.808-12.866Z" transform="translate(-111.855 -4.83)" fill="#fdeead"/>
      <path id="Trazado_568245" data-name="Trazado 568245" d="M1007.252-19.484c.787-.259.876.45,1.1.858a13.363,13.363,0,0,0,6.373,5.984c.728.328,1.038.574.63,1.436a33.306,33.306,0,0,0-1.211,3.415,8.455,8.455,0,0,1-7.258-10.668A7.188,7.188,0,0,1,1007.252-19.484Z" transform="translate(-36.899 -4.919)" fill="#fdedac"/>
      <path id="Trazado_568246" data-name="Trazado 568246" d="M1100.868,42.621c.2,2.843-.424,5.646-.339,8.5a45.927,45.927,0,0,0,3.559,16.907c1.1,2.557,2.543,5.033,3.845,7.538-.5.822-.958,1.393-1.375-.07-.988-3.473-3.576-6.17-4.631-9.638-1.185-3.893-2.356-7.769-2.458-11.877.1-2.182.008-4.365.012-6.548A8.9,8.9,0,0,1,1100.868,42.621Z" transform="translate(-95.93 -44.429)" fill="#895b5c"/>
      <path id="Trazado_568247" data-name="Trazado 568247" d="M1041.526,121.771c.272,1.249-.681,2.111-1.085,3.115a31.582,31.582,0,0,0-1.785,7.357c-.219,1.5.58,2.272,2.237,2.266q12.157-.044,24.315-.111a1.183,1.183,0,0,1,.344.11,1.2,1.2,0,0,1-1.1,1.051q-12.734.114-25.467,0a1.878,1.878,0,0,1-1.458-2.037A18.68,18.68,0,0,1,1041.526,121.771Z" transform="translate(-56.556 -94.738)" fill="#e6aa99"/>
      <path id="Trazado_568248" data-name="Trazado 568248" d="M1068.814,168.619a3.924,3.924,0,0,1-3.592,1.722q-5.185.035-10.37,0a4.292,4.292,0,0,1-4.208-2.822h3.739c4.609,0,9.218-.015,13.826.039.271,0,1.457-.667.941.67-4.9.405-9.81.079-14.714.226,4.579-.121,9.162.132,13.74-.137A.856.856,0,0,1,1068.814,168.619Z" transform="translate(-64.895 -123.736)" fill="#946561"/>
      <path id="Trazado_568249" data-name="Trazado 568249" d="M1041.528,159.027c.445-.456,1.019-.31,1.549-.311q11.185-.011,22.37,0c.529,0,1.1-.146,1.548.312a3.612,3.612,0,0,1-1.943.308q-10.791.006-21.582,0A3.586,3.586,0,0,1,1041.528,159.027Z" transform="translate(-59.101 -118.207)" fill="#f7b6a4"/>
      <path id="Trazado_568250" data-name="Trazado 568250" d="M1072.4,169.416a77.694,77.694,0,0,1-16.086-.015l-.028-.6c.431-.039.863-.112,1.294-.113q6.725-.013,13.451,0c.577,0,1.226-.223,1.705.336Z" transform="translate(-68.482 -124.533)" fill="#c98b7b"/>
      <path id="Trazado_568251" data-name="Trazado 568251" d="M1006.393-19.387a24.764,24.764,0,0,0-.228,3.921c.519,4.343,3.55,6.28,7.119,7.773.009.752-.348.892-1.047.748a8.783,8.783,0,0,1-6.149-12.279C1006.129-19.308,1006.289-19.334,1006.393-19.387Z" transform="translate(-36.04 -5.016)" fill="#f7cb62"/>
      <path id="Trazado_568252" data-name="Trazado 568252" d="M1123.063-.982c.6,4.473,1.045,4.718,4.861,2.639.733-.4,1.453-.82,2.18-1.232-1.212,2.524-3.621,3.4-5.982,4.343-.648.258-.837-.156-1-.672-.4-1.269-.784-2.542-1.241-3.788S1122.6-.616,1123.063-.982Z" transform="translate(-110.11 -16.714)" fill="#f7cb62"/>
      <path id="Trazado_568253" data-name="Trazado 568253" d="M1098.937,55.824a12.418,12.418,0,0,1-.012,6.548A17.139,17.139,0,0,1,1098.937,55.824Z" transform="translate(-95.386 -52.821)" fill="#936262"/>
      <path id="Trazado_568254" data-name="Trazado 568254" d="M1053.747-7.895h8.61v.182h-8.623Z" transform="translate(-66.86 -12.32)" fill="#040404"/>
      <path id="Trazado_568255" data-name="Trazado 568255" d="M1061.106-5.577c.32.071.658.1.853.425a51.428,51.428,0,0,1-9.468,0v-.366A52.483,52.483,0,0,1,1061.106-5.577Z" transform="translate(-66.07 -13.7)" fill="#fefefe"/>
      <path id="Trazado_568256" data-name="Trazado 568256" d="M1010.733,95.582V90.964h.177v4.619Z" transform="translate(-39.528 -75.156)" fill="#040404"/>
      <path id="Trazado_568257" data-name="Trazado 568257" d="M1141.854,92.03v4.221l-.182,0V91.992Z" transform="translate(-122.755 -75.81)" fill="#040404"/>
      <path id="Trazado_568258" data-name="Trazado 568258" d="M1065.034,108.228l-1.545-.134.008-.243c.81,0,1.621,0,2.432.005.024,0,.07.113.067.115-.129.087-.262.167-.395.248Z" transform="translate(-73.06 -85.89)" fill="#fdfefe"/>
      <path id="Trazado_568259" data-name="Trazado 568259" d="M1082.983,108.194c-.15-.086-.56-.272-.318-.315a5.288,5.288,0,0,1,2.43.19l-1.545.134Z" transform="translate(-85.202 -85.866)" fill="#fdfefe"/>
      <path id="Trazado_568260" data-name="Trazado 568260" d="M1195.676,15.013a1.674,1.674,0,0,1,.02-2.18A4.1,4.1,0,0,1,1195.676,15.013Z" transform="translate(-156.83 -25.495)" fill="#cd8e7e"/>
      <path id="Trazado_568261" data-name="Trazado 568261" d="M956.349,12.83a1.665,1.665,0,0,1,.019,2.18A5.281,5.281,0,0,1,956.349,12.83Z" transform="translate(-4.893 -25.493)" fill="#936363"/>
      <path id="Trazado_568262" data-name="Trazado 568262" d="M1061.386,74.806c.531.524.346,1.145.262,1.8-.424-.193-.191-.6-.349-.841Q1061.343,75.286,1061.386,74.806Z" transform="translate(-71.668 -64.886)" fill="#e3edfd"/>
      <path id="Trazado_568263" data-name="Trazado 568263" d="M1183.615,3.537a1.631,1.631,0,0,1-2.193.026A4.136,4.136,0,0,1,1183.615,3.537Z" transform="translate(-148.021 -19.5)" fill="#d09080"/>
      <path id="Trazado_568264" data-name="Trazado 568264" d="M1017.457,84.812c.592.554.258,1.2.072,1.827q-.066-.594-.132-1.188Z" transform="translate(-43.763 -71.246)" fill="#936262"/>
      <path id="Trazado_568265" data-name="Trazado 568265" d="M967.7,3.564a1.634,1.634,0,0,1-2.194-.027A4.129,4.129,0,0,1,967.7,3.564Z" transform="translate(-10.784 -19.5)" fill="#d09080"/>
      <path id="Trazado_568266" data-name="Trazado 568266" d="M1017.421,104.451l.134-1.409c.338.793.36,1.282-.089,1.714A.359.359,0,0,1,1017.421,104.451Z" transform="translate(-43.769 -82.834)" fill="#916161"/>
      <path id="Trazado_568267" data-name="Trazado 568267" d="M1082.1,12.056a13.324,13.324,0,0,1-7.811-4.227c-.6-.643-.887-1.377-.181-2.081.762-.76,1.5-.5,2.186.226a10.258,10.258,0,0,0,6.262,3.356c.972.128,1.693.539,1.518,1.6S1083.04,12.157,1082.1,12.056Z" transform="translate(-79.544 -20.7)" fill="#030303"/>
      <path id="Trazado_568268" data-name="Trazado 568268" d="M1052.74,12.068a13.072,13.072,0,0,1-8.066-4.421,1.274,1.274,0,0,1,.006-1.935,1.315,1.315,0,0,1,2.058.178,10.408,10.408,0,0,0,6.394,3.451c.9.119,1.548.487,1.46,1.47C1054.5,11.9,1053.708,12.141,1052.74,12.068Z" transform="translate(-60.82 -20.702)" fill="#030303"/>
      <path id="Trazado_568269" data-name="Trazado 568269" d="M1052.491-4.153h9.468c-1.28.772-2.687.35-4.015.322C1056.129-3.871,1054.263-3.353,1052.491-4.153Z" transform="translate(-66.07 -14.698)" fill="#eff6f9"/>
      <path id="Trazado_568270" data-name="Trazado 568270" d="M1090.47-4.153h3.641A4.1,4.1,0,0,1,1090.47-4.153Z" transform="translate(-90.21 -14.699)" fill="#eff6f9"/>
      <path id="Trazado_568271" data-name="Trazado 568271" d="M1052.87,126.565a1.325,1.325,0,0,1,1.436,1.225,6.941,6.941,0,0,0,1.912,3.638c.623.722.961,1.486.138,2.213s-1.56.32-2.186-.4a9.775,9.775,0,0,1-2.54-4.738C1051.453,127.471,1051.784,126.711,1052.87,126.565Z" transform="translate(-65.494 -97.785)" fill="#030202"/>
      <path id="Trazado_568272" data-name="Trazado 568272" d="M1092.17,128.193a9.626,9.626,0,0,1-3.052,5.475,1.219,1.219,0,0,1-1.8-.062,1.177,1.177,0,0,1-.19-1.649,9.908,9.908,0,0,0,2.456-4.574c.115-.673.777-.909,1.444-.779C1091.9,126.774,1092.153,127.419,1092.17,128.193Z" transform="translate(-87.924 -97.789)" fill="#030202"/>
      <path id="Trazado_568273" data-name="Trazado 568273" d="M1113.2,61.467c.487-.606,1.066-1.04,1.873-.683.788.349.869,1.075.86,1.839q-.026,2.086,0,4.174c.009.836-.1,1.614-1.036,1.891-.975.29-1.419-.4-1.824-1.107A14.4,14.4,0,0,1,1113.2,61.467Z" transform="translate(-104.406 -55.892)" fill="#060403"/>
      <path id="Trazado_568274" data-name="Trazado 568274" d="M1112.793,62.883,1112.665,69A8.59,8.59,0,0,1,1112.793,62.883Z" transform="translate(-104.001 -57.308)" fill="#cb8c7d"/>
      <path id="Trazado_568275" data-name="Trazado 568275" d="M1034.427,67.58c-.406.7-.848,1.4-1.823,1.108-.933-.277-1.046-1.053-1.036-1.89q.024-2.086,0-4.173c-.01-.763.068-1.491.857-1.84.805-.357,1.387.069,1.871.682A14.266,14.266,0,0,1,1034.427,67.58Z" transform="translate(-52.77 -55.892)" fill="#060403"/>
      <path id="Trazado_568276" data-name="Trazado 568276" d="M1039.188,69q-.066-3.056-.131-6.113c1.09,1.976.339,4.083.43,6.129,0,.019-.092.06-.138.056A.52.52,0,0,1,1039.188,69Z" transform="translate(-57.531 -57.308)" fill="#cb8c7d"/>
    </g>
  </g>
</svg>
