<svg xmlns="http://www.w3.org/2000/svg" xmlns:xlink="http://www.w3.org/1999/xlink" width="166" height="166" viewBox="0 0 166 166">
  <defs>
    <clipPath id="clip-path">
      <circle id="Elipse_7050" data-name="Elipse 7050" cx="83" cy="83" r="83" transform="translate(387 2995)" fill="#fff" stroke="#707070" stroke-width="1"/>
    </clipPath>
  </defs>
  <g id="Enmascarar_grupo_700145" data-name="Enmascarar grupo 700145" transform="translate(-387 -2995)" clip-path="url(#clip-path)">
    <g id="Grupo_841830" data-name="Grupo 841830" transform="translate(409.836 3017.69)">
      <path id="Trazado_568526" data-name="Trazado 568526" d="M2735.522,400.334c-1.757.277-2.525-.61-2.944-2.232a17.8,17.8,0,0,1,3.088-15.784,2.532,2.532,0,0,0,.334-2.911,52.316,52.316,0,0,1,42.371-72.183,50.9,50.9,0,0,1,20.489,1.689c1.455.422,2.444,1.021,2.274,2.706-.617,2.078-2.164,1.693-3.618,1.284a47.592,47.592,0,0,0-13.923-1.874,48.21,48.21,0,0,0-45.824,35.935,23.333,23.333,0,0,0-1.037,5.295,6.315,6.315,0,0,1-.183,1.1,49.368,49.368,0,0,0,2.349,21.915c.572,1.581,1.382,1.837,2.826,1.073a17.208,17.208,0,0,1,5.8-1.765c.312-.022-.094-.005.218-.033a2.24,2.24,0,0,0,.654-.039c-.125-.145-.344-.149-.464-.307A28.1,28.1,0,0,1,2745,363.4a39.443,39.443,0,0,1,34.374-43.324c1.025.016,1.973-.462,2.994-.474,1.277-.04,2.554-.044,3.831.011a5.948,5.948,0,0,1,1.084.168,40.853,40.853,0,0,1,15.863,4.819,32.668,32.668,0,0,1,5.516,3.584c1.293,1.11,2.328,1,3.434-.216a32.387,32.387,0,0,1,2.835-2.822c1.417-1.208,1.115-2.194-.159-3.248a72.115,72.115,0,0,0-8.185-5.532c-1.137-.7-2.384-1.485-1.179-3.126,1-1.176,2.065-1.066,3.334-.364a63.335,63.335,0,0,1,9.711,6.6c.549.453,1.069,1.843,1.99.891.987-1.018,2.875-1.61,2.26-3.7-.885-3.007-1.67-6.043-2.545-9.052a5.913,5.913,0,0,1,1.708-6.417c2.717-2.608,5.323-5.333,8.007-7.978,3.768-3.715,8.747-2.621,9.545,2.518.811,5.22,3.3,7.449,8.388,8.278,4.886.8,6.091,5.72,2.649,9.28-2.782,2.878-5.661,5.662-8.478,8.507a5.645,5.645,0,0,1-6.036,1.5c-2.933-.856-5.884-1.654-8.832-2.462-1.36-.373-3.929,1.031-4.3,2.325-.228.794.492,1.082.868,1.514a53.33,53.33,0,0,1,12.516,27.167c4.478,28.06-16.509,55.9-44.735,59.324a52.51,52.51,0,0,1-27.414-3.658,2.54,2.54,0,0,0-2.9.512,18.2,18.2,0,0,1-22.286-.389c-1.032-.835-1.944-1.662-1.23-3.153.833-1.75,2.008-1.383,3.237-.5a17.5,17.5,0,0,0,5.772,2.994c9.394,1.714,16.625-3.394,17.724-12.636a12.986,12.986,0,0,0-2.626-9.232,12.705,12.705,0,0,0-10.257-5.794c-.713-.007-1.424-.013-2.136.022-8.764.452-14.365,7.975-12.818,17.169C2736.755,397.891,2737.527,399.5,2735.522,400.334Z" transform="translate(-2731.922 -291.027)"/>
      <path id="Trazado_568527" data-name="Trazado 568527" d="M2809.42,335.015c-.287,1.405.444,2.161,1.614,2.763a48.855,48.855,0,0,1,8.95,6.033c1.131.945,1.342,1.718.127,2.812-1.63,1.466-3.121,3.086-4.672,4.64-.508.509-.932,1.026-1.745.319-6.416-5.593-14-8.459-22.36-9.478a.881.881,0,0,1,.988-.287c-.416.092-1.129-.243-1.807.229l-4.236-.007c-1.014-.552-1.9-.018-2.817.318-15.9,2.765-26.86,11.536-32.14,26.9a37.279,37.279,0,0,0,.257,24.5c.273.813.534,1.63.8,2.445-.437.4-1.021.126-1.636.334-.178.006.055.365.051.056,0-.087.252-.127.4-.135a.9.9,0,0,1,.812.275,22.122,22.122,0,0,0-7.607,2.92c-.719.5-1.094.332-1.389-.427a46.14,46.14,0,0,1-2.967-24.361.512.512,0,0,1,.289.439,1.581,1.581,0,0,0-.2-1.23A44.282,44.282,0,0,1,2752.3,348.18c13.507-14.207,29.96-18.9,49.029-14.218,1.395.343,2.731.887,3.819-.568Z" transform="translate(-2735.933 -312.8)" fill="#ed6161"/>
      <path id="Trazado_568528" data-name="Trazado 568528" d="M2739.533,498.644c1.07-1.157.66-2.413.353-3.733-2.065-8.9,4.6-17.772,13.42-17.934a2.628,2.628,0,0,0,2.35.024,12.867,12.867,0,0,1,10.43,5.931c4.45,8.955-.758,18.268-8.279,21.922a12.509,12.509,0,0,1-7.342.941,11.873,11.873,0,0,1-5.755-2.935,2.042,2.042,0,0,0-3.073-.063C2741.228,501.265,2739.714,500.292,2739.533,498.644Z" transform="translate(-2735.933 -389.337)" fill="#56bd91"/>
      <path id="Trazado_568529" data-name="Trazado 568529" d="M2806.17,370.813A27.544,27.544,0,0,0,2791,374.126a25.329,25.329,0,1,0,32.916,7.121c-1.156-1.551-1.135-2.323.284-3.516a52.453,52.453,0,0,0,4.5-4.477c.735-.788,1.2-.71,1.834.09a31.374,31.374,0,0,1,5.822,10.106c.368,3.554,1.157,7.034,1.129,10.665a37.838,37.838,0,0,1-27.062,35.655c-1.794.509-3.577,1.273-5.139.7a1.883,1.883,0,0,1,1.532.723c-6.414.968-12.434-.451-18.277-2.992a2.008,2.008,0,0,1-1.13-1.638c-1.8-7.688-6.58-12.446-14.232-14.28a2.367,2.367,0,0,1-1.865-1.508,31.136,31.136,0,0,1-2.9-11.542,26.144,26.144,0,0,1,.01-6.392c.67-14.847,13.3-28.782,28.535-31.42a35.214,35.214,0,0,1,28.752,7.188c1.26.977,1.307,1.569.112,2.624-1.7,1.5-3.244,3.188-4.848,4.8-.5.5-.876,1.029-1.7.332-3.564-3.014-7.832-4.489-12.311-5.471.142-.328.511-.208.881-.428C2807.208,370.709,2806.618,370.389,2806.17,370.813Z" transform="translate(-2751.114 -327.924)" fill="#f8f6f7"/>
      <path id="Trazado_568530" data-name="Trazado 568530" d="M2812.291,446.839a34.655,34.655,0,0,1-7.9-2.137c-1.22-.4-1.619-.858-.759-2.1a12.4,12.4,0,0,0,2.212-5.636c.221-1.956.907-2.07,2.656-1.427a38.793,38.793,0,0,0,51.192-26.911c.484-1.887.783-3.82,1.168-5.732.285.129.185.454.334.652-.14-.486.137-1.049-.275-1.485q-.006-3.061-.013-6.123c.447-.438.12-1.033.316-1.542-.191.229-.044.612-.384.741-.847-4.774-1.923-9.483-4.267-13.788-.82-1.506-1.82-2.914-2.645-4.418-.849-1.548-3.187-2.657-2.766-4.3.387-1.509,2.306-2.633,3.572-3.905,3.07-3.086,3.1-3.1,5.743.337a37.361,37.361,0,0,1,5.621,9.4c2.3,6.29,3.833,12.712,3.5,19.482-.746,15.012-6.629,27.576-17.99,37.447a48.694,48.694,0,0,1-26.218,11.729c-2.267.293-4.539.073-6.809.151A51.216,51.216,0,0,1,2812.291,446.839Z" transform="translate(-2769.592 -330.9)" fill="#ed6161"/>
      <path id="Trazado_568531" data-name="Trazado 568531" d="M2812.714,432.46c-9.759-2.193-16.953-12.609-15.84-22.929,1.138-10.554,9.925-19.248,19.676-19.469a8.336,8.336,0,0,0,4.229.009c3.906.085,7.271,1.655,10.452,3.765,1.033.685,1.142,1.372.24,2.254-1.571,1.534-3.17,3.045-4.644,4.67-.99,1.091-1.657.217-2.427-.174a12.451,12.451,0,1,0,2.554,20.263,12.079,12.079,0,0,0,2.7-14.792c-1-1.8-.695-2.709.672-3.883s2.586-2.512,3.84-3.809c.659-.682,1.221-1.058,1.684.147,4.548,9.207,3.262,17.881-3.057,25.63C2827.72,430.367,2820.954,433.424,2812.714,432.46Z" transform="translate(-2766.201 -343.386)" fill="#ed6161"/>
      <path id="Trazado_568532" data-name="Trazado 568532" d="M2836.785,460.321c14.99.01,27.377-5.947,37.256-16.937a49.317,49.317,0,0,0,12.241-27.168,52.221,52.221,0,0,0-2.106-22.2,14.1,14.1,0,0,1-.31-2.069A44.113,44.113,0,0,1,2888.154,418c-.525-.446-.129-1.077-.4-1.838.236.893-.124,1.611.357,2.211a44.962,44.962,0,0,1-9.883,24.261,48.219,48.219,0,0,1-29.235,17.967,15.518,15.518,0,0,1-1.867.159c-.3-.1.122-.026-.166-.142-.347-.14-.711-.031-1.051-.142.262.155.651-.012.838.331a8.477,8.477,0,0,1-3.867.407c-1.561-.481-3.166-.073-4.739-.239C2837.647,460.92,2836.823,461.383,2836.785,460.321Z" transform="translate(-2787.362 -344.384)" fill="#e74343"/>
      <path id="Trazado_568533" data-name="Trazado 568533" d="M2824.787,423.981a8.756,8.756,0,0,1,11.607-6.64c1.389.495,2.115.894.581,2.222-1.654,1.432-3.115,3.089-4.676,4.629-.86.847-1.461,1.774-.464,2.838,1.106,1.181,2.087.512,3.008-.389,1.788-1.749,3.6-3.477,5.4-5.215,1.058,1.051.7,2.311.454,3.508-.98,4.783-5.344,8.987-10.47,9.014a7.723,7.723,0,0,1-5.468-6.674,1.824,1.824,0,0,0,.36-.455,16.264,16.264,0,0,0-.006-2.038A1.846,1.846,0,0,0,2824.787,423.981Z" transform="translate(-2781.001 -357.528)" fill="#f8f6f7"/>
      <path id="Trazado_568534" data-name="Trazado 568534" d="M2940.661,306.8c.12.6-.46.974-.887,1.4-3.2,3.21-6.451,6.375-9.609,9.629-1.225,1.263-1.587.658-1.861-.608a4.51,4.51,0,0,0-.286-1.132c-2.618-5.014-1.384-8.938,3.159-12.158a41.956,41.956,0,0,0,4.185-4.095c1.773-1.682,3.05-1.371,3.72.922C2939.652,302.7,2940.113,304.682,2940.661,306.8Z" transform="translate(-2834.878 -295.121)" fill="#595959"/>
      <path id="Trazado_568535" data-name="Trazado 568535" d="M2846.286,456.576a16.807,16.807,0,0,0-3.414-.733,33.045,33.045,0,0,0,16.258-5.64,35.986,35.986,0,0,0,16.645-25.179,34.791,34.791,0,0,0-.381-14.17,2.859,2.859,0,0,1,.431-2.016,24.308,24.308,0,0,1,2.3,10.456,8.272,8.272,0,0,0,.014,4.236c-.276,8.458-3.527,15.589-9.25,21.8a34.5,34.5,0,0,1-19.119,10.915A10.616,10.616,0,0,1,2846.286,456.576Z" transform="translate(-2790.58 -353.312)" fill="#edebed"/>
      <path id="Trazado_568536" data-name="Trazado 568536" d="M2830.61,441.939c6.546-.356,12.768-1.764,17.6-6.541,6.933-6.854,9.118-15.047,6.293-24.472a8.712,8.712,0,0,1-.754-2.935,17.554,17.554,0,0,1,4.233,10.385,43.489,43.489,0,0,0,.027,5.183C2857.5,436.3,2842.741,446.2,2830.61,441.939Z" transform="translate(-2784.097 -352.864)" fill="#e74343"/>
      <path id="Trazado_568537" data-name="Trazado 568537" d="M2944.668,335.986c-2.225-.314-5.332-.41-6.142-1.949-.68-1.291,2.391-2.934,3.764-4.448,1.672-1.844,3.613-3.448,5.231-5.334,1.406-1.639,2.837-2.205,4.831-1.221a14.039,14.039,0,0,0,2.219.685,1.9,1.9,0,0,1-.03,2.575A51.752,51.752,0,0,1,2944.668,335.986Z" transform="translate(-2841.1 -307.692)" fill="#595959"/>
      <path id="Trazado_568538" data-name="Trazado 568538" d="M2762.759,512.476c8.33-.441,14.124-4.936,16.188-12.715.9-3.408.219-6.8-.568-10.147a14.237,14.237,0,0,1,.432,17.02A14.6,14.6,0,0,1,2762.759,512.476Z" transform="translate(-2748.225 -396.018)" fill="#08a56b"/>
      <path id="Trazado_568539" data-name="Trazado 568539" d="M2951.667,337.3c2.714-2.795,5.406-5.613,8.155-8.373a4.667,4.667,0,0,0,1.747-3.893c1.2.221,2.643.119,3.191,1.488.629,1.576-.727,2.388-1.633,3.305-2.189,2.218-4.472,4.347-6.582,6.637C2955.058,338.075,2953.559,338.564,2951.667,337.3Z" transform="translate(-2848.098 -309.005)" fill="#434343"/>
      <path id="Trazado_568540" data-name="Trazado 568540" d="M2836.356,438.681c1.708-1.057,3.814-1.157,5.459-2.449a10.939,10.939,0,0,0,4.557-10.073c1.106-1.069,1.111.331,1.293.7a8.7,8.7,0,0,1-6.41,12.241,21.04,21.04,0,0,0-3.771-.051A1.109,1.109,0,0,1,2836.356,438.681Z" transform="translate(-2787.135 -362.261)" fill="#eceaec"/>
      <path id="Trazado_568541" data-name="Trazado 568541" d="M2829.243,537.016c1.158.871,2.491.259,3.732.435.8.113,1.684-.266,2.364.456a36.773,36.773,0,0,1-12.82-.889Z" transform="translate(-2779.819 -421.078)" fill="#f64646"/>
      <path id="Trazado_568542" data-name="Trazado 568542" d="M2888.083,435.208a6.139,6.139,0,0,1-.026-5.183A9.875,9.875,0,0,1,2888.083,435.208Z" transform="translate(-2814.172 -364.514)" fill="#f64747"/>
      <path id="Trazado_568543" data-name="Trazado 568543" d="M2952.181,429.206v5.967l-.235,0V429.28Z" transform="translate(-2848.246 -364.081)" fill="#050505"/>
      <path id="Trazado_568544" data-name="Trazado 568544" d="M2768.219,428.753a34.727,34.727,0,0,1-.009,6.392A13.672,13.672,0,0,1,2768.219,428.753Z" transform="translate(-2750.909 -363.841)" fill="#d4d3d4"/>
      <path id="Trazado_568545" data-name="Trazado 568545" d="M2838.751,453.364a3.545,3.545,0,0,1,3.77.051A4.9,4.9,0,0,1,2838.751,453.364Z" transform="translate(-2788.401 -376.579)" fill="#fbf9fb"/>
      <path id="Trazado_568546" data-name="Trazado 568546" d="M2824.453,432.022l.437.469a3.847,3.847,0,0,1,0,2.824h-.471A4.476,4.476,0,0,1,2824.453,432.022Z" transform="translate(-2780.666 -365.569)" fill="#fdfdfd"/>
      <path id="Trazado_568547" data-name="Trazado 568547" d="M2917.061,435.258a4.314,4.314,0,0,1-.015-4.236A11.536,11.536,0,0,1,2917.061,435.258Z" transform="translate(-2829.505 -365.041)" fill="#faf8fa"/>
      <path id="Trazado_568548" data-name="Trazado 568548" d="M2842.977,389.823a4.372,4.372,0,0,1-4.229-.009A10.033,10.033,0,0,1,2842.977,389.823Z" transform="translate(-2788.399 -343.138)" fill="#fc6666"/>
      <path id="Trazado_568549" data-name="Trazado 568549" d="M2832.764,352.749c.8-1.363,1.8-.881,2.817-.318Z" transform="translate(-2785.236 -323.192)" fill="#fb6666"/>
      <path id="Trazado_568550" data-name="Trazado 568550" d="M2945.159,445.394c-.731-.7-.477-1.512-.126-2.332l.168,1.958A.316.316,0,0,1,2945.159,445.394Z" transform="translate(-2844.409 -371.406)" fill="#f54747"/>
      <path id="Trazado_568551" data-name="Trazado 568551" d="M2847.73,352.559c.705-.809,1.545-.36,2.363-.141l-1.544.2Z" transform="translate(-2793.148 -323.313)" fill="#fa6666"/>
      <path id="Trazado_568552" data-name="Trazado 568552" d="M2740.737,421.031c.6.519.518,1.154.318,1.87-.531-.247-.242-.753-.411-1.079Z" transform="translate(-2736.533 -359.759)" fill="#f96565"/>
      <path id="Trazado_568553" data-name="Trazado 568553" d="M2925.63,442.012c.613.505.51,1.147.358,1.834-.594-.172-.245-.695-.417-1Q2925.6,442.428,2925.63,442.012Z" transform="translate(-2834.301 -370.851)" fill="#f96565"/>
      <path id="Trazado_568554" data-name="Trazado 568554" d="M2764.715,468.513l-1.17-.176c.529-.546,1.068-.265,1.541-.354C2765.474,468.518,2765.081,468.506,2764.715,468.513Z" transform="translate(-2748.64 -384.582)" fill="#fa6666"/>
      <path id="Trazado_568555" data-name="Trazado 568555" d="M2771.134,476.846a1.6,1.6,0,0,1-2.35-.024A4.672,4.672,0,0,1,2771.134,476.846Z" transform="translate(-2751.41 -389.181)" fill="#5ac698"/>
      <path id="Trazado_568556" data-name="Trazado 568556" d="M2848.737,381.516c.515-.6,1.15-.522,2.19-.239l-1.4.317Z" transform="translate(-2793.68 -338.627)" fill="#fefdfe"/>
      <path id="Trazado_568557" data-name="Trazado 568557" d="M2925.524,425.658l.25-1.483c.369,1.087.473,1.725-.182,2.284Z" transform="translate(-2834.277 -361.421)" fill="#f96565"/>
      <path id="Trazado_568558" data-name="Trazado 568558" d="M2855.889,537.466l-1.812-.2c1-.434,1.638-.457,2.191.15l-.182.086Z" transform="translate(-2796.504 -421.045)" fill="#f44747"/>
      <path id="Trazado_568559" data-name="Trazado 568559" d="M2759.268,431.278v4.067h-.233v-4.094Z" transform="translate(-2746.256 -365.162)" fill="#f46363"/>
      <path id="Trazado_568560" data-name="Trazado 568560" d="M2769.459,493.072a4.854,4.854,0,0,1-1.441,3.612c-2.5,2.7-4.954,5.446-7.5,8.1-2.678,2.791-5.94,2.768-8.628-.01-1.36-1.406-2.7-2.838-3.939-4.353a4.817,4.817,0,0,1,.38-6.772,4.648,4.648,0,0,1,6.575-.092c1.212,1.163,1.8.922,2.706-.184a41.659,41.659,0,0,1,3.511-3.788,4.613,4.613,0,0,1,5.425-.959A4.739,4.739,0,0,1,2769.459,493.072Z" transform="translate(-2739.756 -395.236)" fill="#000101"/>
      <path id="Trazado_568561" data-name="Trazado 568561" d="M2787.128,435.14a8.426,8.426,0,0,1,0-6.123A17.037,17.037,0,0,1,2787.128,435.14Z" transform="translate(-2760.804 -363.981)" fill="#f4f2f3"/>
      <path id="Trazado_568562" data-name="Trazado 568562" d="M2787.773,435.14q0-3.061,0-6.123A8.794,8.794,0,0,1,2787.773,435.14Z" transform="translate(-2761.449 -363.981)" fill="#fefdfe"/>
      <path id="Trazado_568563" data-name="Trazado 568563" d="M2898.233,432.16v3.165l-.229.006v-3.079Z" transform="translate(-2819.727 -365.642)" fill="#fdfcfd"/>
      <path id="Trazado_568564" data-name="Trazado 568564" d="M2843.714,463.346a3.451,3.451,0,0,1-2.76,0Z" transform="translate(-2789.566 -382.13)" fill="#f56464"/>
      <path id="Trazado_568565" data-name="Trazado 568565" d="M2825.753,435.842v-2.824A2.141,2.141,0,0,1,2825.753,435.842Z" transform="translate(-2781.529 -366.096)" fill="#f3f1f2"/>
      <path id="Trazado_568566" data-name="Trazado 568566" d="M2755.722,499.843c1.062.111,1.541,1,2.186,1.656,1.88,1.91,2.834,1.929,4.671-.006,1.456-1.532,2.879-3.1,4.305-4.657.72-.788,1.523-1.613,2.567-.7,1.073.939.407,1.938-.43,2.575-2.814,2.14-4.5,5.316-7.174,7.617-1.382,1.188-2.264,1.155-3.343.089-1.279-1.265-2.445-2.644-3.65-3.982a1.534,1.534,0,0,1-.413-1.708A1.5,1.5,0,0,1,2755.722,499.843Z" transform="translate(-2743.767 -399.255)" fill="#f3f1f2"/>
    </g>
  </g>
</svg>
